<?xml version="1.0" encoding="UTF-8"?>
<!DOCTYPE svg PUBLIC "-//W3C//DTD SVG 1.1//EN" "http://www.w3.org/Graphics/SVG/1.1/DTD/svg11.dtd">
<!-- Creator: CorelDRAW 2020 (64-Bit) -->
<svg xmlns="http://www.w3.org/2000/svg" xml:space="preserve" width="142.417mm" height="132.468mm" version="1.1" style="shape-rendering:geometricPrecision; text-rendering:geometricPrecision; image-rendering:optimizeQuality; fill-rule:evenodd; clip-rule:evenodd"
viewBox="0 0 2849.76 2650.67"
 xmlns:xlink="http://www.w3.org/1999/xlink"
 xmlns:xodm="http://www.corel.com/coreldraw/odm/2003">
 <defs>
  <style type="text/css">
   <![CDATA[
    .fil1 {fill:#9D9E9E}
    .fil23 {fill:#898989}
    .fil22 {fill:#727271}
    .fil24 {fill:#5B5B5B}
    .fil0 {fill:#2B2A29}
    .fil18 {fill:#E31E24}
    .fil4 {fill:#E31E24}
    .fil20 {fill:#BA2322}
    .fil9 {fill:#EEBD91}
    .fil5 {fill:#E1A27A}
    .fil11 {fill:#D7956D}
    .fil16 {fill:#80251E}
    .fil8 {fill:#76471D}
    .fil17 {fill:#69231C}
    .fil12 {fill:#5D391C}
    .fil6 {fill:#AD6D58}
    .fil21 {fill:#B4B4B4}
    .fil14 {fill:#4A2F26}
    .fil3 {fill:#21608D}
    .fil15 {fill:#1D4366}
    .fil19 {fill:#FEFEFE;fill-rule:nonzero}
    .fil2 {fill:#C5C6C6;fill-rule:nonzero}
    .fil10 {fill:#E29278;fill-rule:nonzero}
    .fil13 {fill:#D7956D;fill-rule:nonzero}
    .fil7 {fill:#AD6D58;fill-rule:nonzero}
   ]]>
  </style>
     <clipPath id="id0">
      <path d="M212.53 1754.67l2184.33 0 0 895.99 -2184.33 0 0 -895.99z"/>
     </clipPath>
    <clipPath id="id1">
     <rect x="2373.01" y="2070.97" width="197.52" height="176.26"/>
    </clipPath>
 </defs>
 <g id="Слой_x0020_1">
  <metadata id="CorelCorpID_0Corel-Layer"/>
  <g id="_2498831464768">
   <path class="fil0" d="M1348.21 2203l250.29 -71.74c142.15,-6.23 165.21,292.66 35.28,303.59l-40.76 -8.34 -0 0 -226.14 -46.26 -40.77 -8.34c-71.07,-22.42 -86.85,-119.91 -20.6,-156.68l42.7 -12.24 0 0z"/>
   <path class="fil1" d="M1348.21 2203l250.29 -71.74c142.15,-6.23 165.21,292.66 35.28,303.59l-40.76 -8.34c84.68,-1.49 50.21,-300.81 -37.21,-283.01l-207.59 59.5 0 0z"/>
   <path class="fil2" d="M1381.9 2346c1.46,4.03 -0.4,8.5 -4.16,9.99 -3.75,1.49 -7.98,-0.58 -9.44,-4.61 -10.38,-24.81 -22.37,-76.37 -9.68,-110.4 1.73,-3.86 6.08,-5.43 9.73,-3.52 3.64,1.91 5.2,6.59 3.47,10.44 -9.6,31.26 2.35,79.88 10.08,98.1z"/>
   <path class="fil2" d="M1418.35 2349.54c1.46,4.03 -0.4,8.5 -4.16,9.99 -3.75,1.49 -7.98,-0.58 -9.44,-4.61 -10.38,-24.81 -21.24,-93.18 -8.55,-127.21 1.73,-3.86 6.08,-5.43 9.73,-3.52 3.64,1.91 5.2,6.58 3.47,10.44 -9.6,31.27 1.21,96.69 8.95,114.91z"/>
   <path class="fil2" d="M1455.81 2354.48c1.46,4.03 -0.4,8.5 -4.16,9.99 -3.75,1.49 -7.98,-0.58 -9.44,-4.61 -10.38,-24.81 -22.02,-108.35 -9.33,-142.38 1.73,-3.86 6.08,-5.43 9.73,-3.52 3.64,1.91 5.2,6.59 3.47,10.44 -9.6,31.27 1.99,111.86 9.73,130.09z"/>
   <g>
    <g style="clip-path:url(#id0)">
     <image x="212.53" y="1754.67" width="2184.33" height="895.99" xlink:href="404_2_Images\404_2_ImgID1.png"/>
    </g>
   </g>
   <path class="fil3" d="M1005.22 1961.53c-193.13,-49.74 -405.69,-83.76 -593.24,-47.11 -32.92,6.43 -58.49,26.1 -73.16,56.26l-16.34 33.59c-14.78,30.37 -5.78,66.22 21.58,86.03 263.45,190.66 603.51,328.01 960.13,316.15 356.62,11.86 696.7,-125.49 960.15,-316.15 27.36,-19.8 36.35,-55.65 21.58,-86.03l-16.34 -33.59c-14.67,-30.16 -40.24,-49.82 -73.16,-56.26 -187.54,-36.65 -400.13,-2.64 -593.26,47.11 -28.49,-139.03 -151.52,-243.6 -298.97,-243.6 -147.45,0 -270.48,104.57 -298.97,243.6z"/>
   <path class="fil4" d="M1165.89 713.34c26.55,-174.07 251.36,-174.07 277.91,0l7.9 111.33c-98.73,29.07 -197.07,28.96 -295.03,0l9.22 -111.33z"/>
   <path class="fil5" d="M1535.62 390.19c116.32,-55.87 94.06,133.52 34.6,128.14 -11.02,-1 -22.3,-2.96 -33.69,-7.53l-0.91 -120.61z"/>
   <path class="fil6" d="M1618.48 449.47c-3.03,35.67 -22.02,71.24 -48.26,68.86 -11.02,-1 -22.3,-2.96 -33.69,-7.53l-0.22 -28.61c35.27,10.23 72.27,7.68 82.17,-32.73z"/>
   <path class="fil7" d="M1548.61 441.44c-0.45,5.13 0.71,11.58 6.79,12.15 5.99,0.55 8.12,-5.77 8.56,-10.73 0,-0.01 0,-0.02 0,-0.04 0.6,-7 0.97,-13.92 1.84,-20.91 0.7,-5.52 1.52,-10.6 3.79,-15.71 1.17,-2.24 2.29,-3.79 4.23,-5.41 2.24,-1.76 4.22,-2.51 7,-2.92 -3.03,-0.66 -5.31,-0.72 -8.34,-0.01 -3.1,0.88 -5.21,2.12 -7.69,4.2 -5.4,4.68 -8.33,9.93 -11.03,16.53 -2.87,7.72 -4.34,14.62 -5.14,22.81 -0,0.01 -0,0.02 -0,0.04z"/>
   <path class="fil5" d="M1072.75 390.19c-116.32,-55.87 -94.06,133.52 -34.6,128.14 11.02,-1 22.3,-2.96 33.69,-7.53l0.91 -120.61z"/>
   <path class="fil6" d="M989.89 449.47c3.03,35.67 22.02,71.24 48.26,68.86 11.02,-1 22.3,-2.96 33.69,-7.53l0.22 -28.61c-35.27,10.23 -72.27,7.68 -82.17,-32.73z"/>
   <path class="fil7" d="M1059.77 441.44c0.45,5.13 -0.71,11.58 -6.79,12.15 -5.99,0.55 -8.12,-5.77 -8.56,-10.73 -0,-0.01 -0,-0.02 -0,-0.04 -0.6,-7 -0.97,-13.92 -1.84,-20.91 -0.7,-5.52 -1.52,-10.6 -3.79,-15.71 -1.17,-2.24 -2.29,-3.79 -4.23,-5.41 -2.23,-1.76 -4.21,-2.51 -7,-2.92 3.03,-0.66 5.32,-0.72 8.34,-0.01 3.1,0.88 5.21,2.12 7.69,4.2 5.4,4.68 8.33,9.93 11.03,16.53 2.87,7.72 4.34,14.62 5.14,22.81 0,0.01 0,0.02 0,0.04z"/>
   <path class="fil8" d="M1106.59 173.21c-38.25,100.38 -60.58,318.79 -62.72,532.92 26.22,28.88 55.27,52.74 90.14,70.02l4.33 -26.76 5.05 31.18c42.35,18.96 106.67,26.7 160.8,26.92 12.14,-0.05 24.79,-0.48 37.59,-1.32l9.19 -39.77 12.82 37.9c37.12,-3.87 73.77,-11.44 101.2,-23.72l5.05 -31.18 4.33 26.76c34.87,-17.28 63.92,-41.14 90.14,-70.02 -2.14,-214.13 -24.46,-432.54 -62.72,-532.92 -41.4,-45.87 -120.17,-66.87 -197.6,-65.06 -77.43,-1.81 -156.19,19.19 -197.6,65.06z"/>
   <path class="fil9" d="M1375.77 552.61c52.97,-9.78 104.68,-29.94 151.41,-59.34 -2.89,-130.97 -17.37,-216.83 -46.07,-271.32 -4.67,-8.87 -10.77,-15.34 -19.29,-20.44 -37.27,-22.33 -98.5,-32.85 -157.63,-32.12 -59.14,-0.73 -120.37,9.8 -157.63,32.12 -8.51,5.1 -14.61,11.57 -19.29,20.44 -28.7,54.49 -43.18,140.35 -46.07,271.32 44.34,27.89 93.16,47.47 143.29,57.75 17.78,-2.62 46.96,-4 79.91,-3.4 28.19,0.52 53.56,2.4 71.37,4.98z"/>
   <path class="fil8" d="M1436.81 189.31c70.26,-56.18 16.13,-163.67 -101.18,-189.31l-0.48 24.86c-42.81,-17.24 -87.28,-23.71 -134.03,-15.3 -0.2,16.31 1.16,29.05 5.19,37 -33.1,-8.93 -65.42,-6.83 -97.36,0.63 7.51,35.09 18.85,60.99 50.31,88.25 -10.9,-1.66 -24.68,-0.55 -36.14,3.59 9.69,64.15 50.7,102.02 134.45,104.02 80.3,0.86 126.71,-71.93 179.23,-53.74z"/>
   <path class="fil10" d="M1402.02 582.54c-63.15,69.49 -163.61,47.43 -195.66,0.27 50.47,31.62 122.81,41.21 195.66,-0.27z"/>
   <polygon class="fil11" points="1266.31,297.83 1164.63,306.83 1138.93,333.08 1148.82,392.51 1168.5,402.3 1209.71,402.3 1242.74,385.29 1253.65,372.54 "/>
   <path class="fil12" d="M1255.14 277.1c-25.75,0.34 -51.5,0.73 -76.32,6.2 -17.56,3.87 -30.68,17.34 -36.36,37.34l-3.53 12.44c33.89,-11.09 71.37,-15.36 110.29,-16.89 5.39,-0.21 9.86,-2.81 13.2,-7.67 3.34,-4.86 4.61,-10.63 3.76,-17.01l-0.5 -3.77c-0.82,-6.14 -5.35,-10.71 -10.53,-10.64z"/>
   <polygon class="fil11" points="1341.57,297.48 1443.75,306.83 1468.99,333.08 1459.56,392.51 1435.14,402.3 1412.07,402.3 1387.1,398.95 1366.51,387.53 1354.72,372.54 "/>
   <path class="fil6" d="M1287.68 405.89c-6.5,43.33 -17.59,79.1 -34.35,105.5 14.79,16.42 34.37,24.7 56.27,29.02 -15.28,-6.14 -27.96,-15.9 -32.57,-36.96 13.59,-30.82 16.02,-63.53 10.66,-97.57zm40.68 132.26c8.3,-8.24 18.24,-21.18 24.17,-33.86 7.42,23.84 -1.78,34.2 -24.17,33.86z"/>
   <path class="fil8" d="M1506.83 100.91c0,0 -2.16,22.44 -16.96,39.77 -14.79,17.33 -36.11,23.41 -36.62,22.98 -0.51,-0.43 2.16,-22.44 16.96,-39.77 14.8,-17.33 36.62,-22.98 36.62,-22.98z"/>
   <path class="fil8" d="M1520.59 139.33c0,0 -9.96,14.54 -26.63,20.81 -16.67,6.27 -33.56,2.38 -33.75,1.89 -0.18,-0.49 9.96,-14.54 26.63,-20.81 16.67,-6.27 33.75,-1.89 33.75,-1.89z"/>
   <ellipse class="fil9" cx="1412.08" cy="416.59" rx="53.54" ry="10.64"/>
   <ellipse class="fil9" cx="1201.07" cy="416.59" rx="53.54" ry="10.64"/>
   <path class="fil13" d="M1446.58 414.36c-24.99,34.38 -65.97,21.94 -79.56,0.18 20.16,10.58 49.5,15.07 79.56,-0.18z"/>
   <path class="fil13" d="M1242.22 414.36c-24.99,34.38 -65.97,21.94 -79.56,0.18 20.16,10.58 49.5,15.07 79.56,-0.18z"/>
   <path class="fil9" d="M1473.79 352.57c3.03,67.61 -93.97,80.41 -119.07,19.97 16.72,-47.2 90.68,-49.1 119.07,-19.97z"/>
   <path class="fil9" d="M1134.58 352.57c-3.03,67.61 93.97,80.41 119.07,19.97 -16.72,-47.2 -90.68,-49.1 -119.07,-19.97z"/>
   <path class="fil14" d="M1253.65 372.54c-14.73,47.2 -79.84,49.1 -104.83,19.97 39.02,11.13 74.5,6.79 104.83,-19.97z"/>
   <path class="fil14" d="M1354.72 372.54c14.73,47.2 79.84,49.1 104.83,19.97 -39.02,11.13 -74.5,6.79 -104.83,-19.97z"/>
   <path class="fil12" d="M1352.77 277.1c25.75,0.34 51.5,0.73 76.32,6.2 17.56,3.87 30.68,17.34 36.36,37.34l3.53 12.44c-33.89,-11.09 -71.37,-15.36 -110.29,-16.89 -5.39,-0.21 -9.86,-2.81 -13.2,-7.67 -3.34,-4.86 -4.61,-10.63 -3.76,-17.01l0.5 -3.77c0.82,-6.14 5.35,-10.71 10.53,-10.64z"/>
   <path class="fil0" d="M1001.96 1961.84c203.89,45.16 405.35,44.63 604.46,0l10.41 -47.4c-206,43.43 -414.39,43.94 -625.27,-0.01l10.41 47.41z"/>
   <path class="fil15" d="M685.61 1974.73c200.82,28.57 451.13,150.28 636,288.39 -182.79,-98.97 -430.89,-223.15 -636,-288.39z"/>
   <path class="fil15" d="M1262.21 2009.31l16.65 143.32 80.8 38.49 -62.22 -51.97 -3.34 -126.96 -0.44 -16.62c-11.04,-0.09 -22.08,-0.32 -33.14,-0.68l1.68 14.43z"/>
   <path class="fil15" d="M1294.19 2015.1c55.84,-0.14 112.14,-5.74 168.88,-16.34 25.03,-4.67 50.14,-10.32 75.33,-16.89 21.56,-5.63 43.18,-11.94 64.86,-18.91 -0.02,-0.1 -0.04,-0.2 -0.06,-0.3 -1.64,0.37 -3.29,0.73 -4.93,1.08 -100.92,22 -202.45,32.68 -304.59,31.82 -11.04,-0.09 -22.08,-0.32 -33.14,-0.68 -83.21,-2.73 -166.83,-13.11 -250.86,-31.25 -1.5,-0.32 -2.99,-0.65 -4.49,-0.98 -0.03,0.16 -0.06,0.32 -0.1,0.48 30.51,11.5 61.18,21 92.01,28.6 6.25,1.54 12.5,3 18.75,4.38 48.6,10.74 97.6,16.8 146.97,18.5 10.44,0.36 20.89,0.52 31.36,0.5z"/>
   <path class="fil15" d="M1920.79 1981.28c-222.78,33.51 -486.66,136.97 -690.75,292 202.14,-111.55 463.53,-217.72 690.75,-292z"/>
   <path class="fil0" d="M1279.09 2225.91l-253.76 -58.32c-142.28,1.35 -149.4,301.03 -19.07,305.04l40.26 -10.5 0 0 223.35 -58.23 40.26 -10.5c69.77,-26.17 80.35,-124.36 12.23,-157.56l-43.29 -9.95 0 -0z"/>
   <path class="fil1" d="M1279.09 2225.91l-253.76 -58.32c-142.28,1.35 -149.4,301.03 -19.07,305.04l40.26 -10.5c-84.64,3.02 -66.14,-297.72 22.1,-284.59l210.47 48.37 0 -0z"/>
   <path class="fil2" d="M1253.07 2370.51c-1.24,4.1 0.85,8.47 4.68,9.75 3.83,1.28 7.94,-1 9.18,-5.1 9.05,-25.33 18.27,-77.45 3.79,-110.76 -1.93,-3.76 -6.36,-5.1 -9.9,-3 -3.54,2.1 -4.84,6.85 -2.91,10.61 11.25,30.71 1.91,79.89 -4.84,98.5z"/>
   <path class="fil2" d="M1216.85 2375.98c-1.24,4.1 0.85,8.47 4.68,9.75 3.83,1.28 7.94,-1 9.18,-5.1 9.05,-25.33 16.25,-94.18 1.77,-127.49 -1.93,-3.76 -6.36,-5.1 -9.9,-3 -3.54,2.1 -4.84,6.85 -2.91,10.61 11.26,30.71 3.93,96.62 -2.82,115.23z"/>
   <path class="fil2" d="M1179.71 2382.9c-1.24,4.1 0.86,8.47 4.68,9.75 3.83,1.28 7.94,-1 9.18,-5.1 9.05,-25.33 16.22,-109.37 1.74,-142.68 -1.93,-3.76 -6.36,-5.1 -9.9,-3 -3.54,2.1 -4.84,6.85 -2.91,10.61 11.26,30.71 3.96,111.81 -2.79,130.42z"/>
   <path class="fil16" d="M1468.81 1148.91l290.87 -131.49c210.21,410.21 362.7,654.55 616.52,831.32 -6.89,63.15 -39.3,107.71 -103.06,102.04 -416.6,-113.05 -654.87,-456.17 -804.32,-801.87z"/>
   <path class="fil17" d="M1726.85 1390.91l-14.29 177.65c138.88,174.93 319.99,316.94 560.57,382.22 12.7,1.13 24.15,0.27 34.4,-2.34 -220.22,-124.49 -383.16,-302.17 -576.73,-574.14 -1.27,5.55 -2.59,11.09 -3.95,16.61z"/>
   <path class="fil6" d="M2397.14 1811.81l-13.32 10.02c5.91,9.69 15.56,17.92 24.79,23.98 11.59,7.62 28.32,15.44 42.27,16.95l22.77 0.71c-9.63,-8.68 -15.78,-20.78 -18.27,-33.71l-1.35 0.52c-24.09,9.3 -41.28,-0.85 -56.89,-18.48zm57.19 10.15c-0,-0.01 -0,-0.02 -0,-0.03l-0.49 -6.32 53.21 15.59 0.69 0.56c23.02,18.89 48.91,48.18 28.43,78.32l-1.14 1.68 -57.72 6.16 52.13 33.82c27.95,1.62 50.91,8.94 74.85,23.32 4.26,2.56 6.26,7.53 4.96,12.33 -1.3,4.8 -5.54,8.08 -10.51,8.13l-74.01 0.84 -51.12 -17.4 41.43 48.18c26.1,9.54 57.53,24.74 71.55,49.99 2.24,4.03 1.77,8.89 -1.18,12.42 -2.96,3.53 -7.66,4.84 -12.02,3.35l-82.38 -28.23 -56.45 -45.11 6.29 43.56c14.61,14.06 23.97,30.92 28.31,50.81 1,4.61 -0.95,9.23 -4.96,11.71 -3.99,2.47 -9.03,2.17 -12.69,-0.77l-46.49 -37.27 -20.8 -63.98c-3.77,-11.59 -11.43,-20 -22.62,-24.84 -38.95,-16.83 -99.88,-48.65 -106.03,-96.2 -1.96,-15.15 1.93,-29.61 9.12,-42.9l0.23 -0.43 53.43 -61.07c9.19,-10.51 20.46,-16.77 34.23,-19.03 22.13,-3.63 43.59,-8.39 64.63,-16.31l4.04 -1.52 1.57 4.03c8.2,21.04 14.92,40.62 31.49,56.62z"/>
   <path class="fil9" d="M2268.54 1861.75l53.1 -60.7c8.53,-9.75 18.87,-15.5 31.65,-17.59 22.34,-3.66 43.7,-8.34 65.46,-16.53 8.69,22.29 15.63,42.45 33.69,59.29 -20.57,7.93 -36.48,1.39 -54.68,-20.35l-19.64 14.77c12.61,24.95 50.43,44.19 72.44,46.5l38.66 1.21c-18.95,-8.12 -29.05,-27.42 -30.56,-46.75l46.28 13.56c33.33,27.35 41.89,51.43 27.59,72.48l-67.96 7.25 63.45 41.16c29.55,1.54 51.77,9.41 74,22.77 2.59,1.55 3.78,4.52 2.99,7.44 -0.79,2.91 -3.32,4.87 -6.34,4.91l-73.26 0.83 -65.58 -22.33 52.62 61.2c39.2,14.18 60.4,30.59 70.29,48.39 1.36,2.45 1.09,5.34 -0.71,7.49 -1.8,2.15 -4.6,2.93 -7.25,2.02l-81.66 -27.98 -64.49 -51.54 8.09 56.01c15.47,14.47 24.14,31.25 28.15,49.61 0.61,2.8 -0.56,5.55 -2.99,7.06 -2.44,1.51 -5.42,1.33 -7.66,-0.46l-45.47 -36.45 -20.39 -62.73c-4.15,-12.78 -12.7,-22.17 -25.04,-27.5 -83.6,-36.12 -123.13,-80.68 -94.79,-133.01z"/>
   <path class="fil6" d="M2489.24 1868.34c3.19,10.99 11.15,19.61 21.57,27 -12.32,-5.39 -21.52,-12.99 -24.5,-25.03l-7.02 -2.29 -2.9 -5.09 12.85 5.4z"/>
   <path class="fil6" d="M2464.6 1914.88c-16.06,-16.07 -18.12,-31.94 -12.81,-47.72l1.82 -4.25 1.59 4.36c-5.51,18.68 0.38,34.04 15.98,46.91l-1.54 2.09 -5.03 -1.39z"/>
   <path class="fil6" d="M2378.14 1820.63l-10.23 38.86c-2.9,11.03 -10.45,19.19 -21.22,22.95l-21.29 7.43 0.42 1.17 21.27 -4.75c12.6,-2.81 21.91,-11.88 25.04,-24.41l9.02 -36.08 0.73 -5.16 -3.74 -0z"/>
   <polygon class="fil6" points="2459.85,1969.64 2456.26,1950.02 2463.49,1968.34 2470.72,1973.34 2468.22,1975.14 "/>
   <polygon class="fil6" points="2426.27,2006.55 2428.07,1986.69 2430.12,2006.28 2434.7,2014.05 2430.01,2018.57 "/>
   <polygon class="fil6" points="2488.85,1870.4 2506.83,1869.18 2502.89,1867.46 2489.24,1868.34 2480.79,1865.93 2479.74,1867.4 "/>
   <path class="fil16" d="M1140.83 1148.91l-290.87 -131.49c-210.21,410.21 -362.7,654.55 -616.52,831.32 6.89,63.15 39.3,107.71 103.06,102.04 416.6,-113.05 654.87,-456.17 804.32,-801.87z"/>
   <path class="fil17" d="M882.79 1390.91l14.29 177.65c-138.88,174.93 -319.99,316.94 -560.57,382.22 -12.7,1.13 -24.15,0.27 -34.4,-2.34 220.22,-124.49 383.16,-302.17 576.73,-574.14 1.27,5.55 2.59,11.09 3.95,16.61z"/>
   <path class="fil6" d="M212.51 1811.81l13.32 10.02c-5.91,9.69 -15.56,17.92 -24.79,23.98 -11.59,7.62 -28.31,15.44 -42.27,16.95l-22.77 0.71c9.63,-8.68 15.78,-20.78 18.27,-33.71l1.35 0.52c24.09,9.3 41.28,-0.85 56.89,-18.48zm-57.19 10.15c0,-0.01 0,-0.02 0,-0.03l0.49 -6.32 -53.21 15.59 -0.69 0.56c-23.02,18.89 -48.91,48.18 -28.43,78.32l1.14 1.68 57.72 6.16 -52.13 33.82c-27.95,1.62 -50.91,8.94 -74.85,23.32 -4.26,2.56 -6.26,7.53 -4.96,12.33 1.3,4.8 5.54,8.08 10.51,8.13l74 0.84 51.12 -17.4 -41.43 48.18c-26.1,9.54 -57.53,24.74 -71.55,49.99 -2.24,4.03 -1.77,8.89 1.18,12.42 2.96,3.53 7.66,4.84 12.02,3.35l82.38 -28.23 56.44 -45.11 -6.29 43.56c-14.61,14.06 -23.97,30.92 -28.31,50.81 -1,4.61 0.95,9.23 4.96,11.71 3.99,2.47 9.04,2.17 12.7,-0.77l46.49 -37.27 20.8 -63.98c3.77,-11.59 11.44,-20 22.62,-24.84 38.95,-16.83 99.88,-48.65 106.03,-96.2 1.96,-15.15 -1.93,-29.61 -9.12,-42.9l-0.23 -0.43 -53.43 -61.07c-9.19,-10.51 -20.46,-16.77 -34.24,-19.03 -22.12,-3.63 -43.59,-8.39 -64.63,-16.31l-4.04 -1.52 -1.57 4.03c-8.2,21.04 -14.92,40.62 -31.49,56.62z"/>
   <path class="fil9" d="M341.11 1861.75l-53.11 -60.7c-8.53,-9.75 -18.87,-15.5 -31.65,-17.59 -22.34,-3.66 -43.7,-8.34 -65.47,-16.53 -8.69,22.29 -15.63,42.45 -33.69,59.29 20.56,7.93 36.48,1.39 54.68,-20.35l19.64 14.77c-12.61,24.95 -50.43,44.19 -72.44,46.5l-38.66 1.21c18.95,-8.12 29.05,-27.42 30.56,-46.75l-46.28 13.56c-33.33,27.35 -41.89,51.43 -27.59,72.48l67.96 7.25 -63.45 41.16c-29.55,1.54 -51.77,9.41 -74,22.77 -2.59,1.55 -3.78,4.52 -2.99,7.44 0.79,2.91 3.32,4.87 6.34,4.91l73.26 0.83 65.58 -22.33 -52.63 61.2c-39.2,14.18 -60.4,30.59 -70.29,48.39 -1.36,2.45 -1.09,5.34 0.71,7.49 1.8,2.15 4.6,2.93 7.25,2.02l81.66 -27.98 64.49 -51.54 -8.09 56.01c-15.47,14.47 -24.14,31.25 -28.14,49.61 -0.61,2.8 0.55,5.55 2.99,7.06 2.44,1.51 5.42,1.33 7.66,-0.46l45.47 -36.45 20.39 -62.73c4.16,-12.78 12.7,-22.17 25.04,-27.5 83.6,-36.12 123.12,-80.68 94.79,-133.01z"/>
   <path class="fil6" d="M120.4 1868.34c-3.19,10.99 -11.15,19.61 -21.57,27 12.32,-5.39 21.52,-12.99 24.5,-25.03l7.02 -2.29 2.9 -5.09 -12.85 5.4z"/>
   <path class="fil6" d="M145.05 1914.88c16.06,-16.07 18.12,-31.94 12.81,-47.72l-1.82 -4.25 -1.59 4.36c5.5,18.68 -0.38,34.04 -15.98,46.91l1.54 2.09 5.03 -1.39z"/>
   <path class="fil6" d="M231.5 1820.63l10.23 38.86c2.91,11.03 10.45,19.19 21.22,22.95l21.29 7.43 -0.41 1.17 -21.27 -4.75c-12.6,-2.81 -21.91,-11.88 -25.04,-24.41l-9.03 -36.08 -0.73 -5.16 3.74 -0z"/>
   <polygon class="fil6" points="149.79,1969.64 153.38,1950.02 146.16,1968.34 138.92,1973.34 141.42,1975.14 "/>
   <polygon class="fil6" points="183.37,2006.55 181.57,1986.69 179.52,2006.28 174.95,2014.05 179.64,2018.57 "/>
   <polygon class="fil6" points="120.79,1870.4 102.82,1869.18 106.76,1867.46 120.4,1868.34 128.85,1865.93 129.91,1867.4 "/>
   <path class="fil18" d="M1020.71 1915.53l-118.09 -540.66c-34.64,-102.94 -44.05,-247.09 -32.33,-367.42l303.09 -199.96 130.81 12.1 130.81 -12.1 303.09 199.96c11.72,120.33 2.31,264.47 -32.33,367.42l-118.09 540.66c-186.76,42.07 -375.72,42.57 -566.96,0z"/>
   <path class="fil19" d="M1301.12 1285.89c-6.12,6.77 -9.9,23.05 -3.56,30.98 -3.42,-0.28 -7.33,-0.69 -11.44,-1 -3.21,-9.26 -0.11,-24.55 1.69,-26.45 5.09,-2.33 9.82,-4.05 13.3,-3.53zm-48.11 -64.03c16.17,0.23 33.7,0.49 49.01,-4.33 35.52,-11.15 -23.17,-55.71 19.85,-69.44 9.64,-3.07 24.41,1.17 28,11.5 3.1,8.93 2.15,16.6 2.33,25.77 0.36,18.37 13.94,22 29.2,17.57l66.76 -21.94c9.09,11.73 39.31,52.77 16.15,63.64 -7.76,3.65 -18.67,1.21 -27.64,4.35 -12.94,4.54 -16.02,17.51 -11.1,29.45 7.85,18.99 24.68,14.61 38.83,6.49 11.6,-6.67 22.34,-7.59 26.68,7.15 6.88,23.44 5.55,43.26 -0.09,66.17 -26.72,-1.84 -55.51,-4.2 -81.65,1.26 -29.14,6.11 -6.31,37.04 -5.45,49.02 2,28.12 -38.74,35.13 -48.32,14.47 -3.82,-8.23 0.76,-20.34 -2.91,-31.04 -4.72,-13.74 -14.71,-14.81 -27.17,-10.35 -14.72,5.28 -28.51,12.52 -42.27,19.87 -10.78,-16.61 -28.41,-47.5 -27.15,-64.52 1.25,-17.04 31.63,-10.48 42.21,-9.72 37.63,2.73 29.55,-47.7 4.38,-51.48 -14.42,-2.17 -25.98,10.8 -38.02,12.43 -12.39,1.68 -16.2,-4.41 -17.7,-16.02 -1.61,-15.86 2.27,-34.38 6.09,-50.28zm88.48 170.28l-9.81 15.69 -18.86 -9.9c3.81,-1.76 7.66,-3.42 11.56,-4.95l3.97 2.1c0.92,-1.46 1.87,-3 2.84,-4.59 4.64,-1.54 7.96,-1.95 10.3,1.66zm-75.88 0.25c-5.25,13.26 6,33.92 -14.92,44.24 -18.93,9.33 -48.02,-2.49 -46.16,-28.46 0.47,-6.58 4.24,-13.61 6.5,-19.9l0.01 0c3.71,-12.69 5.85,-21.1 -8.1,-24.02 -26.42,-5.54 -56.79,-2.78 -84.4,-0.9 -6.43,-25.96 -8.77,-46.23 -1.01,-72.66 5.36,-18.26 19.7,-18.06 33.75,-10l0 0.02c32.85,18.88 35.29,-11.48 32.9,-18.4 -1.23,-3.56 -3.89,-6.58 -8.09,-8.34l-0.01 0.01 -1.21 -0.46 0.01 -0.01c-10.38,-3.54 -34.01,2.38 -38.83,-17.51 -1.47,-6.09 -0.24,-12.92 2.14,-18.93l0.02 0c6.37,-16.05 14.77,-28.36 25.23,-41.84l19.86 7.17 0 -0c11.11,3.77 49.57,17.22 58.99,17.39 14.17,0.26 14,-10.41 13.94,-20.24 -0.09,-14.37 0.5,-28.44 16.15,-34.87 10.48,-4.3 21.24,-2.53 29.96,3.13 -2.37,2.47 -4.09,5.22 -5.26,8.19 -11.39,-7.65 -26.19,-3.23 -29.1,5.19l-0.01 0c-5.3,15.29 3.66,35.1 -12.04,44.9 -7.35,4.59 -16.98,3.94 -25.42,1.5l-63.71 -20.83c-7.76,10.36 -14.83,21.84 -19.58,33.87l0.01 0c-11.06,27.96 19.59,18.55 32.42,24.31 26.1,11.71 15.16,50.83 -8.85,51.74 -7.98,0.31 -16.6,-3.11 -24.35,-7.56l-0.01 0.01c-4.89,-2.81 -9.42,-4.44 -12.85,-3.89l0 0c-9.9,1.64 -11.32,33.57 -11.22,40.01 0.15,9.08 1.48,18.19 3.67,27.84 25.86,-1.8 53.4,-3.68 78.86,1.64 24.23,5.08 20.13,25.44 13.11,42.25l-0 -0c-3.97,9.57 -6.62,17.89 0.98,26.04 8.68,9.32 28.66,10.07 34.29,-2.07 3.69,-7.97 -3.43,-24.78 6.79,-38.64 1.8,3.46 3.67,6.85 5.54,10.08zm29.52 -183.59c-1.88,-6.95 0.6,-17.27 3.4,-23.92 4.93,14.3 10.84,20.38 -3.4,23.92z"/>
   <path class="fil20" d="M1157.21 818.16l-309.52 168.25c-4.08,130.11 4.75,286.78 33.83,404.5l49.49 615.36c66.39,38.07 139.8,46.69 216.74,40.53 -23.73,-432.3 -41.67,-775.49 9.47,-1228.64z"/>
   <path class="fil20" d="M1451.7 818.16l309.52 168.25c4.08,130.11 -4.75,286.78 -33.83,404.5l-49.49 615.36c-66.39,38.07 -139.8,46.69 -216.74,40.53 23.73,-432.3 41.67,-775.49 -9.47,-1228.64z"/>
   <path class="fil21" d="M1997.5 2585.15l110.58 -663.83c3.42,-20.52 18.74,-35.91 39.25,-39.43l678.91 -116.31c6.72,-1.15 13.02,0.9 17.78,5.78 4.76,4.88 6.65,11.23 5.33,17.92l-121.3 614.6c-3.71,18.81 -17.19,32.86 -35.82,37.37l-674.27 162.93c-5.63,1.36 -11.1,-0.07 -15.34,-4.02 -4.24,-3.95 -6.06,-9.3 -5.11,-15.01z"/>
   <polygon class="fil22" points="1993.33,2610.13 1481.66,2497.16 1481.66,2473.53 1993.33,2583.52 "/>
   <polygon class="fil23" points="1481.66,2473.53 2034.93,2360.45 1998.27,2580.53 1993.33,2583.52 "/>
   <g style="clip-path:url(#id1)">
    <image x="2373.01" y="2070.97" width="197.52" height="176.26" xlink:href="404_2_Images\404_2_ImgID2.png"/>
   </g>
   <path class="fil19" d="M2474.5 2154.07c-3.5,4.1 -6.66,12.99 -4.31,16.58 -1.6,0.16 -3.44,0.28 -5.37,0.48 -0.76,-4.57 2.02,-12.87 3.03,-14.03 2.62,-1.67 5.03,-3 6.65,-3.03zm-17.69 -29.75c7.77,-1.25 16.18,-2.63 23.92,-6.5 17.94,-8.91 -6.4,-27.78 15.49,-38.72 4.9,-2.45 11.62,-1.39 12.43,3.84 0.7,4.5 -0.43,8.67 -1.15,13.56 -1.42,9.73 4.72,10.49 12.36,6.89 11.17,-5.72 22.34,-11.45 33.49,-17.16 3.22,5.43 13.69,24.54 1.89,32.19 -3.96,2.56 -8.87,2.21 -13.35,4.61 -6.49,3.47 -9.08,10.55 -7.81,16.38 2,9.24 10.28,5.51 17.59,0.07 6.02,-4.46 11.11,-5.85 11.81,1.45 1.12,11.57 -1.29,21.96 -5.93,34.27 -12.24,1.37 -25.47,2.68 -38.16,7.81 -14.21,5.74 -6.16,19.7 -6.78,25.77 -1.47,14.26 -21.13,21.54 -23.89,11.8 -1.09,-3.9 2.08,-10.55 1.25,-15.74 -1.06,-6.7 -5.68,-6.37 -11.95,-2.94 -7.44,4.07 -14.59,9.07 -21.71,14.11 -3.77,-7.63 -9.63,-22.15 -7.64,-31.17 2.02,-9.05 15.99,-8.3 20.99,-8.83 17.65,-1.9 18.1,-27.62 6.41,-27.43 -6.7,0.11 -13.32,7.96 -19.23,9.87 -6.11,1.98 -7.43,-0.91 -7.19,-6.93 0.54,-8.27 3.96,-18.43 7.15,-27.22zm27.89 81.61c-2.01,3.02 -3.97,6.03 -5.96,9.02 -2.69,-1.13 -5.39,-2.28 -8.1,-3.42 1.95,-1.26 3.91,-2.46 5.9,-3.63 0.57,0.25 1.13,0.5 1.7,0.74 0.57,-0.84 1.14,-1.71 1.71,-2.63 2.34,-1.2 3.92,-1.72 4.74,-0.08zm-36.03 6.99c-3.59,7.37 0.09,17.05 -10.71,24.29 -9.79,6.56 -22.77,3.16 -19.8,-10.5 0.76,-3.49 3.14,-7.48 4.73,-10.98 -0,0.02 -0,0.02 -0,0.02 2.82,-6.96 4.53,-11.55 -1.95,-11.82 -12.3,-0.5 -27.25,3.72 -40.83,7.24 -1.08,-13.09 -0.64,-23.62 5.22,-38.34 4.06,-10.19 11.08,-11.36 17.29,-8.31 -0,0.02 -0,0.02 -0,0.02 14.45,7.09 18.1,-9.22 17.49,-12.7 -0.3,-1.78 -1.36,-3.15 -3.24,-3.72 0,0 0,0 0,0 -0.21,-0.04 -0.4,-0.09 -0.58,-0.13 0,0 0,0 0,0 -4.76,-0.97 -16.79,4.25 -17.53,-5.95 -0.24,-3.12 0.93,-6.89 2.57,-10.33 0,0 0,0 0.02,-0 4.42,-9.16 9.52,-16.52 15.76,-24.67 3.03,0.73 6.06,1.45 9.11,2.18 0,0 0,0 0,-0.02 5.13,1.09 22.69,5.02 27.23,4.3 6.83,-1.07 7.65,-6.77 8.45,-12.03 1.17,-7.7 2.65,-15.29 10.76,-20.07 5.43,-3.2 10.49,-3.12 14.19,-0.8 -1.35,1.53 -2.41,3.14 -3.23,4.82 -4.85,-3.15 -12.37,0.45 -14.48,5.23 0,0 0,0 0,0 -3.87,8.63 -1.22,18.46 -9.63,25.03 -3.94,3.08 -8.54,3.56 -12.41,2.98 -9.72,-1.89 -19.49,-3.79 -29.29,-5.71 -4.63,6.24 -9.02,13 -12.34,19.89 0,0 0,0 0,0 -7.64,15.92 8.07,8.21 13.86,10.16 11.73,3.96 3.23,25.66 -8.49,28.26 -3.92,0.89 -7.83,-0.16 -11.23,-1.83 -0.02,0 -0.02,0 -0.02,0 -2.17,-1.04 -4.24,-1.51 -5.97,-0.92 0,0 0,0 0,0 -4.97,1.76 -8.19,18.82 -8.65,22.22 -0.65,4.79 -0.71,9.48 -0.38,14.37 12.69,-3.31 26.21,-6.8 38.06,-6.31 11.25,0.46 7.62,11.48 2.89,20.89 0,0 0,0 0,0 -2.67,5.34 -4.62,9.9 -1.64,13.44 3.41,4.04 12.89,2.56 16.55,-4.23 2.42,-4.49 0.4,-12.55 6.4,-20.68 0.6,1.62 1.21,3.23 1.82,4.73zm29.5 -99.14c-0.3,-3.54 1.77,-9.24 3.68,-13.03 1.12,7.22 3.44,9.95 -3.68,13.03z"/>
   <polygon class="fil0" points="1712.31,2490.88 2002.64,2554.28 2023.41,2429.57 "/>
   <path class="fil24" d="M1993.33 2583.52l0 26.61 16.71 -5.9c-2.71,-0.66 -5.23,-2.03 -7.43,-4.07 -4.24,-3.95 -6.06,-9.3 -5.11,-15.01l0.77 -4.61 -4.93 2.99z"/>
  </g>
 </g>
</svg>
