<svg width="616" height="621" viewBox="0 0 616 621" fill="none" xmlns="http://www.w3.org/2000/svg">
<path fill-rule="evenodd" clip-rule="evenodd" d="M314.651 457.108L361.927 443.557C388.776 442.38 393.132 498.835 368.59 500.9L360.892 499.325L318.178 490.587L310.477 489.012C297.053 484.777 294.073 466.363 306.586 459.418L314.651 457.106V457.108Z" fill="#2B2A29"/>
<path fill-rule="evenodd" clip-rule="evenodd" d="M314.651 457.108L361.927 443.557C388.776 442.38 393.132 498.835 368.59 500.9L360.892 499.325C376.886 499.043 370.375 442.507 353.863 445.869L314.653 457.108H314.651Z" fill="#9D9E9E"/>
<path d="M321.015 484.118C321.291 484.879 320.94 485.723 320.23 486.005C319.521 486.286 318.722 485.895 318.447 485.134C316.486 480.448 314.221 470.709 316.618 464.281C316.945 463.552 317.767 463.256 318.456 463.616C319.143 463.977 319.438 464.861 319.111 465.588C317.298 471.493 319.555 480.676 321.015 484.118Z" fill="#C5C6C6"/>
<path d="M327.9 484.786C328.176 485.548 327.824 486.392 327.114 486.673C326.406 486.955 325.607 486.564 325.331 485.803C323.371 481.116 321.319 468.203 323.716 461.775C324.043 461.046 324.865 460.749 325.554 461.11C326.242 461.471 326.536 462.353 326.209 463.082C324.396 468.988 326.438 481.345 327.9 484.786Z" fill="#C5C6C6"/>
<path d="M334.975 485.719C335.251 486.481 334.9 487.325 334.189 487.606C333.481 487.888 332.682 487.497 332.406 486.736C330.446 482.049 328.247 466.27 330.644 459.843C330.971 459.113 331.792 458.817 332.482 459.178C333.169 459.538 333.464 460.422 333.137 461.15C331.324 467.056 333.513 482.278 334.975 485.721V485.719Z" fill="#C5C6C6"/>
<path fill-rule="evenodd" clip-rule="evenodd" d="M249.866 411.498C213.388 402.103 173.239 395.677 137.814 402.6C131.596 403.814 126.766 407.53 123.995 413.226L120.909 419.571C118.117 425.307 119.817 432.079 124.985 435.82C174.746 471.833 238.977 497.776 306.337 495.536C373.696 497.776 437.931 471.833 487.692 435.82C492.86 432.081 494.558 425.309 491.768 419.571L488.682 413.226C485.911 407.53 481.081 403.816 474.863 402.6C439.44 395.677 399.286 402.101 362.807 411.498C357.425 385.238 334.187 365.486 306.337 365.486C278.486 365.486 255.248 385.238 249.866 411.498Z" fill="#21608D"/>
<path fill-rule="evenodd" clip-rule="evenodd" d="M280.214 175.737C285.229 142.858 327.692 142.858 332.706 175.737L334.199 196.765C315.55 202.256 296.976 202.235 278.473 196.765L280.214 175.737Z" fill="#E31E24"/>
<path fill-rule="evenodd" clip-rule="evenodd" d="M350.05 114.7C372.021 104.147 367.816 139.919 356.585 138.903C354.504 138.714 352.373 138.344 350.222 137.481L350.05 114.7Z" fill="#E1A27A"/>
<path fill-rule="evenodd" clip-rule="evenodd" d="M365.701 125.897C365.129 132.634 361.542 139.353 356.586 138.903C354.504 138.714 352.374 138.344 350.222 137.481L350.181 132.077C356.843 134.009 363.831 133.528 365.701 125.895V125.897Z" fill="#AD6D58"/>
<path d="M352.504 124.38C352.419 125.349 352.638 126.567 353.786 126.675C354.918 126.779 355.32 125.585 355.403 124.648C355.403 124.646 355.403 124.645 355.403 124.641C355.516 123.319 355.586 122.012 355.751 120.691C355.883 119.649 356.038 118.689 356.466 117.724C356.687 117.301 356.899 117.008 357.265 116.702C357.689 116.37 358.063 116.228 358.588 116.151C358.015 116.026 357.585 116.015 357.012 116.149C356.427 116.315 356.028 116.549 355.56 116.942C354.54 117.826 353.986 118.818 353.476 120.064C352.934 121.522 352.657 122.826 352.506 124.373C352.506 124.374 352.506 124.376 352.506 124.38H352.504Z" fill="#AD6D58"/>
<path fill-rule="evenodd" clip-rule="evenodd" d="M262.622 114.7C240.652 104.147 244.856 139.919 256.087 138.903C258.169 138.714 260.299 138.344 262.451 137.481L262.622 114.7Z" fill="#E1A27A"/>
<path fill-rule="evenodd" clip-rule="evenodd" d="M246.971 125.897C247.543 132.634 251.13 139.353 256.086 138.903C258.168 138.714 260.298 138.344 262.45 137.481L262.491 132.077C255.829 134.009 248.841 133.528 246.971 125.895V125.897Z" fill="#AD6D58"/>
<path d="M260.17 124.38C260.255 125.349 260.036 126.567 258.887 126.675C257.756 126.779 257.354 125.585 257.27 124.648C257.27 124.646 257.27 124.645 257.27 124.641C257.157 123.319 257.087 122.012 256.923 120.691C256.791 119.649 256.636 118.689 256.207 117.724C255.986 117.301 255.775 117.008 255.408 116.702C254.987 116.37 254.613 116.228 254.086 116.151C254.658 116.026 255.091 116.015 255.661 116.149C256.247 116.315 256.645 116.549 257.114 116.942C258.134 117.826 258.687 118.818 259.197 120.064C259.739 121.522 260.017 122.826 260.168 124.373C260.168 124.374 260.168 124.376 260.168 124.38H260.17Z" fill="#AD6D58"/>
<path fill-rule="evenodd" clip-rule="evenodd" d="M269.014 73.7163C261.789 92.6763 257.571 133.93 257.167 174.375C262.119 179.83 267.607 184.337 274.193 187.601L275.011 182.546L275.965 188.436C283.964 192.017 296.113 193.479 306.337 193.52C308.63 193.511 311.019 193.43 313.437 193.271L315.173 185.759L317.594 192.918C324.606 192.187 331.528 190.757 336.709 188.438L337.663 182.548L338.481 187.603C345.067 184.339 350.554 179.832 355.507 174.377C355.102 133.932 350.887 92.6782 343.66 73.7182C335.84 65.0542 320.962 61.0876 306.337 61.4295C291.712 61.0876 276.835 65.0542 269.014 73.7182V73.7163Z" fill="#76471D"/>
<path fill-rule="evenodd" clip-rule="evenodd" d="M319.857 145.378C329.862 143.531 339.629 139.723 348.455 134.17C347.91 109.432 345.175 93.2146 339.754 82.9224C338.872 81.247 337.719 80.0249 336.11 79.0616C329.07 74.8439 317.505 72.8569 306.337 72.9947C295.166 72.8569 283.601 74.8458 276.563 79.0616C274.956 80.0249 273.804 81.247 272.92 82.9224C267.499 93.2146 264.764 109.432 264.218 134.17C272.593 139.438 281.814 143.136 291.283 145.078C294.641 144.583 300.153 144.322 306.376 144.436C311.701 144.534 316.493 144.889 319.857 145.376V145.378Z" fill="#EEBD91"/>
<path fill-rule="evenodd" clip-rule="evenodd" d="M331.387 76.7573C344.658 66.1459 334.434 45.8429 312.276 41L312.185 45.6956C304.099 42.4393 295.699 41.2172 286.869 42.8057C286.831 45.8864 287.088 48.2927 287.85 49.7944C281.598 48.1076 275.493 48.5043 269.46 49.9134C270.878 56.5412 273.02 61.4333 278.963 66.5822C276.904 66.2687 274.301 66.4783 272.136 67.2603C273.967 79.3771 281.713 86.5301 297.532 86.9078C312.699 87.0703 321.465 73.3215 331.385 76.7573H331.387Z" fill="#76471D"/>
<path d="M324.815 151.031C312.887 164.157 293.912 159.99 287.858 151.082C297.391 157.055 311.055 158.866 324.815 151.031Z" fill="#E29278"/>
<path fill-rule="evenodd" clip-rule="evenodd" d="M299.182 97.2549L279.976 98.9548L275.122 103.913L276.99 115.138L280.707 116.987H288.491L294.73 113.775L296.791 111.366L299.182 97.2549Z" fill="#D7956D"/>
<path fill-rule="evenodd" clip-rule="evenodd" d="M297.072 93.3393C292.208 93.4035 287.345 93.4771 282.657 94.5103C279.34 95.2413 276.862 97.7856 275.789 101.563L275.122 103.913C281.523 101.818 288.603 101.012 295.954 100.723C296.972 100.683 297.816 100.192 298.447 99.2739C299.078 98.356 299.318 97.2661 299.157 96.0611L299.063 95.349C298.908 94.1892 298.052 93.326 297.074 93.3393H297.072Z" fill="#5D391C"/>
<path fill-rule="evenodd" clip-rule="evenodd" d="M313.397 97.1887L332.697 98.9548L337.465 103.913L335.684 115.138L331.071 116.987H326.714L321.997 116.355L318.108 114.198L315.881 111.366L313.397 97.1887Z" fill="#D7956D"/>
<path fill-rule="evenodd" clip-rule="evenodd" d="M303.219 117.665C301.991 125.85 299.896 132.606 296.73 137.593C299.524 140.694 303.222 142.258 307.359 143.074C304.473 141.914 302.078 140.071 301.207 136.093C303.774 130.271 304.233 124.093 303.22 117.664L303.219 117.665ZM310.902 142.647C312.47 141.091 314.348 138.647 315.468 136.251C316.869 140.754 315.131 142.711 310.902 142.647Z" fill="#AD6D58"/>
<path fill-rule="evenodd" clip-rule="evenodd" d="M344.612 60.0601C344.612 60.0601 344.204 64.2986 341.408 67.5719C338.615 70.8452 334.588 71.9936 334.491 71.9124C334.395 71.8312 334.899 67.6739 337.695 64.4006C340.49 61.1272 344.612 60.0601 344.612 60.0601Z" fill="#76471D"/>
<path fill-rule="evenodd" clip-rule="evenodd" d="M347.211 67.3169C347.211 67.3169 345.33 70.0633 342.181 71.2476C339.032 72.4319 335.842 71.6971 335.806 71.6045C335.772 71.512 337.687 68.8582 340.836 67.6739C343.985 66.4896 347.211 67.3169 347.211 67.3169Z" fill="#76471D"/>
<path d="M326.715 121.696C332.3 121.696 336.828 120.796 336.828 119.686C336.828 118.577 332.3 117.677 326.715 117.677C321.13 117.677 316.603 118.577 316.603 119.686C316.603 120.796 321.13 121.696 326.715 121.696Z" fill="#EEBD91"/>
<path d="M286.859 121.696C292.444 121.696 296.972 120.796 296.972 119.686C296.972 118.577 292.444 117.677 286.859 117.677C281.274 117.677 276.746 118.577 276.746 119.686C276.746 120.796 281.274 121.696 286.859 121.696Z" fill="#EEBD91"/>
<path d="M333.232 119.265C328.511 125.759 320.771 123.409 318.204 119.299C322.012 121.298 327.554 122.146 333.232 119.265Z" fill="#D7956D"/>
<path d="M294.632 119.265C289.912 125.759 282.171 123.409 279.604 119.299C283.412 121.298 288.954 122.146 294.632 119.265Z" fill="#D7956D"/>
<path fill-rule="evenodd" clip-rule="evenodd" d="M338.371 107.594C338.943 120.364 320.622 122.782 315.881 111.366C319.039 102.451 333.009 102.092 338.371 107.594Z" fill="#EEBD91"/>
<path fill-rule="evenodd" clip-rule="evenodd" d="M274.3 107.594C273.728 120.364 292.049 122.782 296.79 111.366C293.632 102.451 279.663 102.092 274.3 107.594Z" fill="#EEBD91"/>
<path fill-rule="evenodd" clip-rule="evenodd" d="M296.791 111.366C294.009 120.281 281.71 120.64 276.99 115.138C284.36 117.24 291.062 116.421 296.791 111.366Z" fill="#4A2F26"/>
<path fill-rule="evenodd" clip-rule="evenodd" d="M315.881 111.366C318.663 120.281 330.961 120.64 335.681 115.138C328.311 117.24 321.61 116.421 315.881 111.366Z" fill="#4A2F26"/>
<path fill-rule="evenodd" clip-rule="evenodd" d="M315.513 93.3393C320.376 93.4035 325.24 93.4771 329.928 94.5103C333.245 95.2413 335.723 97.7856 336.796 101.563L337.463 103.913C331.061 101.818 323.982 101.012 316.631 100.723C315.613 100.683 314.768 100.192 314.137 99.2739C313.507 98.356 313.267 97.2661 313.427 96.0611L313.522 95.349C313.677 94.1892 314.532 93.326 315.511 93.3393H315.513Z" fill="#5D391C"/>
<path fill-rule="evenodd" clip-rule="evenodd" d="M249.251 411.557C287.763 420.087 325.815 419.987 363.423 411.557L365.389 402.604C326.48 410.807 287.119 410.903 247.287 402.602L249.253 411.557H249.251Z" fill="#2B2A29"/>
<path fill-rule="evenodd" clip-rule="evenodd" d="M189.498 413.991C227.429 419.388 274.708 442.377 309.627 468.463C275.101 449.77 228.24 426.314 189.498 413.991Z" fill="#1D4366"/>
<path fill-rule="evenodd" clip-rule="evenodd" d="M298.407 420.523L301.552 447.594L316.814 454.864L305.061 445.047L304.431 421.067L304.347 417.928C302.262 417.911 300.177 417.867 298.088 417.799L298.405 420.525L298.407 420.523Z" fill="#1D4366"/>
<path fill-rule="evenodd" clip-rule="evenodd" d="M304.448 421.617C314.995 421.59 325.629 420.532 336.346 418.53C341.074 417.648 345.817 416.581 350.575 415.34C354.647 414.277 358.731 413.085 362.825 411.768C362.822 411.749 362.818 411.73 362.814 411.712C362.504 411.781 362.193 411.849 361.883 411.916C342.821 416.071 323.644 418.088 304.351 417.926C302.266 417.909 300.181 417.865 298.092 417.797C282.375 417.282 266.581 415.321 250.709 411.895C250.425 411.834 250.144 411.772 249.861 411.71C249.855 411.74 249.849 411.77 249.842 411.8C255.605 413.973 261.398 415.767 267.221 417.202C268.401 417.493 269.582 417.769 270.762 418.03C279.942 420.058 289.197 421.203 298.522 421.524C300.494 421.592 302.468 421.622 304.446 421.618L304.448 421.617Z" fill="#1D4366"/>
<path fill-rule="evenodd" clip-rule="evenodd" d="M422.801 415.229C380.722 421.558 330.88 441.1 292.331 470.382C330.512 449.312 379.884 429.259 422.801 415.229Z" fill="#1D4366"/>
<path fill-rule="evenodd" clip-rule="evenodd" d="M301.596 461.435L253.665 450.419C226.791 450.674 225.446 507.278 250.063 508.036L257.668 506.053L299.855 495.054L307.459 493.071C320.637 488.128 322.636 469.581 309.769 463.31L301.592 461.431L301.596 461.435Z" fill="#2B2A29"/>
<path fill-rule="evenodd" clip-rule="evenodd" d="M301.596 461.435L253.665 450.419C226.791 450.674 225.446 507.278 250.063 508.036L257.668 506.053C241.681 506.623 245.175 449.819 261.842 452.299L301.596 461.435Z" fill="#9D9E9E"/>
<path d="M296.681 488.747C296.447 489.522 296.841 490.347 297.565 490.589C298.288 490.831 299.064 490.4 299.299 489.625C301.008 484.841 302.75 474.996 300.015 468.705C299.65 467.995 298.813 467.742 298.145 468.138C297.476 468.535 297.23 469.432 297.595 470.142C299.72 475.943 297.956 485.232 296.681 488.747Z" fill="#C5C6C6"/>
<path d="M289.84 489.78C289.606 490.555 290.001 491.38 290.724 491.622C291.447 491.864 292.224 491.433 292.458 490.659C294.167 485.874 295.527 472.87 292.792 466.578C292.428 465.868 291.591 465.615 290.922 466.011C290.254 466.408 290.008 467.305 290.373 468.016C292.499 473.816 291.115 486.265 289.84 489.78Z" fill="#C5C6C6"/>
<path d="M282.825 491.087C282.591 491.862 282.988 492.687 283.709 492.929C284.433 493.171 285.209 492.74 285.443 491.966C287.152 487.181 288.507 471.308 285.772 465.016C285.407 464.306 284.57 464.053 283.902 464.449C283.233 464.846 282.988 465.743 283.352 466.453C285.479 472.254 284.1 487.572 282.825 491.087Z" fill="#C5C6C6"/>
<path fill-rule="evenodd" clip-rule="evenodd" d="M337.431 258.009L392.371 233.173C432.076 310.654 460.878 356.805 508.82 390.194C507.519 402.122 501.397 410.539 489.354 409.468C410.666 388.115 365.661 323.305 337.433 258.009H337.431Z" fill="#80251E"/>
<path fill-rule="evenodd" clip-rule="evenodd" d="M386.17 303.718L383.471 337.273C409.703 370.314 443.911 397.137 489.352 409.468C491.751 409.681 493.914 409.519 495.85 409.026C454.254 385.512 423.478 351.951 386.916 300.581C386.676 301.629 386.427 302.676 386.17 303.718Z" fill="#69231C"/>
<path fill-rule="evenodd" clip-rule="evenodd" d="M512.776 383.219L510.26 385.111C511.376 386.942 513.199 388.496 514.942 389.641C517.132 391.08 520.292 392.557 522.926 392.842L527.227 392.976C525.408 391.337 524.247 389.051 523.776 386.609L523.521 386.707C518.971 388.464 515.724 386.547 512.776 383.217V383.219ZM523.578 385.136C523.578 385.134 523.578 385.132 523.578 385.13L523.486 383.937L533.536 386.881L533.666 386.987C538.014 390.555 542.904 396.087 539.036 401.78L538.821 402.098L527.919 403.261L537.765 409.649C543.044 409.955 547.381 411.338 551.903 414.054C552.707 414.537 553.085 415.476 552.84 416.383C552.594 417.289 551.793 417.909 550.855 417.918L536.875 418.077L527.22 414.79L535.045 423.891C539.975 425.693 545.912 428.564 548.56 433.333C548.983 434.094 548.894 435.012 548.337 435.679C547.778 436.346 546.89 436.593 546.066 436.312L530.506 430.98L519.844 422.459L521.032 430.687C523.792 433.342 525.559 436.527 526.379 440.284C526.568 441.155 526.2 442.027 525.442 442.496C524.689 442.962 523.737 442.906 523.045 442.35L514.264 435.311L510.336 423.226C509.623 421.037 508.177 419.448 506.063 418.534C498.706 415.355 487.197 409.345 486.036 400.364C485.666 397.502 486.4 394.771 487.758 392.261L487.802 392.179L497.894 380.644C499.63 378.659 501.758 377.477 504.359 377.05C508.539 376.364 512.593 375.465 516.567 373.969L517.33 373.682L517.626 374.443C519.175 378.417 520.445 382.116 523.574 385.138L523.578 385.136Z" fill="#AD6D58"/>
<path fill-rule="evenodd" clip-rule="evenodd" d="M488.485 392.652L498.515 381.186C500.126 379.345 502.079 378.259 504.493 377.864C508.713 377.173 512.747 376.289 516.857 374.742C518.499 378.952 519.809 382.76 523.221 385.941C519.335 387.438 516.33 386.203 512.893 382.097L509.183 384.887C511.565 389.599 518.708 393.233 522.866 393.67L530.168 393.898C526.588 392.364 524.681 388.719 524.396 385.068L533.137 387.629C539.432 392.795 541.049 397.343 538.348 401.319L525.512 402.689L537.496 410.463C543.078 410.754 547.275 412.24 551.474 414.764C551.963 415.057 552.188 415.618 552.038 416.169C551.889 416.719 551.411 417.089 550.841 417.097L537.003 417.253L524.617 413.036L534.556 424.595C541.96 427.274 545.964 430.373 547.832 433.735C548.089 434.198 548.038 434.744 547.698 435.15C547.358 435.556 546.829 435.703 546.329 435.532L530.904 430.247L518.723 420.512L520.251 431.091C523.173 433.824 524.811 436.994 525.569 440.461C525.684 440.99 525.463 441.51 525.004 441.795C524.543 442.08 523.98 442.046 523.557 441.708L514.968 434.823L511.117 422.975C510.333 420.561 508.718 418.787 506.388 417.78C490.597 410.958 483.13 402.541 488.483 392.657L488.485 392.652Z" fill="#EEBD91"/>
<path fill-rule="evenodd" clip-rule="evenodd" d="M530.171 393.896C530.774 395.972 532.277 397.6 534.245 398.996C531.918 397.978 530.181 396.542 529.618 394.268L528.292 393.836L527.744 392.874L530.171 393.894V393.896Z" fill="#AD6D58"/>
<path fill-rule="evenodd" clip-rule="evenodd" d="M525.517 402.687C522.484 399.651 522.095 396.654 523.098 393.673L523.442 392.871L523.742 393.694C522.701 397.222 523.814 400.124 526.76 402.555L526.469 402.949L525.519 402.687H525.517Z" fill="#AD6D58"/>
<path fill-rule="evenodd" clip-rule="evenodd" d="M509.187 384.885L507.255 392.225C506.707 394.308 505.281 395.849 503.247 396.56L499.226 397.963L499.305 398.184L503.322 397.287C505.702 396.756 507.461 395.043 508.052 392.676L509.756 385.861L509.894 384.887H509.187V384.885Z" fill="#AD6D58"/>
<path fill-rule="evenodd" clip-rule="evenodd" d="M524.62 413.03L523.942 409.324L525.308 412.785L526.674 413.729L526.201 414.069L524.62 413.03Z" fill="#AD6D58"/>
<path fill-rule="evenodd" clip-rule="evenodd" d="M518.277 420.002L518.617 416.25L519.005 419.951L519.87 421.418L518.984 422.272L518.277 420.002Z" fill="#AD6D58"/>
<path fill-rule="evenodd" clip-rule="evenodd" d="M530.098 394.285L533.494 394.055L532.75 393.73L530.171 393.896L528.575 393.441L528.377 393.719L530.098 394.285Z" fill="#AD6D58"/>
<path fill-rule="evenodd" clip-rule="evenodd" d="M275.481 258.009L220.54 233.173C180.836 310.654 152.033 356.805 104.091 390.194C105.392 402.122 111.514 410.539 123.557 409.468C202.245 388.115 247.25 323.305 275.479 258.009H275.481Z" fill="#80251E"/>
<path fill-rule="evenodd" clip-rule="evenodd" d="M226.742 303.718L229.441 337.273C203.209 370.314 169 397.137 123.559 409.468C121.16 409.681 118.998 409.519 117.062 409.026C158.657 385.512 189.434 351.951 225.996 300.581C226.235 301.629 226.485 302.676 226.742 303.718Z" fill="#69231C"/>
<path fill-rule="evenodd" clip-rule="evenodd" d="M100.138 383.219L102.654 385.111C101.538 386.942 99.7148 388.496 97.9715 389.641C95.7823 391.08 92.6242 392.557 89.9874 392.842L85.6866 392.976C87.5055 391.337 88.6671 389.051 89.1374 386.609L89.3924 386.707C93.9426 388.464 97.1895 386.547 100.138 383.217V383.219ZM89.3358 385.136C89.3358 385.134 89.3358 385.132 89.3358 385.13L89.4283 383.937L79.3779 386.881L79.2476 386.987C74.8995 390.555 70.0093 396.087 73.8776 401.78L74.093 402.098L84.9952 403.261L75.1488 409.649C69.8696 409.955 65.5328 411.338 61.011 414.054C60.2063 414.537 59.8286 415.476 60.0741 416.383C60.3197 417.289 61.1205 417.909 62.0593 417.918L76.0366 418.077L85.6922 414.79L77.8668 423.891C72.937 425.693 67.0004 428.564 64.3523 433.333C63.9292 434.094 64.018 435.012 64.5752 435.679C65.1343 436.346 66.022 436.593 66.8456 436.312L82.4057 430.98L93.0662 422.459L91.8781 430.687C89.1185 433.342 87.3506 436.527 86.5309 440.284C86.342 441.155 86.7103 442.027 87.4677 442.496C88.2213 442.962 89.1752 442.906 89.8665 442.35L98.6476 435.311L102.576 423.226C103.288 421.037 104.737 419.448 106.849 418.534C114.206 415.355 125.714 409.345 126.876 400.364C127.246 397.502 126.512 394.771 125.153 392.261L125.11 392.179L115.018 380.644C113.282 378.659 111.154 377.477 108.551 377.05C104.373 376.364 100.317 375.465 96.3433 373.969L95.5802 373.682L95.2837 374.443C93.7348 378.417 92.4655 382.116 89.3358 385.138V385.136Z" fill="#AD6D58"/>
<path fill-rule="evenodd" clip-rule="evenodd" d="M124.428 392.652L114.396 381.186C112.785 379.345 110.832 378.259 108.418 377.864C104.198 377.173 100.164 376.289 96.052 374.742C94.4106 378.952 93.0997 382.76 89.6885 385.941C93.5719 387.438 96.5789 386.203 100.017 382.097L103.726 384.887C101.344 389.599 94.2009 393.233 90.0436 393.67L82.7414 393.898C86.3207 392.364 88.2285 388.719 88.5137 385.068L79.7722 387.629C73.4768 392.795 71.8599 397.343 74.5609 401.319L87.3974 402.689L75.4128 410.463C69.8313 410.754 65.6344 412.24 61.4355 414.764C60.9463 415.057 60.7215 415.618 60.8708 416.169C61.02 416.719 61.4978 417.089 62.0683 417.097L75.9058 417.253L88.2927 413.036L78.3518 424.595C70.9476 427.274 66.9433 430.373 65.0753 433.735C64.8184 434.198 64.8694 434.744 65.2094 435.15C65.5494 435.556 66.0782 435.703 66.5788 435.532L82.0029 430.247L94.1839 420.512L92.6559 431.091C89.7338 433.824 88.0962 436.994 87.3407 440.461C87.2255 440.99 87.4446 441.51 87.9055 441.795C88.3663 442.08 88.9292 442.046 89.3523 441.708L97.9408 434.823L101.792 422.975C102.578 420.561 104.191 418.787 106.522 417.78C122.312 410.958 129.777 402.541 124.426 392.657L124.428 392.652Z" fill="#EEBD91"/>
<path fill-rule="evenodd" clip-rule="evenodd" d="M82.7402 393.896C82.1377 395.972 80.6342 397.6 78.666 398.996C80.993 397.978 82.7308 396.542 83.2936 394.268L84.6196 393.836L85.1673 392.874L82.7402 393.894V393.896Z" fill="#AD6D58"/>
<path fill-rule="evenodd" clip-rule="evenodd" d="M87.3962 402.687C90.4296 399.651 90.8187 396.654 89.8157 393.673L89.472 392.871L89.1717 393.694C90.2105 397.222 89.0999 400.124 86.1533 402.555L86.4442 402.949L87.3943 402.687H87.3962Z" fill="#AD6D58"/>
<path fill-rule="evenodd" clip-rule="evenodd" d="M103.725 384.885L105.657 392.225C106.207 394.308 107.631 395.849 109.665 396.56L113.687 397.963L113.609 398.184L109.592 397.287C107.212 396.756 105.453 395.043 104.862 392.676L103.156 385.861L103.019 384.887H103.725V384.885Z" fill="#AD6D58"/>
<path fill-rule="evenodd" clip-rule="evenodd" d="M88.2914 413.03L88.9695 409.324L87.6058 412.785L86.2383 413.729L86.7105 414.069L88.2914 413.03Z" fill="#AD6D58"/>
<path fill-rule="evenodd" clip-rule="evenodd" d="M94.6343 420.002L94.2943 416.25L93.9071 419.951L93.0439 421.418L93.9298 422.272L94.6343 420.002Z" fill="#AD6D58"/>
<path fill-rule="evenodd" clip-rule="evenodd" d="M82.8141 394.285L79.4199 394.055L80.1641 393.73L82.7405 393.896L84.3365 393.441L84.5367 393.719L82.8141 394.285Z" fill="#AD6D58"/>
<path fill-rule="evenodd" clip-rule="evenodd" d="M252.792 402.81L230.487 300.689C223.944 281.245 222.167 254.018 224.381 231.289L281.629 193.521L306.337 195.806L331.044 193.521L388.293 231.289C390.506 254.018 388.729 281.243 382.186 300.689L359.881 402.81C324.605 410.756 288.914 410.85 252.792 402.81Z" fill="#E31E24"/>
<path d="M305.757 283.882C304.601 285.16 303.887 288.235 305.084 289.733C304.438 289.68 303.7 289.603 302.923 289.544C302.317 287.795 302.903 284.907 303.243 284.548C304.204 284.108 305.097 283.783 305.755 283.882H305.757ZM296.669 271.788C299.724 271.831 303.035 271.88 305.927 270.97C312.636 268.864 301.55 260.447 309.676 257.854C311.497 257.274 314.287 258.075 314.965 260.026C315.55 261.713 315.371 263.161 315.405 264.893C315.473 268.363 318.038 269.049 320.92 268.212L333.53 264.068C335.247 266.284 340.955 274.035 336.58 276.088C335.115 276.778 333.054 276.317 331.36 276.91C328.915 277.768 328.334 280.217 329.263 282.473C330.746 286.06 333.925 285.232 336.597 283.698C338.788 282.439 340.817 282.265 341.637 285.049C342.936 289.476 342.685 293.22 341.62 297.547C336.573 297.2 331.135 296.754 326.197 297.785C320.693 298.939 325.006 304.782 325.168 307.044C325.546 312.356 317.851 313.68 316.041 309.777C315.32 308.223 316.185 305.936 315.492 303.915C314.6 301.319 312.713 301.117 310.36 301.96C307.579 302.957 304.975 304.324 302.376 305.713C300.339 302.575 297.009 296.741 297.247 293.526C297.484 290.307 303.222 291.547 305.22 291.69C312.328 292.206 310.802 282.68 306.047 281.966C303.324 281.557 301.14 284.006 298.866 284.314C296.526 284.632 295.806 283.481 295.523 281.288C295.219 278.293 295.952 274.795 296.673 271.791L296.669 271.788ZM313.382 303.95L311.529 306.914L307.967 305.044C308.686 304.712 309.413 304.398 310.15 304.109L310.9 304.506C311.074 304.23 311.253 303.939 311.436 303.639C312.313 303.348 312.94 303.27 313.382 303.952V303.95ZM299.049 303.998C298.058 306.502 300.183 310.405 296.231 312.354C292.656 314.116 287.161 311.883 287.512 306.978C287.601 305.735 288.313 304.408 288.74 303.219H288.742C289.443 300.823 289.847 299.234 287.212 298.682C282.222 297.636 276.486 298.157 271.271 298.512C270.056 293.609 269.614 289.78 271.08 284.788C272.092 281.339 274.801 281.377 277.455 282.899V282.903C283.659 286.469 284.12 280.735 283.669 279.428C283.436 278.755 282.934 278.185 282.141 277.853L282.139 277.854L281.91 277.768L281.912 277.766C279.952 277.097 275.488 278.215 274.578 274.458C274.3 273.308 274.532 272.018 274.982 270.883H274.986C276.189 267.851 277.776 265.526 279.751 262.98L283.503 264.334C285.601 265.046 292.865 267.587 294.645 267.619C297.321 267.668 297.289 265.653 297.278 263.796C297.261 261.082 297.372 258.424 300.328 257.21C302.308 256.397 304.34 256.732 305.987 257.801C305.539 258.267 305.215 258.787 304.994 259.348C302.842 257.903 300.047 258.738 299.497 260.328H299.495C298.494 263.216 300.186 266.958 297.221 268.809C295.833 269.676 294.014 269.553 292.42 269.092L280.386 265.158C278.92 267.115 277.585 269.283 276.688 271.555H276.69C274.6 276.836 280.39 275.059 282.813 276.147C287.743 278.359 285.677 285.748 281.141 285.92C279.634 285.978 278.006 285.332 276.542 284.492L276.54 284.494C275.617 283.963 274.761 283.655 274.113 283.759C272.243 284.069 271.975 290.1 271.994 291.316C272.022 293.031 272.273 294.752 272.687 296.575C277.572 296.235 282.773 295.879 287.582 296.884C292.159 297.844 291.385 301.689 290.059 304.865C289.309 306.672 288.808 308.244 290.244 309.783C291.883 311.543 295.657 311.685 296.72 309.392C297.417 307.887 296.073 304.712 298.003 302.094C298.343 302.747 298.696 303.388 299.049 303.998ZM304.625 269.321C304.27 268.008 304.739 266.059 305.267 264.803C306.199 267.504 307.315 268.652 304.625 269.321Z" fill="#FEFEFE"/>
<path fill-rule="evenodd" clip-rule="evenodd" d="M278.575 195.536L220.112 227.315C219.341 251.891 221.009 281.483 226.502 303.718L235.85 419.949C248.39 427.14 262.255 428.768 276.788 427.604C272.306 345.95 268.917 281.128 278.577 195.536H278.575Z" fill="#BA2322"/>
<path fill-rule="evenodd" clip-rule="evenodd" d="M334.199 195.536L392.662 227.315C393.433 251.891 391.765 281.483 386.272 303.718L376.924 419.949C364.384 427.14 350.519 428.768 335.986 427.604C340.468 345.95 343.857 281.128 334.197 195.536H334.199Z" fill="#BA2322"/>
<path fill-rule="evenodd" clip-rule="evenodd" d="M437.291 529.289L458.177 403.903C458.823 400.027 461.717 397.12 465.591 396.456L593.825 374.487C595.094 374.269 596.284 374.657 597.183 375.578C598.082 376.5 598.439 377.7 598.19 378.963L575.279 495.05C574.578 498.603 572.032 501.257 568.513 502.109L441.155 532.883C440.092 533.14 439.059 532.87 438.258 532.124C437.457 531.378 437.113 530.367 437.293 529.289H437.291Z" fill="#B4B4B4"/>
<path fill-rule="evenodd" clip-rule="evenodd" d="M436.503 534.007L339.857 512.669V508.206L436.503 528.981V534.007Z" fill="#727271"/>
<path fill-rule="evenodd" clip-rule="evenodd" d="M339.857 508.206L444.36 486.847L437.436 528.416L436.503 528.981L339.857 508.206Z" fill="#898989"/>
<path d="M527.387 447.865C526.726 448.64 526.129 450.319 526.573 450.997C526.271 451.027 525.923 451.05 525.559 451.088C525.415 450.225 525.94 448.657 526.131 448.438C526.626 448.122 527.081 447.871 527.387 447.865ZM524.046 442.246C525.514 442.01 527.102 441.749 528.564 441.018C531.953 439.336 527.355 435.771 531.49 433.705C532.415 433.242 533.685 433.442 533.838 434.43C533.97 435.28 533.756 436.068 533.62 436.992C533.352 438.829 534.512 438.973 535.955 438.293C538.065 437.212 540.175 436.13 542.281 435.052C542.889 436.077 544.866 439.687 542.638 441.132C541.89 441.615 540.962 441.549 540.116 442.003C538.89 442.658 538.401 443.995 538.641 445.096C539.019 446.842 540.583 446.137 541.963 445.11C543.1 444.267 544.062 444.005 544.194 445.384C544.406 447.569 543.95 449.531 543.074 451.857C540.762 452.115 538.263 452.363 535.866 453.332C533.182 454.416 534.703 457.053 534.586 458.199C534.308 460.893 530.594 462.268 530.073 460.428C529.867 459.691 530.466 458.435 530.309 457.455C530.109 456.19 529.236 456.252 528.052 456.9C526.647 457.668 525.296 458.613 523.952 459.565C523.239 458.124 522.133 455.381 522.508 453.677C522.89 451.968 525.529 452.11 526.473 452.01C529.807 451.651 529.892 446.793 527.684 446.829C526.418 446.849 525.168 448.332 524.052 448.693C522.898 449.067 522.648 448.521 522.694 447.384C522.796 445.822 523.442 443.903 524.044 442.242L524.046 442.246ZM529.314 457.661C528.934 458.231 528.564 458.8 528.188 459.365C527.68 459.151 527.17 458.934 526.658 458.719C527.026 458.481 527.397 458.254 527.773 458.033C527.88 458.08 527.986 458.127 528.094 458.173C528.201 458.014 528.309 457.85 528.417 457.676C528.859 457.449 529.157 457.351 529.312 457.661H529.314ZM522.508 458.981C521.83 460.373 522.525 462.202 520.485 463.569C518.636 464.808 516.185 464.166 516.746 461.586C516.889 460.927 517.339 460.173 517.639 459.512C517.639 459.516 517.639 459.516 517.639 459.516C518.172 458.201 518.495 457.334 517.271 457.283C514.947 457.189 512.124 457.986 509.559 458.651C509.355 456.178 509.438 454.189 510.545 451.409C511.312 449.484 512.637 449.263 513.81 449.839C513.81 449.843 513.81 449.843 513.81 449.843C516.54 451.182 517.229 448.102 517.114 447.444C517.057 447.108 516.857 446.849 516.502 446.742C516.462 446.734 516.426 446.725 516.392 446.717C515.493 446.534 513.221 447.52 513.081 445.593C513.036 445.004 513.257 444.292 513.567 443.642C513.567 443.642 513.567 443.642 513.571 443.642C514.405 441.912 515.369 440.522 516.547 438.982C517.12 439.12 517.692 439.256 518.268 439.394C518.268 439.394 518.268 439.394 518.268 439.39C519.237 439.596 522.554 440.339 523.411 440.203C524.701 440 524.856 438.924 525.007 437.93C525.228 436.476 525.508 435.042 527.04 434.139C528.065 433.535 529.021 433.55 529.72 433.988C529.465 434.277 529.265 434.581 529.11 434.899C528.194 434.304 526.773 434.984 526.375 435.887C525.644 437.517 526.144 439.373 524.556 440.614C523.812 441.196 522.943 441.287 522.212 441.177C520.376 440.82 518.531 440.461 516.68 440.099C515.805 441.277 514.976 442.554 514.349 443.856C512.906 446.863 515.873 445.406 516.967 445.775C519.182 446.523 517.577 450.621 515.363 451.112C514.623 451.28 513.884 451.082 513.242 450.767C513.238 450.767 513.238 450.767 513.238 450.767C512.828 450.57 512.437 450.481 512.11 450.593C511.172 450.925 510.564 454.148 510.477 454.79C510.354 455.695 510.343 456.581 510.405 457.504C512.802 456.879 515.355 456.22 517.594 456.312C519.719 456.399 519.033 458.481 518.14 460.258C517.635 461.267 517.267 462.128 517.83 462.797C518.474 463.56 520.264 463.28 520.956 461.998C521.413 461.15 521.031 459.627 522.165 458.092C522.278 458.398 522.393 458.702 522.508 458.985V458.981ZM528.08 440.255C528.024 439.587 528.415 438.51 528.776 437.794C528.987 439.158 529.425 439.674 528.08 440.255Z" fill="#FEFEFE"/>
<path fill-rule="evenodd" clip-rule="evenodd" d="M383.424 511.483L438.262 523.458L442.185 499.903L383.424 511.483Z" fill="#2B2A29"/>
<path fill-rule="evenodd" clip-rule="evenodd" d="M436.503 528.981V534.007L439.659 532.893C439.147 532.768 438.671 532.509 438.256 532.124C437.455 531.378 437.111 530.367 437.291 529.289L437.436 528.418L436.505 528.983L436.503 528.981Z" fill="#5B5B5B"/>
</svg>
