<svg width="244" height="497" viewBox="0 0 244 497" fill="none" xmlns="http://www.w3.org/2000/svg">
<g clip-path="url(#clip0_864_10166)">
<path fill-rule="evenodd" clip-rule="evenodd" d="M27.5397 217.105L110.794 236.931C88.2765 324.396 79.4593 379.853 97.1282 437.621C87.0859 446.249 75.3699 448.958 65.4656 440.261C11.51 372.036 -29.5219 286.918 27.5224 217.105H27.5397Z" fill="#80251E"/>
<path fill-rule="evenodd" clip-rule="evenodd" d="M27.8843 215.276L50.7986 224.784C43.2583 307.106 63.8433 366.67 91.0713 424.283C86.9474 424.577 80.8737 419.297 81.2533 419.694C26.3659 356.921 -16.495 273.408 27.8843 215.276Z" fill="#69231C"/>
<path fill-rule="evenodd" clip-rule="evenodd" d="M56.8038 403.561H188.285L206.368 496.961H133.07L124.356 474.823L122.441 496.961H62.032L56.8038 403.561Z" fill="#21608D"/>
<path fill-rule="evenodd" clip-rule="evenodd" d="M56.8029 403.561H76.3181L77.1463 416.916C69.4679 415.639 62.6696 413.948 57.2688 411.791L56.8029 403.561ZM82.5643 403.561H156.104L157.847 417.692C134.467 420.453 106.048 420.764 83.4443 417.848L82.5471 403.561H82.5643ZM162.385 403.561H188.284L189.751 411.153C183.108 413.499 174.187 415.432 164.041 416.881L162.385 403.561Z" fill="#2B2A29"/>
<path fill-rule="evenodd" clip-rule="evenodd" d="M89.449 178.972L149.754 174.762L228.057 216.691L188.284 403.543C161.488 414.655 83.4444 417.106 56.8202 403.543C47.5717 344.532 25.0887 271.044 27.3836 215.57L89.4663 178.972H89.449Z" fill="#E31E24"/>
<path fill-rule="evenodd" clip-rule="evenodd" d="M89.6567 160.924C92.1587 124.637 138.436 120.806 146.874 156.179L150.394 178.972C130.568 186.633 110.311 188.29 89.6567 184.011V160.924Z" fill="#E31E24"/>
<path d="M112.623 271.234C113.848 272.597 114.607 275.858 113.33 277.445C114.021 277.394 114.797 277.307 115.625 277.238C116.264 275.375 115.643 272.321 115.28 271.941C114.262 271.475 113.313 271.13 112.606 271.234H112.623ZM122.268 258.396C119.025 258.448 115.505 258.5 112.45 257.533C105.324 255.29 117.092 246.37 108.465 243.609C106.532 242.988 103.564 243.85 102.857 245.921C102.236 247.715 102.425 249.251 102.391 251.08C102.322 254.755 99.5957 255.497 96.5416 254.6L83.1519 250.2C81.3229 252.547 75.2664 260.777 79.908 262.951C81.4609 263.676 83.6523 263.193 85.4468 263.831C88.035 264.746 88.6561 267.334 87.6726 269.733C86.1024 273.546 82.7205 272.666 79.8907 271.027C77.5613 269.698 75.4045 269.508 74.5417 272.459C73.1614 277.152 73.4202 281.138 74.559 285.728C79.908 285.365 85.6883 284.882 90.9338 285.987C96.7831 287.212 92.1934 293.406 92.0208 295.822C91.624 301.464 99.7855 302.862 101.701 298.721C102.46 297.064 101.545 294.648 102.287 292.492C103.236 289.731 105.238 289.524 107.74 290.421C110.69 291.474 113.451 292.923 116.212 294.407C118.369 291.077 121.906 284.882 121.647 281.466C121.388 278.049 115.298 279.361 113.192 279.516C105.652 280.068 107.274 269.957 112.312 269.198C115.194 268.766 117.523 271.355 119.939 271.682C122.424 272.01 123.183 270.802 123.494 268.473C123.821 265.298 123.045 261.588 122.268 258.396ZM104.531 292.526L106.498 295.667L110.276 293.682C109.517 293.337 108.741 292.992 107.964 292.681L107.171 293.096C106.981 292.802 106.791 292.492 106.601 292.181C105.669 291.87 105.014 291.784 104.531 292.509V292.526ZM119.749 292.578C120.802 295.235 118.541 299.376 122.734 301.447C126.53 303.31 132.362 300.946 131.983 295.736C131.897 294.424 131.137 293.009 130.689 291.75C129.947 289.213 129.515 287.522 132.311 286.936C137.608 285.831 143.699 286.383 149.22 286.763C150.515 281.552 150.98 277.497 149.427 272.2C148.358 268.542 145.476 268.577 142.664 270.198C136.072 273.977 135.589 267.904 136.072 266.506C136.314 265.798 136.849 265.195 137.694 264.832L137.936 264.746C140.024 264.038 144.751 265.229 145.718 261.243C146.011 260.018 145.769 258.655 145.286 257.447C144.009 254.221 142.319 251.77 140.231 249.061L136.245 250.493C134.019 251.253 126.306 253.944 124.425 253.979C121.578 254.031 121.613 251.891 121.63 249.924C121.647 247.043 121.526 244.23 118.386 242.936C116.281 242.073 114.124 242.436 112.381 243.557C112.847 244.057 113.21 244.61 113.434 245.196C115.712 243.661 118.679 244.541 119.266 246.232C120.336 249.303 118.541 253.272 121.682 255.239C123.148 256.153 125.081 256.032 126.772 255.532L139.54 251.356C141.093 253.427 142.508 255.739 143.475 258.155C145.683 263.762 139.54 261.882 136.97 263.02C131.741 265.367 133.933 273.201 138.747 273.391C140.351 273.46 142.077 272.769 143.63 271.872C144.613 271.303 145.511 270.975 146.201 271.096C148.185 271.424 148.478 277.825 148.444 279.119C148.409 280.948 148.151 282.76 147.702 284.692C142.526 284.33 137.004 283.95 131.897 285.02C127.031 286.038 127.859 290.128 129.274 293.492C130.068 295.408 130.603 297.081 129.084 298.703C127.341 300.567 123.338 300.722 122.217 298.289C121.475 296.685 122.907 293.32 120.854 290.542C120.491 291.232 120.112 291.922 119.749 292.561V292.578ZM113.831 255.773C114.21 254.376 113.71 252.305 113.141 250.977C112.157 253.841 110.967 255.066 113.831 255.773Z" fill="#FEFEFE"/>
<path fill-rule="evenodd" clip-rule="evenodd" d="M133.052 496.961L124.321 474.823L122.406 496.961H112.45L114.486 474.685L116.66 444.42L119.473 469.646L130.067 474.064L139.022 496.961H133.052Z" fill="#1D4366"/>
<path fill-rule="evenodd" clip-rule="evenodd" d="M89.4492 178.972L27.3665 215.57C26.4693 241.987 28.1948 267.489 34.6135 291.387L35.0967 447.387C49.7632 455.118 65.9655 456.86 82.9614 455.618C77.716 367.86 78.1473 270.975 89.4492 178.989V178.972Z" fill="#BA2322"/>
<path fill-rule="evenodd" clip-rule="evenodd" d="M150.41 178.972L228.057 216.691C213.407 238.881 206.022 269.404 208.162 310.126C209.128 354.298 210.094 398.487 211.061 442.66C200.708 450.683 175.516 455.618 150.41 455.618C142.611 363.408 140.937 271.199 150.41 178.989V178.972Z" fill="#BA2322"/>
<path fill-rule="evenodd" clip-rule="evenodd" d="M177.017 189.36L228.057 216.691C224.071 214.552 213.407 213.344 199.983 228.287L177.017 189.36Z" fill="#BA2322"/>
<path fill-rule="evenodd" clip-rule="evenodd" d="M199.983 228.287C188.561 208.927 177.138 189.567 165.715 170.207C158.434 171.001 153.378 177.868 150.807 191.413C140.454 246.68 175.671 326.294 221.604 366.394C245.295 333.834 253.301 280.223 228.695 218.296C228.488 217.761 228.281 217.226 228.057 216.691C224.071 214.552 213.408 213.344 199.983 228.287Z" fill="#80251E"/>
<path fill-rule="evenodd" clip-rule="evenodd" d="M199.983 228.286C209.508 242.453 223.243 267.386 228.057 295.77C225.382 266.678 220.516 247.56 210.163 219.417C206.557 221.678 202.865 224.594 199.983 228.286Z" fill="#69231C"/>
<path fill-rule="evenodd" clip-rule="evenodd" d="M91.6407 153.332C97.352 115.906 145.683 115.906 151.394 153.332L153.085 177.264C131.862 183.511 110.724 183.493 89.6564 177.264L91.6407 153.332Z" fill="#E31E24"/>
<path fill-rule="evenodd" clip-rule="evenodd" d="M54.7335 76.4099C59.0299 74.1667 61.3766 69.9911 60.5311 66.5746L55.6998 44.9372L66.7256 44.8854L65.3279 38.6392L51.179 38.7082L56.4762 62.399C54.0261 61.5708 50.8684 61.8468 47.9351 63.3825C43.1211 65.9017 40.7399 70.8538 42.6207 74.4601C44.5014 78.0491 49.9367 78.9291 54.7508 76.4099H54.7335Z" fill="#898989" fill-opacity="0.639216"/>
<path fill-rule="evenodd" clip-rule="evenodd" d="M27.4015 43.0736C29.7136 43.1081 31.6634 41.883 32.0775 40.2438L34.9763 30.0462L42.4994 34.1011L39.4281 44.9371C38.5826 44.0226 37.2022 43.4186 35.6148 43.4014C33.0093 43.3669 30.8869 44.9026 30.8524 46.8523C30.8179 48.8021 32.9057 50.3896 35.5112 50.4413C37.8234 50.4758 39.7731 49.2508 40.1873 47.6116L44.6562 31.8579L34.5104 26.3882L31.3356 37.5693C30.4901 36.6548 29.0924 36.0509 27.5223 36.0336C24.9168 35.9991 22.7945 37.5348 22.7599 39.4846C22.7254 41.4343 24.8133 43.039 27.4187 43.0736H27.4015Z" fill="#898989" fill-opacity="0.470588"/>
<path fill-rule="evenodd" clip-rule="evenodd" d="M53.6979 24.4211C56.4759 24.4556 58.7881 23.0062 59.2884 21.0392L62.7394 8.84007L68.3127 11.8251L69.3135 8.30517L62.17 4.47461L58.3739 17.8471C57.3732 16.76 55.6994 16.0353 53.8014 16.0181C50.6956 15.9663 48.1419 17.8126 48.1074 20.1419C48.0728 22.4713 50.5748 24.3866 53.6806 24.4211H53.6979Z" fill="#898989" fill-opacity="0.301961"/>
<path fill-rule="evenodd" clip-rule="evenodd" d="M169.977 81.9662C194.41 70.2329 189.734 110.005 177.242 108.884C174.93 108.677 172.566 108.262 170.167 107.296L169.977 81.9662Z" fill="#E1A27A"/>
<path fill-rule="evenodd" clip-rule="evenodd" d="M187.388 94.4067C186.749 101.895 182.763 109.367 177.259 108.866C174.947 108.659 172.583 108.245 170.185 107.279L170.133 101.274C177.535 103.431 185.317 102.896 187.388 94.4067Z" fill="#AD6D58"/>
<path d="M172.721 92.7157C172.618 93.7855 172.876 95.1487 174.153 95.2694C175.413 95.3902 175.862 94.0616 175.948 93.0091C176.069 91.5424 176.155 90.093 176.327 88.6091C176.483 87.453 176.638 86.3832 177.121 85.3134C177.363 84.8476 177.604 84.5197 178.001 84.1746C178.467 83.8123 178.881 83.6397 179.468 83.5535C178.829 83.4154 178.346 83.3982 177.708 83.5535C177.052 83.7433 176.621 84.0021 176.086 84.4335C174.947 85.417 174.343 86.5213 173.774 87.9017C173.17 89.5236 172.859 90.973 172.687 92.6985L172.721 92.7157Z" fill="#AD6D58"/>
<path fill-rule="evenodd" clip-rule="evenodd" d="M72.7637 81.9662C48.3309 70.2329 53.007 110.005 65.4994 108.884C67.8116 108.677 70.1755 108.262 72.5739 107.296L72.7637 81.9662Z" fill="#E1A27A"/>
<path fill-rule="evenodd" clip-rule="evenodd" d="M55.3712 94.4067C56.0096 101.895 59.9955 109.367 65.4998 108.866C67.8119 108.659 70.1758 108.245 72.5742 107.279L72.626 101.274C65.2237 103.431 57.4418 102.896 55.3712 94.4067Z" fill="#AD6D58"/>
<path d="M70.0378 92.7157C70.1413 93.7855 69.8825 95.1487 68.6056 95.2694C67.346 95.3902 66.8974 94.0616 66.8111 93.0091C66.6903 91.5424 66.6041 90.093 66.4315 88.6091C66.2762 87.453 66.1209 86.3832 65.6378 85.3134C65.3962 84.8476 65.1547 84.5197 64.7578 84.1746C64.2919 83.8123 63.8778 83.6397 63.2911 83.5535C63.9296 83.4154 64.4127 83.3982 65.0511 83.5535C65.7068 83.7433 66.1382 84.0021 66.6731 84.4335C67.8119 85.417 68.4158 86.5213 68.9852 87.9017C69.5891 89.5236 69.8997 90.973 70.0723 92.6985L70.0378 92.7157Z" fill="#AD6D58"/>
<path fill-rule="evenodd" clip-rule="evenodd" d="M79.8727 36.3787C71.8319 57.4641 67.1559 103.327 66.7073 148.31C72.2115 154.384 78.3197 159.388 85.6358 163.012L86.5503 157.386L87.6028 163.943C96.5063 167.929 110 169.551 121.37 169.603C123.924 169.586 126.581 169.499 129.273 169.327L131.206 160.975L133.897 168.93C141.697 168.119 149.392 166.531 155.155 163.943L156.208 157.386L157.122 163.012C164.438 159.388 170.547 154.367 176.051 148.31C175.602 103.344 170.909 57.4641 162.885 36.3787C154.189 26.7506 137.642 22.3333 121.388 22.7129C105.116 22.3333 88.5863 26.7506 79.8899 36.3787H79.8727Z" fill="#76471D"/>
<path fill-rule="evenodd" clip-rule="evenodd" d="M136.417 116.079C147.547 114.025 158.4 109.798 168.218 103.621C167.614 76.1167 164.577 58.0855 158.538 46.6283C157.554 44.7648 156.277 43.4017 154.483 42.3319C146.649 37.6386 133.794 35.43 121.371 35.5853C108.948 35.43 96.0928 37.6386 88.2591 42.3319C86.4646 43.4017 85.1878 44.7648 84.2043 46.6283C78.1824 58.0683 75.1283 76.0995 74.5243 103.621C83.8419 109.47 94.0913 113.594 104.617 115.751C108.344 115.199 114.486 114.905 121.406 115.044C127.324 115.147 132.656 115.544 136.4 116.096L136.417 116.079Z" fill="#EEBD91"/>
<path fill-rule="evenodd" clip-rule="evenodd" d="M149.237 39.7609C163.99 27.9586 152.619 5.38935 127.98 0.00585938L127.876 5.23406C118.886 1.61055 109.551 0.247426 99.7335 2.02467C99.699 5.45837 99.9751 8.13286 100.821 9.78932C93.8669 7.90855 87.0858 8.35717 80.3736 9.92736C81.9438 17.2951 84.325 22.7304 90.9336 28.459C88.6387 28.1139 85.7571 28.3382 83.3415 29.2182C85.3775 42.6942 93.9877 50.6486 111.588 51.0627C128.445 51.2353 138.194 35.9476 149.237 39.7781V39.7609Z" fill="#76471D"/>
<path fill-rule="evenodd" clip-rule="evenodd" d="M113.848 57.2056L94.6603 58.6722L87.2926 64.4871L88.742 79.0501L110.759 83.243L113.848 57.2056Z" fill="#D7956D"/>
<path fill-rule="evenodd" clip-rule="evenodd" d="M111.501 52.7883C106.101 52.8573 100.683 52.9436 95.4718 54.0824C91.7793 54.8934 89.0357 57.7232 87.8279 61.9333L87.086 64.5388C94.2122 62.2094 102.08 61.3122 110.242 60.9843C111.381 60.9326 112.312 60.3977 113.02 59.3796C113.727 58.3616 113.986 57.1538 113.814 55.8079L113.71 55.0142C113.538 53.7201 112.589 52.7711 111.501 52.7883Z" fill="#5D391C"/>
<path fill-rule="evenodd" clip-rule="evenodd" d="M128.928 57.1362L148.443 59.6037L155.569 64.6938L154.016 79.0498L131.999 83.2427L128.928 57.1362Z" fill="#D7956D"/>
<path fill-rule="evenodd" clip-rule="evenodd" d="M110.759 83.2431C104.392 77.618 96.9377 76.7035 88.7417 79.0502C88.1895 93.2509 106.117 95.9426 110.759 83.2431ZM131.982 83.2431C138.349 77.618 145.803 76.7035 153.999 79.0502C154.551 93.2509 136.624 95.9426 131.982 83.2431Z" fill="#FEFEFE"/>
<mask id="mask0_864_10166" style="mask-type:luminance" maskUnits="userSpaceOnUse" x="88" y="77" width="67" height="15">
<path d="M110.759 83.2431C104.392 77.618 96.9377 76.7035 88.7417 79.0502C88.1895 93.2509 106.117 95.9426 110.759 83.2431ZM131.982 83.2431C138.349 77.618 145.803 76.7035 153.999 79.0502C154.551 93.2509 136.624 95.9426 131.982 83.2431Z" fill="white"/>
</mask>
<g mask="url(#mask0_864_10166)">
<path d="M104.703 88.1091C102.072 88.1091 99.9402 85.9306 99.9402 83.2433C99.9402 80.556 102.072 78.3774 104.703 78.3774C107.333 78.3774 109.465 80.556 109.465 83.2433C109.465 85.9306 107.333 88.1091 104.703 88.1091Z" fill="#4658A2"/>
<path d="M104.702 86.0214C103.197 86.0214 101.976 84.7776 101.976 83.2434C101.976 81.7091 103.197 80.4653 104.702 80.4653C106.208 80.4653 107.429 81.7091 107.429 83.2434C107.429 84.7776 106.208 86.0214 104.702 86.0214Z" fill="#2B2A29"/>
<path fill-rule="evenodd" clip-rule="evenodd" d="M101.7 83.3984C102.684 83.3984 103.478 82.5874 103.478 81.5867C103.478 80.5859 102.684 79.7749 101.7 79.7749C100.717 79.7749 99.9231 80.5859 99.9231 81.5867C99.9231 82.5874 100.717 83.3984 101.7 83.3984Z" fill="#FEFEFE" fill-opacity="0.658824"/>
<path d="M147.373 88.1091C144.743 88.1091 142.611 85.9306 142.611 83.2433C142.611 80.556 144.743 78.3774 147.373 78.3774C150.004 78.3774 152.136 80.556 152.136 83.2433C152.136 85.9306 150.004 88.1091 147.373 88.1091Z" fill="#4658A2"/>
<path d="M147.373 86.0214C145.868 86.0214 144.647 84.7776 144.647 83.2434C144.647 81.7091 145.868 80.4653 147.373 80.4653C148.879 80.4653 150.1 81.7091 150.1 83.2434C150.1 84.7776 148.879 86.0214 147.373 86.0214Z" fill="#2B2A29"/>
<path fill-rule="evenodd" clip-rule="evenodd" d="M144.25 83.3984C145.234 83.3984 146.027 82.5874 146.027 81.5867C146.027 80.5859 145.234 79.7749 144.25 79.7749C143.267 79.7749 142.473 80.5859 142.473 81.5867C142.473 82.5874 143.267 83.3984 144.25 83.3984Z" fill="#FEFEFE" fill-opacity="0.658824"/>
</g>
<path fill-rule="evenodd" clip-rule="evenodd" d="M131.309 52.65C136.71 52.788 142.128 52.9261 147.322 54.1339C150.997 54.9967 153.723 57.8609 154.862 62.0711L155.569 64.6938C148.478 62.2782 140.627 61.2946 132.448 60.8633C131.309 60.8115 130.377 60.2421 129.687 59.2241C128.997 58.1888 128.738 56.981 128.945 55.6351L129.066 54.8414C129.256 53.5473 130.222 52.5982 131.309 52.6327V52.65Z" fill="#5D391C"/>
<path fill-rule="evenodd" clip-rule="evenodd" d="M132 83.2431C134.208 69.3358 151.29 70.302 154.017 79.0502C145.821 76.7208 138.367 77.618 132 83.2431Z" fill="#AD6D58"/>
<path fill-rule="evenodd" clip-rule="evenodd" d="M144.044 92.8712C150.256 92.8712 155.294 91.8704 155.294 90.6453C155.294 89.4202 150.256 88.4194 144.044 88.4194C137.832 88.4194 132.794 89.4202 132.794 90.6453C132.794 91.8876 137.832 92.8712 144.044 92.8712Z" fill="#EEBD91"/>
<path fill-rule="evenodd" clip-rule="evenodd" d="M99.7167 92.8712C105.928 92.8712 110.967 91.8704 110.967 90.6453C110.967 89.4202 105.928 88.4194 99.7167 88.4194C93.505 88.4194 88.4666 89.4202 88.4666 90.6453C88.4666 91.8876 93.505 92.8712 99.7167 92.8712Z" fill="#EEBD91"/>
<path fill-rule="evenodd" clip-rule="evenodd" d="M117.903 85.2619C116.54 94.3551 114.21 101.878 110.69 107.417C113.796 110.868 117.903 112.611 122.51 113.508C119.3 112.214 116.643 110.161 115.66 105.743C118.524 99.2728 119.024 92.4054 117.903 85.2446V85.2619ZM126.444 113.042C128.187 111.317 130.274 108.59 131.517 105.933C133.07 110.937 131.137 113.111 126.444 113.042Z" fill="#AD6D58"/>
<path fill-rule="evenodd" clip-rule="evenodd" d="M163.938 21.1948C163.938 21.1948 163.489 25.9054 160.383 29.5461C157.277 33.1869 152.791 34.4637 152.687 34.3775C152.584 34.2912 153.136 29.6669 156.242 26.0262C159.348 22.3854 163.938 21.1948 163.938 21.1948Z" fill="#76471D"/>
<path fill-rule="evenodd" clip-rule="evenodd" d="M166.819 29.2702C166.819 29.2702 164.732 32.3243 161.229 33.6356C157.726 34.947 154.172 34.136 154.137 34.0325C154.103 33.929 156.225 30.9784 159.728 29.667C163.23 28.3557 166.819 29.2702 166.819 29.2702Z" fill="#76471D"/>
<path d="M151.29 90.1621C146.045 97.3919 137.434 94.7691 134.587 90.1966C138.815 92.4225 144.992 93.3542 151.29 90.1621ZM108.36 90.1621C103.115 97.3919 94.5046 94.7691 91.6575 90.1966C95.885 92.4225 102.062 93.3542 108.36 90.1621Z" fill="#D7956D"/>
<path fill-rule="evenodd" clip-rule="evenodd" d="M111.208 134.3C107.757 133.523 105.41 130.935 105.945 128.502C106.48 126.069 109.724 124.723 113.175 125.5C116.626 126.276 118.973 128.864 118.438 131.297C117.903 133.73 114.659 135.076 111.208 134.3Z" fill="#E29278"/>
<path fill-rule="evenodd" clip-rule="evenodd" d="M111.933 131.09C111.001 130.883 110.363 130.176 110.501 129.52C110.656 128.864 111.519 128.502 112.45 128.709C113.382 128.916 114.021 129.624 113.883 130.279C113.745 130.935 112.865 131.297 111.933 131.09Z" fill="#99452A"/>
<path fill-rule="evenodd" clip-rule="evenodd" d="M110.759 83.2431C108.55 69.3358 91.4679 70.302 88.7417 79.0502C96.9377 76.7208 104.392 77.618 110.759 83.2431Z" fill="#AD6D58"/>
<path fill-rule="evenodd" clip-rule="evenodd" d="M166.682 169.81C169.046 174.607 170.564 180.249 169.649 185.615C168.959 189.636 166.854 193.346 163.196 195.33C160.677 196.71 157.83 197.021 155.017 196.486L154.741 196.434L154.534 196.244C146.183 189.066 139.316 180.784 134.553 170.828H128.273L124.615 178.092C123.648 180.025 122.251 181.422 120.335 182.423L117.92 183.666L117.833 182.044C117.437 175.314 117.126 168.671 120.905 162.753C120.611 159.285 121.75 156.386 124.287 154.056C123.959 151.882 124.511 149.794 125.615 147.862L125.805 147.517L126.167 147.396C127.479 146.93 128.807 146.551 130.136 146.223L124.856 145.998C122.182 146.844 119.473 147.603 116.729 148.19C114.503 148.656 112.191 149.018 109.913 149.104C106.756 149.225 103.046 148.828 100.665 146.533L99.6296 145.533L100.889 144.842C110.31 139.7 120.491 136.284 130.982 134.11L131.24 134.058L131.499 134.144C140.592 136.922 150.031 137.664 159.469 138.234L160.384 138.286L160.453 139.2C161.315 149.587 163.144 159.94 166.647 169.775L166.682 169.81Z" fill="#AD6D58"/>
<path fill-rule="evenodd" clip-rule="evenodd" d="M165.715 170.207C162.247 160.493 160.332 150.122 159.434 139.304C149.737 138.717 140.368 137.958 131.223 135.163C119.662 137.544 109.861 141.185 101.424 145.792C104.909 149.139 112.795 148.777 124.735 144.963L141.023 145.654C136.192 146.05 131.361 146.723 126.529 148.414C125.304 150.537 124.994 152.555 125.425 154.488C122.906 156.576 121.543 159.302 121.974 163.046C118.109 168.827 118.489 175.504 118.868 182.027L119.835 181.526C121.56 180.629 122.785 179.387 123.665 177.644L127.617 169.81H135.209C139.988 180.06 146.942 188.359 155.207 195.468C165.663 197.487 173.48 185.978 165.698 170.224L165.715 170.207Z" fill="#EEBD91"/>
<path fill-rule="evenodd" clip-rule="evenodd" d="M121.974 163.029L138.832 161.683L138.332 161.269L121.508 161.683L121.974 163.029Z" fill="#AD6D58"/>
<path fill-rule="evenodd" clip-rule="evenodd" d="M125.425 154.488L143.163 153.125L142.542 152.745L124.942 153.125L125.425 154.488Z" fill="#AD6D58"/>
<path fill-rule="evenodd" clip-rule="evenodd" d="M131.189 147.068L150.808 145.377L150.117 145.032L130.706 145.722L131.189 147.068Z" fill="#AD6D58"/>
</g>
<defs>
<clipPath id="clip0_864_10166">
<rect width="243.689" height="496.966" fill="white" transform="matrix(-1 0 0 1 243.689 0)"/>
</clipPath>
</defs>
</svg>
