<?xml version="1.0" encoding="UTF-8"?>
<!DOCTYPE svg PUBLIC "-//W3C//DTD SVG 1.1//EN" "http://www.w3.org/Graphics/SVG/1.1/DTD/svg11.dtd">
<!-- Creator: CorelDRAW 2020 (64-Bit) -->
<svg xmlns="http://www.w3.org/2000/svg" xml:space="preserve" width="109.446mm" height="121.872mm" version="1.1" style="shape-rendering:geometricPrecision; text-rendering:geometricPrecision; image-rendering:optimizeQuality; fill-rule:evenodd; clip-rule:evenodd"
viewBox="0 0 1467.74 1634.37"
 xmlns:xlink="http://www.w3.org/1999/xlink"
 xmlns:xodm="http://www.corel.com/coreldraw/odm/2003">
 <defs>
  <style type="text/css">
   <![CDATA[
    .fil15 {fill:#FEFEFE}
    .fil3 {fill:#2B2A29}
    .fil4 {fill:#E31E24}
    .fil8 {fill:#BA2322}
    .fil7 {fill:#EEBD91}
    .fil11 {fill:#E1A27A}
    .fil14 {fill:#D7956D}
    .fil0 {fill:#80251E}
    .fil13 {fill:#76471D}
    .fil9 {fill:#69231C}
    .fil1 {fill:#69231C}
    .fil19 {fill:#5D391C}
    .fil6 {fill:#AD6D58}
    .fil21 {fill:#4D897C}
    .fil16 {fill:#4658A2}
    .fil2 {fill:#21608D}
    .fil5 {fill:#FEFEFE;fill-rule:nonzero}
    .fil10 {fill:#B2B3B3;fill-rule:nonzero}
    .fil22 {fill:#2B2A29;fill-rule:nonzero}
    .fil20 {fill:#E29278;fill-rule:nonzero}
    .fil18 {fill:#D7956D;fill-rule:nonzero}
    .fil12 {fill:#AD6D58;fill-rule:nonzero}
    .fil17 {fill:#FEFEFE;fill-opacity:0.658824}
   ]]>
  </style>
     <mask id="id0">
  <linearGradient id="id1" gradientUnits="userSpaceOnUse" x1="1181.43" y1="-585.72" x2="29.55" y2="742.42">
   <stop offset="0" style="stop-opacity:1; stop-color:white"/>
   <stop offset="1" style="stop-opacity:0; stop-color:white"/>
  </linearGradient>
      <rect style="fill:url(#id1)" x="314.78" y="281.87" width="202.83" height="202.82"/>
     </mask>
 </defs>
 <g id="Слой_x0020_1">
  <metadata id="CorelCorpID_0Corel-Layer"/>
  <g id="_2498535889104">
   <path class="fil0" d="M511.61 980.04l273.64 -155.19c162.13,255.8 276.54,406.54 453.21,506.99 -0.73,41.73 -19.26,72.83 -61.32,72.94 -279.36,-49 -547.03,-207.5 -665.53,-424.73z"/>
   <path class="fil1" d="M511.61 980.04l117.53 -66.66c196.33,231.67 373.94,389.02 580.85,482.74 -8.07,9.47 -34.68,8.37 -32.85,8.65 -279.36,-49 -547.03,-207.5 -665.53,-424.73z"/>
   <polygon class="fil2" points="699.82,1537.97 204.01,1537.97 185.35,1634.37 694.43,1634.37 "/>
   <path class="fil3" d="M699.82 1537.97l-73.57 0 -3.15 50.39c28.97,-4.79 54.61,-11.18 74.99,-19.32l1.74 -31.07zm-97.13 0l-277.36 0 -6.6 53.27c88.16,10.39 195.36,11.58 280.59,0.61l3.37 -53.88zm-301.04 0l-97.64 0 -5.54 28.65c25.08,8.85 58.69,16.14 96.96,21.59l6.23 -50.24z"/>
   <path class="fil4" d="M576.69 691.03l-227.41 -15.89 -295.28 158.16 150 704.68c101.04,41.92 395.41,51.17 495.81,0 34.84,-222.57 119.66,-499.67 110.99,-708.93l-234.12 -138.01z"/>
   <path class="fil5" d="M489.32 1038.98c-4.63,5.11 -7.48,17.43 -2.69,23.42 -2.59,-0.21 -5.55,-0.52 -8.65,-0.76 -2.42,-7 -0.08,-18.56 1.28,-19.99 3.84,-1.76 7.42,-3.06 10.05,-2.67zm-36.37 -48.4c12.22,0.17 25.48,0.37 37.05,-3.27 26.86,-8.43 -17.51,-42.12 15.01,-52.5 7.28,-2.32 18.45,0.89 21.17,8.69 2.35,6.75 1.63,12.55 1.76,19.48 0.27,13.89 10.54,16.63 22.08,13.28l50.47 -16.59c6.87,8.87 29.72,39.89 12.21,48.11 -5.86,2.75 -14.12,0.91 -20.89,3.29 -9.79,3.43 -12.11,13.24 -8.39,22.26 5.94,14.36 18.66,11.05 29.35,4.91 8.77,-5.04 16.89,-5.74 20.17,5.4 5.2,17.72 4.2,32.7 -0.07,50.02 -20.19,-1.39 -41.97,-3.17 -61.72,0.96 -22.03,4.62 -4.77,28 -4.12,37.06 1.51,21.26 -29.29,26.56 -36.53,10.94 -2.89,-6.22 0.57,-15.38 -2.2,-23.47 -3.56,-10.39 -11.11,-11.19 -20.54,-7.82 -11.13,3.99 -21.55,9.47 -31.95,15.02 -8.15,-12.55 -21.48,-35.91 -20.53,-48.78 0.94,-12.88 23.91,-7.92 31.91,-7.35 28.45,2.06 22.34,-36.06 3.31,-38.92 -10.9,-1.63 -19.64,8.17 -28.74,9.4 -9.37,1.27 -12.25,-3.33 -13.38,-12.11 -1.22,-11.99 1.72,-25.99 4.6,-38.01zm66.89 128.73l-7.42 11.86 -14.26 -7.49c2.88,-1.33 5.79,-2.59 8.74,-3.74l3 1.59c0.69,-1.1 1.41,-2.26 2.14,-3.47 3.51,-1.16 6.02,-1.48 7.79,1.26zm-57.36 0.19c-3.97,10.02 4.54,25.64 -11.28,33.44 -14.31,7.05 -36.3,-1.88 -34.9,-21.52 0.36,-4.98 3.2,-10.29 4.91,-15.05l0.01 0c2.8,-9.6 4.42,-15.95 -6.12,-18.16 -19.97,-4.19 -42.93,-2.1 -63.8,-0.68 -4.86,-19.63 -6.63,-34.95 -0.77,-54.93 4.05,-13.8 14.89,-13.65 25.51,-7.56l0 0.01c24.83,14.27 26.68,-8.68 24.87,-13.91 -0.93,-2.69 -2.94,-4.97 -6.12,-6.31l-0 0.01 -0.92 -0.35 0.01 -0.01c-7.85,-2.67 -25.72,1.79 -29.36,-13.24 -1.11,-4.6 -0.18,-9.77 1.62,-14.31l0.01 0c4.81,-12.14 11.17,-21.44 19.08,-31.63l15.02 5.42 0 -0c8.4,2.85 37.47,13.02 44.59,13.15 10.72,0.2 10.59,-7.87 10.54,-15.3 -0.07,-10.86 0.38,-21.51 12.21,-26.37 7.92,-3.25 16.06,-1.91 22.65,2.36 -1.79,1.87 -3.1,3.95 -3.98,6.2 -8.61,-5.78 -19.8,-2.44 -22,3.92l-0 0c-4.01,11.56 2.76,26.53 -9.1,33.94 -5.55,3.47 -12.84,2.98 -19.21,1.13l-48.17 -15.75c-5.87,7.83 -11.21,16.51 -14.81,25.61l0.01 0c-8.36,21.14 14.81,14.03 24.51,18.38 19.73,8.86 11.46,38.43 -6.69,39.11 -6.03,0.23 -12.55,-2.35 -18.4,-5.72l-0.01 0.01c-3.7,-2.12 -7.12,-3.36 -9.71,-2.94l0 0.01c-7.49,1.24 -8.56,25.38 -8.48,30.25 0.11,6.86 1.12,13.75 2.78,21.04 19.55,-1.36 40.37,-2.78 59.62,1.24 18.32,3.84 15.22,19.23 9.91,31.94l-0 -0c-3,7.24 -5,13.52 0.74,19.68 6.56,7.05 21.67,7.62 25.92,-1.57 2.79,-6.02 -2.59,-18.73 5.13,-29.21 1.36,2.62 2.77,5.18 4.19,7.62zm22.32 -138.79c-1.42,-5.26 0.45,-13.06 2.57,-18.08 3.73,10.81 8.19,15.41 -2.57,18.08z"/>
   <g>
    <path class="fil6" d="M1300.77 1477.26l76.59 13.42c23.59,13.75 54.16,28.11 82.07,24.09l8.3 -1.2 -29.77 -31.32c3.35,-17.38 -6.54,-32.82 -19.27,-44.06 4.93,-11.72 -1.54,-22.61 -10.22,-31.19 3.4,-7.65 3.14,-15.4 -3.02,-22.08l-0.26 -0.28 -63.36 -47.01 -1.33 -0.07c-42.11,-2.37 -88.86,-14 -129.92,-23.24l-1.88 -0.42 -1.57 1.12c-63.47,44.94 -0.51,125.59 35.74,167.04l0.26 0.3 0.32 0.25c28.23,22.23 49.82,50.12 66.11,82.06l3.61 7.09 3.99 -6.88c18.35,-31.64 4.93,-62.49 -16.41,-87.6z"/>
    <path class="fil7" d="M1209.64 1318.54c41.47,9.33 88.34,20.96 130.63,23.34l62 45.98c4.86,5.27 5.61,11.82 0.88,20.07 11.74,10.61 16.34,21.08 10.14,31.36 16.68,13.6 23.85,29.29 19.94,44.28l25.59 26.92c-23.76,3.42 -51.06,-7.01 -80.03,-23.99l-89.13 -15.02c30.74,31.75 40.36,62.6 23.77,91.21 -16.72,-32.78 -38.71,-60.99 -67.29,-83.5 -62.4,-71.34 -81.88,-128.52 -36.5,-160.65z"/>
    <polygon class="fil6" points="1403.15,1407.92 1348.27,1374.14 1341.58,1366.17 1404.83,1404.5 1408.07,1409.23 "/>
    <polygon class="fil6" points="1413.29,1439.27 1342.33,1401.39 1335.1,1393.7 1414.93,1435.91 1416.92,1439.5 "/>
    <polygon class="fil6" points="1433.23,1483.55 1395.09,1458.66 1338.38,1435.32 1329.58,1427.84 1395.67,1454.83 1434,1479.58 1438.47,1485.89 "/>
    <polygon class="fil6" points="1289.66,1471.47 1274.04,1470.15 1294.86,1477.06 1301.55,1476.1 "/>
   </g>
   <g>
    <path class="fil8" d="M576.69 691.03l234.12 138.01c3.4,99.6 -3.12,195.8 -27.34,285.92l-1.59 519.41 -175.48 0c13.78,-303.67 8.65,-631.01 -29.7,-943.34z"/>
    <path class="fil8" d="M346.83 691.03l-292.82 142.26c55.24,83.66 83.08,198.8 75,352.34l-9.79 448.74 235.42 0c22.46,-314.45 24.52,-628.89 -7.8,-943.34z"/>
   </g>
   <path class="fil8" d="M246.49 730.2l-192.48 103.1c15.01,-8.04 55.22,-12.64 105.85,43.73l86.63 -146.82z"/>
   <g>
    <path class="fil0" d="M160.64 875.17c41.77,-73.77 83.55,-147.54 125.32,-221.31 27.53,2.51 47.01,28.07 57.64,78.95 42.76,207.71 -84.7,510.28 -255.18,664.57 -91.52,-121.15 -125.3,-322.8 -36.69,-557.97 0.75,-2.03 1.52,-4.05 2.29,-6.07 14.87,-8.31 54.99,-13.62 106.62,41.83z"/>
    <path class="fil9" d="M160.64 875.16c-34.94,54.03 -85.1,149 -101.3,256.36 8.14,-109.88 25.2,-182.28 62.31,-289.1 13.77,8.3 27.86,19.05 39,32.74z"/>
   </g>
   <g>
    <g>
     <path class="fil10" d="M206.16 17.15c-0.43,-3.22 -0.86,-6.44 -1.29,-9.66 -0.04,-1.38 -0.31,-2.39 -0.95,-3.61 -0.69,-1.18 -1.41,-1.95 -2.55,-2.7 -1.17,-0.71 -2.17,-1.03 -3.53,-1.14 -0.56,-0.18 -3.19,0.31 -3.62,0.7 -14.8,9.39 -29.6,18.77 -44.4,28.16 16.75,-5.17 33.49,-10.33 50.24,-15.5 -1.09,0.49 -1.98,0.66 -3.18,0.61 -1.18,-0.09 -2.06,-0.37 -3.08,-0.98 -1.01,-0.66 -1.64,-1.33 -2.25,-2.37 -0.57,-1.07 -0.81,-1.96 -0.84,-3.16 0,0 -1.14,8.53 -1.29,9.66 -3.28,24.55 -5.46,51.01 -5.78,75.76 0.06,3.07 0.73,5.35 2.35,7.97 1.72,2.54 3.53,4.09 6.3,5.4 2.83,1.2 5.19,1.52 8.24,1.11 3.04,-0.54 5.2,-1.57 7.53,-3.58 19.78,-17.02 37.99,-34.07 56.18,-52.79 -1.91,1.63 -3.66,2.46 -6.13,2.89 -2.48,0.33 -4.4,0.07 -6.7,-0.91 -2.26,-1.07 -3.72,-2.33 -5.13,-4.41 -1.3,-2.12 -1.85,-3.98 -1.9,-6.47 0.98,12.98 2.26,25.69 3.95,38.6 2.79,20.9 5.59,41.8 8.38,62.7 2.79,-20.9 5.59,-41.8 8.39,-62.7 1.7,-12.91 2.97,-25.62 3.95,-38.6 -0.05,-2.69 -0.64,-4.69 -2.05,-6.98 -1.51,-2.23 -3.08,-3.59 -5.51,-4.74 -2.49,-1.06 -4.56,-1.34 -7.24,-0.98 -2.66,0.47 -4.54,1.36 -6.6,3.12 -20.58,16.07 -39.5,32.32 -58.57,50.16 2.19,-1.88 4.21,-2.83 7.05,-3.34 2.85,-0.38 5.06,-0.09 7.71,1.03 2.61,1.23 4.3,2.68 5.92,5.07 1.51,2.45 2.15,4.58 2.2,7.46 -0.75,-25.78 -2.48,-50.18 -5.78,-75.76z"/>
     <path class="fil10" d="M180.8 167.55c-7.08,-9.57 -14.16,-19.14 -21.24,-28.71 1.93,11.75 3.86,23.49 5.79,35.24 0.83,4.96 1.81,9.74 2.98,14.63 0.89,2.04 1.93,3.4 3.67,4.8 1.78,1.33 3.36,2 5.56,2.36 2.22,0.28 3.94,0.08 6.04,-0.69 2.07,-0.86 3.48,-1.88 4.92,-3.59 13.41,-12.37 23.77,-24.17 34.49,-38.92 -1.43,1.73 -2.81,2.8 -4.83,3.79 -2.04,0.91 -3.74,1.28 -5.98,1.27 -2.27,-0.08 -3.94,-0.5 -5.98,-1.51 -1.98,-1.07 -3.31,-2.19 -4.68,-3.98 8.83,10.38 17.27,18.99 27.69,27.79 9.15,7.61 18.31,15.23 27.46,22.84 -4.67,-10.95 -9.34,-21.9 -14,-32.86 -5.44,-12.51 -11.26,-23.05 -18.68,-34.49 -1.46,-1.91 -2.88,-3.1 -4.99,-4.24 -2.15,-1.06 -3.95,-1.52 -6.34,-1.6 -2.42,-0.01 -4.22,0.37 -6.43,1.36 -2.17,1.06 -3.63,2.2 -5.17,4.06 -12.06,13.65 -21.34,26.35 -30.49,42.11 1.33,-1.58 2.63,-2.53 4.54,-3.31 1.94,-0.71 3.53,-0.9 5.57,-0.64 2.02,0.33 3.48,0.96 5.12,2.19 1.6,1.29 2.57,2.55 3.38,4.43 -2.69,-4.25 -5.44,-8.29 -8.42,-12.34z"/>
    </g>
    <g>
     <path class="fil4" d="M575.91 635.12c-9.42,-136.86 -183.98,-151.32 -215.79,-17.87l-13.3 85.94c74.79,28.92 151.16,35.16 229.08,18.97l0 -87.03z"/>
     <path class="fil4" d="M566.74 612.65c-20.24,-132.74 -191.69,-132.74 -211.94,0l-6.03 84.9c75.29,22.17 150.29,22.08 224.99,0l-7.03 -84.9z"/>
     <g>
      <g>
       <path class="fil11" d="M593.96 378.83c91.6,-29.21 55.61,108.24 12.3,98.12 -8.03,-1.87 -16.15,-4.48 -24.08,-9.03l11.79 -89.09z"/>
       <path class="fil6" d="M648.97 431.13c-5.92,26.01 -23.6,50.29 -42.72,45.83 -8.03,-1.87 -16.15,-4.48 -24.08,-9.03l2.8 -21.13c24.97,11.19 52.53,13.13 64.01,-15.66z"/>
       <path class="fil12" d="M598.25 417.98c-0.86,3.74 -0.67,8.62 3.75,9.66 4.36,1.03 6.58,-3.42 7.42,-7.03 0,-0.01 0,-0.02 0.01,-0.03 1.16,-5.11 2.16,-10.17 3.52,-15.24 1.09,-4 2.21,-7.67 4.42,-11.2 1.1,-1.53 2.08,-2.56 3.68,-3.56 1.83,-1.07 3.37,-1.41 5.47,-1.43 -2.17,-0.8 -3.85,-1.08 -6.16,-0.87 -2.38,0.33 -4.07,1.02 -6.11,2.3 -4.47,2.9 -7.17,6.47 -9.84,11.06 -2.92,5.4 -4.72,10.34 -6.15,16.3 -0,0.01 -0,0.02 -0.01,0.03z"/>
      </g>
      <path class="fil13" d="M623.63 219.45c17.86,78.02 21.94,243.63 1.4,401.85 -21.07,19.95 -43.32,34.97 -71.79,43.09l-0.43 -20.19 -6.88 22.28c-47.52,14.81 -115.45,9.57 -161.38,-6.27l-1.83 -33.05 -12.13 27.58c-16.95,-6.79 -34.18,-16.51 -49.56,-27.83l0.14 -21.44 -5.12 17.67c-19.85,-15.49 -36.03,-33.57 -43.55,-51.18 1.7,-20.88 6.59,-47.96 13.54,-77.69 -22.27,-26.38 -26.72,-73.18 -21.54,-131.01 2.28,-25.47 6.33,-47 13.45,-71.57 11.12,-38.37 24.77,-78.7 42.91,-111.67 7.75,-6.49 17.24,-11.98 27.94,-16.49 -8.82,-6.5 -13.24,-15.39 -13.24,-15.39 0,0 11.25,-1.26 22.19,3.64 -8.78,-14.2 -8.08,-30.57 -8.08,-30.57 0,0 15.52,6.43 24.65,20.74 2.49,3.91 4.28,7.97 5.55,11.83 33.1,-7.46 71.38,-8.19 104.7,-2.73 57.32,6.66 113.26,30.29 139.08,68.41z"/>
      <path class="fil7" d="M325.63 424.34c6.67,-40.94 28.81,-159.99 59.18,-205.28 5.24,-7.82 12.15,-12.93 21.16,-15.66 27.24,-8.26 63.61,-8.84 98.09,-3.55 40.63,5.14 81.54,18.79 104.79,38.84 5.31,4.58 8.83,9.94 11.12,16.93 14.06,42.96 22.24,108.32 10.69,205.23 -24.04,14.97 -50.62,24.67 -78.64,29.22 -10.15,-2.53 -30.9,-5.11 -54.93,-6.58 -23.43,-1.44 -43.9,-1.45 -54.54,-0.27 -39.74,-10.84 -79.59,-30.54 -116.93,-58.87z"/>
      <path class="fil6" d="M528.78 381.22c0.32,32.65 4.8,60.18 14.45,81.39 -12.61,10.59 -27.91,14.67 -44.51,15.6 11.91,-2.95 22.28,-8.84 27.86,-23.91 -6.85,-24.14 -5.26,-48.53 2.21,-73.09zm-43.68 93.38c-5.27,-6.94 -11.27,-17.51 -14.33,-27.48 -7.94,16.82 -2.22,25.42 14.33,27.48z"/>
      <g>
       <path class="fil7" d="M287.41 328.15c-47.21,-12.15 -54.89,61.73 -34.51,90.49 9.02,12.73 26.1,14.19 39.56,7.97l0.26 39.93 20.77 -65.9c0.2,-0.61 0.4,-1.23 0.58,-1.85l0.01 -0.03 0 -0c3.58,-12 4.02,-25.87 0.67,-41.97 -2.98,-14.32 -13.18,-24.99 -27.34,-28.64z"/>
       <path class="fil6" d="M246.83 351.56c-7.9,21.33 -5.23,51.14 6.06,67.08 13.32,18.8 44.22,13.02 55.1,-5.78 -25.54,21.54 -70.9,-2.97 -61.16,-61.3z"/>
       <path class="fil12" d="M294.82 375.21c-0.2,3.83 -1.72,8.48 -6.26,8.26 -4.48,-0.21 -5.39,-5.1 -5.2,-8.8 0,-0.01 0,-0.02 0,-0.03 0.28,-5.23 0.72,-10.38 0.8,-15.62 0.05,-4.14 -0.02,-7.98 -1.17,-11.98 -0.64,-1.77 -1.3,-3.04 -2.56,-4.43 -1.47,-1.53 -2.85,-2.29 -4.86,-2.88 2.3,-0.18 4,0.02 6.16,0.85 2.19,0.97 3.63,2.11 5.24,3.89 3.5,4.02 5.12,8.19 6.43,13.34 1.32,5.99 1.69,11.23 1.44,17.36 0,0.01 0,0.02 0,0.03z"/>
      </g>
      <path class="fil13" d="M382.05 196.98c-27.21,-62.99 35.08,-126.4 124.29,-133.2l-2.21 18.4c33.37,-8.3 66.85,-8.48 100.48,2.56 -1.53,12.05 -3.86,21.32 -7.65,26.76 25.35,-3.17 48.98,1.72 71.77,10.52 -9.16,25.12 -20.21,43.06 -46.24,59.92 8.22,-0.1 18.27,2.14 26.29,6.38 -13.78,46.33 -47.95,70.04 -109.95,62.86 -59.34,-7.66 -116.14,-62.19 -156.78,-54.19z"/>
      <g>
       <polygon class="fil14" points="542.19,334.58 599.89,336.48 627.7,355.93 616.84,371.31 547.47,376.62 "/>
       <path class="fil7" d="M576.3 415.86c-21.82,-3.05 -39.01,-9.04 -38.4,-13.38 0.6,-4.33 18.78,-5.37 40.6,-2.32 21.82,3.05 39.01,9.04 38.41,13.38 -0.61,4.33 -18.79,5.37 -40.61,2.32z"/>
       <g>
        <path class="fil15" d="M547.54 376.64c22.22,-17.02 45.42,-17.04 69.3,-5.32 -5.27,50.13 -61.37,51.9 -69.3,5.32z"/>
        <path class="fil6" d="M547.54 376.64c14.32,-33.5 56.28,-29.06 69.3,-5.32 -23.88,-11.72 -47.08,-11.7 -69.3,5.32z"/>
       </g>
       <g>
        <path class="fil16" d="M573.63 399.03c-9.24,-1.3 -15.66,-9.99 -14.34,-19.42 1.32,-9.43 9.88,-16.03 19.12,-14.74 9.24,1.29 15.66,9.99 14.34,19.42 -1.32,9.43 -9.88,16.03 -19.12,14.74z"/>
        <path class="fil3" d="M574.66 391.7c-5.28,-0.74 -8.94,-5.7 -8.19,-11.09 0.75,-5.38 5.64,-9.15 10.91,-8.41 5.27,0.74 8.94,5.7 8.18,11.09 -0.75,5.38 -5.64,9.15 -10.91,8.41z"/>
        <path class="fil17" d="M586.45 383.97c-3.44,-0.48 -5.83,-3.72 -5.34,-7.23 0.49,-3.51 3.68,-5.97 7.12,-5.49 3.44,0.48 5.83,3.72 5.34,7.23 -0.49,3.51 -3.68,5.97 -7.12,5.49z"/>
       </g>
       <path class="fil7" d="M576.38 415.87c-21.81,-3.05 -39.01,-9.04 -38.41,-13.38 0.61,-4.34 18.79,-5.37 40.6,-2.32 21.82,3.06 39.01,9.05 38.4,13.38 -0.6,4.33 -18.78,5.37 -40.6,2.32z"/>
       <path class="fil18" d="M549.77 402.47c14.88,27.95 46.41,23 58.68,8.35 -15.97,5.72 -38.08,6.01 -58.68,-8.35z"/>
       <path class="fil19" d="M623.49 354.58c-23.79,-5.17 -46.87,1.7 -68.55,-4.03 -9.62,-2.55 -14.34,-10.39 -12.28,-21.49 2.25,-12.08 12.18,-7.12 20.62,-5.67 14.82,2.55 23.28,2.04 37.84,1.54 15.57,-0.53 20.38,10.96 24.52,24.7l0.58 1.94 0 0 1.48 4.34 -4.21 -1.35z"/>
      </g>
      <g>
       <polygon class="fil14" points="518.05,323.4 423.1,286.59 396.16,276.1 378.54,280.36 379.4,334.36 485.36,370.33 "/>
       <path class="fil7" d="M415.17 397.72c-30.7,-4.3 -54.9,-12.73 -54.05,-18.83 0.85,-6.1 26.44,-7.56 57.14,-3.26 30.7,4.3 54.9,12.73 54.05,18.83 -0.85,6.1 -26.44,7.56 -57.14,3.26z"/>
       <path class="fil15" d="M485.47 370.35c-27.61,-32.2 -63.82,-41.86 -105.96,-35.98 -12.6,69.82 74.22,95.52 105.96,35.98z"/>
       <path class="fil6" d="M485.47 370.35c-8.43,-51.15 -75.77,-62.6 -105.96,-35.98 42.14,-5.89 78.34,3.78 105.96,35.98z"/>
       <g>
        <path class="fil16" d="M417.86 387.26c-13,-1.82 -22.04,-14.06 -20.18,-27.33 1.86,-13.28 13.91,-22.56 26.91,-20.74 13,1.82 22.04,14.06 20.18,27.33 -1.86,13.28 -13.91,22.56 -26.91,20.74z"/>
        <path class="fil3" d="M419.3 376.95c-7.42,-1.04 -12.58,-8.02 -11.52,-15.6 1.06,-7.58 7.94,-12.88 15.36,-11.84 7.42,1.04 12.58,8.02 11.52,15.6 -1.06,7.58 -7.94,12.88 -15.36,11.84z"/>
        <path class="fil17" d="M436.53 366.15c-4.84,-0.68 -8.21,-5.23 -7.52,-10.18 0.69,-4.94 5.18,-8.4 10.02,-7.72 4.84,0.68 8.21,5.23 7.52,10.18 -0.69,4.94 -5.18,8.4 -10.02,7.72z"/>
       </g>
       <path class="fil7" d="M413.61 409.71c-30.7,-4.3 -54.9,-12.73 -54.05,-18.83 0.85,-6.1 26.44,-7.56 57.14,-3.26 30.71,4.3 54.9,12.73 54.05,18.83 -0.85,6.1 -26.44,7.56 -57.14,3.26z"/>
       <path class="fil18" d="M383.05 391.81c20.95,39.34 65.31,32.37 82.59,11.75 -22.47,8.06 -53.6,8.46 -82.59,-11.75z"/>
       <path class="fil19" d="M385.41 281.51c37.09,9.58 63.94,52.14 98.46,59.6 15.32,3.31 31.73,-8.27 36.65,-23.42 5.37,-16.5 -16.32,-11.99 -29.21,-15.87 -22.63,-6.8 -33.41,-31.65 -53.53,-42.04 -21.51,-11.12 -36.39,-0.1 -51.91,14.16 -2.42,2.22 -4.83,4.27 -7.33,6.42l6.87 1.16z"/>
      </g>
      <path class="fil20" d="M426.11 527.63c20.48,-26.91 83.86,-6.71 120.85,19.69 -31.06,-10.18 -71.91,-14.89 -120.85,-19.69z"/>
     </g>
    </g>
   </g>
   <g>
    <path class="fil21" style="mask:url(#id0)" d="M517.35 390.44c-3.95,55.87 -52.45,97.95 -108.31,94 -55.87,-3.95 -97.95,-52.45 -94,-108.31 3.95,-55.87 52.45,-97.95 108.31,-94 55.87,3.95 97.95,52.44 94,108.31z"/>
    <path class="fil22" d="M523.13 390.85c-2.09,29.52 -15.96,55.42 -36.69,73.4 -20.72,17.98 -48.3,28.06 -77.82,25.97 -29.52,-2.09 -55.41,-15.95 -73.4,-36.68 -17.98,-20.72 -28.06,-48.3 -25.97,-77.82 2.09,-29.52 15.96,-55.41 36.68,-73.4 20.72,-17.98 48.3,-28.06 77.82,-25.97 29.52,2.09 55.41,15.96 73.4,36.69 17.98,20.72 28.06,48.3 25.97,77.82zm-44.26 64.64c18.47,-16.03 30.83,-39.12 32.69,-65.46 1.86,-26.34 -7.12,-50.95 -23.16,-69.43 -16.03,-18.47 -39.12,-30.83 -65.46,-32.69 -26.35,-1.87 -50.95,7.13 -69.43,23.16 -18.47,16.03 -30.83,39.12 -32.69,65.46 -1.86,26.35 7.12,50.95 23.16,69.43 16.03,18.47 39.12,30.83 65.46,32.69 26.34,1.86 50.94,-7.12 69.43,-23.16z"/>
    <path class="fil22" d="M372.15 475.09c2.23,-5.99 8.9,-9.04 14.88,-6.81 5.99,2.23 9.03,8.9 6.8,14.88l-76.87 206.66c-2.23,5.99 -8.9,9.03 -14.88,6.8 -5.99,-2.23 -9.04,-8.89 -6.81,-14.88l76.87 -206.65z"/>
    <path class="fil3" d="M451.68 284.13c-0.25,3.52 -3.3,6.17 -6.82,5.92 -3.52,-0.25 -6.17,-3.3 -5.92,-6.82 0.25,-3.52 3.3,-6.17 6.82,-5.92 3.52,0.25 6.17,3.3 5.92,6.82z"/>
   </g>
   <g>
    <path class="fil6" d="M285.21 564.61l-0.01 -9.75c-0.01,-9.98 5.62,-18.58 14.77,-22.57l0.85 -0.37 7.76 -19.75c3.19,-8.11 12.22,-14.76 21.05,-11.25 21.67,8.61 43.84,12.8 67.19,12.04l1.64 -0.05 0.98 1.32c6.6,8.9 9.13,18.57 6.89,29.05 7.06,0.75 13.61,3.72 17.52,10.1 3.62,5.92 3.91,13.17 2.25,19.77 -1.83,7.25 -5.97,13.88 -11.3,19.1 -7.1,35.41 -22.16,66.67 -53.07,86.81l-9.05 19.44c-3.2,6.89 -8.05,12.67 -14.23,17.08 -18.31,13.08 -44.77,12.01 -63.49,0.36l-15.08 -9.38 -0.16 -1.53c-2.07,-19.89 -1.36,-40.8 1,-60.64 2.94,-24.7 8.72,-49.32 17.46,-72.62l0.25 -0.67 6.75 -6.51z"/>
    <path class="fil7" d="M276.64 713.29l-13.78 -8.58c-3.41,-32.83 -0.02,-83.06 18.28,-131.83l7.2 -6.95 -0.01 -11.08c-0.01,-8.73 4.88,-16.2 12.88,-19.69l2.05 -0.89 8.24 -20.96c2.7,-6.87 10.11,-12.21 16.98,-9.49 20.86,8.29 43.35,13.08 68.45,12.26 6.61,8.93 9.01,18.83 5.38,30.13 26.26,-0.18 27.57,27.67 9.61,44.45 -7.38,37.65 -23.15,67.38 -52.64,86.25l-9.43 20.26c-12.28,26.38 -48.51,31.49 -73.22,16.11z"/>
    <path class="fil6" d="M288 566.27c7.47,-4.35 14.5,-5.32 20.93,-4.78 -6.55,-2.2 -13.66,-2 -20.93,0.76l0.01 4.02z"/>
    <path class="fil6" d="M302.82 534.47c5.95,-2.5 12.18,-3.3 17.89,-2.94 -4.9,-1.5 -10.57,-1.9 -16.55,-0.48l-1.34 3.42z"/>
    <path class="fil6" d="M327.12 571.19c10.06,11.24 19.87,22.38 32.63,31.57 6.67,4.81 11.68,10.78 9.35,18.66 -3.34,11.29 -9.06,22.55 -16.69,33.14 -15.92,-4.49 -23.92,-18.91 -28.28,-33.41 4.44,3.91 7.96,6.54 15.8,4.73 -8.57,-0.17 -13.02,-6.11 -20.13,-9.38 6.3,19.41 14.37,37.45 34.05,43.48 7.92,-12.44 14.5,-24.37 18.43,-37.8 2.79,-9.51 -3.09,-17.18 -11.4,-22.58 -12.08,-7.84 -22.8,-18.37 -33.77,-28.42z"/>
    <path class="fil6" d="M402.46 545.76l-20.77 16.96c-7.25,14.95 11.17,36.88 30.24,27.95l2.49 -2.53c-3.11,0.98 -6.13,1.14 -8.76,1.85 -10.47,2.81 -29.2,-12.41 -19.87,-27.09l20.08 -16.56 -3.41 -0.57z"/>
    <path class="fil6" d="M344.96 516.73c17.38,13.1 36.27,23.14 57.89,27.65l-0.36 2.62 -1.26 1.21c-22.19,-5.09 -40.65,-16.06 -56.28,-31.49z"/>
    <path class="fil6" d="M337.93 545.48c18.64,11.61 23.96,17.12 44.5,22.91l-0.36 2.63 -1.26 1.21c-20.58,-6.52 -25.62,-12.76 -42.88,-26.75z"/>
    <path class="fil6" d="M384.65 565.89c10.28,3.13 14.8,3.9 24.95,5.62 -10.08,4.3 -17.46,3.17 -24.95,-5.62z"/>
    <path class="fil6" d="M346.74 693.71c4.43,-11.48 6.45,-22.94 5.14,-34.39l2.94 -0.86c1.05,11.92 -1.28,23.39 -6.84,34.43l-1.25 0.82z"/>
    <path class="fil6" d="M296.8 657.71c22.34,1.21 26.58,-15.81 23.01,-41.21l2.62 3.79c5.66,28.59 -4.32,39.43 -25.63,37.42z"/>
    <path class="fil6" d="M304.47 637.28c9.79,-1.12 15.32,-7.53 15.34,-20.77l2.62 3.79c-2.57,11.8 -7.86,18.71 -17.96,16.98z"/>
    <path class="fil6" d="M326.96 623.5c-6.77,-3.78 -11.65,-10.87 -15.82,-19.23 7.32,11.1 16.3,19.35 28.79,21.62 -4,0.81 -8.42,-0.47 -12.97,-2.39z"/>
    <path class="fil6" d="M369.26 608.83c8.47,-6.68 13.87,-16.6 14.6,-27.34l2.63 2.73c-1.41,9.65 -7.17,19.93 -15.48,28.47l-1.75 -3.86z"/>
   </g>
   <path class="fil22" d="M315.05 628.58c2.23,-5.99 8.89,-9.03 14.88,-6.8 5.99,2.23 9.03,8.89 6.81,14.88l-7.05 18.95c-2.23,5.99 -8.9,9.04 -14.88,6.81 -5.99,-2.23 -9.03,-8.9 -6.81,-14.88l7.05 -18.95z"/>
  </g>
 </g>
</svg>
