<svg width="12" height="22" viewBox="0 0 12 22" fill="none" xmlns="http://www.w3.org/2000/svg">
<path d="M11.6796 21.1933C11.4988 21.3669 11.2605 21.474 11.0062 21.4958C10.7519 21.5177 10.4977 21.453 10.2878 21.313L10.1351 21.1933L0.318626 11.7445C0.138275 11.5706 0.0270519 11.3412 0.00433059 11.0964C-0.0183907 10.8516 0.0488291 10.6069 0.194284 10.4049L0.318626 10.2579L10.1351 0.809158C10.3275 0.623155 10.5853 0.513258 10.8576 0.501123C11.13 0.488987 11.3973 0.575495 11.6067 0.743595C11.8161 0.911697 11.9525 1.1492 11.989 1.4093C12.0255 1.66939 11.9595 1.93322 11.8039 2.14878L11.6796 2.29576L2.63313 11.0012L11.6796 19.7067C11.7811 19.8042 11.8617 19.9201 11.9167 20.0476C11.9717 20.1752 12 20.3119 12 20.45C12 20.5881 11.9717 20.7248 11.9167 20.8524C11.8617 20.9799 11.7811 21.0958 11.6796 21.1933Z" fill="url(#paint0_linear_23_4241)"/>
<defs>
<linearGradient id="paint0_linear_23_4241" x1="11.4958" y1="6.30169" x2="-1.12529" y2="11.6982" gradientUnits="userSpaceOnUse">
<stop stop-color="#7D0000"/>
<stop offset="0.439216" stop-color="#BE0000"/>
<stop offset="1" stop-color="#FF0000"/>
</linearGradient>
</defs>
</svg>
