<svg width="12" height="10" viewBox="0 0 12 10" fill="none" xmlns="http://www.w3.org/2000/svg">
<path d="M5.06412 9.69771C5.75923 9.69771 6.42947 9.55987 7.04014 9.30317C6.85148 9.09401 6.70252 8.86104 6.58339 8.61388C6.11668 8.78977 5.60036 8.88956 5.06412 8.88956C2.72073 8.88956 0.848988 7.09267 0.848988 4.84886C0.848988 2.60507 2.71577 0.808146 5.05916 0.808146C7.19902 0.808146 8.95159 2.31985 9.2346 4.29266C9.47787 4.2594 9.84032 4.27842 10.0935 4.33071C9.81549 1.91577 7.6409 0 5.05916 0C2.28879 0 0 2.19625 0 4.84886C0 7.49674 2.29375 9.69771 5.06412 9.69771ZM2.46256 5.36226H5.05916C5.25278 5.36226 5.4067 5.21967 5.4067 5.0295V1.82546C5.4067 1.64006 5.25278 1.49744 5.05916 1.49744C4.86555 1.49744 4.71659 1.64006 4.71659 1.82546V4.70148H2.46256C2.26893 4.70148 2.11999 4.84411 2.11999 5.0295C2.11999 5.21967 2.26893 5.36226 2.46256 5.36226ZM9.47787 9.75C10.8482 9.75 12 8.65663 12 7.33509C12 6.00879 10.863 4.92017 9.47787 4.92017C8.09765 4.92017 6.95575 6.01354 6.95575 7.33509C6.95575 8.66617 8.09765 9.75 9.47787 9.75ZM9.47787 8.87532C9.24947 8.87532 9.06082 8.69943 9.06082 8.476C9.06082 8.25735 9.24947 8.07192 9.47787 8.07192C9.71123 8.07192 9.89989 8.25735 9.89989 8.476C9.89493 8.69943 9.71123 8.87532 9.47787 8.87532ZM9.47787 7.74391C9.30408 7.74391 9.18495 7.62984 9.17999 7.46818L9.14025 6.10862C9.1353 5.91371 9.26934 5.78061 9.47787 5.78061C9.6864 5.78061 9.82541 5.91371 9.82045 6.10862L9.78071 7.46818C9.77575 7.62984 9.65162 7.74391 9.47787 7.74391Z" fill="url(#paint0_linear_202_1092)"/>
<defs>
<linearGradient id="paint0_linear_202_1092" x1="-1.05" y1="13" x2="14.4351" y2="12.3389" gradientUnits="userSpaceOnUse">
<stop stop-color="#730000"/>
<stop offset="1" stop-color="#FF0000"/>
</linearGradient>
</defs>
</svg>
