<svg width="14" height="14" viewBox="0 0 14 14" fill="none" xmlns="http://www.w3.org/2000/svg">
<path d="M6.41699 10.4998H7.58366V9.33317H6.41699V10.4998ZM7.00033 1.1665C6.23428 1.1665 5.47574 1.31739 4.76801 1.61054C4.06027 1.90369 3.41721 2.33337 2.87554 2.87505C1.78157 3.96901 1.16699 5.45274 1.16699 6.99984C1.16699 8.54693 1.78157 10.0307 2.87554 11.1246C3.41721 11.6663 4.06027 12.096 4.76801 12.3891C5.47574 12.6823 6.23428 12.8332 7.00033 12.8332C8.54742 12.8332 10.0312 12.2186 11.1251 11.1246C12.2191 10.0307 12.8337 8.54693 12.8337 6.99984C12.8337 6.23379 12.6828 5.47525 12.3896 4.76752C12.0965 4.05978 11.6668 3.41672 11.1251 2.87505C10.5834 2.33337 9.94038 1.90369 9.23265 1.61054C8.52491 1.31739 7.76637 1.1665 7.00033 1.1665ZM7.00033 11.6665C4.42783 11.6665 2.33366 9.57234 2.33366 6.99984C2.33366 4.42734 4.42783 2.33317 7.00033 2.33317C9.57283 2.33317 11.667 4.42734 11.667 6.99984C11.667 9.57234 9.57283 11.6665 7.00033 11.6665ZM7.00033 3.49984C6.38149 3.49984 5.78799 3.74567 5.35041 4.18325C4.91282 4.62084 4.66699 5.21433 4.66699 5.83317H5.83366C5.83366 5.52375 5.95658 5.22701 6.17537 5.00821C6.39416 4.78942 6.69091 4.6665 7.00033 4.6665C7.30975 4.6665 7.60649 4.78942 7.82528 5.00821C8.04408 5.22701 8.16699 5.52375 8.16699 5.83317C8.16699 6.99984 6.41699 6.854 6.41699 8.74984H7.58366C7.58366 7.43734 9.33366 7.2915 9.33366 5.83317C9.33366 5.21433 9.08783 4.62084 8.65024 4.18325C8.21266 3.74567 7.61916 3.49984 7.00033 3.49984Z" fill="url(#paint0_linear_65_7431)"/>
<defs>
<linearGradient id="paint0_linear_65_7431" x1="1.65719" y1="9.61001" x2="10.9615" y2="2.64788" gradientUnits="userSpaceOnUse">
<stop stop-color="#7D0000"/>
<stop offset="0.439216" stop-color="#BE0000"/>
<stop offset="1" stop-color="#FF0000"/>
</linearGradient>
</defs>
</svg>
