<svg width="39" height="37" viewBox="0 0 39 37" fill="none" xmlns="http://www.w3.org/2000/svg">
<path d="M25.3895 27.9944H5.85271C5.19971 27.9944 4.63057 27.4587 4.63057 26.7388C4.63057 26.019 5.19971 25.4832 5.85271 25.4832H25.1049C26.0592 25.4832 26.6451 24.8135 26.7958 23.7924L29.5413 5.15956C29.7087 3.8705 30.1775 3.21759 31.885 3.21759H37.7612C38.4308 3.21759 39 3.80353 39 4.47318C39 5.15956 38.4308 5.7455 37.7612 5.7455H32.1027L29.4241 24.1272C29.0725 26.5044 27.817 27.9944 25.3895 27.9944ZM28.4699 22.0345H5.81914C3.375 22.0345 2.11943 20.5278 1.76786 18.134L0.428571 9.27786C0.395142 9.06023 0.361571 8.79238 0.361571 8.64171C0.361571 7.83813 0.964286 7.28568 1.885 7.28568H29.9263L29.9096 9.81358H3.20757L4.39614 17.8325C4.53014 18.8705 5.08257 19.5234 6.07028 19.5234H28.5033L28.4699 22.0345ZM24.067 36.1305C22.5603 36.1305 21.3549 34.942 21.3549 33.4185C21.3549 31.9118 22.5603 30.7064 24.067 30.7064C25.5904 30.7064 26.7958 31.9118 26.7958 33.4185C26.7958 34.942 25.5904 36.1305 24.067 36.1305ZM8.414 36.1305C6.89057 36.1305 5.68529 34.942 5.68529 33.4185C5.68529 31.9118 6.89057 30.7064 8.414 30.7064C9.92071 30.7064 11.1429 31.9118 11.1429 33.4185C11.1429 34.942 9.92071 36.1305 8.414 36.1305Z" fill="black"/>
</svg>
