<svg width="40" height="40" viewBox="0 0 40 40" fill="none" xmlns="http://www.w3.org/2000/svg">
<path d="M26.3895 29.9947H6.85271C6.19971 29.9947 5.63057 29.459 5.63057 28.7391C5.63057 28.0193 6.19971 27.4836 6.85271 27.4836H26.1049C27.0592 27.4836 27.6451 26.8138 27.7958 25.7927L30.5413 7.15987C30.7087 5.87081 31.1775 5.2179 32.885 5.2179H38.7612C39.4308 5.2179 40 5.80384 40 6.47348C40 7.15987 39.4308 7.74581 38.7612 7.74581H33.1027L30.4241 26.1276C30.0725 28.5047 28.817 29.9947 26.3895 29.9947ZM29.4699 24.0348H6.81914C4.375 24.0348 3.11943 22.5281 2.76786 20.1343L1.42857 11.2782C1.39514 11.0605 1.36157 10.7927 1.36157 10.642C1.36157 9.83844 1.96429 9.28598 2.885 9.28598H30.9263L30.9096 11.8139H4.20757L5.39614 19.8328C5.53014 20.8708 6.08257 21.5237 7.07029 21.5237H29.5033L29.4699 24.0348ZM25.067 38.1308C23.5603 38.1308 22.3549 36.9423 22.3549 35.4188C22.3549 33.9121 23.5603 32.7067 25.067 32.7067C26.5904 32.7067 27.7958 33.9121 27.7958 35.4188C27.7958 36.9423 26.5904 38.1308 25.067 38.1308ZM9.414 38.1308C7.89057 38.1308 6.68529 36.9423 6.68529 35.4188C6.68529 33.9121 7.89057 32.7067 9.414 32.7067C10.9207 32.7067 12.1429 33.9121 12.1429 35.4188C12.1429 36.9423 10.9207 38.1308 9.414 38.1308Z" fill="black"/>
</svg>
