<svg width="31" height="30" viewBox="0 0 31 30" fill="none" xmlns="http://www.w3.org/2000/svg">
<path fill-rule="evenodd" clip-rule="evenodd" d="M11.3312 9.09825C12.5282 9.11553 13.8261 9.13497 14.9591 8.7743C16.1716 8.39042 15.8899 7.40399 15.5723 6.49369L15.5707 6.4775L15.5483 6.4235C15.0355 5.16712 14.9079 4.06461 16.4283 3.57328C17.1419 3.34328 18.2354 3.66129 18.5011 4.43445C18.7306 5.10287 18.6602 5.67788 18.6735 6.36411C18.7002 7.74036 19.7062 8.01194 20.8354 7.68043C22.0805 7.31545 23.3149 6.90889 24.5461 6.48668C24.9559 6.33712 25.3674 6.18648 25.7778 6.03746C26.4444 6.90781 27.033 7.84673 27.4359 8.87311C27.7124 9.57986 27.754 10.4329 26.9732 10.8039C26.3985 11.077 25.591 10.8946 24.9271 11.1294C23.9692 11.4696 23.7413 12.4414 24.1058 13.335C24.6875 14.7571 25.9331 14.4294 26.9802 13.8214C27.8394 13.3226 28.634 13.2529 28.9548 14.3565C29.4639 16.1118 29.3657 17.5965 28.9478 19.3124C26.97 19.1747 24.838 18.9982 22.9034 19.4074C21.5378 19.6984 21.7368 20.6444 22.0357 21.6745L22.0389 21.6853L22.0426 21.6956C22.1862 22.1032 22.4712 22.6561 22.5 23.0794C22.58 24.1922 21.7427 24.9583 20.6897 25.0458C19.9784 25.1052 19.2408 24.8579 18.9227 24.163C18.6399 23.5464 18.9788 22.6399 18.7071 21.8381C18.3581 20.8085 17.6184 20.7291 16.6957 21.0634C15.606 21.4586 14.585 22.0012 13.5662 22.5514C12.7679 21.3079 11.463 18.9939 11.5564 17.7191C11.6493 16.4427 13.8982 16.9341 14.6811 16.9908C16.1332 17.0987 16.8153 16.1577 16.4967 14.7539C16.3136 13.9456 15.8717 13.2675 15.005 13.1352C13.9382 12.9732 13.0817 13.944 12.1904 14.066C11.273 14.1918 10.9907 13.7361 10.8797 12.8663C10.7602 11.678 11.0478 10.2915 11.3307 9.10041L11.3312 9.09825ZM16.1802 22.0946C16.4657 22.2436 16.7496 22.3964 17.033 22.5497C17.2006 22.2895 17.39 21.9818 17.5838 21.647C17.4151 21.6243 17.2075 21.6929 16.9524 21.7852C16.6914 21.8797 16.4342 21.9839 16.1797 22.0941L16.1802 22.0946ZM14.7953 8.01788C14.7019 7.67827 14.7798 7.27711 14.9031 6.87272C14.8812 6.81548 14.8593 6.75987 14.8407 6.70534L14.8311 6.67835C14.402 5.61147 14.2755 4.59751 14.7579 3.83946C14.5984 3.73796 14.4046 3.64833 14.1725 3.57328C13.459 3.34328 12.3655 3.66129 12.0997 4.43445C11.8702 5.10287 11.9401 5.67788 11.9268 6.36411C11.9006 7.74036 10.8947 8.01194 9.76487 7.68043C8.5198 7.31545 7.28541 6.90889 6.05422 6.48668C5.64436 6.33712 5.23289 6.18648 4.8225 6.03746C4.1554 6.90781 3.56676 7.84727 3.16437 8.87311C2.88739 9.57986 2.84576 10.4329 3.62706 10.8033C4.2013 11.0765 5.00928 10.894 5.67318 11.1289C6.63112 11.469 6.85847 12.4409 6.4945 13.3344C5.9128 14.7571 4.6672 14.4294 3.62013 13.8209C2.76144 13.322 1.96626 13.2524 1.64553 14.356C1.13586 16.1112 1.23459 17.5965 1.65246 19.3119C3.62973 19.1742 5.76177 18.9976 7.69688 19.4063C9.06309 19.6974 8.86349 20.6433 8.56463 21.6735L8.56143 21.6837L8.55769 21.694C8.41414 22.1016 8.12915 22.6545 8.0998 23.0778C8.01975 24.19 8.85709 24.9562 9.91003 25.0442C10.6214 25.1036 11.3595 24.8563 11.677 24.1614C11.9599 23.5454 11.621 22.6383 11.8926 21.8365C11.938 21.7026 11.9898 21.5855 12.0479 21.4829C11.3536 20.2027 10.7223 18.7115 10.7991 17.6608C10.9261 15.9147 12.8271 16.0481 14.1848 16.1733C14.0081 15.7975 13.9761 15.3116 14.1031 14.7517C14.1682 14.465 14.2654 14.1945 14.403 13.9586C13.7536 14.1643 12.8954 14.7431 12.2934 14.8262C10.9406 15.0114 10.2916 14.2545 10.1262 12.9522C9.98528 11.5543 10.338 9.9713 10.6646 8.61827L10.7356 8.32131L11.0382 8.32509C12.2128 8.33913 13.6041 8.3996 14.7318 8.04056L14.7953 8.01788Z" fill="url(#paint0_linear_749_3369)"/>
<defs>
<linearGradient id="paint0_linear_749_3369" x1="6.41605" y1="23.1226" x2="24.388" y2="5.639" gradientUnits="userSpaceOnUse">
<stop stop-color="#7D0000"/>
<stop offset="0.439216" stop-color="#BE0000"/>
<stop offset="1" stop-color="#FF0000"/>
</linearGradient>
</defs>
</svg>
