<svg width="30" height="28" viewBox="0 0 30 28" fill="none" xmlns="http://www.w3.org/2000/svg">
<path fill-rule="evenodd" clip-rule="evenodd" d="M16.9772 0.0242743C9.42806 0.50384 -0.349851 3.31272 0.00963077 12.0819C0.369113 19.5494 3.60445 28.5241 12.951 27.9761C20.5001 27.4965 30.3499 24.6876 29.9904 15.9184C29.631 8.3139 26.3956 -0.5238 16.9772 0.0242743Z" fill="url(#paint0_linear_165_13846)"/>
<path d="M11.85 6.5H18.15C20.55 6.5 22.5 8.45 22.5 10.85V17.15C22.5 18.3037 22.0417 19.4101 21.2259 20.2259C20.4101 21.0417 19.3037 21.5 18.15 21.5H11.85C9.45 21.5 7.5 19.55 7.5 17.15V10.85C7.5 9.69631 7.9583 8.58987 8.77409 7.77409C9.58987 6.9583 10.6963 6.5 11.85 6.5ZM11.7 8C10.9839 8 10.2972 8.28446 9.79081 8.79081C9.28446 9.29716 9 9.98392 9 10.7V17.3C9 18.7925 10.2075 20 11.7 20H18.3C19.0161 20 19.7028 19.7155 20.2092 19.2092C20.7155 18.7028 21 18.0161 21 17.3V10.7C21 9.2075 19.7925 8 18.3 8H11.7ZM18.9375 9.125C19.1861 9.125 19.4246 9.22377 19.6004 9.39959C19.7762 9.5754 19.875 9.81386 19.875 10.0625C19.875 10.3111 19.7762 10.5496 19.6004 10.7254C19.4246 10.9012 19.1861 11 18.9375 11C18.6889 11 18.4504 10.9012 18.2746 10.7254C18.0988 10.5496 18 10.3111 18 10.0625C18 9.81386 18.0988 9.5754 18.2746 9.39959C18.4504 9.22377 18.6889 9.125 18.9375 9.125ZM15 10.25C15.9946 10.25 16.9484 10.6451 17.6517 11.3483C18.3549 12.0516 18.75 13.0054 18.75 14C18.75 14.9946 18.3549 15.9484 17.6517 16.6517C16.9484 17.3549 15.9946 17.75 15 17.75C14.0054 17.75 13.0516 17.3549 12.3483 16.6517C11.6451 15.9484 11.25 14.9946 11.25 14C11.25 13.0054 11.6451 12.0516 12.3483 11.3483C13.0516 10.6451 14.0054 10.25 15 10.25ZM15 11.75C14.4033 11.75 13.831 11.9871 13.409 12.409C12.9871 12.831 12.75 13.4033 12.75 14C12.75 14.5967 12.9871 15.169 13.409 15.591C13.831 16.0129 14.4033 16.25 15 16.25C15.5967 16.25 16.169 16.0129 16.591 15.591C17.0129 15.169 17.25 14.5967 17.25 14C17.25 13.4033 17.0129 12.831 16.591 12.409C16.169 11.9871 15.5967 11.75 15 11.75Z" fill="white"/>
<defs>
<linearGradient id="paint0_linear_165_13846" x1="30.3071" y1="-0.293877" x2="-6.67288" y2="37.6734" gradientUnits="userSpaceOnUse">
<stop stop-color="#FBDB88"/>
<stop offset="0.211765" stop-color="#F9B44B"/>
<stop offset="0.380392" stop-color="#EA5875"/>
<stop offset="0.521569" stop-color="#E3418E"/>
<stop offset="0.741176" stop-color="#7C4A96"/>
<stop offset="1" stop-color="#50559F"/>
</linearGradient>
</defs>
</svg>
