<svg width="52" height="39" viewBox="0 0 52 39" fill="none" xmlns="http://www.w3.org/2000/svg">
<path fill-rule="evenodd" clip-rule="evenodd" d="M18.2817 10.1299C20.4632 10.1611 22.8284 10.1963 24.8932 9.54373C27.1029 8.84915 26.5894 7.06434 26.0107 5.41728L26.0078 5.38798L25.9669 5.29029C25.0323 3.01703 24.7998 1.02219 27.5707 0.133205C28.871 -0.282957 30.8638 0.29244 31.3481 1.69137C31.7663 2.90078 31.638 3.94118 31.6623 5.18283C31.7109 7.67296 33.5442 8.16434 35.6021 7.56452C37.8711 6.90413 40.1207 6.16852 42.3644 5.40458C43.1113 5.13398 43.8612 4.86142 44.6091 4.5918C45.8238 6.16657 46.8966 7.86541 47.6309 9.7225C48.1346 11.0013 48.2105 12.5448 46.7876 13.2159C45.7402 13.7102 44.2687 13.38 43.0588 13.805C41.3131 14.4204 40.8978 16.1789 41.562 17.7956C42.6221 20.3688 44.8921 19.7758 46.8003 18.6758C48.3661 17.7732 49.8143 17.6472 50.3988 19.6439C51.3266 22.8199 51.1477 25.5064 50.3861 28.611C46.7818 28.3618 42.8964 28.0424 39.3708 28.7829C36.882 29.3094 37.2448 31.021 37.7894 32.8849L37.7953 32.9045L37.8021 32.923C38.0637 33.6606 38.5831 34.6609 38.6356 35.4268C38.7815 37.4402 37.2555 38.8264 35.3366 38.9847C34.0402 39.0922 32.6961 38.6447 32.1165 37.3875C31.601 36.2718 32.2186 34.6316 31.7235 33.1809C31.0875 31.318 29.7395 31.1744 28.0579 31.7791C26.072 32.4942 24.2114 33.4759 22.3548 34.4714C20.8998 32.2216 18.5219 28.0346 18.6921 25.7281C18.8613 23.4187 22.9597 24.3077 24.3865 24.4103C27.0329 24.6056 28.2758 22.9029 27.6952 20.3629C27.3616 18.9005 26.5563 17.6735 24.9768 17.4342C23.0327 17.1411 21.4717 18.8976 19.8475 19.1184C18.1757 19.346 17.6612 18.5215 17.4589 16.9477C17.241 14.7975 17.7653 12.2888 18.2807 10.1338L18.2817 10.1299ZM27.1184 33.6449C27.6388 33.9146 28.1562 34.191 28.6726 34.4685C28.978 33.9976 29.3232 33.4408 29.6763 32.8351C29.369 32.7941 28.9906 32.9181 28.5257 33.0852C28.0502 33.2561 27.5814 33.4447 27.1175 33.644L27.1184 33.6449ZM24.5946 8.17509C24.4244 7.56061 24.5664 6.83477 24.7911 6.10307C24.7512 5.99952 24.7113 5.8989 24.6773 5.80023L24.6598 5.75138C23.8778 3.82102 23.6473 1.98639 24.5265 0.614819C24.2358 0.431161 23.8827 0.268995 23.4596 0.133205C22.1593 -0.282957 20.1665 0.29244 19.6822 1.69137C19.264 2.90078 19.3914 3.94118 19.3671 5.18283C19.3194 7.67296 17.4861 8.16434 15.4272 7.56452C13.1582 6.90413 10.9087 6.16852 8.66495 5.40458C7.91802 5.13398 7.16817 4.86142 6.42026 4.5918C5.20455 6.16657 4.13181 7.86638 3.3985 9.7225C2.89373 11.0013 2.81787 12.5448 4.24171 13.2149C5.2882 13.7093 6.76066 13.3791 7.97054 13.804C9.71629 14.4195 10.1306 16.1779 9.46732 17.7947C8.40722 20.3688 6.13725 19.7758 4.22907 18.6749C2.66421 17.7722 1.21508 17.6462 0.63057 19.643C-0.298231 22.8189 -0.118306 25.5063 0.643214 28.61C4.24658 28.3609 8.13198 28.0414 11.6585 28.7809C14.1483 29.3075 13.7845 31.019 13.2399 32.883L13.2341 32.9015L13.2273 32.9201C12.9656 33.6576 12.4463 34.658 12.3928 35.4239C12.2469 37.4363 13.7729 38.8225 15.6917 38.9818C16.9882 39.0892 18.3332 38.6418 18.9119 37.3845C19.4274 36.2699 18.8098 34.6287 19.3048 33.178C19.3875 32.9357 19.4818 32.7237 19.5879 32.5381C18.3225 30.2219 17.172 27.5237 17.312 25.6226C17.5435 22.4633 21.0078 22.7046 23.482 22.9312C23.1601 22.2513 23.1017 21.3721 23.3332 20.359C23.4519 19.8403 23.6289 19.3509 23.8798 18.924C22.6962 19.2962 21.1323 20.3434 20.0352 20.4939C17.5698 20.8289 16.3871 19.4593 16.0856 17.103C15.8289 14.5738 16.4717 11.7095 17.067 9.2614L17.1963 8.72411L17.7478 8.73094C19.8884 8.75634 22.4239 8.86576 24.4789 8.21611L24.5946 8.17509Z" fill="url(#paint0_linear_202_5615)"/>
<defs>
<linearGradient id="paint0_linear_202_5615" x1="9.32435" y1="35.505" x2="41.8478" y2="3.63749" gradientUnits="userSpaceOnUse">
<stop stop-color="#7D0000"/>
<stop offset="0.439216" stop-color="#BE0000"/>
<stop offset="1" stop-color="#FF0000"/>
</linearGradient>
</defs>
</svg>
