<svg width="250" height="39" viewBox="0 0 250 39" fill="none" xmlns="http://www.w3.org/2000/svg">
<path fill-rule="evenodd" clip-rule="evenodd" d="M18.2817 10.1299C20.4632 10.1611 22.8284 10.1963 24.8932 9.54373C27.1029 8.84915 26.5894 7.06434 26.0107 5.41728L26.0078 5.38798L25.9669 5.29029C25.0323 3.01703 24.7998 1.02219 27.5707 0.133205C28.871 -0.282957 30.8638 0.29244 31.3481 1.69137C31.7663 2.90078 31.638 3.94118 31.6623 5.18283C31.7109 7.67296 33.5442 8.16434 35.6021 7.56452C37.8711 6.90413 40.1207 6.16852 42.3644 5.40458C43.1113 5.13398 43.8612 4.86142 44.6091 4.5918C45.8238 6.16657 46.8966 7.86541 47.6309 9.7225C48.1346 11.0013 48.2105 12.5448 46.7876 13.2159C45.7402 13.7102 44.2687 13.38 43.0588 13.805C41.3131 14.4204 40.8978 16.1789 41.562 17.7956C42.6221 20.3688 44.8921 19.7758 46.8003 18.6758C48.3661 17.7732 49.8143 17.6472 50.3988 19.6439C51.3266 22.8199 51.1477 25.5064 50.3861 28.611C46.7818 28.3618 42.8964 28.0424 39.3708 28.7829C36.882 29.3094 37.2448 31.021 37.7894 32.8849L37.7953 32.9045L37.8021 32.923C38.0637 33.6606 38.5831 34.6609 38.6356 35.4268C38.7815 37.4402 37.2555 38.8264 35.3366 38.9847C34.0402 39.0922 32.6961 38.6447 32.1165 37.3875C31.601 36.2718 32.2186 34.6316 31.7235 33.1809C31.0875 31.318 29.7395 31.1744 28.0579 31.7791C26.072 32.4942 24.2114 33.4759 22.3548 34.4714C20.8998 32.2216 18.5219 28.0346 18.6921 25.7281C18.8613 23.4187 22.9597 24.3077 24.3865 24.4103C27.0329 24.6056 28.2758 22.9029 27.6952 20.3629C27.3616 18.9005 26.5563 17.6735 24.9768 17.4342C23.0327 17.1411 21.4717 18.8976 19.8475 19.1184C18.1757 19.346 17.6612 18.5215 17.4589 16.9477C17.241 14.7975 17.7653 12.2888 18.2807 10.1338L18.2817 10.1299ZM27.1184 33.6449C27.6388 33.9146 28.1562 34.191 28.6726 34.4685C28.978 33.9976 29.3232 33.4408 29.6763 32.8351C29.369 32.7941 28.9906 32.9181 28.5257 33.0852C28.0502 33.2561 27.5814 33.4447 27.1175 33.644L27.1184 33.6449ZM24.5946 8.17508C24.4244 7.56061 24.5664 6.83477 24.7911 6.10307C24.7512 5.99952 24.7113 5.8989 24.6773 5.80023L24.6598 5.75138C23.8778 3.82102 23.6473 1.98639 24.5265 0.614819C24.2358 0.431161 23.8827 0.268994 23.4596 0.133205C22.1593 -0.282957 20.1665 0.29244 19.6822 1.69137C19.264 2.90078 19.3914 3.94118 19.3671 5.18283C19.3194 7.67296 17.4861 8.16434 15.4272 7.56452C13.1582 6.90413 10.9087 6.16852 8.66495 5.40458C7.91802 5.13398 7.16817 4.86142 6.42026 4.5918C5.20455 6.16657 4.13181 7.86638 3.3985 9.7225C2.89373 11.0013 2.81787 12.5448 4.24171 13.2149C5.28819 13.7093 6.76066 13.3791 7.97054 13.804C9.71629 14.4195 10.1306 16.1779 9.46732 17.7947C8.40722 20.3688 6.13725 19.7758 4.22907 18.6749C2.66421 17.7722 1.21508 17.6462 0.63057 19.643C-0.298231 22.8189 -0.118306 25.5064 0.643214 28.61C4.24658 28.3609 8.13198 28.0414 11.6585 28.7809C14.1483 29.3075 13.7845 31.019 13.2399 32.883L13.2341 32.9015L13.2273 32.9201C12.9656 33.6576 12.4463 34.658 12.3928 35.4239C12.2469 37.4363 13.7729 38.8225 15.6917 38.9818C16.9882 39.0892 18.3332 38.6418 18.9119 37.3845C19.4274 36.2699 18.8098 34.6287 19.3048 33.178C19.3875 32.9357 19.4818 32.7237 19.5879 32.5381C18.3225 30.2219 17.172 27.5237 17.312 25.6226C17.5435 22.4633 21.0078 22.7046 23.482 22.9312C23.1601 22.2513 23.1017 21.3721 23.3332 20.359C23.4519 19.8403 23.6289 19.3509 23.8798 18.924C22.6962 19.2962 21.1323 20.3434 20.0352 20.4939C17.5698 20.8289 16.3871 19.4593 16.0856 17.103C15.8289 14.5738 16.4717 11.7095 17.067 9.2614L17.1963 8.72411L17.7478 8.73094C19.8884 8.75634 22.4239 8.86576 24.4789 8.21611L24.5946 8.17508Z" fill="url(#paint0_linear_202_5613)"/>
<path d="M54.1685 17.3225V16.3182L61.6164 0.502129H66.1155L73.5634 16.3182V17.3225H69.5146L63.8659 4.51916L58.2173 17.3225H54.1685ZM60.6672 38.494V25.6906H54.1685V21.6736H71.6893V25.6906H65.1663V38.494H60.6672ZM152.512 38.494V37.4897L159.959 21.6736H164.459L171.907 37.4897V38.494H167.858L162.209 25.6906L156.56 38.494H152.512ZM171.959 29.4312C171.959 28.2931 172.101 27.2215 172.384 26.2182C172.667 25.2139 173.163 24.3396 173.871 23.5942C174.579 22.8498 175.533 22.2598 176.733 21.8241C177.933 21.3893 179.441 21.1715 181.258 21.1715H182.157C183.973 21.1715 185.482 21.3893 186.681 21.8241C187.881 22.2588 188.834 22.8488 189.543 23.5942C190.251 24.3386 190.747 25.2139 191.03 26.2182C191.313 27.2224 191.455 28.2931 191.455 29.4312V30.7364C191.455 31.8745 191.313 32.9451 191.03 33.9494C190.747 34.9537 190.251 35.828 189.543 36.5734C188.835 37.3178 187.881 37.9078 186.681 38.3435C185.481 38.7782 183.973 38.9961 182.157 38.9961H181.258C179.442 38.9961 177.933 38.7782 176.733 38.3435C175.533 37.9088 174.58 37.3187 173.871 36.5734C173.163 35.829 172.667 34.9537 172.384 33.9494C172.101 32.9451 171.959 31.8745 171.959 30.7364V29.4312ZM176.458 30.0838C176.458 30.7198 176.487 31.3352 176.546 31.9292C176.604 32.5231 176.796 33.0467 177.12 33.4981C177.445 33.9504 177.962 34.3099 178.67 34.5775C179.378 34.8452 180.39 34.9791 181.706 34.9791C183.022 34.9791 184.034 34.8452 184.742 34.5775C185.45 34.3099 185.967 33.9494 186.292 33.4981C186.617 33.0458 186.808 32.5231 186.867 31.9292C186.982 30.7461 186.984 29.4312 186.867 28.2511C186.808 27.665 186.617 27.1462 186.292 26.6949C185.967 26.2426 185.45 25.8831 184.742 25.6154C184.034 25.3477 183.022 25.2139 181.706 25.2139C180.39 25.2139 179.378 25.3477 178.67 25.6154C177.962 25.8831 177.445 26.2426 177.12 26.6949C176.796 27.1472 176.604 27.6659 176.546 28.2511C176.487 28.8373 176.458 29.4478 176.458 30.0838ZM208.585 25.6906H198.063V38.494H193.564V21.6736H208.585V25.6906ZM224.231 21.6736H228.73V38.494H224.231V27.6982L215.458 38.494H210.959V21.6736H215.458V32.4694L224.231 21.6736ZM245.501 21.6736H250V38.494H245.501V27.6982L236.728 38.494H232.229V21.6736H236.728V32.4694L245.501 21.6736ZM89.9609 25.6906H78.4389V28.2013H87.4614V32.2183H78.4389V34.4779H89.9609V38.4949H73.9398V21.6746H89.9609V25.6916V25.6906ZM98.1091 30.0838L91.9352 22.6779V21.6736H96.3594L100.733 26.946L105.132 21.6736H109.531V22.6779L103.357 30.0838L109.531 37.4897V38.494H105.132L100.733 33.247L96.3594 38.494H91.9352V37.4897L98.1091 30.0838ZM116.529 21.6736V28.2013H125.278V21.6736H129.777V38.494H125.278V32.2173H116.529V38.494H112.03V21.6736H116.529ZM133.025 29.4312C133.025 28.2931 133.167 27.2215 133.45 26.2182C133.733 25.2139 134.229 24.3396 134.937 23.5942C135.645 22.8498 136.599 22.2598 137.8 21.8241C139 21.3893 140.507 21.1715 142.324 21.1715H143.224C145.039 21.1715 146.548 21.3893 147.747 21.8241C148.947 22.2588 149.9 22.8488 150.609 23.5942C151.317 24.3386 151.813 25.2139 152.096 26.2182C152.379 27.2224 152.521 28.2931 152.521 29.4312V30.7364C152.521 31.8745 152.379 32.9451 152.096 33.9494C151.813 34.9537 151.317 35.828 150.609 36.5734C149.901 37.3178 148.947 37.9078 147.747 38.3435C146.547 38.7782 145.039 38.9961 143.224 38.9961H142.324C140.508 38.9961 139 38.7782 137.8 38.3435C136.599 37.9088 135.646 37.3187 134.937 36.5734C134.229 35.829 133.733 34.9537 133.45 33.9494C133.167 32.9451 133.025 31.8745 133.025 30.7364V29.4312ZM137.524 30.0838C137.524 30.7198 137.553 31.3352 137.612 31.9292C137.67 32.5231 137.862 33.0467 138.187 33.4981C138.511 33.9504 139.028 34.3099 139.736 34.5775C140.444 34.8452 141.456 34.9791 142.772 34.9791C144.088 34.9791 145.101 34.8452 145.809 34.5775C146.517 34.3099 147.033 33.9494 147.358 33.4981C147.683 33.0458 147.874 32.5231 147.933 31.9292C148.048 30.7461 148.05 29.4312 147.933 28.2511C147.874 27.665 147.683 27.1462 147.358 26.6949C147.033 26.2426 146.517 25.8831 145.809 25.6154C145.101 25.3477 144.088 25.2139 142.772 25.2139C141.456 25.2139 140.444 25.3477 139.736 25.6154C139.028 25.8831 138.511 26.2426 138.187 26.6949C137.862 27.1472 137.67 27.6659 137.612 28.2511C137.553 28.8373 137.524 29.4478 137.524 30.0838ZM74.6147 17.3225V16.3182L82.0627 0.502129H86.5618L94.0097 16.3182V17.3225H89.9609L88.5108 14.0586H80.0874L78.6626 17.3225H74.6138H74.6147ZM86.8613 10.2927L84.3122 4.54358L81.7631 10.2927H86.8623H86.8613ZM102.731 17.8246C100.475 17.8246 98.3347 17.5814 96.2077 17.0216V12.8795C98.5273 13.494 100.5 13.8086 102.856 13.8086C104.148 13.8086 105.908 13.7509 106.743 13.3445C107.034 13.2019 107.213 13.0436 107.28 12.8678C107.406 12.5376 107.408 12.1576 107.318 11.8137C107.2 11.3614 106.163 11.2178 105.556 11.1484C104.442 11.0205 102.476 11.0478 101.132 11.0478V7.03078H103.081C104.178 7.03078 105.738 6.98682 106.405 6.60388C106.638 6.47004 106.776 6.31081 106.817 6.12715C106.899 5.76765 106.913 5.3212 106.792 4.95975C106.734 4.7839 106.575 4.62467 106.318 4.48302C105.578 4.07565 103.975 4.01899 102.806 4.01899C101.673 4.01899 100.636 4.103 99.6943 4.27005C98.7529 4.4371 97.7657 4.67156 96.7329 4.97342V0.831346C98.6138 0.281349 100.673 0.00293071 102.657 0.00293071H103.232C104.731 0.00293071 105.972 0.127975 106.956 0.379039C107.939 0.630104 108.722 0.972997 109.305 1.4087C109.889 1.84342 110.296 2.35043 110.53 2.92778C110.763 3.50513 110.88 4.12058 110.88 4.77316V5.27529C110.88 6.09491 110.617 6.82368 110.092 7.45965C109.567 8.09561 108.613 8.57234 107.23 8.89081C108.453 9.15262 109.694 9.59125 110.492 10.3718C110.817 10.6903 111.046 11.0332 111.179 11.4015C111.403 12.0189 111.38 12.435 111.38 13.0583C111.38 13.7109 111.254 14.3302 111.004 14.9164C110.395 16.3465 108.837 17.0616 107.205 17.4524C106.156 17.7035 104.831 17.8285 103.232 17.8285H102.732L102.731 17.8246ZM130.338 4.51916H118.816V7.02981H127.839V11.0468H118.816V13.3064H130.338V17.3235H114.317V0.503106H130.338V4.52014V4.51916ZM150.308 7.02981C150.308 7.86701 150.204 8.64952 149.996 9.37731C149.787 10.1051 149.433 10.7411 148.933 11.2852C148.434 11.8293 147.755 12.2602 146.897 12.5777C146.039 12.8961 144.96 13.0544 143.66 13.0544C142.547 13.0544 141.407 13.0505 140.323 13.029C139.466 13.0124 138.628 12.9372 137.811 12.8033V17.3225H133.312V0.502129C136.232 0.161189 139.492 0 142.46 0H143.16C144.56 0 145.718 0.159236 146.634 0.47673C148.285 1.0492 149.505 2.06518 149.984 3.68977C150.347 4.92458 150.309 5.7823 150.309 7.02883L150.308 7.02981ZM142.26 9.03832C143.371 9.03832 144.749 8.94747 145.372 8.32323C145.597 8.09756 145.726 7.8338 145.759 7.53194C145.827 6.92039 145.825 6.12617 145.759 5.51072C145.609 4.12156 143.695 4.01703 142.435 4.01703C141.109 4.01703 139.243 4.09909 137.811 4.2427V8.81168C139.377 9.01195 140.682 9.03735 142.26 9.03735V9.03832ZM157.806 0.502129V7.02981H166.554V0.502129H171.054V17.3225H166.554V11.0459H157.806V17.3225H153.307V0.502129H157.806ZM191.048 12.5523C191.048 13.2888 190.944 13.9746 190.735 14.6106C190.527 15.2466 190.173 15.8034 189.673 16.2801C189.173 16.7568 188.495 17.1339 187.637 17.4094C186.779 17.6859 185.699 17.8236 184.4 17.8236H183.7C180.732 17.8236 177.472 17.6624 174.552 17.3215V0.501152H179.051V6.5267C179.867 6.39287 180.704 6.31764 181.563 6.30104C182.646 6.27954 183.786 6.27564 184.9 6.27564C186.1 6.27564 187.095 6.41338 187.887 6.68984C188.678 6.96631 189.308 7.34242 189.774 7.81915C190.24 8.29588 190.569 8.85662 190.761 9.50138C191.092 10.615 191.049 11.42 191.049 12.5513L191.048 12.5523ZM197.271 0.502129V17.3225H192.772V0.502129H197.271ZM183.5 10.2936C181.922 10.2936 180.616 10.319 179.051 10.5193V13.5819C180.483 13.7255 182.349 13.8076 183.675 13.8076C184.697 13.8076 186.018 13.7626 186.623 13.3181C186.84 13.1589 186.965 12.9713 186.998 12.7535C187.065 12.3168 187.065 11.7844 186.998 11.3477C186.909 10.7704 186.183 10.5525 185.548 10.4314C185.064 10.3396 184.382 10.2936 183.499 10.2936H183.5ZM216.791 4.51916H205.269V7.02981H214.292V11.0468H205.269V13.3064H216.791V17.3235H200.77V0.503106H216.791V4.52014V4.51916Z" fill="black"/>
<defs>
<linearGradient id="paint0_linear_202_5613" x1="9.32435" y1="35.505" x2="41.8478" y2="3.63749" gradientUnits="userSpaceOnUse">
<stop stop-color="#7D0000"/>
<stop offset="0.439216" stop-color="#BE0000"/>
<stop offset="1" stop-color="#FF0000"/>
</linearGradient>
</defs>
</svg>
