<svg width="31" height="30" viewBox="0 0 31 30" fill="none" xmlns="http://www.w3.org/2000/svg">
<path d="M11.5125 24.9506H25.5052C27.3236 24.9506 28.2954 24.0385 28.2954 22.2246V21.5612L23.4465 17.0212C23.039 16.6481 22.5374 16.4615 22.0358 16.4615C21.5133 16.4615 21.0534 16.6273 20.625 17.0108L16.4031 20.7216L14.7207 19.2186C14.3235 18.8559 13.8951 18.69 13.4458 18.69C13.0381 18.69 12.6515 18.8559 12.2439 19.1979L8.72225 22.235C8.72225 24.0385 9.69411 24.9506 11.5125 24.9506ZM15.6507 17.2493C16.8629 17.2493 17.8557 16.2438 17.8557 15.031C17.8557 13.8391 16.8629 12.8337 15.6507 12.8337C14.428 12.8337 13.4353 13.8391 13.4353 15.031C13.4353 16.2438 14.428 17.2493 15.6507 17.2493ZM6.31871 20.7009H8.91036V19.0321H6.33961C5.29459 19.0321 4.71983 18.4827 4.71983 17.4047V7.80651C4.71983 6.72853 5.29459 6.16881 6.33961 6.16881H20.4473C21.4819 6.16881 22.0776 6.72853 22.0776 7.80651V9.97285H23.7601V7.71322C23.7601 5.57799 22.6523 4.5 20.4787 4.5H6.31871C4.12417 4.5 3.03735 5.57799 3.03735 7.71322V17.4877C3.03735 19.6333 4.12417 20.7009 6.31871 20.7009ZM11.4811 25.5H25.7561C27.9297 25.5 29.0374 24.422 29.0374 22.2868V12.5123C29.0374 10.3771 27.9297 9.29911 25.7561 9.29911H11.4811C9.28656 9.29911 8.19974 10.3771 8.19974 12.5123V22.2868C8.19974 24.4324 9.28656 25.5 11.4811 25.5ZM11.502 23.8312C10.457 23.8312 9.88222 23.2818 9.88222 22.2038V12.6056C9.88222 11.5276 10.457 10.9679 11.502 10.9679H25.7247C26.7593 10.9679 27.3549 11.5276 27.3549 12.6056V22.2038C27.3549 23.2818 26.7593 23.8312 25.7247 23.8312H11.502Z" fill="black"/>
</svg>
