<svg width="30" height="28" viewBox="0 0 30 28" fill="none" xmlns="http://www.w3.org/2000/svg">
<path fill-rule="evenodd" clip-rule="evenodd" d="M16.9772 0.0242743C9.42806 0.503839 -0.349851 3.31272 0.00963077 12.0819C0.369113 19.5494 3.60445 28.5241 12.951 27.9761C20.5001 27.4965 30.3499 24.6876 29.9904 15.9184C29.631 8.3139 26.3956 -0.5238 16.9772 0.0242743Z" fill="url(#paint0_linear_165_13842)"/>
<path d="M21.4989 7.78786L8.20144 12.9156C7.29394 13.2801 7.29919 13.7864 8.03494 14.0121L11.4489 15.0771L19.3479 10.0934C19.7214 9.86611 20.0627 9.98836 19.7822 10.2374L13.3824 16.0131H13.3809L13.3824 16.0139L13.1469 19.5329C13.4919 19.5329 13.6442 19.3746 13.8377 19.1879L15.4959 17.5754L18.9452 20.1231C19.5812 20.4734 20.0379 20.2934 20.1962 19.5344L22.4604 8.86336C22.6922 7.93411 22.1057 7.51336 21.4989 7.78786Z" fill="white"/>
<defs>
<linearGradient id="paint0_linear_165_13842" x1="3.17702" y1="22.6147" x2="25.9569" y2="4.31402" gradientUnits="userSpaceOnUse">
<stop stop-color="#00497D"/>
<stop offset="1" stop-color="#10BBEE"/>
</linearGradient>
</defs>
</svg>
