<svg width="30" height="28" viewBox="0 0 30 28" fill="none" xmlns="http://www.w3.org/2000/svg">
<path fill-rule="evenodd" clip-rule="evenodd" d="M16.9772 0.0242743C9.42806 0.50384 -0.349851 3.31272 0.00963077 12.0819C0.369113 19.5494 3.60445 28.5241 12.951 27.9761C20.5001 27.4965 30.3499 24.6876 29.9904 15.9184C29.631 8.3139 26.3956 -0.5238 16.9772 0.0242743Z" fill="url(#paint0_linear_165_13836)"/>
<path d="M20.4675 12.5804C20.4855 10.4114 18.6383 8.42314 16.35 8.14789C16.3006 8.14172 16.2513 8.13422 16.2023 8.12539C16.0873 8.10337 15.9706 8.09083 15.8535 8.08789C15.384 8.08789 15.2588 8.41789 15.2258 8.61364C15.1935 8.80489 15.2243 8.96614 15.3165 9.09139C15.4718 9.30214 15.7455 9.33964 15.9653 9.36964C16.029 9.37864 16.0898 9.38689 16.1408 9.39814C18.1973 9.85789 18.8895 10.5801 19.2278 12.6194C19.236 12.6689 19.2398 12.7304 19.2443 12.7956C19.2593 13.0394 19.2893 13.5464 19.8345 13.5464C19.8795 13.5464 19.929 13.5426 19.98 13.5351C20.487 13.4579 20.4713 12.9944 20.4638 12.7716C20.4615 12.7086 20.4593 12.6494 20.4653 12.6096C20.4665 12.5997 20.467 12.5897 20.4668 12.5796L20.4675 12.5804Z" fill="white"/>
<path d="M15.72 7.352C15.7815 7.3565 15.8385 7.361 15.8865 7.36775C19.2638 7.8875 20.817 9.48725 21.2468 12.8907C21.2543 12.9485 21.2558 13.019 21.2565 13.0933C21.261 13.3595 21.27 13.913 21.864 13.9243H21.882C22.0688 13.9243 22.2165 13.868 22.323 13.757C22.5075 13.5642 22.4955 13.277 22.4843 13.046C22.482 12.989 22.4798 12.9357 22.4798 12.8885C22.5233 9.4085 19.5098 6.25175 16.0328 6.13475C16.0178 6.13475 16.0043 6.13475 15.9908 6.137C15.9771 6.13873 15.9633 6.13948 15.9495 6.13925C15.9143 6.13925 15.8723 6.13625 15.8265 6.13325C15.7725 6.1295 15.7103 6.125 15.6465 6.125C15.093 6.125 14.988 6.51875 14.9745 6.7535C14.9438 7.29575 15.468 7.334 15.72 7.352ZM21.084 17.2895C21.0115 17.2344 20.9398 17.1784 20.8688 17.1215C20.4998 16.8245 20.1075 16.5515 19.7288 16.2867L19.4925 16.1218C19.0065 15.7805 18.57 15.6147 18.1575 15.6147C17.601 15.6147 17.1165 15.9222 16.716 16.5275C16.539 16.796 16.3238 16.9265 16.059 16.9265C15.8751 16.9201 15.6947 16.8748 15.5295 16.7938C13.962 16.0828 12.8415 14.9923 12.201 13.553C11.8913 12.857 11.9918 12.4025 12.5363 12.032C12.846 11.822 13.4213 11.4313 13.3815 10.682C13.335 9.83225 11.4593 7.274 10.6688 6.98375C10.3308 6.86048 9.96039 6.85942 9.62176 6.98075C8.71351 7.286 8.06251 7.823 7.73626 8.53175C7.42126 9.21725 7.43626 10.022 7.77676 10.859C8.76301 13.2792 10.149 15.3898 11.8973 17.1313C13.608 18.836 15.711 20.2318 18.147 21.281C18.3668 21.3755 18.597 21.4272 18.7658 21.4647C18.8228 21.4775 18.8723 21.4887 18.9083 21.4985C18.9281 21.5038 18.9485 21.5066 18.969 21.5068H18.9885C20.1345 21.5068 21.5108 20.4597 21.933 19.2665C22.3035 18.221 21.627 17.7042 21.084 17.2895ZM16.227 10.1172C16.0313 10.1217 15.6225 10.1322 15.4793 10.5477C15.4118 10.7427 15.42 10.9107 15.5033 11.0495C15.6248 11.252 15.858 11.315 16.0695 11.3495C16.8383 11.4725 17.2335 11.897 17.3123 12.6867C17.349 13.0542 17.5973 13.3115 17.9145 13.3115C17.9386 13.3115 17.9626 13.31 17.9865 13.307C18.369 13.262 18.5543 12.9807 18.5378 12.4715C18.5438 11.9405 18.2663 11.3375 17.793 10.8575C17.319 10.376 16.7475 10.1045 16.227 10.1172Z" fill="white"/>
<defs>
<linearGradient id="paint0_linear_165_13836" x1="3.17702" y1="22.6147" x2="25.9748" y2="4.3134" gradientUnits="userSpaceOnUse">
<stop stop-color="#420170"/>
<stop offset="1" stop-color="#9F65CB"/>
</linearGradient>
</defs>
</svg>
