<svg width="24" height="24" viewBox="0 0 24 24" fill="none" xmlns="http://www.w3.org/2000/svg">
<path fill-rule="evenodd" clip-rule="evenodd" d="M9.28551 13.7739L12.0023 15.4767L14.6212 13.8206L20.4916 19.1296C20.337 19.1754 20.1719 19.2 20.0001 19.2H4.00071C3.78951 19.2 3.58791 19.1622 3.40263 19.0944L9.28551 13.7739ZM21.6004 9.41088V17.733C21.6004 17.9504 21.5486 18.1563 21.4564 18.342L15.7022 13.1377L21.6004 9.41088ZM2.40039 9.45752L8.20071 13.0937L2.50215 18.2487C2.43466 18.0838 2.40019 17.9091 2.40039 17.733V9.45752ZM20.0001 6C20.8833 6 21.6004 6.65648 21.6004 7.46696V7.98264L11.9985 14.0502L2.40039 8.0328V7.46696C2.40039 6.65736 3.11655 6 4.00071 6H20.0001Z" fill="black"/>
</svg>
