<svg width="12" height="12" viewBox="0 0 12 12" fill="none" xmlns="http://www.w3.org/2000/svg">
<path d="M6.91989 8.91237C6.8747 8.96197 6.81513 8.99256 6.75155 8.99881C6.68797 9.00506 6.62441 8.98657 6.57195 8.94657L6.53378 8.91237L4.07966 6.21272C4.03457 6.16302 4.00676 6.09749 4.00108 6.02754C3.9954 5.9576 4.01221 5.88769 4.04857 5.82997L4.07966 5.78798L6.53378 3.08833C6.58187 3.03519 6.64632 3.00379 6.71441 3.00032C6.78251 2.99685 6.84931 3.02157 6.90167 3.0696C6.95402 3.11763 6.98812 3.18549 6.99724 3.2598C7.00637 3.33411 6.98986 3.40949 6.95098 3.47108L6.91989 3.51308L4.65828 6.00035L6.91989 8.48763C6.94528 8.51549 6.96543 8.54859 6.97918 8.58504C6.99292 8.62148 7 8.66055 7 8.7C7 8.73946 6.99292 8.77852 6.97918 8.81497C6.96543 8.85141 6.94528 8.88451 6.91989 8.91237Z" fill="#484848"/>
</svg>
