<svg width="19" height="18" viewBox="0 0 19 18" fill="none" xmlns="http://www.w3.org/2000/svg">
<path d="M15.4629 1.81883C15.3128 1.84612 14.9649 1.90069 14.692 1.94845C14.2144 2.03031 14.194 2.03714 14.0575 2.29638C13.846 2.71935 13.0342 3.52436 12.5362 3.81771L12.0859 4.08377V4.94336C12.0859 5.41408 12.1132 5.83705 12.1405 5.87799C12.1678 5.91892 12.3042 5.99396 12.4475 6.03489C12.6931 6.11676 12.7204 6.10994 13.2321 5.81659L13.7574 5.50959L13.7778 7.89051C13.7846 9.20035 13.8188 10.2714 13.846 10.2714C13.8733 10.2782 14.3099 10.3124 14.8148 10.3601C15.3196 10.4079 15.8313 10.4283 15.9404 10.4079L16.1451 10.3738L16.1656 6.23956L16.1792 2.09853L15.9609 1.9348C15.7699 1.79836 15.688 1.77789 15.4629 1.81883Z" fill="white"/>
<path d="M6.97621 3.53798L6.54642 3.82451L4.50661 9.52097C3.38778 12.6523 2.4668 15.2243 2.4668 15.2311C2.4668 15.2379 2.63735 15.3334 2.84884 15.4494L3.22405 15.6541L4.66352 15.5176C5.4617 15.4426 6.10981 15.3743 6.11663 15.3675C6.12345 15.3607 6.27354 14.8081 6.45773 14.1464L6.78519 12.9389L7.26956 12.8979C7.53563 12.8775 8.16326 12.8502 8.6681 12.8433L9.58226 12.8297L9.66413 13.1367C9.7187 13.3072 9.82103 13.6893 9.9029 13.9963L10.0462 14.5489L10.5646 14.7058L11.0763 14.8627L12.1815 14.7467C12.7818 14.6785 13.2935 14.6103 13.3071 14.5966C13.3208 14.583 12.6522 12.2908 11.8131 9.50733C10.9808 6.71708 10.2508 4.30206 10.2031 4.1315L10.1076 3.81769L8.83183 3.53116C8.12233 3.37425 7.52198 3.24463 7.48105 3.24463C7.44694 3.25145 7.21499 3.38107 6.97621 3.53798ZM8.7295 9.60284C8.88641 10.2168 9.01603 10.7353 9.01603 10.7626C9.01603 10.7967 8.70903 10.8172 8.32699 10.8172C7.78805 10.8172 7.64478 10.7967 7.66525 10.7285C7.74029 10.4147 8.37475 8.49766 8.40204 8.49766C8.4225 8.49766 8.56577 8.99567 8.7295 9.60284Z" fill="white"/>
</svg>
