<svg width="19" height="18" viewBox="0 0 19 18" fill="none" xmlns="http://www.w3.org/2000/svg">
<path d="M6.91992 3.48301C6.91992 4.8089 7.8164 5.91632 9.04433 6.22519V10.9939C9.04433 13.2163 9.44361 14.4291 9.74498 14.4291C10.0539 14.4291 10.4456 13.2238 10.4456 10.9939V6.22519C11.6736 5.92385 12.5775 4.8089 12.5775 3.48301C12.5775 1.92358 11.3195 0.642883 9.74498 0.642883C8.17801 0.642883 6.91992 1.92358 6.91992 3.48301ZM8.9389 3.64121C8.42662 3.64121 7.97461 3.1892 7.97461 2.66185C7.97461 2.14205 8.42662 1.69757 8.9389 1.69757C9.47376 1.69757 9.91071 2.14205 9.91071 2.66185C9.91071 3.1892 9.47376 3.64121 8.9389 3.64121ZM9.7525 17.1864C14.2952 17.1864 16.9018 15.6195 16.9018 13.9621C16.9018 11.9732 13.7453 10.7604 11.6736 10.7377V11.8377C13.1275 11.8602 15.38 12.6513 15.38 13.7813C15.38 15.077 12.9919 15.9961 9.7525 15.9961C6.49805 15.9961 4.125 15.0921 4.125 13.7813C4.125 12.6513 6.36998 11.8602 7.82394 11.8377V10.7377C5.75223 10.7604 2.5957 11.9732 2.5957 13.9621C2.5957 15.6195 5.20982 17.1864 9.7525 17.1864Z" fill="white"/>
</svg>
