<svg width="19" height="18" viewBox="0 0 19 18" fill="none" xmlns="http://www.w3.org/2000/svg">
<path fill-rule="evenodd" clip-rule="evenodd" d="M7.63064 10.3304L9.66824 11.6075L11.6324 10.3654L16.0352 14.3472C15.9193 14.3815 15.7954 14.4 15.6666 14.4H3.66704C3.50864 14.4 3.35744 14.3716 3.21848 14.3208L7.63064 10.3304ZM16.8668 7.05816V13.2998C16.8668 13.4628 16.8279 13.6172 16.7588 13.7565L12.4431 9.85326L16.8668 7.05816ZM2.4668 7.09314L6.81704 9.82026L2.54312 13.6865C2.4925 13.5629 2.46664 13.4319 2.4668 13.2998V7.09314ZM15.6666 4.5C16.329 4.5 16.8668 4.99236 16.8668 5.60022V5.98698L9.66536 10.5377L2.4668 6.0246V5.60022C2.4668 4.99302 3.00392 4.5 3.66704 4.5H15.6666Z" fill="white"/>
</svg>
