<svg width="19" height="18" viewBox="0 0 19 18" fill="none" xmlns="http://www.w3.org/2000/svg">
<path d="M13.0837 9.67949L12.7424 10.0192C12.7424 10.0192 11.9302 10.8262 9.71391 8.62274C7.49766 6.41923 8.30991 5.61223 8.30991 5.61223L8.52441 5.39773C9.05466 4.87123 9.10491 4.02523 8.64216 3.40723L7.69716 2.14498C7.12416 1.37998 6.01791 1.27873 5.36166 1.93123L4.18416 3.10123C3.85941 3.42523 3.64191 3.84373 3.66816 4.30873C3.73566 5.49898 4.27416 8.05873 7.27716 11.0452C10.4624 14.2117 13.4512 14.3377 14.6729 14.2237C15.0599 14.1877 15.3959 13.9912 15.6667 13.7212L16.7317 12.6622C17.4517 11.9475 17.2492 10.7212 16.3282 10.221L14.8957 9.44173C14.2912 9.11323 13.5562 9.20999 13.0837 9.67949Z" fill="white"/>
</svg>
