<svg width="141" height="49" viewBox="0 0 141 49" fill="none" xmlns="http://www.w3.org/2000/svg">
<rect x="0.506836" width="140.33" height="48.2879" rx="12" fill="url(#paint0_linear_202_1748)"/>
<path d="M25.4853 35.0559C25.0317 34.9903 25.9324 35.1193 25.4853 35.0559C25.0122 34.9815 24.5368 34.9072 24.0702 34.8263C25.2314 33.7438 26.7029 33.1512 27.9769 34.1003C28.7192 34.6579 25.6351 35.0777 25.4853 35.0559ZM52.991 29.8514C53.1039 29.8601 52.9412 29.9017 52.9216 29.8908C52.6308 30.0766 52.6742 30.4965 52.1424 30.2341C53.7073 28.4737 55.0356 26.4882 55.6954 24.2008C55.7019 25.2526 54.1457 29.9564 52.991 29.8492V29.8514ZM49.1559 22.9062C48.9302 22.1299 48.0251 20.9753 47.1049 20.9119C46.0652 20.8398 45.1385 20.9797 44.522 22.3311C44.1118 23.2146 44.3159 24.6885 44.7131 25.2373C45.1168 25.9502 45.6051 26.3023 46.2411 26.5866C46.7446 26.8227 47.2829 26.8971 47.8059 26.6631C49.8092 25.7906 49.3838 23.6847 49.1581 22.9062H49.1559ZM51.4002 20.9972C52.6872 24.6622 50.8988 27.9577 49.3209 29.2325C48.1597 30.1728 43.1916 31.2947 41.6636 26.9189C41.1818 25.5413 40.9995 20.995 44.0077 18.559C45.1754 17.6121 49.8961 16.7112 51.4023 20.995L51.4002 20.9972ZM45.6615 32.9566C43.9491 32.5761 42.2866 32.3662 40.8562 31.2662C42.6034 29.9673 42.6381 30.4025 44.2594 30.8354C45.3642 31.1285 44.9236 30.7261 45.9784 31.3931C45.9285 31.9135 46.0132 32.5499 45.6594 32.9588L45.6615 32.9566ZM38.6077 26.685C38.5577 26.6718 38.523 26.6631 38.4948 26.65C38.4601 26.6412 38.4384 26.6325 38.4189 26.6215C36.8345 26.0683 39.07 24.6666 39.6777 24.2052C39.5562 25.2373 38.9983 25.7796 38.6098 26.685H38.6077ZM60.0623 16.4269C59.7302 15.679 59.3916 15.0274 58.8317 14.566C58.5625 14.7868 54.9401 11.4695 54.493 12.4295C54.3867 11.7122 52.1012 11.2465 51.4631 10.9359C50.4235 10.4155 49.6595 11.0037 48.5482 10.6363C46.2562 9.87317 43.0571 10.9141 40.8194 11.9112C38.5057 12.939 36.9777 13.9886 35.4128 15.9414C35.1306 16.3066 34.8811 16.6805 34.6705 17.0567C34.486 16.7024 34.2951 16.3503 34.0845 15.9983C33.9782 15.8146 33.8718 15.6309 33.7503 15.4472C32.3351 13.2583 30.2342 11.8587 27.8923 10.9097C27.8706 10.9491 25.4441 10.8135 25.2813 10.621C25.2444 10.7041 24.2482 11.148 23.8662 11.019C23.393 10.8616 22.0821 11.5154 22.0821 11.5132C22.4293 10.8944 21.1922 11.2596 20.7603 11.4083C19.9529 11.6751 19.3018 11.1568 19.6122 12.2327C18.948 11.7166 17.3831 12.5629 17.4396 13.0483C16.9577 12.5432 15.5556 14.1636 15.2887 14.0892C15.2735 14.3101 15.2105 14.5025 15.0955 14.6709C15.1107 14.4785 15.0608 14.3954 14.9327 14.4173C14.8264 15.0667 14.0776 15.0667 13.9408 16.1732C13.8844 16.0355 13.8345 15.8977 13.7846 15.7599C13.5219 16.2519 13.8562 15.948 13.7846 15.7599C12.3065 18.5371 10.9391 20.866 10.5636 24.1308C10.4095 25.456 10.5702 26.9955 11.0303 28.2463C11.306 29.0007 11.6467 29.7246 11.9722 30.4593C12.1849 30.9448 13.1812 31.5964 12.5105 31.5658C13.3027 32.1672 13.8475 33.5492 14.783 33.9078C15.1216 34.039 16.452 35.4845 16.2545 34.7825C19.4255 37.7981 25.2574 38.5678 29.149 37.1289C31.3997 36.3001 34.0824 33.5492 35.2283 32.0425C35.7883 32.9478 36.5588 33.9013 36.8279 34.0696C37.9457 34.7782 39.962 36.392 42.6165 37.3082C42.814 37.0896 44.1097 37.5685 44.6979 37.9358C45.5812 37.9183 51.4414 38.0408 51.3003 36.8315C51.9384 37.3695 52.7784 36.2826 53.1126 35.8715C53.1625 36.7025 55.2223 34.9312 55.7301 34.5551C56.2901 34.1571 57.5207 33.7504 57.4079 32.9828C57.5859 33.2299 57.8333 32.7314 58.2435 32.2874C58.5626 31.9419 58.7817 31.5614 58.632 31.4346C58.8664 31.4718 59.0791 31.3362 59.2831 31.1C59.4806 31.3952 59.6933 31.6249 59.9342 31.7429C60.1382 32.1387 60.4703 33.7066 60.8263 32.7314C60.9674 33.8379 61.7183 33.8379 61.8247 34.4851C61.9527 34.5114 62.0092 34.4239 61.9875 34.2315C62.1068 34.402 62.1719 34.5988 62.1785 34.8153C62.4476 34.741 63.8497 36.3614 64.3293 35.8584C64.2816 36.3351 65.8443 37.2033 66.5019 36.6763C66.2328 37.6144 66.8926 37.247 67.6414 37.4963C68.0798 37.6537 69.3191 38.0124 68.9719 37.3935C69.0348 37.3673 70.3805 37.9664 71.0164 37.8003C71.1575 38.5066 71.9649 37.8287 72.1689 38.2879C72.5292 37.8615 74.7864 37.9752 75.5873 37.6712C77.5841 36.9081 79.4724 35.268 80.6401 33.4617C81.1219 32.7051 81.5104 31.9616 81.8425 31.2116C81.9641 31.5352 82.1398 31.8195 82.4589 32.0207C82.3091 32.2153 82.2549 31.7954 82.0682 32.025C84.6792 33.9319 85.9684 35.5392 89.4563 36.814C93.1004 38.1414 99.2362 36.8315 102.179 34.1659C102.045 34.6207 103.794 33.3436 104.111 32.9981C104.784 32.2809 105.285 31.5418 106.112 30.947C106.19 30.7655 106.262 30.573 106.268 30.5643C106.637 31.3952 107.076 32.2087 107.599 33.0244C109.014 35.2155 111.115 36.6128 113.468 37.5619C113.479 37.5247 115.905 37.6581 116.064 37.8506C116.107 37.7675 117.099 37.3257 117.487 37.4548C117.963 37.6122 119.261 36.954 119.271 36.9584C118.924 37.5794 120.157 37.2098 120.602 37.0611C121.405 36.7922 122.047 37.3148 121.741 36.2367C122.405 36.7594 123.957 35.9 123.905 35.4211C124.391 35.9262 125.794 34.3036 126.058 34.378C126.069 34.1593 126.132 33.9669 126.249 33.7963C126.238 33.9909 126.291 34.074 126.419 34.05C126.525 33.4005 127.274 33.4027 127.411 32.2918C127.463 32.4318 127.517 32.5673 127.558 32.7073C127.495 32.517 127.823 32.2131 127.558 32.7073C129.036 29.9323 130.408 27.6012 130.777 24.3342C130.935 23.0068 130.777 21.4717 130.312 20.2187C130.039 19.4665 129.7 18.7405 129.383 18.0035C129.162 17.5224 128.159 16.8708 128.834 16.9014C128.042 16.3001 127.493 14.9158 126.564 14.5572C126.225 14.4282 124.897 12.9827 125.097 13.6825C121.919 10.6691 116.094 9.89504 112.2 11.3339C109.268 12.4142 108.191 14.1133 105.962 15.8233C106.132 16.0639 106.19 15.6287 106.331 15.8255C106.108 15.9742 105.934 16.1929 105.804 16.4488C105.774 16.4291 105.741 16.4116 105.711 16.3963C105.687 16.4531 105.665 16.5122 105.645 16.5734C105.615 16.5625 105.585 16.5515 105.552 16.545C105.298 16.0814 105.559 16.545 105.552 16.545C105.326 16.1339 104.979 14.5966 104.612 15.5587C104.463 14.4391 103.679 14.461 103.566 13.8006C103.438 13.7787 103.382 13.8618 103.397 14.0543C103.278 13.8859 103.204 13.6934 103.199 13.4704C102.889 13.5535 101.472 11.8937 100.934 12.4317C100.99 11.9309 99.3339 11.1021 98.6481 11.6138C98.9324 10.6648 98.2161 11.0321 97.4543 10.7916C97.0072 10.6429 95.6768 10.2646 96.0609 10.8922C95.9611 10.9316 94.5742 10.3258 93.91 10.4876C93.7603 9.7857 92.9051 10.4527 92.6924 10C92.2974 10.4505 89.9468 10.3061 89.1047 10.6167C87.0298 11.3624 85.0287 12.9937 83.7959 14.8262C83.2728 15.5915 82.8626 16.3503 82.5001 17.1135C82.3938 16.7811 82.218 16.4772 81.9054 16.2694C82.0552 16.0726 82.103 16.5034 82.2809 16.2629C79.7958 14.3385 78.6086 12.7641 75.2466 11.4761C71.7717 10.1443 65.8921 11.5089 63.1465 14.1242C63.3657 13.3589 62.2414 14.5353 62.0482 14.7278C61.6033 15.187 61.1215 15.3707 60.8241 15.9873C60.6678 15.9524 60.4985 16.0289 60.3271 16.1667C60.2359 16.2344 60.1513 16.3241 60.0579 16.4269H60.0623ZM74.8667 14.8109C73.6079 15.7577 72.106 15.1695 70.96 14.0849C71.0598 14.1789 71.4765 14.0018 70.96 14.0849C71.8455 13.9427 72.82 13.6475 73.7056 13.9493C73.8467 13.9974 75.4332 14.391 74.8667 14.8109ZM69.4385 24.0084C69.2844 24.7825 69.5579 25.5435 70.2524 26.2935C70.9535 27.0436 71.9866 27.1311 73.1261 26.2476C73.877 25.6681 74.3523 24.297 74.259 23.6476C74.2373 22.8494 73.9682 22.3246 73.545 21.7888C73.2194 21.3558 72.781 21.0934 72.2297 21.0081C71.5286 21.0453 70.9426 21.3624 70.4825 21.9616C69.9442 22.552 69.5904 23.2408 69.4429 24.0106L69.4385 24.0084ZM75.277 20.1334C77.5277 23.0681 76.8679 26.5844 75.8218 28.2069C75.0448 29.4053 70.8819 31.9004 68.2079 28.395C67.3723 27.2929 65.8638 23.2299 67.8823 20.1313C68.6615 18.9285 72.6659 16.7046 75.277 20.1334ZM69.3474 32.3159C68.8243 31.9507 69.7294 31.4587 70.0549 31.6161C70.1265 32.4864 69.814 32.6373 69.3474 32.3159ZM66.1981 30.1532C66.0288 30.7829 64.0407 31.6117 65.356 29.5496C65.5817 29.2304 66.2545 29.9717 66.1981 30.1532ZM59.4046 20.9294C60.3748 22.1453 59.9364 26.1755 58.6125 26.7025C59.6109 26.8993 59.0574 26.9452 59.0856 27.7368C60.5376 27.5312 61.6966 20.6517 59.4046 20.9294ZM16.6192 20.374C17.2139 19.7464 18.0907 19.3659 18.6789 19.3156C19.2584 19.2653 19.5839 19.6502 19.6273 20.4724C20.3783 22.8144 21.1358 25.069 21.1141 25.7534C21.1271 25.1936 21.6806 22.95 21.8282 22.3071C22.0474 21.3843 22.7831 21.0781 23.8249 20.9863C24.539 21.0322 24.8364 21.0519 25.2965 21.92C25.8282 22.9347 26.4142 23.8881 27.1652 24.73L27.4908 22.9325L27.6948 21.3777C27.8359 19.7901 27.9574 19.2063 28.1267 19.0838C28.5869 18.758 29.1728 18.887 29.5006 18.8739C29.8326 18.8586 30.4274 18.8586 30.6184 18.957C30.9439 19.1363 30.894 19.4206 30.8723 20.1859C30.8007 20.6495 30.6466 21.791 30.4122 23.6126C30.1561 25.3182 29.8739 26.7615 29.5483 27.9358C29.3421 29.7224 28.7192 30.5074 27.6731 30.2887C26.8527 30.3806 26.3925 30.3084 26.2927 30.0591C26.1169 29.9301 25.9888 29.7421 25.9107 29.4884L24.0007 26.2214C23.6122 27.083 22.8613 30.0001 21.3832 30.2887C20.463 30.4681 19.827 30.3478 19.4928 30.1051C19.152 29.8623 18.9762 29.0117 18.5942 28.0604C17.9062 25.69 17.3831 24.1571 17.1639 23.4158C16.6821 21.8566 16.4151 20.8463 16.6192 20.3762V20.374ZM17.5329 17.4962C18.2253 15.878 18.9132 16.6193 18.4314 16.9495C18.0776 17.1879 18.0929 17.6405 17.5329 17.4962ZM118.253 31.1481C118.232 31.1569 118.453 31.3756 118.253 31.1481V31.1481ZM122.685 30.2866C122.685 30.2144 122.685 30.1794 122.675 30.1663C122.685 30.186 122.685 30.2581 122.685 30.2866C122.685 30.2866 122.685 30.2931 122.685 30.2975C122.675 29.8711 122.295 29.6283 122.729 29.2413C123.68 30.7239 122.685 30.8814 122.685 30.2975C122.685 30.2975 122.685 30.2975 122.685 30.2866ZM118.764 31.7254C118.809 31.7757 118.853 31.8282 118.898 31.8785C118.826 31.9091 118.753 31.9223 118.681 31.9244C118.269 32.9107 117.963 33.5886 117.852 33.7198C117.314 34.3867 116.595 34.0893 116.068 33.9516C115.551 33.816 114.939 33.7941 114.718 33.6214C113.674 32.7751 115.794 28.7165 116.27 27.0676L111.931 21.5023C111.393 20.5227 110.98 19.9935 111.434 19.309C111.729 18.8739 111.931 18.7492 112.257 18.3709C112.604 17.9904 113.142 17.7018 113.882 18.2003C114.494 18.5896 116.953 21.7713 118.008 23.0746C118.62 21.651 120.131 18.4649 120.689 18.3622C121.544 18.2069 122.145 18.6005 122.473 18.946C122.79 19.2915 123.107 19.7836 122.989 20.3937C122.796 21.4061 120.205 28.2463 118.761 31.7211L118.764 31.7254ZM113.377 14.3735C112.639 13.8268 115.71 13.3982 115.868 13.4179C115.877 13.4201 115.879 13.4201 115.894 13.4223L115.868 13.4179C115.877 13.4201 115.879 13.4201 115.894 13.4223L113.377 14.3735ZM115.868 13.4179C115.647 13.3851 115.753 13.4004 115.868 13.4179V13.4179ZM115.896 13.4223C116.072 13.4485 115.99 13.4376 115.901 13.4223C116.354 13.4944 116.83 13.5688 117.283 13.6475C116.133 14.73 114.644 15.3204 113.379 14.3735L115.899 13.4223H115.896ZM99.64 18.5677C99.5922 18.5218 99.5596 18.4824 99.5423 18.4518C99.5726 18.4912 99.6031 18.5305 99.64 18.5677ZM99.5423 18.4518C98.8911 17.5181 101.276 16.2476 99.6921 18.6136C99.87 18.3447 99.4294 18.2441 99.5423 18.4518ZM93.8167 28.7186C94.8498 28.6618 95.3599 28.4584 95.6855 27.9992C95.8765 27.7849 95.9046 25.6791 95.8547 24.3779C95.8265 23.8094 95.7202 23.3392 95.7202 23.3392C95.1689 22.6285 92.9876 22.3705 91.8416 23.4857C91.3381 23.9712 91.0212 24.7016 90.9496 25.7753C90.8845 26.8468 91.134 27.5881 91.6853 27.997C92.2453 28.4081 92.9529 28.6487 93.8145 28.7186H93.8167ZM98.24 29.6087C98.253 29.7049 98.3464 30.7983 97.17 30.8529C95.8981 30.9054 95.8395 30.5555 95.5422 30.6692C94.1553 31.2225 91.2903 31.5177 89.6408 29.753C88.6424 28.6902 87.0927 25.3795 89.1026 21.9003C89.9664 20.3958 91.1536 19.6742 92.7684 19.449C92.9811 19.4206 94.8064 19.1188 95.896 20.0831C95.896 20.0831 96.0652 16.2563 96.2345 14.8065C96.3192 14.1155 96.5384 13.7984 97.628 13.8443C98.4549 13.8793 98.7957 14.3582 98.6546 15.1564C98.6546 16.1054 98.6199 17.6515 98.5482 19.7923C98.4766 21.9331 98.201 28.4847 98.2379 29.6108L98.24 29.6087ZM91.0798 34.3452C90.9387 34.3036 89.2805 33.91 89.8622 33.4836C91.1862 32.5389 92.751 33.125 93.9751 34.2118C93.4239 34.2949 93.8688 34.1178 93.9751 34.2118C93.0419 34.3561 92.0131 34.6491 91.082 34.3452H91.0798ZM88.4753 16.7571C88.4123 15.8802 88.6598 15.6462 89.2176 16.0551C88.955 16.3329 89.0201 15.9742 89.2176 16.0551C89.0548 16.6805 88.8073 16.9145 88.4753 16.7571Z" fill="#FEFEFE"/>
<defs>
<linearGradient id="paint0_linear_202_1748" x1="-11.772" y1="64.3839" x2="167.818" y2="46.2802" gradientUnits="userSpaceOnUse">
<stop stop-color="#730000"/>
<stop offset="1" stop-color="#FF0000"/>
</linearGradient>
</defs>
</svg>
