<svg width="91" height="46" viewBox="0 0 91 46" fill="none" xmlns="http://www.w3.org/2000/svg">
<rect y="0.879395" width="90.4215" height="44.5289" rx="12" fill="url(#paint0_linear_202_1744)"/>
<path d="M19.7929 19.7117C19.7929 21.4043 19.0962 22.5742 17.7007 23.2193C16.9432 23.5757 16.0142 23.7507 14.9138 23.7507H10V10.8794H18.762V13.7134H13.3034V15.6946H14.916C15.9839 15.6946 16.9193 15.8849 17.718 16.2698C19.1027 16.9302 19.7929 18.0804 19.7929 19.7117ZM27.4393 34.8025C26.2934 35.2027 25.3036 35.4039 24.4767 35.4039C22.5515 35.4039 20.9324 34.7522 19.6171 33.4489C18.3019 32.1456 17.6421 30.5384 17.6421 28.6271C17.6421 26.7487 18.3084 25.1502 19.6454 23.8294C20.8803 22.6092 22.3562 21.951 24.0708 21.8613L24.8782 20.2037L20.0794 10.8816H24.1273L26.7253 16.519L28.8566 10.8816H32.5485L27.5175 22.1609H33.1606V10.8816H36.464V16.5693L40.5248 10.8816H44.6356L39.7022 16.9586L43.8282 22.1609H45.6774V10.8816H50.4024C52.9461 10.8816 54.218 12.0034 54.218 14.2426C54.218 15.5153 53.7492 16.3944 52.8094 16.8777C54.5522 17.1773 55.4226 18.2466 55.4226 20.0878C55.4226 20.9122 55.2229 21.6054 54.8235 22.1631H56.8269V10.8838H60.1302V15.699H61.4043C62.4721 15.699 63.4076 15.8893 64.2063 16.2741C65.591 16.9345 66.2812 18.0848 66.2812 19.7161C66.2812 20.7132 66.0381 21.5289 65.5541 22.1631H67.0951V10.8838H70.4159V22.1631H72.4495V22.1762L75.1539 22.1937H75.5901L80.4215 35.0649H76.8642L76.0286 32.607H71.2905L70.4636 35.0649H66.9063L71.1538 23.7288H64.9204C65.1873 24.2186 65.3219 24.8265 65.3219 25.5525C65.3219 26.8252 64.8531 27.7043 63.9133 28.1876C65.6561 28.4872 66.5265 29.5565 66.5265 31.3977C66.5265 32.5764 66.1206 33.4795 65.3045 34.1159C64.4884 34.75 63.3359 35.0671 61.8449 35.0671H56.7834V23.731H53.2782L53.3325 23.7835C54.6738 25.0693 55.3466 26.6853 55.3466 28.6315C55.3466 30.5777 54.6738 32.1937 53.3325 33.4795C51.989 34.7654 50.3047 35.4083 48.2797 35.4083C46.2547 35.4083 44.5748 34.7654 43.2357 33.4795C41.9009 32.1937 41.2302 30.5777 41.2302 28.6315C41.2302 26.6853 41.8987 25.0693 43.2357 23.7835L43.2899 23.731H39.776V35.0671H36.4553V25.0299H33.4557V30.394C33.4557 31.8985 33.2496 33.0094 32.835 33.7201C32.2403 34.7326 31.1442 35.2399 29.5425 35.2399C28.9912 35.2399 28.518 35.1699 28.1187 35.0234L28.2858 32.0844C28.6114 32.2287 28.9434 32.3031 29.2864 32.3031C29.651 32.3031 29.8963 32.1719 30.0243 31.9094C30.1676 31.6099 30.2392 31.0129 30.2392 30.1163V23.731H27.448V26.5322C26.6862 25.5766 25.7073 25.0977 24.5158 25.0977C23.5413 25.0977 22.7274 25.4345 22.0784 26.1014C21.4316 26.7706 21.106 27.6147 21.106 28.6315C21.106 29.6811 21.4251 30.5318 22.061 31.1856C22.6991 31.8373 23.5239 32.1653 24.531 32.1653C25.6878 32.1653 26.6602 31.7105 27.4459 30.7986V34.8069L27.4393 34.8025ZM75.1669 30.042L73.6606 25.5832L72.1435 30.042H75.1647H75.1669ZM62.2659 25.9986C62.2659 25.1655 61.6973 24.75 60.5621 24.75H60.0781V27.2429H60.5274C61.6842 27.2429 62.2638 26.8274 62.2638 25.9986H62.2659ZM63.1645 31.1419C63.1645 30.2147 62.5524 29.7511 61.3261 29.7511H60.0803V32.4999H61.0375C62.4548 32.4999 63.1645 32.0472 63.1645 31.1419ZM51.8826 28.6249C51.8826 27.6343 51.5354 26.799 50.8408 26.1145C50.1441 25.4323 49.2911 25.0911 48.2732 25.0911C47.2618 25.0911 46.4132 25.4323 45.7208 26.1145C45.0284 26.7968 44.6812 27.6343 44.6812 28.6249C44.6812 29.6155 45.0284 30.4509 45.7208 31.1353C46.4132 31.8176 47.2618 32.1587 48.2732 32.1587C49.289 32.1587 50.1419 31.8176 50.8408 31.1353C51.5354 30.4531 51.8826 29.6155 51.8826 28.6249ZM36.4661 22.1587H39.674L36.4661 17.6255V22.1587ZM62.9778 19.7073C62.9778 18.7036 62.3332 18.2028 61.0483 18.2028H60.1302V21.19H61.0483C62.3332 21.19 62.9778 20.6958 62.9778 19.7073ZM51.1707 14.6887C51.1707 13.8556 50.6021 13.4401 49.4669 13.4401H48.9829V15.933H49.4322C50.5891 15.933 51.1686 15.5175 51.1686 14.6887H51.1707ZM52.0693 19.832C52.0693 18.9048 51.4572 18.4412 50.2309 18.4412H48.9851V21.19H49.9423C51.3596 21.19 52.0693 20.7373 52.0693 19.832ZM17.1841 29.8583H15.7451V26.237L13.2274 29.8583H11.8405V24.2274H13.2795V27.8486L15.7972 24.2274H17.1841V29.8583ZM16.4874 19.7073C16.4874 18.7036 15.8428 18.2028 14.5579 18.2028H13.3012V21.19H14.5579C15.8428 21.19 16.4874 20.6958 16.4874 19.7073Z" fill="#FEFEFE"/>
<defs>
<linearGradient id="paint0_linear_202_1744" x1="-7.91188" y1="60.2512" x2="108.406" y2="52.0581" gradientUnits="userSpaceOnUse">
<stop stop-color="#730000"/>
<stop offset="1" stop-color="#FF0000"/>
</linearGradient>
</defs>
</svg>
