<svg width="146" height="46" viewBox="0 0 146 46" fill="none" xmlns="http://www.w3.org/2000/svg">
<rect x="0.421387" y="0.778809" width="145.085" height="44.73" rx="12" fill="url(#paint0_linear_202_1746)"/>
<path d="M55.3879 10.781V21.5945H52.5055V13.3636H47.2206V21.5945H44.3382V10.781H55.39H55.3879ZM21.8201 17.1138C23.181 17.1335 24.6547 17.1554 25.9418 16.7465C27.32 16.3113 26.9988 15.1961 26.6385 14.1661L26.6363 14.1486L26.6102 14.0874C26.0286 12.666 25.8832 11.4195 27.6108 10.8619C28.4204 10.6017 29.664 10.9603 29.9657 11.8372C30.2262 12.5938 30.1459 13.2433 30.1611 14.0196C30.1914 15.5766 31.3353 15.8849 32.618 15.5088C34.0331 15.0955 35.4352 14.6363 36.8329 14.1574C37.2996 13.989 37.7662 13.8184 38.2328 13.6478C38.9903 14.6319 39.6588 15.6946 40.1168 16.8558C40.4315 17.6562 40.4792 18.6205 39.5915 19.0404C38.9382 19.3487 38.0201 19.1432 37.267 19.4078C36.1796 19.7926 35.9192 20.8926 36.3337 21.9028C36.9935 23.5123 38.4108 23.1406 39.6002 22.4539C40.5769 21.8897 41.4798 21.811 41.8444 23.0596C42.4218 25.0452 42.3111 26.7247 41.8358 28.6665C39.5894 28.5112 37.1672 28.3101 34.9685 28.7736C33.4167 29.1017 33.6424 30.1732 33.9832 31.3387L33.9875 31.3496L33.9919 31.3606C34.1546 31.822 34.478 32.4474 34.5127 32.9263C34.6039 34.1859 33.6533 35.0518 32.4574 35.1502C31.65 35.218 30.81 34.9381 30.4497 34.1509C30.1285 33.4533 30.5127 32.4277 30.2045 31.5202C29.8073 30.3547 28.9673 30.265 27.919 30.6433C26.6819 31.0894 25.5207 31.7039 24.3639 32.3271C23.4566 30.921 21.9742 28.3035 22.0806 26.8602C22.1848 25.417 24.7415 25.9724 25.6292 26.0358C27.2787 26.1583 28.0536 25.0933 27.6911 23.5057C27.4828 22.5917 26.9814 21.8241 25.996 21.6754C24.7849 21.4917 23.8104 22.5895 22.799 22.7273C21.7572 22.8694 21.436 22.3533 21.3101 21.3693C21.1733 20.0244 21.5011 18.4565 21.8223 17.1073L21.8201 17.1138ZM27.3287 31.8176C27.652 31.986 27.9754 32.1587 28.2967 32.3337C28.4877 32.0385 28.7025 31.6908 28.9217 31.3125C28.7308 31.2862 28.4942 31.365 28.2055 31.4699C27.9082 31.5771 27.6173 31.6952 27.3287 31.8198V31.8176ZM25.7551 15.8915C25.6487 15.5066 25.7377 15.0539 25.8766 14.5969C25.8506 14.5313 25.8267 14.4701 25.805 14.4066L25.7942 14.376C25.308 13.1689 25.1626 12.0231 25.7117 11.1637C25.5294 11.0478 25.3102 10.9472 25.0475 10.8619C24.238 10.6017 22.9943 10.9603 22.6926 11.8372C22.4322 12.5938 22.5125 13.2433 22.4973 14.0196C22.4669 15.5766 21.3253 15.8849 20.0404 15.5088C18.6253 15.0955 17.2232 14.6363 15.8254 14.1574C15.3609 13.989 14.8921 13.8184 14.4255 13.65C13.668 14.6341 12.9995 15.6968 12.5416 16.858C12.2269 17.6584 12.1791 18.6227 13.0668 19.0426C13.7201 19.3509 14.6382 19.1453 15.3913 19.4099C16.4787 19.7948 16.737 20.8948 16.3246 21.905C15.6648 23.5145 14.2475 23.1427 13.0581 22.4561C12.0814 21.8919 11.1785 21.8132 10.8139 23.0618C10.2344 25.0474 10.3473 26.7268 10.8226 28.6687C13.069 28.5134 15.4912 28.3122 17.6898 28.7758C19.2417 29.106 19.0159 30.1754 18.6752 31.3409L18.6708 31.3518L18.6665 31.3628C18.5037 31.8242 18.1803 32.4496 18.1456 32.9285C18.0544 34.1859 19.0051 35.054 20.201 35.1524C21.0084 35.2202 21.8483 34.9403 22.2086 34.1531C22.5298 33.4555 22.1457 32.4299 22.4539 31.5224C22.506 31.3715 22.5646 31.2381 22.6297 31.1222C21.8397 29.6746 21.1234 27.9864 21.2102 26.799C21.3535 24.8244 23.5131 24.9752 25.0562 25.1152C24.8565 24.691 24.8196 24.1399 24.9629 23.5079C25.0367 23.1843 25.1474 22.8781 25.3036 22.6114C24.5657 22.8432 23.5912 23.4992 22.9075 23.5932C21.3708 23.8031 20.6329 22.9459 20.4441 21.4742C20.2835 19.8932 20.685 18.1023 21.0561 16.5715L21.1364 16.2348L21.4794 16.2391C22.8142 16.2545 24.3942 16.3222 25.6748 15.9177L25.7464 15.8915H25.7551ZM54.231 23.5451V32.3905H57.9316V23.5451H61.031V35.1633H44.3339V23.5451H47.4333V32.3905H51.1338V23.5451H54.2332H54.231ZM67.0539 35.1633V26.3179H62.5785V23.5429H74.6438V26.3179H70.1511V35.1633H67.0539ZM74.0079 35.1633V34.4701L79.1366 23.5451H82.2338L87.3625 34.4701V35.1633H84.5735L83.5751 32.9088H77.7736L76.7926 35.1633H74.0036H74.0079ZM82.4422 30.3066L80.6863 26.3354L78.9304 30.3066H82.4422ZM95.2477 32.7863L92.0116 28.2248V35.1612H88.9144V23.5429H92.0116L96.0399 29.4909L100.068 23.5429H103.165V35.1612H100.068V28.2248L96.8321 32.7863H95.2477ZM117.451 23.5429V35.1612H114.354V26.3157H108.674V35.1612H105.577V23.5429H117.453H117.451ZM131.22 31.8679C131.22 32.3774 131.149 32.8498 131.005 33.2893C130.862 33.7288 130.619 34.1137 130.274 34.4417C129.929 34.7719 129.462 35.0321 128.872 35.2224C128.282 35.4126 127.537 35.5089 126.643 35.5089H126.161C125.117 35.5089 124.051 35.4804 122.968 35.4214C121.883 35.3645 120.848 35.2771 119.86 35.1612V23.5429H122.96V27.7043C123.522 27.6125 124.099 27.56 124.689 27.5491C125.28 27.5381 125.885 27.5316 126.506 27.5316H126.988C127.815 27.5316 128.501 27.6278 129.045 27.818C129.59 28.0083 130.024 28.2685 130.346 28.5987C130.667 28.9289 130.893 29.316 131.025 29.7599C131.157 30.206 131.222 30.6761 131.222 31.1725V31.8657L131.22 31.8679ZM135.507 23.5429V35.1612H132.407V23.5429H135.507ZM126.022 30.3066C125.484 30.3066 124.972 30.3153 124.49 30.3328C124.008 30.3503 123.498 30.394 122.957 30.4618V32.5786C123.53 32.6355 124.114 32.677 124.705 32.7011C125.295 32.7251 125.775 32.736 126.141 32.736C126.727 32.736 127.175 32.7076 127.485 32.6486C127.795 32.5917 128.023 32.5064 128.173 32.3971C128.323 32.2878 128.407 32.1566 128.431 32.0079C128.455 31.857 128.466 31.6952 128.466 31.5224C128.466 31.3496 128.455 31.1878 128.431 31.0369C128.407 30.8861 128.318 30.7592 128.164 30.6543C128.01 30.5493 127.765 30.4662 127.433 30.4028C127.101 30.3394 126.63 30.3066 126.022 30.3066ZM67.8938 13.3614H60.5101V14.9752H66.2921V17.5578H60.5101V19.0098H67.8938V21.5923H57.6256V10.7788H67.8938V13.3614ZM72.3627 14.1683C72.3627 14.4045 72.3736 14.6209 72.3953 14.8134C72.417 15.008 72.4995 15.1764 72.6427 15.3207C72.786 15.465 73.0139 15.5787 73.3242 15.6597C73.6346 15.7406 74.0709 15.7799 74.6373 15.7799C75.1387 15.7799 75.614 15.7712 76.0633 15.7559C76.5126 15.7406 76.9879 15.699 77.4893 15.6356V10.7788H80.3716V21.5923H77.4893V18.2029C76.9662 18.2881 76.4301 18.3362 75.8788 18.3472C75.3297 18.3581 74.7654 18.3625 74.1881 18.3625H73.7388C72.9053 18.3625 72.2151 18.2597 71.6639 18.0563C71.1147 17.853 70.6785 17.5753 70.3594 17.2254C70.0382 16.8755 69.8125 16.4666 69.6779 15.9986C69.5455 15.5306 69.4782 15.0277 69.4782 14.4897V10.7788H72.3606V14.1683H72.3627ZM81.8127 21.5923V20.9472L86.5855 10.7788H89.4678L94.2406 20.9472V21.5923H91.6448L90.7158 19.4952H85.318L84.4042 21.5923H81.8084H81.8127ZM89.661 17.0745L88.0267 13.3789L86.3923 17.0745H89.661ZM97.8153 21.5923V13.3614H93.6502V10.7788H104.88V13.3614H100.7V21.5923H97.8174H97.8153ZM114.827 10.7788H117.709V21.5923H114.827V14.6516L109.206 21.5923H106.323V10.7788H109.206V17.7174L114.827 10.7788ZM132.622 10.7788H135.505V21.5923H132.622V14.6516L127.001 21.5923H124.119V10.7788H127.001V17.7174L132.622 10.7788Z" fill="#FEFEFE"/>
<defs>
<linearGradient id="paint0_linear_202_1746" x1="-12.2736" y1="60.4189" x2="172.945" y2="39.5796" gradientUnits="userSpaceOnUse">
<stop stop-color="#730000"/>
<stop offset="1" stop-color="#FF0000"/>
</linearGradient>
</defs>
</svg>
