<svg width="45" height="42" viewBox="0 0 45 42" fill="none" xmlns="http://www.w3.org/2000/svg">
<path fill-rule="evenodd" clip-rule="evenodd" d="M25.4658 0.0364115C14.1421 0.755759 -0.524777 4.96908 0.0144461 18.1229C0.553669 29.3241 5.40668 42.7862 19.4265 41.9641C30.7502 41.2448 45.5249 37.0314 44.9857 23.8777C44.4464 12.4709 39.5934 -0.7857 25.4658 0.0364115Z" fill="url(#paint0_linear_21_4229)"/>
<path d="M32.2482 11.6818L12.3019 19.3734C10.9407 19.9202 10.9485 20.6795 12.0522 21.0182L17.1732 22.6157L29.0217 15.14C29.5819 14.7992 30.0938 14.9825 29.673 15.356L20.0734 24.0197H20.0712L20.0734 24.0208L19.7202 29.2993C20.2377 29.2993 20.466 29.0619 20.7563 28.7818L23.2437 26.363L28.4175 30.1847C29.3715 30.71 30.0567 30.44 30.294 29.3015L33.6904 13.295C34.038 11.9012 33.1583 11.27 32.2482 11.6818Z" fill="white"/>
<defs>
<linearGradient id="paint0_linear_21_4229" x1="4.76554" y1="33.9221" x2="38.9354" y2="6.47103" gradientUnits="userSpaceOnUse">
<stop stop-color="#00497D"/>
<stop offset="1" stop-color="#10BBEE"/>
</linearGradient>
</defs>
</svg>
