<svg width="23" height="22" viewBox="0 0 23 22" fill="none" xmlns="http://www.w3.org/2000/svg">
<path d="M7.6742 18H15.3258C16.6945 18 17.4516 17.2915 17.4516 15.9389V11.5449H17.5026C18.1432 11.4089 18.5 10.9008 18.5 10.1708V8.28865C18.5 7.41555 18.0049 6.8645 17.1167 6.8645H15.6461C16.032 6.48521 16.2577 5.96994 16.2577 5.37595C16.2577 3.9876 15.1438 3 13.7314 3C12.7122 3 11.8677 3.55105 11.4963 4.51002C11.1251 3.55105 10.2878 3 9.2613 3C7.85621 3 6.73505 3.9876 6.73505 5.37595C6.73505 5.96994 6.96074 6.48521 7.35387 6.8645H5.88325C5.03146 6.8645 4.5 7.41555 4.5 8.28865V10.1708C4.5 10.9008 4.84945 11.4089 5.49012 11.5449H5.54108V15.9389C5.54108 17.2915 6.29823 18 7.6742 18ZM10.8484 16.9265H7.65964C7.05538 16.9265 6.7132 16.5902 6.7132 15.9962V11.5949H10.8484V16.9265ZM12.1443 16.9265V11.5949H16.2795V15.9962C16.2795 16.5902 15.9373 16.9265 15.3331 16.9265H12.1443ZM10.8484 10.5143H6.18174C5.81773 10.5143 5.67213 10.364 5.67213 10.0062V8.44609C5.67213 8.08826 5.81773 7.94514 6.18174 7.94514H10.8484V10.5143ZM12.1443 10.5143V7.94514H16.8255C17.1895 7.94514 17.3278 8.08826 17.3278 8.44609V10.0062C17.3278 10.364 17.1895 10.5143 16.8255 10.5143H12.1443ZM10.8994 6.8645H9.76364C8.62064 6.8645 7.95085 6.22758 7.95085 5.44036C7.95085 4.65315 8.53328 4.19513 9.3341 4.19513C10.2005 4.19513 10.8994 4.83922 10.8994 5.89838V6.8645ZM12.0934 6.8645V5.89838C12.0934 4.83922 12.7923 4.19513 13.6586 4.19513C14.4594 4.19513 15.0419 4.65315 15.0419 5.44036C15.0419 6.22758 14.3793 6.8645 13.2291 6.8645H12.0934Z" fill="url(#paint0_linear_23_4250)"/>
<defs>
<linearGradient id="paint0_linear_23_4250" x1="3.275" y1="23" x2="21.355" y2="22.4147" gradientUnits="userSpaceOnUse">
<stop stop-color="#730000"/>
<stop offset="1" stop-color="#FF0000"/>
</linearGradient>
</defs>
</svg>
