<svg width="50" height="50" viewBox="0 0 50 50" fill="none" xmlns="http://www.w3.org/2000/svg">
<path d="M5.77794 44.2223C6.80011 45.2742 8.57387 45.2442 9.59604 44.2223L24.9887 28.8024L40.4113 44.2223C41.4336 45.2442 43.1774 45.2742 44.1994 44.2223C45.2818 43.1701 45.2518 41.4267 44.1994 40.4049L28.8068 24.985L44.1994 9.59519C45.2518 8.57321 45.2818 6.79977 44.1994 5.7778C43.1774 4.72576 41.4336 4.75582 40.4113 5.7778L24.9887 21.1976L9.59604 5.7778C8.57387 4.75582 6.80011 4.72576 5.77794 5.7778C4.72571 6.79977 4.75577 8.57321 5.77794 9.59519L21.2007 24.985L5.77794 40.4049C4.75577 41.4267 4.72571 43.1701 5.77794 44.2223Z" fill="white"/>
</svg>
