<svg width="25" height="24" viewBox="0 0 25 24" fill="none" xmlns="http://www.w3.org/2000/svg">
<path d="M8.8719 5.89896H10.186V4.07319C10.186 3.58689 10.5165 3.27121 11.0124 3.27121H13.9711C14.4669 3.27121 14.7975 3.58689 14.7975 4.07319V5.89896H16.1115V3.98787C16.1115 2.75078 15.3347 2 14.062 2H10.9215C9.64876 2 8.8719 2.75078 8.8719 3.98787V5.89896ZM5.11983 6.58149H19.8884C20.2273 6.58149 20.5 6.28288 20.5 5.93308C20.5 5.58329 20.2273 5.29322 19.8884 5.29322H5.11983C4.78926 5.29322 4.5 5.58329 4.5 5.93308C4.5 6.29142 4.78926 6.58149 5.11983 6.58149ZM8.71487 21H16.2934C17.4752 21 18.2686 20.2065 18.3265 18.9865L18.905 6.41939H17.5744L17.0207 18.8415C17.0042 19.3533 16.6488 19.7117 16.1612 19.7117H8.83057C8.35951 19.7117 8.00413 19.3448 7.97934 18.8415L7.39256 6.41939H6.09504L6.68182 18.9951C6.73967 20.215 7.51653 21 8.71487 21ZM10.0537 18.2528C10.3678 18.2528 10.5744 18.048 10.5661 17.7494L10.3099 8.62055C10.3017 8.32194 10.095 8.12572 9.79752 8.12572C9.48347 8.12572 9.27686 8.33048 9.28513 8.62909L9.53306 17.7494C9.54132 18.0566 9.74794 18.2528 10.0537 18.2528ZM12.5 18.2528C12.8141 18.2528 13.0372 18.048 13.0372 17.7494V8.62909C13.0372 8.33048 12.8141 8.12572 12.5 8.12572C12.1859 8.12572 11.9711 8.33048 11.9711 8.62909V17.7494C11.9711 18.048 12.1859 18.2528 12.5 18.2528ZM14.9545 18.2528C15.2521 18.2528 15.4587 18.0566 15.467 17.7494L15.7148 8.62909C15.7232 8.33048 15.5165 8.12572 15.2025 8.12572C14.905 8.12572 14.6983 8.32194 14.6901 8.62909L14.4422 17.7494C14.4339 18.048 14.6405 18.2528 14.9545 18.2528Z" fill="black"/>
</svg>
