<svg width="15" height="14" viewBox="0 0 15 14" fill="none" xmlns="http://www.w3.org/2000/svg">
<path d="M1.75 7.00001C1.75 7.35638 2.04818 7.64726 2.39727 7.64726H7.10274V12.3528C7.10274 12.7019 7.39365 13 7.75001 13C8.10638 13 8.40459 12.7019 8.40459 12.3528V7.64726H13.1028C13.4519 7.64726 13.75 7.35638 13.75 7.00001C13.75 6.64365 13.4519 6.34546 13.1028 6.34546H8.40459V1.64727C8.40459 1.29818 8.10638 1 7.75001 1C7.39365 1 7.10274 1.29818 7.10274 1.64727V6.34546H2.39727C2.04818 6.34546 1.75 6.64365 1.75 7.00001Z" fill="black" stroke="black"/>
</svg>
