<svg width="21" height="20" viewBox="0 0 21 20" fill="none" xmlns="http://www.w3.org/2000/svg">
<path d="M8.86373 16.367C9.89352 16.367 10.8865 16.1628 11.7912 15.7825C11.5117 15.4726 11.291 15.1275 11.1145 14.7613C10.4231 15.0219 9.65815 15.1697 8.86373 15.1697C5.39204 15.1697 2.61909 12.5077 2.61909 9.18349C2.61909 5.85937 5.38469 3.19725 8.85639 3.19725C12.0265 3.19725 14.623 5.43681 15.0422 8.3595C15.4026 8.31022 15.9396 8.33841 16.3147 8.41587C15.9028 4.83818 12.6812 2 8.85639 2C4.75212 2 1.36133 5.2537 1.36133 9.18349C1.36133 13.1063 4.75948 16.367 8.86373 16.367ZM5.00956 9.94408H8.85639C9.14322 9.94408 9.37125 9.73284 9.37125 9.45111V4.70438C9.37125 4.42972 9.14322 4.21843 8.85639 4.21843C8.56955 4.21843 8.34887 4.42972 8.34887 4.70438V8.96516H5.00956C4.72271 8.96516 4.50205 9.17646 4.50205 9.45111C4.50205 9.73284 4.72271 9.94408 5.00956 9.94408ZM15.4026 16.4444C17.4327 16.4444 19.1391 14.8246 19.1391 12.8668C19.1391 10.9019 17.4547 9.28914 15.4026 9.28914C13.3579 9.28914 11.6661 10.9089 11.6661 12.8668C11.6661 14.8388 13.3579 16.4444 15.4026 16.4444ZM15.4026 15.1486C15.0643 15.1486 14.7848 14.888 14.7848 14.557C14.7848 14.2331 15.0643 13.9584 15.4026 13.9584C15.7483 13.9584 16.0278 14.2331 16.0278 14.557C16.0205 14.888 15.7483 15.1486 15.4026 15.1486ZM15.4026 13.4725C15.1452 13.4725 14.9687 13.3035 14.9613 13.064L14.9024 11.0498C14.8951 10.761 15.0937 10.5639 15.4026 10.5639C15.7116 10.5639 15.9175 10.761 15.9101 11.0498L15.8513 13.064C15.8439 13.3035 15.66 13.4725 15.4026 13.4725Z" fill="url(#paint0_linear_58_9313)"/>
<defs>
<linearGradient id="paint0_linear_58_9313" x1="-0.194228" y1="21.2593" x2="22.7467" y2="20.2799" gradientUnits="userSpaceOnUse">
<stop stop-color="#730000"/>
<stop offset="1" stop-color="#FF0000"/>
</linearGradient>
</defs>
</svg>
