<svg width="375" height="458" viewBox="0 0 375 458" fill="none" xmlns="http://www.w3.org/2000/svg">
<g filter="url(#filter0_d_92_29345)">
<path d="M36.6848 13.6164L19.9275 6L0.226449 16.993L0 17.3493L0 424H375V17.3493L374.774 16.993L355.072 6L338.315 13.6164L321.558 6L304.801 13.6164L288.043 6L271.088 13.8754L254.303 6L237.517 13.8754L220.562 6L203.864 13.5386L187.5 6L171.136 13.5386L154.438 6L137.483 13.8754L120.697 6L103.912 13.8754L86.9565 6L70.1993 13.6164L53.442 6L36.6848 13.6164Z" fill="#F8F3EB"/>
</g>
<defs>
<filter id="filter0_d_92_29345" x="-20" y="0" width="415" height="458" filterUnits="userSpaceOnUse" color-interpolation-filters="sRGB">
<feFlood flood-opacity="0" result="BackgroundImageFix"/>
<feColorMatrix in="SourceAlpha" type="matrix" values="0 0 0 0 0 0 0 0 0 0 0 0 0 0 0 0 0 0 127 0" result="hardAlpha"/>
<feOffset dy="14"/>
<feGaussianBlur stdDeviation="10"/>
<feComposite in2="hardAlpha" operator="out"/>
<feColorMatrix type="matrix" values="0 0 0 0 0 0 0 0 0 0 0 0 0 0 0 0 0 0 0.1 0"/>
<feBlend mode="normal" in2="BackgroundImageFix" result="effect1_dropShadow_92_29345"/>
<feBlend mode="normal" in="SourceGraphic" in2="effect1_dropShadow_92_29345" result="shape"/>
</filter>
</defs>
</svg>
