<svg width="24" height="25" viewBox="0 0 24 25" fill="none" xmlns="http://www.w3.org/2000/svg">
<path d="M15.0293 15.7469C14.6419 15.7469 14.3278 16.0693 14.3278 16.4669C14.3278 16.8646 14.6419 17.187 15.0293 17.187H18.7033C21.3899 17.187 23 15.5322 23 13.3676C23 11.5608 21.9412 10.076 20.2347 9.36941C20.2522 5.38015 17.4431 2.5 13.864 2.5C11.4925 2.5 9.80354 3.79696 8.75338 5.36226C6.76692 4.81664 4.25538 6.39089 4.21162 8.90427C2.23389 9.21736 1 10.8721 1 12.983C1 15.3086 2.70645 17.187 5.57678 17.187H9.04953C9.43696 17.187 9.75104 16.8646 9.75104 16.4669C9.75104 16.0693 9.43696 15.7469 9.04953 15.7469H5.56803C3.49403 15.7469 2.40891 14.5215 2.40891 12.983C2.40891 11.2746 3.46779 10.0045 5.323 10.0045C5.44551 10.0045 5.48927 9.93293 5.48927 9.81668C5.48927 7.07067 7.42324 6.31038 9.22593 6.84705C9.33092 6.88284 9.39223 6.86494 9.44473 6.76655C10.2936 5.21915 11.5975 3.94007 13.864 3.94007C16.7343 3.94007 18.7208 6.26566 18.8696 8.93114C18.8958 9.33361 18.8696 9.81668 18.8345 10.237C18.8258 10.3533 18.8696 10.4249 18.9746 10.4428C20.5672 10.8005 21.5911 11.8203 21.5911 13.3676C21.5911 14.7451 20.611 15.7469 18.6945 15.7469H15.0293ZM12.0438 22.5C12.2188 22.5 12.3588 22.4285 12.5426 22.2585L15.5004 19.432C15.6405 19.3068 15.7104 19.1547 15.7104 18.958C15.7104 18.6002 15.4304 18.3319 15.0717 18.3319C14.9054 18.3319 14.7303 18.4124 14.599 18.5466L13.2689 19.9061L12.6826 20.5322L12.7351 19.1995V11.525C12.7351 11.1494 12.4201 10.8274 12.0438 10.8274C11.6675 10.8274 11.3437 11.1494 11.3437 11.525V19.1995L11.3962 20.5411L10.8099 19.9061L9.47975 18.5466C9.34847 18.4124 9.16469 18.3319 8.99839 18.3319C8.63091 18.3319 8.36835 18.6002 8.36835 18.958C8.36835 19.1547 8.43836 19.3068 8.57834 19.432L11.5362 22.2585C11.72 22.4285 11.86 22.5 12.0438 22.5Z" fill="black"/>
</svg>
