<?xml version="1.0" encoding="UTF-8"?>
<!DOCTYPE svg PUBLIC "-//W3C//DTD SVG 1.1//EN" "http://www.w3.org/Graphics/SVG/1.1/DTD/svg11.dtd">
<!-- Creator: CorelDRAW 2020 (64-Bit) -->
<svg xmlns="http://www.w3.org/2000/svg" xml:space="preserve" width="69.8481mm" height="124.365mm" version="1.1" style="shape-rendering:geometricPrecision; text-rendering:geometricPrecision; image-rendering:optimizeQuality; fill-rule:evenodd; clip-rule:evenodd"
viewBox="0 0 438.49 780.74"
 xmlns:xlink="http://www.w3.org/1999/xlink"
 xmlns:xodm="http://www.corel.com/coreldraw/odm/2003">
 <defs>
  <style type="text/css">
   <![CDATA[
    .fil15 {fill:#FEFEFE}
    .fil3 {fill:#2B2A29}
    .fil4 {fill:#E31E24}
    .fil5 {fill:#BA2322}
    .fil12 {fill:#EEBD91}
    .fil8 {fill:#E1A27A}
    .fil14 {fill:#D7956D}
    .fil0 {fill:#80251E}
    .fil11 {fill:#76471D}
    .fil7 {fill:#69231C}
    .fil1 {fill:#69231C}
    .fil19 {fill:#5D391C}
    .fil9 {fill:#AD6D58}
    .fil16 {fill:#4658A2}
    .fil2 {fill:#21608D}
    .fil6 {fill:#FEFEFE;fill-rule:nonzero}
    .fil13 {fill:#E29278;fill-rule:nonzero}
    .fil18 {fill:#D7956D;fill-rule:nonzero}
    .fil10 {fill:#AD6D58;fill-rule:nonzero}
    .fil17 {fill:#FEFEFE;fill-opacity:0.658824}
   ]]>
  </style>
       <clipPath id="id0">
        <path d="M247.8 156.91l-32.32 -6.37c-9.47,0.87 -17.6,4.19 -22.75,9.3l-4.2 21.31c2.83,6.68 9.09,12.85 17.52,17.24l32.32 6.37c9.46,-0.87 17.6,-4.19 22.75,-9.3l4.2 -21.31c-2.83,-6.68 -9.09,-12.85 -17.52,-17.24z"/>
       </clipPath>
       <clipPath id="id1">
        <path d="M247.8 156.91l-32.32 -6.37c-9.47,0.87 -17.6,4.19 -22.75,9.3l-4.2 21.31c2.83,6.68 9.09,12.85 17.52,17.24l32.32 6.37c9.46,-0.87 17.6,-4.19 22.75,-9.3l4.2 -21.31c-2.83,-6.68 -9.09,-12.85 -17.52,-17.24z"/>
       </clipPath>
       <clipPath id="id2">
        <path d="M247.8 156.91l-32.32 -6.37c-9.47,0.87 -17.6,4.19 -22.75,9.3l-4.2 21.31c2.83,6.68 9.09,12.85 17.52,17.24l32.32 6.37c9.46,-0.87 17.6,-4.19 22.75,-9.3l4.2 -21.31c-2.83,-6.68 -9.09,-12.85 -17.52,-17.24z"/>
       </clipPath>
       <clipPath id="id3">
        <path d="M327.56 172.63l-32.32 -6.37c-9.46,0.87 -17.6,4.19 -22.75,9.3l-4.2 21.31c2.83,6.68 9.09,12.85 17.52,17.24l32.32 6.37c9.46,-0.87 17.6,-4.19 22.75,-9.31l4.2 -21.31c-2.83,-6.68 -9.09,-12.85 -17.52,-17.24z"/>
       </clipPath>
       <clipPath id="id4">
        <path d="M327.56 172.63l-32.32 -6.37c-9.46,0.87 -17.6,4.19 -22.75,9.3l-4.2 21.31c2.83,6.68 9.09,12.85 17.52,17.24l32.32 6.37c9.46,-0.87 17.6,-4.19 22.75,-9.31l4.2 -21.31c-2.83,-6.68 -9.09,-12.85 -17.52,-17.24z"/>
       </clipPath>
       <clipPath id="id5">
        <path d="M327.56 172.63l-32.32 -6.37c-9.46,0.87 -17.6,4.19 -22.75,9.3l-4.2 21.31c2.83,6.68 9.09,12.85 17.52,17.24l32.32 6.37c9.46,-0.87 17.6,-4.19 22.75,-9.31l4.2 -21.31c-2.83,-6.68 -9.09,-12.85 -17.52,-17.24z"/>
       </clipPath>
 </defs>
 <g id="Слой_x0020_1">
  <metadata id="CorelCorpID_0Corel-Layer"/>
  <g id="_2498631788880">
   <g>
    <g>
     <path class="fil0" d="M387.74 383.88l-153.48 33.48c41.5,147.68 57.78,241.31 25.18,338.85 18.53,14.58 40.12,19.15 58.36,4.47 99.48,-115.19 175.13,-258.92 69.94,-376.8z"/>
     <path class="fil1" d="M388.3 384.06l-42.25 16.05c13.91,139.01 -24.05,239.56 -74.25,336.86 7.62,0.5 18.79,-8.43 18.11,-7.75 101.2,-106 180.19,-247 98.39,-345.16z"/>
    </g>
    <polygon class="fil2" points="333.96,731.15 91.2,731.15 81.61,780.74 331.18,780.74 "/>
    <path class="fil3" d="M333.96 731.15l-36.02 0 -1.54 24.67c14.19,-2.34 26.74,-5.47 36.72,-9.46l0.85 -15.21zm-47.55 0l-135.79 0 -3.23 26.08c43.16,5.09 95.65,5.67 137.38,0.3l1.65 -26.38zm-147.39 0l-47.81 0 -2.71 14.03c12.28,4.33 28.74,7.9 47.47,10.57l3.05 -24.6z"/>
    <path class="fil3" d="M333.96 731.15l-36.02 0 -1.54 24.67c14.19,-2.34 26.74,-5.47 36.72,-9.46l0.85 -15.21zm-47.55 0l-135.79 0 -3.23 26.08c43.16,5.09 95.65,5.67 137.38,0.3l1.65 -26.38zm-147.39 0l-47.81 0 -2.71 14.03c12.28,4.33 28.74,7.9 47.47,10.57l3.05 -24.6z"/>
    <path class="fil4" d="M273.67 316.49l-111.34 -7.78 -144.57 77.43 73.44 345.01c49.47,20.52 193.59,25.06 242.75,0 17.06,-108.97 58.59,-244.64 54.34,-347.09l-114.62 -67.57z"/>
    <path class="fil5" d="M112 335.66l-94.24 50.48c7.35,-3.94 27.04,-6.19 51.83,21.41l42.41 -71.88z"/>
    <path class="fil4" d="M273.29 283.17c-4.61,-67.01 -90.08,-74.09 -105.65,-8.75l-6.51 42.07c36.62,14.16 74.01,17.21 112.16,9.29l0 -42.61z"/>
    <path class="fil6" d="M230.9 486.84c-2.27,2.5 -3.66,8.53 -1.32,11.47 -1.27,-0.1 -2.72,-0.26 -4.23,-0.37 -1.19,-3.43 -0.04,-9.09 0.63,-9.79 1.88,-0.86 3.63,-1.5 4.92,-1.31zm-17.81 -23.7c5.98,0.09 12.47,0.18 18.14,-1.6 13.15,-4.13 -8.57,-20.62 7.35,-25.7 3.57,-1.14 9.04,0.43 10.36,4.26 1.15,3.3 0.8,6.14 0.86,9.54 0.13,6.8 5.16,8.14 10.81,6.5l24.71 -8.12c3.36,4.34 14.55,19.53 5.98,23.55 -2.87,1.35 -6.91,0.45 -10.23,1.61 -4.79,1.68 -5.93,6.48 -4.11,10.9 2.91,7.03 9.13,5.41 14.37,2.4 4.29,-2.47 8.27,-2.81 9.87,2.64 2.55,8.67 2.06,16.01 -0.04,24.49 -9.89,-0.68 -20.55,-1.55 -30.22,0.47 -10.79,2.26 -2.33,13.71 -2.02,18.14 0.74,10.41 -14.34,13 -17.88,5.35 -1.41,-3.05 0.28,-7.53 -1.08,-11.49 -1.75,-5.09 -5.44,-5.48 -10.06,-3.83 -5.45,1.95 -10.55,4.64 -15.64,7.35 -3.99,-6.15 -10.52,-17.58 -10.05,-23.88 0.46,-6.31 11.71,-3.88 15.62,-3.6 13.93,1.01 10.94,-17.65 1.62,-19.05 -5.34,-0.8 -9.62,4 -14.07,4.6 -4.59,0.62 -6,-1.63 -6.55,-5.93 -0.6,-5.87 0.84,-12.73 2.25,-18.61zm32.75 63.03l-3.63 5.81 -6.98 -3.67c1.41,-0.65 2.83,-1.27 4.28,-1.83l1.47 0.78c0.34,-0.54 0.69,-1.11 1.05,-1.7 1.72,-0.57 2.94,-0.72 3.81,0.62zm-28.09 0.09c-1.94,4.91 2.22,12.55 -5.52,16.37 -7.01,3.45 -17.77,-0.92 -17.09,-10.54 0.17,-2.44 1.57,-5.04 2.4,-7.37l0 0c1.37,-4.7 2.16,-7.81 -3,-8.89 -9.78,-2.05 -21.02,-1.03 -31.24,-0.33 -2.38,-9.61 -3.25,-17.11 -0.38,-26.89 1.98,-6.76 7.29,-6.68 12.49,-3.7l0 0.01c12.16,6.99 13.06,-4.25 12.18,-6.81 -0.46,-1.32 -1.44,-2.43 -3,-3.09l-0 0 -0.45 -0.17 0 -0c-3.84,-1.31 -12.59,0.88 -14.37,-6.48 -0.54,-2.25 -0.09,-4.78 0.79,-7.01l0.01 0c2.36,-5.94 5.47,-10.5 9.34,-15.49l7.35 2.65 0 -0c4.11,1.4 18.35,6.38 21.83,6.44 5.24,0.1 5.18,-3.85 5.16,-7.49 -0.03,-5.32 0.18,-10.53 5.98,-12.91 3.88,-1.59 7.86,-0.93 11.09,1.16 -0.88,0.92 -1.52,1.93 -1.95,3.03 -4.22,-2.83 -9.69,-1.2 -10.77,1.92l-0 0c-1.96,5.66 1.35,12.99 -4.46,16.62 -2.72,1.7 -6.29,1.46 -9.41,0.55l-23.58 -7.71c-2.87,3.83 -5.49,8.08 -7.25,12.54l0.01 0c-4.09,10.35 7.25,6.87 12,9 9.66,4.34 5.61,18.81 -3.28,19.15 -2.95,0.11 -6.14,-1.15 -9.01,-2.8l-0 0.01c-1.81,-1.04 -3.49,-1.64 -4.76,-1.44l0 0c-3.67,0.61 -4.19,12.42 -4.15,14.81 0.06,3.36 0.55,6.73 1.36,10.3 9.57,-0.66 19.77,-1.36 29.19,0.61 8.97,1.88 7.45,9.42 4.85,15.64l-0 -0c-1.47,3.54 -2.45,6.62 0.36,9.64 3.21,3.45 10.61,3.73 12.69,-0.77 1.37,-2.95 -1.27,-9.17 2.51,-14.3 0.67,1.28 1.36,2.53 2.05,3.73zm10.93 -67.95c-0.7,-2.57 0.22,-6.39 1.26,-8.85 1.82,5.29 4.01,7.54 -1.26,8.85z"/>
    <path class="fil0" d="M71.66 401.6c16.95,-37.89 23.57,-68.6 40.52,-106.49 13.53,-0.05 24.21,11.51 31.75,35.81 30.45,99.26 -17.67,252.64 -93.63,335.73 -50.21,-54.82 -65.68,-158.71 -33.38,-277.44 0.27,-1.02 0.55,-2.04 0.84,-3.06 6.86,-4.74 26.17,-9.18 53.9,15.46z"/>
    <path class="fil7" d="M71.66 401.6c-17.57,26.15 -45.03,78.15 -53.9,130.56 4.95,-53.72 15.05,-92.37 34.15,-144.34 6.67,4.18 14.42,6.97 19.75,13.78z"/>
    <g>
     <path class="fil4" d="M277.34 278.87c2.87,-66.46 -80.46,-82.89 -103.02,-20.3l-11.06 40.69c34.47,17.99 70.94,25.13 109.36,21.55l4.71 -41.94z"/>
     <g>
      <path class="fil8" d="M315.1 158.25c46.11,-11.93 24.54,55.07 3.39,48.87 -3.92,-1.15 -7.86,-2.66 -11.66,-5.13l8.28 -43.75z"/>
      <path class="fil9" d="M340.88 185.63c-3.64,12.7 -13.06,24.23 -22.39,21.49 -3.92,-1.15 -7.86,-2.66 -11.66,-5.13l1.96 -10.38c12.04,6.22 25.62,7.94 32.09,-5.99z"/>
      <path class="fil10" d="M316.15 177.74c-0.53,1.82 -0.57,4.25 1.59,4.88 2.13,0.63 3.35,-1.51 3.86,-3.27 0,-0 0,-0.01 0,-0.01 0.72,-2.49 1.35,-4.97 2.16,-7.44 0.65,-1.95 1.31,-3.73 2.49,-5.42 0.59,-0.73 1.1,-1.21 1.92,-1.66 0.93,-0.48 1.71,-0.61 2.74,-0.56 -1.05,-0.46 -1.87,-0.64 -3.02,-0.6 -1.18,0.1 -2.04,0.4 -3.08,0.97 -2.29,1.31 -3.72,3 -5.17,5.2 -1.59,2.59 -2.62,4.98 -3.49,7.89 -0,0 -0,0.01 -0,0.01z"/>
     </g>
     <path class="fil11" d="M334.16 80.23c6.69,39.08 4.16,121.12 -10.34,198.82 -10.97,9.29 -22.39,16.11 -36.7,19.34l0.34 -10 -4.02 10.83c-23.91,6.02 -57.37,1.56 -79.66,-7.53l0 -16.4 -6.76 13.31c-8.2,-3.83 -16.45,-9.1 -23.75,-15.13l0.66 -10.6 -3.02 8.6c-9.39,-8.21 -16.9,-17.6 -20.14,-26.51 1.41,-10.28 4.58,-23.54 8.83,-38.06 -10.29,-13.66 -11.21,-36.93 -7.06,-65.4 1.83,-12.54 4.42,-23.08 8.62,-35.03 6.55,-18.67 14.41,-38.25 24.29,-54.06 4.01,-3 8.86,-5.45 14.27,-7.39 -4.18,-3.46 -6.13,-7.98 -6.13,-7.98 0,0 5.6,-0.32 10.88,2.41 -3.95,-7.26 -3.16,-15.34 -3.16,-15.34 0,0 7.5,3.6 11.62,10.94 1.12,2 1.9,4.06 2.42,6 16.58,-2.78 35.53,-2.09 51.86,1.53 28.17,4.87 55.2,18.09 66.92,37.66z"/>
     <path class="fil12" d="M181.12 173.39c4.43,-20.07 18.65,-78.35 34.91,-99.92 2.81,-3.72 6.37,-6.06 10.9,-7.17 13.7,-3.34 31.71,-2.63 48.62,0.94 19.96,3.66 39.82,11.53 50.77,22.09 2.5,2.41 4.09,5.16 5.03,8.68 5.77,21.64 8.02,54.19 -0.35,101.82 -12.3,6.75 -25.72,10.81 -39.7,12.29 -4.95,-1.53 -15.15,-3.38 -26.99,-4.77 -11.55,-1.35 -21.68,-1.92 -26.97,-1.63 -19.36,-6.45 -38.53,-17.29 -56.23,-32.33z"/>
     <g>
      <path class="fil12" d="M164.86 124.76c-23.02,-7.31 -28.84,29.03 -19.56,43.82 4.11,6.54 12.52,7.73 19.35,5.03l-0.97 19.76 12.08 -32.03c0.12,-0.3 0.23,-0.6 0.34,-0.9l0.01 -0.01 0 -0c2.1,-5.84 2.7,-12.68 1.48,-20.75 -1.08,-7.16 -5.83,-12.73 -12.74,-14.92z"/>
      <path class="fil9" d="M144.14 135.23c-4.49,10.34 -3.99,25.15 1.16,33.35 6.07,9.67 21.52,7.65 27.41,-1.35 -13.23,9.95 -34.99,-3.42 -28.57,-32z"/>
      <path class="fil10" d="M167.23 148.25c-0.2,1.89 -1.08,4.14 -3.32,3.91 -2.21,-0.23 -2.53,-2.67 -2.33,-4.5 0,-0 0,-0.01 0,-0.01 0.28,-2.58 0.64,-5.11 0.83,-7.7 0.14,-2.05 0.21,-3.95 -0.25,-5.96 -0.27,-0.89 -0.56,-1.54 -1.15,-2.26 -0.68,-0.8 -1.35,-1.21 -2.33,-1.56 1.14,-0.02 1.98,0.12 3.02,0.59 1.06,0.54 1.74,1.14 2.49,2.07 1.62,2.08 2.31,4.19 2.81,6.77 0.49,3 0.53,5.6 0.23,8.63 0,0.01 -0,0.01 -0,0.01z"/>
     </g>
     <path class="fil11" d="M215.28 62.47c-11.73,-31.9 20.82,-61.56 65.14,-62.47l-1.6 9.04c16.73,-3.19 33.3,-2.36 49.63,4.02 -1.09,5.92 -2.49,10.44 -4.52,13.03 12.62,-0.87 24.18,2.2 35.21,7.17 -5.22,12.17 -11.18,20.74 -24.52,28.37 4.07,0.18 8.98,1.56 12.83,3.88 -8.09,22.54 -25.64,33.33 -56.12,28.07 -29.14,-5.42 -55.74,-33.95 -76.06,-31.11z"/>
     <path class="fil13" d="M242.75 216.18c2.45,14.95 11.8,21.56 21.31,14.63 8.69,7.77 19.58,2.1 22.31,-9.69 -4.48,6.03 -13.75,14.2 -21.88,3.12 -8.13,9.45 -18.01,1.4 -21.74,-8.06z"/>
     <polygon class="fil14" points="298.31,123.35 319.66,133.81 330.5,149.15 326.63,155.16 292.17,155.88 "/>
     <polygon class="fil14" points="265.87,119.32 234.73,114.51 218.66,127.14 218.43,133.84 254.97,148.55 "/>
     <path class="fil15" d="M254.97 148.55c-9.08,-11.86 -21.61,-15.96 -36.54,-14.71 -5.79,24.3 24.22,35.02 36.54,14.71z"/>
     <path class="fil9" d="M254.97 148.55c-1.96,-18.14 -25.41,-23.48 -36.54,-14.71 14.93,-1.25 27.46,2.86 36.54,14.71z"/>
     <g>
      <path class="fil15" d="M292.17 155.88c11.46,-7.81 22.94,-7.18 34.43,-0.73 -3.99,24.65 -31.78,23.99 -34.43,0.73z"/>
      <path class="fil9" d="M292.17 155.88c8,-16.18 28.64,-12.83 34.43,-0.73 -11.49,-6.45 -22.97,-7.08 -34.43,0.73z"/>
     </g>
     <g>
      <g>
       <path class="fil16" d="M304.46 167.68c-4.54,-0.89 -7.47,-5.37 -6.56,-10 0.91,-4.63 5.33,-7.66 9.86,-6.76 4.54,0.89 7.47,5.37 6.56,10 -0.91,4.63 -5.33,7.66 -9.86,6.76z"/>
       <path class="fil3" d="M305.17 164.08c-2.59,-0.51 -4.27,-3.07 -3.74,-5.71 0.52,-2.64 3.04,-4.37 5.63,-3.86 2.59,0.51 4.26,3.07 3.74,5.71 -0.52,2.64 -3.04,4.37 -5.63,3.86z"/>
       <path class="fil17" d="M311.21 160.58c-1.69,-0.33 -2.78,-2 -2.44,-3.72 0.34,-1.72 1.98,-2.85 3.67,-2.52 1.69,0.33 2.78,2 2.44,3.72 -0.34,1.72 -1.98,2.85 -3.67,2.52z"/>
      </g>
      <g>
       <path class="fil16" d="M230.88 153.18c-4.54,-0.89 -7.47,-5.37 -6.56,-10 0.91,-4.63 5.33,-7.66 9.86,-6.76 4.54,0.89 7.47,5.37 6.56,10 -0.91,4.63 -5.33,7.66 -9.86,6.76z"/>
       <path class="fil3" d="M231.59 149.58c-2.59,-0.51 -4.26,-3.07 -3.74,-5.71 0.52,-2.64 3.04,-4.37 5.63,-3.86 2.59,0.51 4.27,3.07 3.74,5.71 -0.52,2.64 -3.04,4.37 -5.63,3.86z"/>
       <path class="fil17" d="M237.85 146.12c-1.69,-0.33 -2.78,-2 -2.44,-3.72 0.34,-1.72 1.98,-2.85 3.67,-2.52 1.69,0.33 2.78,2 2.44,3.72 -0.34,1.72 -1.98,2.85 -3.67,2.52z"/>
      </g>
     </g>
     <g>
      <g>
       <path class="fil12" d="M229.44 158.47c-10.71,-2.11 -19.05,-5.55 -18.63,-7.67 0.42,-2.13 9.44,-2.14 20.15,-0.03 10.71,2.11 19.05,5.55 18.63,7.67 -0.42,2.13 -9.44,2.14 -20.15,0.03z"/>
       <path class="fil12" d="M305.86 173.53c-10.71,-2.11 -19.05,-5.55 -18.63,-7.67 0.42,-2.13 9.44,-2.14 20.15,-0.03 10.71,2.11 19.05,5.55 18.63,7.67 -0.42,2.13 -9.44,2.14 -20.15,0.03z"/>
      </g>
      <g>
       <path class="fil18" d="M219.05 151.58c6.6,14.24 22.33,12.65 28.8,5.74 -8.06,2.39 -19,1.93 -28.8,-5.74z"/>
       <path class="fil18" d="M293.06 166.17c6.6,14.24 22.33,12.65 28.8,5.74 -8.06,2.39 -19,1.93 -28.8,-5.74z"/>
      </g>
     </g>
     <path class="fil19" d="M303.69 117.51c7.24,2.76 14.47,5.54 20.89,10.01 4.54,3.16 6.8,9.25 6.25,16.88l-0.34 4.74c-8.38,-7.38 -18.51,-12.73 -29.33,-17.27 -1.5,-0.63 -2.48,-2 -2.9,-4.06 -0.42,-2.05 -0.16,-4.21 0.77,-6.38l0.55 -1.27c0.89,-2.08 2.66,-3.22 4.12,-2.67z"/>
     <path class="fil19" d="M262.86 109.43c-9.49,-0.52 -18.98,-1.02 -28.26,0.38 -6.56,0.98 -11.73,5.62 -14.32,12.85l-1.61 4.49c12.76,-3.24 26.67,-3.88 41.04,-3.47 1.99,0.06 3.7,-0.79 5.05,-2.5 1.35,-1.71 1.96,-3.8 1.81,-6.17l-0.09 -1.4c-0.15,-2.28 -1.7,-4.08 -3.61,-4.18z"/>
     <path class="fil9" d="M282.8 157.64c-0.74,16.16 0.73,29.9 4.91,40.66 -6.53,4.89 -14.21,6.49 -22.45,6.5 5.97,-1.13 11.26,-3.76 14.43,-11.06 -2.72,-12.13 -1.27,-24.15 3.1,-36.09zm-24.17 44.99c-2.42,-3.58 -5.09,-8.97 -6.34,-13.99 -4.39,8.1 -1.8,12.51 6.34,13.99z"/>
     <g>
      <g style="clip-path:url(#id0)">
      </g>
      <g style="clip-path:url(#id1)">
       <image x="185.91" y="146.57" width="82.02" height="62.16" xlink:href="bill_2_Images\bill_2_ImgID1.png"/>
      </g>
      <g style="clip-path:url(#id2)">
      </g>
      <g style="clip-path:url(#id3)">
      </g>
      <g style="clip-path:url(#id4)">
       <image x="265.68" y="162.29" width="82.02" height="62.16" xlink:href="bill_2_Images\bill_2_ImgID2.png"/>
      </g>
      <g style="clip-path:url(#id5)">
      </g>
     </g>
    </g>
   </g>
   <g>
    <path class="fil9" d="M119.86 244.14c2.55,-15.59 -2.87,-30.6 -9.96,-44.28l-1.62 -3.13 3.51 -0.32c4.27,-0.39 8.52,-0 12.55,1.53 7.93,3.02 13.13,9.74 16.67,17.19 2.36,4.95 4.04,10.3 5.34,15.62 1.47,6.02 2.77,13.5 3.52,19.66l35.17 -4.73c5.2,-0.5 9.98,2.12 12.35,6.78 2,3.93 1.82,8.4 -0.38,12.05 2.67,1.78 4.57,4.36 5.54,7.56 1.23,4.07 0.65,8.14 -1.67,11.71l-1.91 2.93c2.22,2.15 3.57,4.93 3.92,8.11 0.43,3.96 -0.77,7.61 -3.46,10.54l-3.64 3.96c1.35,3.27 1.8,6.76 0.77,10.26 -3.37,11.41 -21.01,17.22 -31.22,20.01 -9.83,2.68 -19.77,4.34 -29.82,5.88 -5.57,0.86 -11.16,0.32 -16.15,-2.46 -15.83,-8.84 -16.58,-34.5 -15.38,-50.15l0.02 -0.29 15.86 -48.45z"/>
    <path class="fil12" d="M106.34 293.05l15.83 -48.35c2.64,-15.8 -2.41,-30.97 -10.16,-45.93 18.98,-1.73 31.1,13.49 35.5,52.9l37.77 -3.64c4.24,-0.41 8.08,1.71 10.01,5.5 1.93,3.79 1.37,8.15 -1.45,11.33l-0.38 0.43 0.29 0.13c3.27,1.41 5.52,3.93 6.55,7.34 1.03,3.41 0.55,6.75 -1.39,9.73l-3.06 4.7 0.04 0.03c2.71,1.89 4.3,4.58 4.66,7.86 0.36,3.28 -0.62,6.25 -2.85,8.68l-4.71 5.12c12.09,24.01 -40.96,31.66 -57.82,34.25 -21.2,3.25 -31.36,-16.65 -28.81,-50.09z"/>
    <polygon class="fil9" points="195.83,287.2 160.6,297.28 159.46,298.32 197.34,288.43 198.06,287.11 "/>
    <polygon class="fil9" points="192.97,308.89 162.03,318.15 161.5,318.63 193.92,310.21 194.82,309.08 "/>
    <path class="fil9" d="M147.5 251.68c-12.05,4.43 -25.73,12.11 -28.21,14.98 8.75,-5.62 30.73,-15.3 43.03,-16.41l-10.26 0.57 -4.55 0.86z"/>
    <polygon class="fil9" points="193.45,265.3 160.44,275.45 158.24,276.78 195.92,266.63 196.09,265.02 "/>
   </g>
  </g>
 </g>
</svg>
