<?xml version="1.0" encoding="UTF-8"?>
<!DOCTYPE svg PUBLIC "-//W3C//DTD SVG 1.1//EN" "http://www.w3.org/Graphics/SVG/1.1/DTD/svg11.dtd">
<!-- Creator: CorelDRAW 2020 (64-Bit) -->
<svg xmlns="http://www.w3.org/2000/svg" xml:space="preserve" width="71.887mm" height="124.365mm" version="1.1" style="shape-rendering:geometricPrecision; text-rendering:geometricPrecision; image-rendering:optimizeQuality; fill-rule:evenodd; clip-rule:evenodd"
viewBox="0 0 542.82 939.08"
 xmlns:xlink="http://www.w3.org/1999/xlink"
 xmlns:xodm="http://www.corel.com/coreldraw/odm/2003">
 <defs>
  <style type="text/css">
   <![CDATA[
    .str0 {stroke:#2B2A29;stroke-width:7.55;stroke-miterlimit:22.9256}
    .str1 {stroke:#2B2A29;stroke-width:15.1;stroke-miterlimit:22.9256}
    .str2 {stroke:#2B2A29;stroke-width:15.1;stroke-linecap:round;stroke-miterlimit:22.9256}
    .fil21 {fill:none}
    .fil15 {fill:#FEFEFE}
    .fil3 {fill:#2B2A29}
    .fil4 {fill:#E31E24}
    .fil5 {fill:#BA2322}
    .fil12 {fill:#EEBD91}
    .fil8 {fill:#E1A27A}
    .fil14 {fill:#D7956D}
    .fil0 {fill:#80251E}
    .fil11 {fill:#76471D}
    .fil7 {fill:#69231C}
    .fil1 {fill:#69231C}
    .fil19 {fill:#5D391C}
    .fil9 {fill:#AD6D58}
    .fil20 {fill:#4D897C}
    .fil16 {fill:#4658A2}
    .fil2 {fill:#21608D}
    .fil6 {fill:#FEFEFE;fill-rule:nonzero}
    .fil13 {fill:#E29278;fill-rule:nonzero}
    .fil18 {fill:#D7956D;fill-rule:nonzero}
    .fil10 {fill:#AD6D58;fill-rule:nonzero}
    .fil17 {fill:#FEFEFE;fill-opacity:0.658824}
   ]]>
  </style>
      <clipPath id="id0">
       <path d="M285.51 192.66l-39.64 -3.28c-11.24,2.32 -20.55,7.41 -26.04,14.23l-2.16 26.13c4.29,7.64 12.64,14.19 23.34,18.32l39.64 3.28c11.24,-2.32 20.55,-7.41 26.04,-14.23l2.16 -26.13c-4.3,-7.64 -12.64,-14.19 -23.35,-18.32z"/>
      </clipPath>
      <clipPath id="id1">
       <path d="M285.51 192.66l-39.64 -3.28c-11.24,2.32 -20.55,7.41 -26.04,14.23l-2.16 26.13c4.29,7.64 12.64,14.19 23.34,18.32l39.64 3.28c11.24,-2.32 20.55,-7.41 26.04,-14.23l2.16 -26.13c-4.3,-7.64 -12.64,-14.19 -23.35,-18.32z"/>
      </clipPath>
      <clipPath id="id2">
       <path d="M285.51 192.66l-39.64 -3.28c-11.24,2.32 -20.55,7.41 -26.04,14.23l-2.16 26.13c4.29,7.64 12.64,14.19 23.34,18.32l39.64 3.28c11.24,-2.32 20.55,-7.41 26.04,-14.23l2.16 -26.13c-4.3,-7.64 -12.64,-14.19 -23.35,-18.32z"/>
      </clipPath>
      <clipPath id="id3">
       <path d="M383.33 200.76l-39.64 -3.28c-11.24,2.32 -20.55,7.41 -26.04,14.23l-2.16 26.13c4.29,7.64 12.64,14.19 23.34,18.32l39.64 3.28c11.24,-2.32 20.55,-7.41 26.04,-14.23l2.16 -26.13c-4.29,-7.64 -12.64,-14.19 -23.34,-18.32z"/>
      </clipPath>
      <clipPath id="id4">
       <path d="M383.33 200.76l-39.64 -3.28c-11.24,2.32 -20.55,7.41 -26.04,14.23l-2.16 26.13c4.29,7.64 12.64,14.19 23.34,18.32l39.64 3.28c11.24,-2.32 20.55,-7.41 26.04,-14.23l2.16 -26.13c-4.29,-7.64 -12.64,-14.19 -23.34,-18.32z"/>
      </clipPath>
      <clipPath id="id5">
       <path d="M383.33 200.76l-39.64 -3.28c-11.24,2.32 -20.55,7.41 -26.04,14.23l-2.16 26.13c4.29,7.64 12.64,14.19 23.34,18.32l39.64 3.28c11.24,-2.32 20.55,-7.41 26.04,-14.23l2.16 -26.13c-4.29,-7.64 -12.64,-14.19 -23.34,-18.32z"/>
      </clipPath>
      <mask id="id6">
  <linearGradient id="id7" gradientUnits="userSpaceOnUse" x1="641.71" y1="378.34" x2="124.01" y2="98.03">
   <stop offset="0" style="stop-opacity:1; stop-color:white"/>
   <stop offset="1" style="stop-opacity:0; stop-color:white"/>
  </linearGradient>
       <rect style="fill:url(#id7)" x="327.26" y="165.77" width="66.41" height="70.96"/>
      </mask>
      <mask id="id8">
  <linearGradient id="id9" gradientUnits="userSpaceOnUse" x1="659.91" y1="379.73" x2="116.27" y2="90.99">
   <stop offset="0" style="stop-opacity:1; stop-color:white"/>
   <stop offset="1" style="stop-opacity:0; stop-color:white"/>
  </linearGradient>
       <rect style="fill:url(#id9)" x="233.66" y="159.21" width="71.02" height="71.03"/>
      </mask>
 </defs>
 <g id="Слой_x0020_1">
  <metadata id="CorelCorpID_0Corel-Layer"/>
  <g id="_2498634176128">
   <g>
    <path class="fil0" d="M481.55 456.68l-185.31 40.43c50.1,178.3 69.76,291.35 30.4,409.11 22.37,17.61 48.44,23.12 70.46,5.39 120.11,-139.08 211.44,-312.61 84.44,-454.93z"/>
    <path class="fil1" d="M482.22 456.89l-51.01 19.38c16.79,167.84 -29.04,289.24 -89.64,406.71 9.19,0.6 22.69,-10.18 21.87,-9.36 122.18,-127.98 217.55,-298.21 118.79,-416.73z"/>
   </g>
   <polygon class="fil2" points="416.61,875.95 123.52,875.95 111.3,939.08 413.08,939.08 "/>
   <path class="fil3" d="M416.61 875.95l-43.49 0 -1.87 29.79c17.13,-2.83 32.28,-6.61 44.33,-11.42l1.03 -18.37zm-57.41 0l-163.95 0 -3.9 31.49c52.11,6.14 115.48,6.85 165.86,0.36l1.99 -31.85zm-177.95 0l-57.72 0 -3.28 16.93c14.83,5.23 34.69,9.54 57.32,12.77l3.68 -29.7z"/>
   <path class="fil3" d="M416.61 875.95l-43.49 0 -1.87 29.79c17.13,-2.83 32.28,-6.61 44.33,-11.42l1.03 -18.37zm-57.41 0l-163.95 0 -3.9 31.49c52.11,6.14 115.48,6.85 165.86,0.36l1.99 -31.85zm-177.95 0l-57.72 0 -3.28 16.93c14.83,5.23 34.69,9.54 57.32,12.77l3.68 -29.7z"/>
   <path class="fil4" d="M343.83 375.31l-134.43 -9.4 -174.55 93.49 88.67 416.55c59.73,24.78 233.73,30.25 293.09,0 20.6,-131.57 70.74,-295.37 65.61,-419.06l-138.39 -81.58z"/>
   <path class="fil5" d="M148.64 398.46l-113.78 60.94c8.87,-4.75 32.64,-7.47 62.57,25.85l51.21 -86.79z"/>
   <path class="fil4" d="M343.37 335.08c-5.57,-80.9 -108.75,-89.45 -127.56,-10.56l-7.86 50.8c44.21,17.09 89.35,20.78 135.41,11.22l0 -51.45z"/>
   <path class="fil6" d="M292.18 580.99c-2.73,3.02 -4.42,10.3 -1.59,13.84 -1.53,-0.12 -3.28,-0.31 -5.11,-0.45 -1.43,-4.14 -0.05,-10.97 0.76,-11.82 2.27,-1.04 4.39,-1.81 5.94,-1.58zm-21.5 -28.61c7.22,0.1 15.06,0.22 21.9,-1.93 15.87,-4.98 -10.35,-24.9 8.87,-31.03 4.31,-1.37 10.91,0.52 12.51,5.14 1.38,3.99 0.96,7.42 1.04,11.52 0.16,8.21 6.23,9.83 13.05,7.85l29.83 -9.81c4.06,5.24 17.56,23.58 7.22,28.44 -3.47,1.63 -8.34,0.54 -12.35,1.94 -5.79,2.03 -7.16,7.83 -4.96,13.16 3.51,8.49 11.03,6.53 17.35,2.9 5.18,-2.98 9.98,-3.39 11.92,3.19 3.07,10.47 2.48,19.33 -0.04,29.57 -11.94,-0.82 -24.81,-1.87 -36.49,0.56 -13.02,2.73 -2.82,16.55 -2.44,21.91 0.89,12.57 -17.31,15.7 -21.59,6.47 -1.71,-3.68 0.34,-9.09 -1.3,-13.87 -2.11,-6.14 -6.57,-6.62 -12.14,-4.62 -6.58,2.36 -12.74,5.6 -18.89,8.88 -4.82,-7.42 -12.69,-21.22 -12.13,-28.83 0.56,-7.62 14.14,-4.68 18.86,-4.34 16.82,1.22 13.21,-21.31 1.96,-23 -6.44,-0.97 -11.61,4.83 -16.99,5.55 -5.54,0.75 -7.24,-1.97 -7.91,-7.16 -0.72,-7.09 1.02,-15.36 2.72,-22.47zm39.54 76.1l-4.39 7.01 -8.43 -4.43c1.7,-0.79 3.42,-1.53 5.17,-2.21l1.78 0.94c0.41,-0.65 0.84,-1.34 1.27,-2.05 2.07,-0.69 3.56,-0.87 4.6,0.74zm-33.91 0.11c-2.35,5.93 2.68,15.16 -6.67,19.77 -8.46,4.17 -21.46,-1.12 -20.63,-12.72 0.21,-2.94 1.89,-6.08 2.9,-8.9l0 0c1.66,-5.67 2.61,-9.43 -3.62,-10.74 -11.81,-2.48 -25.38,-1.24 -37.72,-0.4 -2.87,-11.6 -3.92,-20.66 -0.45,-32.47 2.39,-8.16 8.8,-8.07 15.08,-4.47l0 0.01c14.68,8.44 15.77,-5.13 14.7,-8.22 -0.55,-1.59 -1.74,-2.94 -3.62,-3.73l-0 0 -0.54 -0.21 0 -0c-4.64,-1.58 -15.2,1.06 -17.35,-7.83 -0.66,-2.72 -0.11,-5.77 0.96,-8.46l0.01 0c2.85,-7.17 6.6,-12.67 11.28,-18.7l8.88 3.2 0 -0c4.96,1.69 22.15,7.7 26.36,7.77 6.33,0.12 6.26,-4.65 6.23,-9.04 -0.04,-6.42 0.22,-12.71 7.22,-15.58 4.68,-1.92 9.49,-1.13 13.39,1.4 -1.06,1.11 -1.83,2.33 -2.35,3.66 -5.09,-3.42 -11.7,-1.44 -13,2.32l-0 0c-2.37,6.83 1.63,15.69 -5.38,20.07 -3.28,2.05 -7.59,1.76 -11.36,0.67l-28.47 -9.31c-3.47,4.63 -6.63,9.76 -8.75,15.14l0.01 0c-4.94,12.49 8.76,8.29 14.49,10.86 11.66,5.23 6.77,22.71 -3.95,23.12 -3.57,0.14 -7.42,-1.39 -10.88,-3.38l-0 0.01c-2.19,-1.25 -4.21,-1.99 -5.74,-1.74l0 0c-4.43,0.73 -5.06,15 -5.01,17.88 0.07,4.06 0.66,8.13 1.64,12.44 11.55,-0.8 23.86,-1.64 35.24,0.73 10.83,2.27 9,11.37 5.86,18.88l-0 -0c-1.77,4.28 -2.96,8 0.44,11.64 3.88,4.16 12.81,4.5 15.32,-0.93 1.65,-3.56 -1.53,-11.07 3.04,-17.27 0.81,1.55 1.64,3.06 2.48,4.51zm13.19 -82.04c-0.84,-3.11 0.27,-7.72 1.52,-10.69 2.2,6.39 4.84,9.11 -1.52,10.69z"/>
   <path class="fil0" d="M97.43 485.25c25.47,-43.16 50.93,-86.32 76.4,-129.48 16.24,1.78 27.49,17.09 33.23,47.27 23.08,123.21 -55.43,300.7 -157.82,390.09 -52.81,-72.57 -70.66,-192.1 -15.81,-330.16 0.47,-1.19 0.94,-2.38 1.42,-3.57 8.87,-4.75 32.64,-7.47 62.57,25.85z"/>
   <path class="fil7" d="M97.43 485.25c-21.22,31.57 -51.86,87.17 -62.57,150.45 5.97,-64.86 16.82,-107.47 39.87,-170.21 8.05,5.05 16.26,11.55 22.7,19.76z"/>
   <g>
    <path class="fil4" d="M337.4 335c-5.51,-80.13 -107.72,-88.6 -126.34,-10.46l-7.78 50.31c43.79,16.93 88.5,20.58 134.12,11.11l0 -50.96z"/>
    <g>
     <path class="fil8" d="M366.45 185.19c53.72,-20.54 36.86,62.76 10.65,58.18 -4.86,-0.85 -9.79,-2.13 -14.69,-4.58l4.03 -53.6z"/>
     <path class="fil9" d="M401.07 214.57c-2.66,15.73 -12.4,30.83 -23.97,28.81 -4.86,-0.85 -9.79,-2.13 -14.69,-4.58l0.96 -12.71c15.29,5.84 31.81,6.07 37.7,-11.51z"/>
     <path class="fil10" d="M370.33 208.43c-0.39,2.26 -0.11,5.17 2.57,5.64 2.64,0.47 3.82,-2.26 4.19,-4.45 0,-0.01 0,-0.01 0,-0.02 0.52,-3.09 0.95,-6.15 1.59,-9.22 0.51,-2.42 1.06,-4.65 2.26,-6.84 0.6,-0.95 1.16,-1.6 2.08,-2.25 1.06,-0.7 1.96,-0.96 3.22,-1.04 -1.32,-0.41 -2.33,-0.51 -3.71,-0.31 -1.41,0.28 -2.39,0.75 -3.57,1.58 -2.57,1.88 -4.06,4.11 -5.51,6.93 -1.56,3.32 -2.47,6.33 -3.12,9.94 -0,0 -0,0.01 -0,0.02z"/>
    </g>
    <path class="fil11" d="M378.79 89.01c13.3,45.99 21.32,144.75 14.4,239.93 -11.91,12.62 -24.69,22.34 -41.42,28.15l-0.94 -12.04 -3.36 13.54c-27.88,10.45 -68.62,9.61 -96.59,1.7l-2.21 -19.67 -6.31 16.88c-10.35,-3.48 -20.97,-8.7 -30.54,-14.95l-0.64 -12.81 -2.46 10.72c-12.38,-8.58 -22.65,-18.83 -27.73,-29.1 0.31,-12.53 2.32,-28.87 5.47,-46.86 -14.19,-15 -18.43,-42.8 -17.29,-77.51 0.5,-15.29 2.19,-28.28 5.61,-43.19 5.35,-23.29 12.13,-47.83 21.86,-68.13 4.41,-4.14 9.89,-7.74 16.13,-10.79 -5.49,-3.58 -8.43,-8.74 -8.43,-8.74 0,0 6.68,-1.13 13.38,1.43 -5.72,-8.18 -5.85,-17.98 -5.85,-17.98 0,0 9.48,3.31 15.42,11.55 1.62,2.25 2.82,4.62 3.71,6.88 19.52,-5.57 42.35,-7.3 62.43,-5.16 34.46,2.05 68.66,14.27 85.37,36.16z"/>
    <path class="fil12" d="M207.74 221.42c2.6,-24.68 11.81,-96.52 28.42,-124.59 2.87,-4.85 6.82,-8.13 12.11,-10.07 15.99,-5.85 37.69,-7.43 58.46,-5.43 24.44,1.7 49.33,8.47 63.89,19.66 3.33,2.56 5.61,5.64 7.21,9.74 9.84,25.18 16.93,63.94 13.31,122.2 -13.85,9.75 -29.4,16.44 -45.98,20.1 -6.15,-1.17 -18.63,-2.01 -33.03,-2.08 -14.04,-0.07 -26.27,0.62 -32.58,1.68 -24.1,-5.13 -48.56,-15.55 -71.82,-31.21z"/>
    <g>
     <path class="fil12" d="M181.67 165.27c-28.6,-5.66 -30.69,38.72 -17.55,55.2 5.82,7.3 16.06,7.59 23.9,3.42l1.5 23.84 10.18 -40.06c0.1,-0.37 0.19,-0.75 0.28,-1.12l0 -0.02 0 -0c1.73,-7.29 1.53,-15.58 -1.02,-25.09 -2.27,-8.45 -8.71,-14.48 -17.29,-16.18z"/>
     <path class="fil9" d="M158.23 180.62c-4,13.01 -1.4,30.72 5.88,39.86 8.59,10.78 26.85,6.28 32.71,-5.31 -14.53,13.72 -42.44,0.62 -38.59,-34.55z"/>
     <path class="fil10" d="M187.68 193.13c0.01,2.29 -0.74,5.12 -3.46,5.14 -2.68,0.03 -3.39,-2.86 -3.4,-5.08 0,-0.01 0,-0.01 -0,-0.02 -0.01,-3.13 0.08,-6.22 -0.05,-9.35 -0.11,-2.48 -0.28,-4.77 -1.11,-7.12 -0.44,-1.04 -0.88,-1.77 -1.68,-2.56 -0.93,-0.86 -1.78,-1.27 -3,-1.55 1.37,-0.18 2.39,-0.12 3.71,0.3 1.34,0.51 2.24,1.13 3.26,2.15 2.23,2.28 3.33,4.72 4.29,7.75 0.99,3.53 1.39,6.65 1.45,10.32 0,0.01 0,0.01 0,0.02z"/>
    </g>
    <path class="fil11" d="M233.76 83.74c-18.38,-36.7 16.68,-76.67 69.73,-83.74l-0.7 11.06c19.65,-6.08 39.63,-7.32 60.09,-1.86 -0.51,7.25 -1.59,12.86 -3.67,16.24 15.03,-2.75 29.3,-0.62 43.22,3.86 -4.63,15.31 -10.62,26.39 -25.59,37.34 4.9,-0.34 10.98,0.66 15.92,2.92 -6.66,28.13 -26.27,43.44 -63.54,41.25 -35.7,-2.57 -71.46,-33.22 -95.45,-27.07z"/>
    <path class="fil13" d="M287.45 264.45c4.95,17.6 17.06,24.27 27.55,14.68 11.47,8.15 23.77,-0.12 25.45,-14.63 -4.56,7.84 -14.58,18.89 -25.83,6.69 -8.49,12.44 -21.42,4.11 -27.17,-6.74z"/>
    <polygon class="fil14" points="341.59,145.58 368.62,155.26 383.69,172.19 379.86,179.93 338.61,185.44 "/>
    <polygon class="fil14" points="302.13,145.12 264.12,143.54 246.54,160.87 247.17,168.94 293,181.66 "/>
    <path class="fil15" d="M293 181.66c-12.49,-13 -28.08,-16.23 -45.82,-12.73 -3.67,29.93 33.79,38.75 45.82,12.73z"/>
    <path class="fil9" d="M293 181.66c-4.8,-21.5 -33.65,-24.75 -45.82,-12.73 17.74,-3.51 33.34,-0.28 45.82,12.73z"/>
    <g>
     <path class="fil15" d="M338.61 185.44c12.7,-10.91 26.55,-11.71 41.21,-5.52 -1.46,30.11 -34.9,33.07 -41.21,5.52z"/>
     <path class="fil9" d="M338.61 185.44c7.42,-20.49 32.63,-19.26 41.21,-5.52 -14.65,-6.19 -28.51,-5.4 -41.21,5.52z"/>
    </g>
    <g>
     <g>
      <path class="fil16" d="M354.94 197.93c-5.56,-0.46 -9.69,-5.44 -9.22,-11.11 0.47,-5.68 5.36,-9.91 10.92,-9.45 5.56,0.46 9.69,5.44 9.22,11.11 -0.47,5.68 -5.36,9.91 -10.92,9.45z"/>
      <path class="fil3" d="M355.31 193.52c-3.17,-0.26 -5.53,-3.1 -5.26,-6.34 0.27,-3.24 3.06,-5.65 6.23,-5.39 3.17,0.26 5.53,3.1 5.26,6.34 -0.27,3.24 -3.06,5.65 -6.23,5.39z"/>
      <path class="fil17" d="M362.09 188.51c-2.07,-0.17 -3.61,-2.02 -3.43,-4.14 0.18,-2.11 2,-3.69 4.07,-3.52 2.07,0.17 3.61,2.03 3.43,4.14 -0.18,2.11 -2,3.69 -4.07,3.52z"/>
     </g>
     <g>
      <path class="fil16" d="M264.71 190.46c-5.56,-0.46 -9.69,-5.44 -9.22,-11.11 0.47,-5.68 5.36,-9.91 10.92,-9.45 5.56,0.46 9.69,5.44 9.22,11.11 -0.47,5.68 -5.36,9.91 -10.92,9.45z"/>
      <path class="fil3" d="M265.08 186.05c-3.17,-0.26 -5.53,-3.1 -5.26,-6.34 0.27,-3.24 3.06,-5.65 6.23,-5.39 3.17,0.26 5.53,3.1 5.26,6.34 -0.27,3.24 -3.06,5.65 -6.23,5.39z"/>
      <path class="fil17" d="M272.13 181.05c-2.07,-0.17 -3.61,-2.02 -3.43,-4.14 0.18,-2.11 2,-3.69 4.07,-3.52 2.07,0.17 3.61,2.02 3.43,4.14 -0.18,2.11 -2,3.69 -4.07,3.52z"/>
     </g>
    </g>
    <g>
     <g>
      <path class="fil12" d="M263.7 197.01c-13.13,-1.09 -23.6,-4.09 -23.39,-6.69 0.22,-2.61 11.04,-3.84 24.17,-2.75 13.13,1.09 23.6,4.09 23.39,6.69 -0.22,2.61 -11.04,3.84 -24.17,2.75z"/>
      <path class="fil12" d="M357.41 204.77c-13.13,-1.09 -23.6,-4.08 -23.39,-6.69 0.22,-2.61 11.04,-3.84 24.17,-2.75 13.13,1.09 23.6,4.08 23.39,6.69 -0.22,2.61 -11.04,3.84 -24.17,2.75z"/>
     </g>
     <g>
      <path class="fil18" d="M250.3 190.14c9.83,16.19 28.49,12.17 35.33,3.01 -9.34,3.96 -22.54,4.87 -35.33,-3.01z"/>
      <path class="fil18" d="M341.06 197.66c9.83,16.19 28.49,12.17 35.33,3.01 -9.34,3.96 -22.54,4.87 -35.33,-3.01z"/>
     </g>
    </g>
    <path class="fil19" d="M347.26 137.85c9.05,2.34 18.1,4.7 26.41,9.2 5.88,3.18 9.41,10.19 9.78,19.41l0.23 5.74c-11.05,-7.73 -23.92,-12.78 -37.52,-16.76 -1.88,-0.55 -3.25,-2.07 -4.03,-4.47 -0.78,-2.41 -0.76,-5.04 0.06,-7.75l0.49 -1.6c0.79,-2.61 2.76,-4.22 4.58,-3.75z"/>
    <path class="fil19" d="M297.18 133.65c-11.46,0.66 -22.91,1.34 -33.86,4.26 -7.74,2.07 -13.32,8.32 -15.45,17.34l-1.33 5.61c14.87,-5.61 31.47,-8.25 48.77,-9.69 2.4,-0.2 4.34,-1.45 5.73,-3.68 1.39,-2.23 1.84,-4.82 1.34,-7.65l-0.3 -1.67c-0.49,-2.71 -2.59,-4.66 -4.9,-4.53z"/>
    <path class="fil9" d="M327.6 188.82c1.29,19.49 4.9,35.78 11.37,48.12 -7.17,6.75 -16.17,9.7 -26.06,10.82 7.01,-2.16 13.01,-6.03 15.83,-15.22 -4.9,-14.18 -4.78,-28.8 -1.15,-43.72zm-22.93 57.24c-3.38,-3.97 -7.32,-10.08 -9.49,-15.93 -4.17,10.32 -0.47,15.26 9.49,15.93z"/>
    <g>
     <g style="clip-path:url(#id0)">
     </g>
     <g style="clip-path:url(#id1)">
      <image x="216.32" y="187.33" width="93.88" height="66.06" xlink:href="bill_1_Images\bill_1_ImgID1.png"/>
     </g>
     <g style="clip-path:url(#id2)">
     </g>
     <g style="clip-path:url(#id3)">
     </g>
     <g style="clip-path:url(#id4)">
      <image x="314.14" y="195.43" width="93.88" height="66.06" xlink:href="bill_1_Images\bill_1_ImgID2.png"/>
     </g>
     <g style="clip-path:url(#id5)">
     </g>
    </g>
   </g>
   <g>
    <path class="fil9" d="M233.85 338.06l-5.28 7.01c-5.1,-3.12 -9.42,-8.2 -12.61,-13.07 -4.01,-6.11 -8.11,-14.92 -8.9,-22.27l-0.36 -11.99c4.56,5.08 10.93,8.32 17.74,9.64l-0.27 0.71c-4.91,12.68 0.42,21.74 9.7,29.97zm-5.31 -30.12c0,0 0.01,0 0.02,0l3.33 0.26 -8.18 -28.03 -0.3 -0.36c-9.93,-12.13 -25.34,-25.78 -41.22,-15.01l-0.88 0.6 -3.27 30.39 -17.78 -27.47c-0.84,-14.72 -4.68,-26.81 -12.24,-39.42 -1.34,-2.24 -3.96,-3.3 -6.49,-2.62 -2.53,0.68 -4.26,2.91 -4.29,5.53l-0.48 38.97 9.14 26.92 -25.34 -21.84c-5.01,-13.75 -13,-30.3 -26.28,-37.7 -2.12,-1.18 -4.68,-0.94 -6.54,0.62 -1.86,1.56 -2.55,4.03 -1.77,6.33l14.82 43.39 23.72 29.74 -22.93 -3.34c-7.39,-7.7 -16.27,-12.64 -26.74,-14.93 -2.42,-0.53 -4.86,0.5 -6.17,2.61 -1.3,2.1 -1.14,4.76 0.4,6.68l19.6 24.5 33.67 10.99c6.1,1.99 10.53,6.03 13.06,11.92 8.84,20.52 25.56,52.62 50.6,55.88 7.98,1.04 15.59,-1 22.59,-4.78l0.23 -0.12 32.18 -28.1c5.54,-4.83 8.84,-10.76 10.04,-18.02 1.92,-11.65 4.44,-22.95 8.62,-34.02l0.8 -2.13 -2.12 -0.83c-11.07,-4.33 -21.38,-7.88 -29.8,-16.61z"/>
    <path class="fil12" d="M207.48 405.74l31.99 -27.93c5.14,-4.49 8.17,-9.93 9.28,-16.66 1.94,-11.76 4.42,-23 8.74,-34.46 -11.73,-4.59 -22.35,-8.25 -31.2,-17.77 -4.19,10.82 -0.75,19.21 10.69,28.8l-7.79 10.33c-13.13,-6.65 -23.24,-26.58 -24.44,-38.17l-0.62 -20.36c4.26,9.98 14.42,15.31 24.6,16.12l-7.11 -24.37c-14.38,-17.57 -27.05,-22.08 -38.15,-14.57l-3.86 35.78 -21.64 -33.43c-0.8,-15.56 -4.93,-27.26 -11.95,-38.97 -0.82,-1.36 -2.38,-1.99 -3.91,-1.58 -1.53,0.41 -2.57,1.75 -2.59,3.33l-0.47 38.57 11.72 34.54 -32.19 -27.74c-7.44,-20.65 -16.07,-31.82 -25.44,-37.04 -1.29,-0.72 -2.81,-0.58 -3.94,0.37 -1.13,0.95 -1.54,2.42 -1.07,3.82l14.69 43.01 27.1 33.98 -29.48 -4.29c-7.61,-8.15 -16.44,-12.73 -26.11,-14.85 -1.48,-0.32 -2.92,0.29 -3.72,1.57 -0.8,1.28 -0.7,2.85 0.24,4.03l19.17 23.96 33.02 10.77c6.73,2.2 11.66,6.7 14.46,13.2 18.97,44.04 42.41,64.87 69.98,49.98z"/>
    <path class="fil9" d="M204.13 289.53c-5.79,-1.69 -10.32,-5.88 -14.21,-11.37 2.83,6.49 6.83,11.34 13.17,12.91l1.2 3.7 2.68 1.53 -2.84 -6.77z"/>
    <path class="fil9" d="M179.61 302.49c8.45,8.46 16.81,9.56 25.12,6.77l2.24 -0.95 -2.29 -0.84c-9.84,2.89 -17.92,-0.22 -24.69,-8.44l-1.1 0.81 0.73 2.65z"/>
    <path class="fil9" d="M229.19 348.06l-20.47 5.37c-5.81,1.52 -10.11,5.49 -12.1,11.16l-3.92 11.21 -0.61 -0.22 2.51 -11.2c1.49,-6.63 6.27,-11.53 12.86,-13.17l19 -4.73 2.72 -0.38 0 1.97z"/>
    <polygon class="fil9" points="150.78,304.95 161.11,306.86 151.46,303.04 148.83,299.23 147.89,300.55 "/>
    <polygon class="fil9" points="131.32,322.61 141.79,321.68 131.47,320.59 127.38,318.18 125,320.64 "/>
    <polygon class="fil9" points="203.04,289.74 203.7,280.28 204.6,282.35 204.13,289.53 205.39,293.99 204.62,294.54 "/>
   </g>
   <g>
    <g>
     <path class="fil20" style="mask:url(#id6)" d="M364.54 236.52c-18.2,2.11 -34.78,-11.98 -37.03,-31.46 -2.25,-19.48 10.67,-36.98 28.87,-39.08 18.2,-2.11 34.78,11.98 37.03,31.46 2.25,19.48 -10.67,36.98 -28.87,39.08z"/>
     <path id="1" class="fil21 str0" d="M364.54 236.52c-18.2,2.11 -34.78,-11.98 -37.03,-31.46 -2.25,-19.48 10.67,-36.98 28.87,-39.08 18.2,-2.11 34.78,11.98 37.03,31.46 2.25,19.48 -10.67,36.98 -28.87,39.08z"/>
    </g>
    <g>
     <path class="fil20" style="mask:url(#id8)" d="M274.68 229.8c-19.37,3.04 -37.54,-10.2 -40.58,-29.58 -3.04,-19.37 10.2,-37.54 29.58,-40.58 19.37,-3.04 37.54,10.2 40.58,29.58 3.04,19.37 -10.2,37.54 -29.58,40.58z"/>
     <path id="1" class="fil21 str0" d="M274.68 229.8c-19.37,3.04 -37.54,-10.2 -40.58,-29.58 -3.04,-19.37 10.2,-37.54 29.58,-40.58 19.37,-3.04 37.54,10.2 40.58,29.58 3.04,19.37 -10.2,37.54 -29.58,40.58z"/>
    </g>
    <path class="fil21 str1" d="M327.47 198.39c-6.11,-3.98 -14.04,-3.74 -22.85,-1.42"/>
    <line class="fil21 str2" x1="233.86" y1="190.92" x2="205.53" y2= "187.99" />
    <path class="fil3" d="M304.87 198.59c-0.9,0.14 -1.74,-0.47 -1.88,-1.37 -0.14,-0.9 0.47,-1.74 1.37,-1.88 0.9,-0.14 1.74,0.47 1.88,1.37 0.14,0.9 -0.47,1.74 -1.37,1.88z"/>
    <path class="fil3" d="M327.72 200.01c-0.9,0.14 -1.74,-0.47 -1.88,-1.37 -0.14,-0.9 0.47,-1.74 1.37,-1.88 0.9,-0.14 1.74,0.47 1.88,1.37 0.14,0.9 -0.47,1.74 -1.37,1.88z"/>
   </g>
  </g>
 </g>
</svg>
