<svg width="24" height="25" viewBox="0 0 24 25" fill="none" xmlns="http://www.w3.org/2000/svg">
<path d="M11.4932 2.7479C11.6881 2.57341 11.8366 2.5 12.0222 2.5C12.2171 2.5 12.3656 2.57341 12.5605 2.7479L15.6977 5.64923C15.8461 5.7778 15.9204 5.93387 15.9204 6.13585C15.9204 6.50307 15.6419 6.77855 15.2522 6.77855C15.0758 6.77855 14.8809 6.69589 14.7416 6.55815L13.3309 5.16261L12.709 4.51074L12.7647 5.88796V13.7657C12.7647 14.1512 12.4213 14.4818 12.0222 14.4818C11.6231 14.4818 11.289 14.1512 11.289 13.7657V5.88796L11.3447 4.51991L10.7228 5.16261L9.31207 6.55815C9.17284 6.69589 8.98719 6.77855 8.81081 6.77855C8.43033 6.77855 8.13332 6.50307 8.13332 6.13585C8.13332 5.93387 8.20754 5.7778 8.35604 5.64923L11.4932 2.7479Z" fill="black"/>
<path d="M8.37176 21.1343C8.57183 21.1303 8.75416 21.1267 8.90446 21.1267H15.0955C15.2458 21.1267 15.4282 21.1303 15.6282 21.1343C16.4908 21.1515 17.6832 21.1753 18.0623 20.9425C18.4394 20.7109 18.5251 20.4438 18.5794 19.8943C18.6132 19.5518 18.6076 19.1391 18.6024 18.7475C18.6005 18.6076 18.5986 18.4704 18.5986 18.34C18.5986 17.6487 18.5986 16.9573 18.5985 16.2659C18.5984 14.8729 18.5982 13.4798 18.5987 12.0867C18.5987 12.0037 18.5992 11.92 18.5998 11.8362C18.6064 10.8796 18.613 9.90677 17.8076 9.74947C17.4992 9.68922 17.1491 9.68166 16.7912 9.67394C16.6354 9.67058 16.4782 9.66719 16.3222 9.65941C16.2063 9.65362 16.0968 9.65282 15.994 9.65207C15.5774 9.64901 15.2697 9.64676 15.0787 9.31665C14.8386 8.90169 15.0835 8.42856 15.4803 8.33414C15.6712 8.28872 16.3348 8.30083 16.7643 8.30867C16.8742 8.31068 16.9688 8.3124 17.0363 8.31281C18.1618 8.31968 18.8174 8.54954 19.3448 9.16164C19.9243 9.83423 19.9364 10.4055 19.9512 11.1084C19.9549 11.2833 19.9588 11.4665 19.9716 11.6613C20.0142 12.3084 19.9999 13.0619 19.9861 13.7859C19.9794 14.1335 19.9729 14.4743 19.9729 14.7933V17.9133C19.9729 18.0599 19.9747 18.2213 19.9765 18.3915C19.9859 19.2523 19.9976 20.3387 19.7981 20.8736C19.5227 21.6116 18.9623 22.1495 18.1633 22.3759C17.9129 22.4468 17.5698 22.4829 17.1906 22.5H6.80942C6.43016 22.4829 6.08709 22.4468 5.83666 22.3759C5.03767 22.1495 4.47733 21.6116 4.20195 20.8736C4.00235 20.3387 4.01413 19.2523 4.02346 18.3915C4.02531 18.2213 4.02706 18.0599 4.02706 17.9133V14.7933C4.02706 14.4743 4.02056 14.1335 4.01393 13.7859C4.00013 13.0619 3.98576 12.3084 4.02839 11.6613C4.04123 11.4665 4.0451 11.2833 4.0488 11.1084C4.06364 10.4055 4.07571 9.83423 4.65523 9.16164C5.18262 8.54954 5.83817 8.31968 6.96374 8.31281C7.03117 8.3124 7.12576 8.31068 7.23567 8.30867C7.66521 8.30083 8.3288 8.28872 8.51967 8.33414C8.91649 8.42856 9.16138 8.90169 8.92128 9.31665C8.73028 9.64676 8.42261 9.64902 8.00596 9.65207C7.90316 9.65282 7.79372 9.65362 7.67776 9.65941C7.52183 9.66719 7.3646 9.67058 7.20884 9.67394C6.85091 9.68166 6.50081 9.68922 6.19238 9.74947C5.38701 9.90677 5.39365 10.8796 5.40018 11.8362C5.40075 11.92 5.40132 12.0037 5.40135 12.0867C5.40176 13.4797 5.40163 14.8727 5.40149 16.2657C5.40142 16.9571 5.40136 17.6486 5.40136 18.34C5.40136 18.4704 5.39951 18.6076 5.39763 18.7475C5.39235 19.1391 5.3868 19.5518 5.42062 19.8943C5.47489 20.4438 5.56059 20.7109 5.93775 20.9425C6.31684 21.1753 7.50923 21.1515 8.37176 21.1343Z" fill="black"/>
</svg>
