<svg width="24" height="24" viewBox="0 0 24 24" fill="none" xmlns="http://www.w3.org/2000/svg">
<path d="M6.50466 19.7512C6.83488 20.0912 7.32599 20.0746 7.63929 19.7512L11.9069 15.481C12.0593 15.3317 12.1524 15.1161 12.1524 14.9337C12.1524 14.4942 11.8391 14.1957 11.3988 14.1957C11.1872 14.1957 11.0178 14.2704 10.8739 14.4113L9.11262 16.1941L7.74937 17.7363L7.83404 15.8209L7.83404 4.74312C7.83404 4.312 7.52074 4.0052 7.07197 4.0052C6.63167 4.0052 6.31837 4.312 6.31837 4.74312L6.31837 15.8209L6.39458 17.7363L5.0398 16.1941L3.27011 14.4113C3.12616 14.2704 2.96529 14.1957 2.74513 14.1957C2.30483 14.1957 2 14.4942 2 14.9337C2 15.1161 2.08467 15.3317 2.23709 15.481L6.50466 19.7512ZM17.4953 4.24563C17.1651 3.914 16.674 3.92228 16.3522 4.24563L12.0847 8.51591C11.9407 8.66514 11.8476 8.88073 11.8476 9.07142C11.8476 9.51088 12.1524 9.80113 12.5927 9.80113C12.8129 9.80113 12.9822 9.73476 13.1177 9.59381L14.8874 7.80283L16.2507 6.26056L16.166 8.17593V19.2537C16.166 19.6849 16.4793 20 16.9196 20C17.3683 20 17.6816 19.6849 17.6816 19.2537V8.17593L17.597 6.26056L18.9602 7.80283L20.7214 9.59381C20.8654 9.73476 21.0347 9.80113 21.2549 9.80113C21.6952 9.80113 22 9.51088 22 9.07142C22 8.88073 21.9069 8.66514 21.7629 8.51591L17.4953 4.24563Z" fill="black"/>
</svg>
