<svg width="15" height="15" viewBox="0 0 15 15" fill="none" xmlns="http://www.w3.org/2000/svg">
<path d="M7.06412 12.6977C7.75923 12.6977 8.42947 12.5599 9.04014 12.3032C8.85148 12.094 8.70252 11.861 8.58339 11.6139C8.11668 11.7898 7.60036 11.8896 7.06412 11.8896C4.72073 11.8896 2.84899 10.0927 2.84899 7.84886C2.84899 5.60507 4.71577 3.80815 7.05916 3.80815C9.19902 3.80815 10.9516 5.31985 11.2346 7.29266C11.4779 7.2594 11.8403 7.27842 12.0935 7.33071C11.8155 4.91577 9.6409 3 7.05916 3C4.28879 3 2 5.19625 2 7.84886C2 10.4967 4.29375 12.6977 7.06412 12.6977ZM4.46256 8.36226H7.05916C7.25278 8.36226 7.4067 8.21967 7.4067 8.0295V4.82546C7.4067 4.64006 7.25278 4.49744 7.05916 4.49744C6.86555 4.49744 6.71659 4.64006 6.71659 4.82546V7.70148H4.46256C4.26893 7.70148 4.11999 7.84411 4.11999 8.0295C4.11999 8.21967 4.26893 8.36226 4.46256 8.36226ZM11.4779 12.75C12.8482 12.75 14 11.6566 14 10.3351C14 9.00879 12.863 7.92017 11.4779 7.92017C10.0977 7.92017 8.95575 9.01354 8.95575 10.3351C8.95575 11.6662 10.0977 12.75 11.4779 12.75ZM11.4779 11.8753C11.2495 11.8753 11.0608 11.6994 11.0608 11.476C11.0608 11.2573 11.2495 11.0719 11.4779 11.0719C11.7112 11.0719 11.8999 11.2573 11.8999 11.476C11.8949 11.6994 11.7112 11.8753 11.4779 11.8753ZM11.4779 10.7439C11.3041 10.7439 11.1849 10.6298 11.18 10.4682L11.1403 9.10862C11.1353 8.91371 11.2693 8.78061 11.4779 8.78061C11.6864 8.78061 11.8254 8.91371 11.8204 9.10862L11.7807 10.4682C11.7758 10.6298 11.6516 10.7439 11.4779 10.7439Z" fill="url(#paint0_linear_1_5744)"/>
<defs>
<linearGradient id="paint0_linear_1_5744" x1="0.95" y1="16" x2="16.4351" y2="15.3389" gradientUnits="userSpaceOnUse">
<stop stop-color="#730000"/>
<stop offset="1" stop-color="#FF0000"/>
</linearGradient>
</defs>
</svg>
