<svg width="20" height="20" viewBox="0 0 20 20" fill="none" xmlns="http://www.w3.org/2000/svg">
<path d="M17.734 0.631112C17.5384 0.666668 17.0851 0.737779 16.7295 0.800001C16.1073 0.906668 16.0807 0.915556 15.9029 1.25333C15.6273 1.80445 14.5695 2.85333 13.9207 3.23556L13.334 3.58222V4.70222C13.334 5.31556 13.3695 5.86667 13.4051 5.92C13.4407 5.97333 13.6184 6.07111 13.8051 6.12444C14.1251 6.23111 14.1607 6.22222 14.8273 5.84L15.5118 5.44L15.5384 8.54222C15.5473 10.2489 15.5918 11.6444 15.6273 11.6444C15.6629 11.6533 16.2318 11.6978 16.8895 11.76C17.5473 11.8222 18.214 11.8489 18.3562 11.8222L18.6229 11.7778L18.6495 6.39111L18.6673 0.995557L18.3829 0.782223C18.134 0.604445 18.0273 0.577779 17.734 0.631112Z" fill="black"/>
<path d="M6.67634 2.87111L6.11634 3.24444L3.45856 10.6667C2.00078 14.7467 0.800781 18.0978 0.800781 18.1067C0.800781 18.1156 1.023 18.24 1.29856 18.3911L1.78745 18.6578L3.663 18.48C4.703 18.3822 5.54745 18.2933 5.55634 18.2844C5.56523 18.2756 5.76078 17.5556 6.00078 16.6933L6.42745 15.12L7.05856 15.0667C7.40523 15.04 8.223 15.0044 8.88078 14.9956L10.0719 14.9778L10.1786 15.3778C10.2497 15.6 10.383 16.0978 10.4897 16.4978L10.6763 17.2178L11.3519 17.4222L12.0186 17.6267L13.4586 17.4756C14.2408 17.3867 14.9074 17.2978 14.9252 17.28C14.943 17.2622 14.0719 14.2756 12.9786 10.6489C11.8941 7.01333 10.943 3.86667 10.8808 3.64444L10.7563 3.23555L9.09412 2.86222C8.16967 2.65778 7.38745 2.48889 7.33411 2.48889C7.28967 2.49778 6.98745 2.66667 6.67634 2.87111ZM8.96078 10.7733C9.16523 11.5733 9.33412 12.2489 9.33412 12.2844C9.33412 12.3289 8.93411 12.3556 8.43634 12.3556C7.73411 12.3556 7.54745 12.3289 7.57411 12.24C7.67189 11.8311 8.49856 9.33333 8.53411 9.33333C8.56078 9.33333 8.74745 9.98222 8.96078 10.7733Z" fill="black"/>
</svg>
