<svg width="20" height="20" viewBox="0 0 20 20" fill="none" xmlns="http://www.w3.org/2000/svg">
<path fill-rule="evenodd" clip-rule="evenodd" d="M7.7376 11.4783L10.0016 12.8973L12.184 11.5171L17.076 15.9413C16.9472 15.9795 16.8096 16 16.6664 16H3.3336C3.1576 16 2.9896 15.9685 2.8352 15.912L7.7376 11.4783ZM18 7.8424V14.7775C18 14.9587 17.9568 15.1303 17.88 15.285L13.0848 10.9481L18 7.8424ZM2 7.88127L6.8336 10.9114L2.0848 15.2073C2.02856 15.0699 1.99983 14.9243 2 14.7775V7.88127ZM16.6664 5C17.4024 5 18 5.54707 18 6.22247V6.6522L9.9984 11.7085L2 6.694V6.22247C2 5.5478 2.5968 5 3.3336 5H16.6664Z" fill="black"/>
</svg>
