<svg width="20" height="20" viewBox="0 0 20 20" fill="none" xmlns="http://www.w3.org/2000/svg">
<g clip-path="url(#clip0_187_10426)">
<path d="M0 10V20H10H20V10V0H10H0V10ZM10.3679 2.07358C11.515 2.25752 12.7458 3.23077 13.7759 4.77926C15.4749 7.3311 16.2575 10.7358 15.7191 13.2274C15.291 15.1973 14.2007 16.6555 12.592 17.408C11.709 17.8227 10.5351 18.0201 9.49164 17.9331C8.60201 17.8562 7.99666 17.6923 7.27425 17.3378C5.29431 16.3645 4.11371 14.194 4.11371 11.5251C4.11371 8.27425 5.81271 4.47157 8.00334 2.81271C8.79264 2.21739 9.62542 1.95652 10.3679 2.07358Z" fill="black"/>
</g>
<defs>
<clipPath id="clip0_187_10426">
<rect width="20" height="20" fill="white"/>
</clipPath>
</defs>
</svg>
