<svg width="20" height="20" viewBox="0 0 20 20" fill="none" xmlns="http://www.w3.org/2000/svg">
<path d="M13.7961 10.755L13.4169 11.1325C13.4169 11.1325 12.5144 12.0292 10.0519 9.58084C7.58941 7.1325 8.49191 6.23584 8.49191 6.23584L8.73024 5.9975C9.31941 5.4125 9.37524 4.4725 8.86108 3.78584L7.81108 2.38334C7.17441 1.53334 5.94524 1.42084 5.21608 2.14584L3.90774 3.44584C3.54691 3.80584 3.30524 4.27084 3.33441 4.7875C3.40941 6.11 4.00774 8.95417 7.34441 12.2725C10.8836 15.7908 14.2044 15.9308 15.5619 15.8042C15.9919 15.7642 16.3652 15.5458 16.6661 15.2458L17.8494 14.0692C18.6494 13.275 18.4244 11.9125 17.4011 11.3567L15.8094 10.4908C15.1377 10.1258 14.3211 10.2333 13.7961 10.755Z" fill="black"/>
</svg>
