<svg width="448" height="68" viewBox="0 0 448 68" fill="none" xmlns="http://www.w3.org/2000/svg">
<path fill-rule="evenodd" clip-rule="evenodd" d="M32.7592 17.6626C36.6685 17.7171 40.9071 17.7784 44.6071 16.6406C48.5669 15.4295 47.6467 12.3176 46.6097 9.44583L46.6044 9.39473L46.5312 9.2244C44.8564 5.26081 44.4398 1.78266 49.4052 0.232653C51.7354 -0.492955 55.3065 0.510292 56.1744 2.94943C56.9239 5.05812 56.6938 6.87214 56.7374 9.03704C56.8245 13.3788 60.1098 14.2355 63.7977 13.1897C67.8637 12.0383 71.895 10.7557 75.9157 9.42369C77.2542 8.95187 78.598 8.47665 79.9382 8.00654C82.115 10.7523 84.0374 13.7143 85.3533 16.9523C86.2561 19.1819 86.392 21.8731 83.8422 23.0433C81.9651 23.9052 79.3282 23.3295 77.1601 24.0704C74.0317 25.1435 73.2875 28.2094 74.4779 31.0284C76.3776 35.5149 80.4454 34.481 83.8649 32.5631C86.6709 30.9892 89.266 30.7695 90.3134 34.2511C91.9761 39.7885 91.6554 44.4726 90.2908 49.8857C83.8317 49.4514 76.869 48.8944 70.5512 50.1855C66.0913 51.1036 66.7413 54.0878 67.7173 57.3377L67.7278 57.3717L67.74 57.4041C68.2088 58.6901 69.1395 60.4343 69.2336 61.7697C69.495 65.2802 66.7605 67.6972 63.3219 67.9731C60.9987 68.1605 58.59 67.3804 57.5513 65.1882C56.6276 63.243 57.7343 60.3832 56.8472 57.8538C55.7074 54.6056 53.2918 54.3552 50.2784 55.4095C46.7195 56.6564 43.3854 58.3682 40.0583 60.1038C37.451 56.1811 33.1897 48.8808 33.4947 44.8593C33.798 40.8326 41.1424 42.3827 43.6991 42.5615C48.4414 42.9022 50.6688 39.9333 49.6283 35.5047C49.0305 32.9549 47.5874 30.8155 44.757 30.3982C41.2731 29.8872 38.4758 32.9497 35.5652 33.3347C32.5693 33.7316 31.6473 32.294 31.2848 29.5499C30.8944 25.801 31.8338 21.4269 32.7575 17.6694L32.7592 17.6626ZM48.5948 58.6628C49.5272 59.133 50.4544 59.615 51.3799 60.0987C51.9271 59.2777 52.5458 58.3069 53.1785 57.2508C52.6277 57.1793 51.9498 57.3956 51.1167 57.6869C50.2644 57.9849 49.4244 58.3137 48.593 58.6611L48.5948 58.6628ZM44.0721 14.2543C43.7671 13.1829 44.0215 11.9173 44.4241 10.6416C44.3527 10.461 44.2812 10.2856 44.2202 10.1135L44.1889 10.0284C42.7876 6.66263 42.3745 3.46382 43.9501 1.07238C43.429 0.752161 42.7963 0.469412 42.0382 0.232653C39.708 -0.492955 36.1369 0.510292 35.2689 2.94943C34.5195 5.05812 34.7478 6.87214 34.7043 9.03704C34.6189 13.3788 31.3336 14.2355 27.644 13.1897C23.5779 12.0383 19.5467 10.7557 15.5259 9.42369C14.1874 8.95187 12.8437 8.47665 11.5034 8.00654C9.32487 10.7523 7.4025 13.716 6.08839 16.9523C5.18385 19.1819 5.04791 21.8732 7.59944 23.0416C9.47475 23.9035 12.1134 23.3278 14.2815 24.0687C17.41 25.1418 18.1524 28.2077 16.9638 31.0267C15.0641 35.5149 10.9963 34.481 7.57679 32.5614C4.77254 30.9875 2.17569 30.7678 1.12824 34.2494C-0.536184 39.7868 -0.213757 44.4726 1.1509 49.884C7.60816 49.4497 14.5708 48.8927 20.8904 50.1821C25.3521 51.1002 24.7003 54.0844 23.7243 57.3343L23.7138 57.3666L23.7016 57.399C23.2328 58.685 22.3021 60.4292 22.2063 61.7646C21.9449 65.2734 24.6794 67.6904 28.118 67.968C30.4412 68.1554 32.8516 67.3753 33.8886 65.1831C34.8123 63.2396 33.7056 60.3781 34.5927 57.8487C34.7409 57.4263 34.9099 57.0566 35.0999 56.733C32.8324 52.6945 30.7706 47.9899 31.0216 44.6753C31.4364 39.1668 37.6445 39.5875 42.0783 39.9827C41.5014 38.7972 41.3968 37.2642 41.8116 35.4979C42.0242 34.5934 42.3414 33.7401 42.7911 32.9957C40.67 33.6447 37.8675 35.4706 35.9016 35.7329C31.4835 36.3172 29.3642 33.9291 28.8239 29.8208C28.3638 25.4109 29.5158 20.4168 30.5824 16.1483L30.8142 15.2115L31.8024 15.2234C35.6384 15.2677 40.182 15.4585 43.8647 14.3258L44.0721 14.2543Z" fill="url(#paint0_linear_23_6703)"/>
<path d="M97.0693 30.203V28.452L110.416 0.875499H118.479L131.825 28.452V30.203H124.57L114.447 7.87949L104.325 30.203H97.0693ZM108.715 67.1171V44.7935H97.0693V37.7895H128.467V44.7935H116.778V67.1171H108.715ZM273.301 67.1171V65.3661L286.648 37.7895H294.71L308.057 65.3661V67.1171H300.802L290.679 44.7935L280.557 67.1171H273.301ZM308.151 51.3155C308.151 49.3311 308.406 47.4626 308.913 45.7133C309.42 43.9623 310.309 42.4379 311.578 41.1382C312.847 39.8403 314.556 38.8115 316.707 38.0519C318.858 37.2939 321.559 36.914 324.815 36.914H326.427C329.681 36.914 332.384 37.2939 334.533 38.0519C336.683 38.8098 338.391 39.8386 339.662 41.1382C340.931 42.4362 341.82 43.9623 342.327 45.7133C342.834 47.4643 343.088 49.3311 343.088 51.3155V53.5911C343.088 55.5755 342.834 57.4423 342.327 59.1933C341.82 60.9443 340.931 62.4687 339.662 63.7684C338.393 65.0663 336.683 66.0951 334.533 66.8548C332.382 67.6127 329.681 67.9926 326.427 67.9926H324.815C321.561 67.9926 318.858 67.6127 316.707 66.8548C314.556 66.0968 312.848 65.068 311.578 63.7684C310.309 62.4704 309.42 60.9443 308.913 59.1933C308.406 57.4423 308.151 55.5755 308.151 53.5911V51.3155ZM316.214 52.4533C316.214 53.5622 316.266 54.6352 316.371 55.6708C316.475 56.7065 316.818 57.6194 317.401 58.4064C317.983 59.195 318.908 59.8218 320.177 60.2885C321.446 60.7552 323.26 60.9886 325.618 60.9886C327.976 60.9886 329.791 60.7552 331.059 60.2885C332.328 59.8218 333.254 59.1933 333.836 58.4064C334.418 57.6177 334.761 56.7065 334.866 55.6708C335.073 53.6081 335.077 51.3155 334.866 49.2579C334.761 48.2359 334.418 47.3315 333.836 46.5445C333.254 45.7559 332.328 45.1291 331.059 44.6624C329.791 44.1957 327.976 43.9623 325.618 43.9623C323.26 43.9623 321.446 44.1957 320.177 44.6624C318.908 45.1291 317.983 45.7559 317.401 46.5445C316.818 47.3332 316.475 48.2376 316.371 49.2579C316.266 50.2799 316.214 51.3445 316.214 52.4533ZM373.785 44.7935H354.929V67.1171H346.867V37.7895H373.785V44.7935ZM401.823 37.7895H409.885V67.1171H401.823V48.2938L386.102 67.1171H378.04V37.7895H386.102V56.6128L401.823 37.7895ZM439.939 37.7895H448.001V67.1171H439.939V48.2938L424.218 67.1171H416.156V37.7895H424.218V56.6128L439.939 37.7895ZM161.21 44.7935H140.562V49.171H156.731V56.175H140.562V60.1148H161.21V67.1188H132.5V37.7912H161.21V44.7952V44.7935ZM175.811 52.4533L164.748 39.5405V37.7895H172.676L180.514 46.9823L188.396 37.7895H196.279V39.5405L185.216 52.4533L196.279 65.3661V67.1171H188.396L180.514 57.9686L172.676 67.1171H164.748V65.3661L175.811 52.4533ZM208.821 37.7895V49.171H224.498V37.7895H232.56V67.1171H224.498V56.1733H208.821V67.1171H200.759V37.7895H208.821ZM238.381 51.3155C238.381 49.3311 238.636 47.4626 239.143 45.7133C239.65 43.9623 240.539 42.4379 241.808 41.1382C243.077 39.8403 244.786 38.8115 246.937 38.0519C249.088 37.2939 251.789 36.914 255.045 36.914H256.657C259.911 36.914 262.614 37.2939 264.763 38.0519C266.914 38.8098 268.622 39.8386 269.892 41.1382C271.161 42.4362 272.05 43.9623 272.557 45.7133C273.064 47.4643 273.319 49.3311 273.319 51.3155V53.5911C273.319 55.5755 273.064 57.4423 272.557 59.1933C272.05 60.9443 271.161 62.4687 269.892 63.7684C268.623 65.0663 266.914 66.0951 264.763 66.8548C262.612 67.6127 259.911 67.9926 256.657 67.9926H255.045C251.791 67.9926 249.088 67.6127 246.937 66.8548C244.786 66.0968 243.078 65.068 241.808 63.7684C240.539 62.4704 239.65 60.9443 239.143 59.1933C238.636 57.4423 238.381 55.5755 238.381 53.5911V51.3155ZM246.444 52.4533C246.444 53.5622 246.496 54.6352 246.601 55.6708C246.705 56.7065 247.049 57.6194 247.631 58.4064C248.213 59.195 249.138 59.8218 250.407 60.2885C251.676 60.7552 253.49 60.9886 255.848 60.9886C258.206 60.9886 260.021 60.7552 261.289 60.2885C262.558 59.8218 263.484 59.1933 264.066 58.4064C264.648 57.6177 264.991 56.7065 265.096 55.6708C265.303 53.6081 265.307 51.3155 265.096 49.2579C264.991 48.2359 264.648 47.3315 264.066 46.5445C263.484 45.7559 262.558 45.1291 261.289 44.6624C260.021 44.1957 258.206 43.9623 255.848 43.9623C253.49 43.9623 251.676 44.1957 250.407 44.6624C249.138 45.1291 248.213 45.7559 247.631 46.5445C247.049 47.3332 246.705 48.2376 246.601 49.2579C246.496 50.2799 246.444 51.3445 246.444 52.4533ZM133.709 30.203V28.452L147.056 0.875499H155.118L168.465 28.452V30.203H161.21L158.611 24.5123H143.516L140.963 30.203H133.708H133.709ZM155.655 17.946L151.087 7.92208L146.519 17.946H155.657H155.655ZM184.093 31.0785C180.052 31.0785 176.216 30.6544 172.404 29.6784V22.4564C176.561 23.5278 180.095 24.0762 184.318 24.0762C186.633 24.0762 189.787 23.9757 191.283 23.2672C191.805 23.0185 192.126 22.7425 192.246 22.4359C192.471 21.8602 192.475 21.1976 192.314 20.5981C192.102 19.8094 190.244 19.5591 189.156 19.4381C187.161 19.215 183.637 19.2627 181.228 19.2627V12.2587H184.721C186.687 12.2587 189.482 12.182 190.678 11.5143C191.096 11.281 191.342 11.0034 191.417 10.6831C191.563 10.0563 191.588 9.27791 191.372 8.64768C191.267 8.34109 190.983 8.06345 190.521 7.81647C189.196 7.10619 186.322 7.0074 184.228 7.0074C182.197 7.0074 180.339 7.15388 178.652 7.44515C176.965 7.73641 175.196 8.14521 173.345 8.67153V1.44951C176.716 0.490552 180.406 0.00510992 183.961 0.00510992H184.991C187.678 0.00510992 189.902 0.223133 191.664 0.660883C193.426 1.09863 194.829 1.69649 195.875 2.45617C196.921 3.21414 197.651 4.09815 198.069 5.10481C198.488 6.11146 198.697 7.18454 198.697 8.32235V9.19785C198.697 10.6269 198.226 11.8976 197.285 13.0064C196.344 14.1153 194.634 14.9465 192.156 15.5018C194.348 15.9583 196.572 16.7231 198.001 18.084C198.583 18.6393 198.995 19.2371 199.234 19.8793C199.634 20.9558 199.593 21.6814 199.593 22.7681C199.593 23.9059 199.368 24.9858 198.92 26.0078C197.827 28.5014 195.037 29.7482 192.112 30.4296C190.232 30.8673 187.858 31.0853 184.991 31.0853H184.095L184.093 31.0785ZM233.566 7.87949H212.918V12.257H229.087V19.261H212.918V23.2007H233.566V30.2047H204.856V0.877203H233.566V7.8812V7.87949ZM269.352 12.257C269.352 13.7167 269.165 15.0811 268.792 16.35C268.419 17.619 267.785 18.7278 266.889 19.6766C265.993 20.6253 264.777 21.3765 263.24 21.9301C261.703 22.4853 259.768 22.7613 257.44 22.7613C255.444 22.7613 253.401 22.7545 251.46 22.717C249.923 22.688 248.422 22.5569 246.958 22.3235V30.203H238.896V0.875499C244.128 0.281045 249.97 0 255.289 0H256.544C259.052 0 261.127 0.277639 262.769 0.831213C265.727 1.82935 267.914 3.60079 268.772 6.43339C269.422 8.58636 269.354 10.0819 269.354 12.2553L269.352 12.257ZM254.93 15.759C256.922 15.759 259.392 15.6006 260.507 14.5122C260.91 14.1187 261.141 13.6588 261.201 13.1325C261.323 12.0662 261.319 10.6814 261.201 9.60835C260.932 7.18625 257.502 7.00399 255.244 7.00399C252.868 7.00399 249.523 7.14707 246.958 7.39746V15.3638C249.764 15.713 252.103 15.7573 254.93 15.7573V15.759ZM282.789 0.875499V12.257H298.466V0.875499H306.529V30.203H298.466V19.2593H282.789V30.203H274.727V0.875499H282.789ZM342.358 21.8858C342.358 23.1701 342.172 24.3658 341.799 25.4746C341.426 26.5835 340.791 27.5544 339.896 28.3856C339 29.2168 337.783 29.8743 336.246 30.3546C334.709 30.8367 332.774 31.0768 330.446 31.0768H329.191C323.872 31.0768 318.03 30.7958 312.798 30.2013V0.873796H320.86V11.3798C322.322 11.1464 323.823 11.0153 325.362 10.9863C327.302 10.9488 329.346 10.942 331.342 10.942C333.492 10.942 335.275 11.1822 336.694 11.6642C338.113 12.1463 339.24 12.802 340.075 13.6333C340.912 14.4645 341.501 15.4422 341.844 16.5664C342.438 18.5081 342.36 19.9116 342.36 21.8841L342.358 21.8858ZM353.511 0.875499V30.203H345.448V0.875499H353.511ZM328.832 17.9477C326.005 17.9477 323.664 17.992 320.86 18.3412V23.6811C323.426 23.9314 326.77 24.0745 329.146 24.0745C330.977 24.0745 333.346 23.9962 334.43 23.2212C334.819 22.9435 335.042 22.6165 335.101 22.2367C335.221 21.4753 335.221 20.547 335.101 19.7856C334.942 18.7789 333.64 18.3991 332.502 18.1879C331.636 18.0278 330.413 17.9477 328.83 17.9477H328.832ZM388.491 7.87949H367.844V12.257H384.012V19.261H367.844V23.2007H388.491V30.2047H359.781V0.877203H388.491V7.8812V7.87949Z" fill="black"/>
<defs>
<linearGradient id="paint0_linear_23_6703" x1="16.7076" y1="61.9059" x2="73.4249" y2="4.78863" gradientUnits="userSpaceOnUse">
<stop stop-color="#7D0000"/>
<stop offset="0.439216" stop-color="#BE0000"/>
<stop offset="1" stop-color="#FF0000"/>
</linearGradient>
</defs>
</svg>
