<svg width="399" height="349" viewBox="0 0 399 349" fill="none" xmlns="http://www.w3.org/2000/svg">
<path fill-rule="evenodd" clip-rule="evenodd" d="M212.252 84.8415C224.693 85.0139 238.182 85.2078 249.957 81.6102C262.558 77.7811 259.63 67.9416 256.33 58.8615L256.313 58.7L256.08 58.1614C250.75 45.6292 249.424 34.6318 265.226 29.731C272.642 27.4367 284.006 30.6088 286.768 38.321C289.153 44.9883 288.421 50.7239 288.56 57.569C288.837 71.2968 299.292 74.0058 311.029 70.699C323.968 67.0584 336.797 63.003 349.593 58.7915C353.852 57.2997 358.129 55.7971 362.394 54.3107C369.321 62.9923 375.439 72.3578 379.627 82.5958C382.5 89.6455 382.932 98.1547 374.818 101.855C368.844 104.58 360.453 102.759 353.553 105.102C343.597 108.495 341.229 118.189 345.017 127.102C351.063 141.288 364.008 138.019 374.89 131.955C383.82 126.978 392.078 126.284 395.412 137.292C400.703 154.8 399.682 169.61 395.34 186.726C374.785 185.352 352.627 183.591 332.521 187.674C318.328 190.576 320.396 200.012 323.502 210.288L323.536 210.395L323.575 210.498C325.067 214.564 328.028 220.079 328.328 224.301C329.16 235.401 320.457 243.043 309.514 243.915C302.121 244.508 294.456 242.041 291.15 235.11C288.211 228.959 291.733 219.917 288.909 211.919C285.282 201.649 277.595 200.858 268.005 204.191C256.679 208.133 246.069 213.546 235.481 219.034C227.183 206.631 213.622 183.548 214.593 170.833C215.558 158.101 238.931 163.002 247.067 163.568C262.159 164.645 269.247 155.258 265.936 141.255C264.034 133.193 259.441 126.429 250.434 125.109C239.347 123.494 230.445 133.177 221.182 134.394C211.648 135.649 208.714 131.104 207.56 122.427C206.318 110.574 209.307 96.7437 212.247 84.8631L212.252 84.8415ZM262.647 214.478C265.614 215.964 268.565 217.488 271.51 219.018C273.252 216.422 275.221 213.352 277.234 210.013C275.482 209.787 273.324 210.471 270.673 211.392C267.961 212.334 265.287 213.374 262.642 214.472L262.647 214.478ZM248.254 74.065C247.284 70.6775 248.093 66.676 249.375 62.6422C249.147 62.0713 248.92 61.5166 248.726 60.9727L248.626 60.7034C244.166 50.0615 242.852 39.9474 247.866 32.3861C246.208 31.3736 244.194 30.4796 241.782 29.731C234.366 27.4367 223.001 30.6088 220.239 38.321C217.854 44.9883 218.581 50.7239 218.442 57.569C218.17 71.2968 207.715 74.0058 195.974 70.699C183.034 67.0584 170.205 63.003 157.409 58.7915C153.15 57.2997 148.873 55.7971 144.608 54.3107C137.675 62.9923 131.558 72.3632 127.376 82.5958C124.497 89.6455 124.064 98.1547 132.184 101.849C138.152 104.574 146.55 102.754 153.449 105.097C163.405 108.49 165.768 118.184 161.985 127.097C155.94 141.288 142.994 138.019 132.112 131.949C123.188 126.973 114.924 126.278 111.59 137.286C106.294 154.795 107.32 169.61 111.663 186.72C132.212 185.347 154.37 183.586 174.481 187.663C188.68 190.566 186.606 200.001 183.5 210.277L183.466 210.379L183.428 210.482C181.936 214.548 178.974 220.062 178.669 224.285C177.837 235.379 186.539 243.021 197.482 243.899C204.876 244.491 212.546 242.025 215.846 235.094C218.786 228.949 215.264 219.901 218.087 211.903C218.559 210.568 219.097 209.399 219.701 208.376C212.485 195.607 205.924 180.732 206.723 170.251C208.043 152.834 227.799 154.165 241.909 155.414C240.073 151.666 239.74 146.819 241.06 141.234C241.737 138.374 242.747 135.676 244.178 133.322C237.428 135.374 228.509 141.148 222.253 141.977C208.192 143.824 201.448 136.274 199.729 123.284C198.264 109.341 201.931 93.55 205.325 80.0538L206.063 77.0917L209.207 77.1294C221.415 77.2694 235.875 77.8726 247.594 74.2912L248.254 74.065Z" fill="#EDEDED"/>
<path fill-rule="evenodd" clip-rule="evenodd" d="M151.629 112.13L172.22 243.106L159.781 242.125C149.368 216.832 138.952 191.537 128.538 166.244C128 133.914 133.031 111.251 151.629 112.128V112.13Z" fill="#80251E"/>
<path fill-rule="evenodd" clip-rule="evenodd" d="M162.344 238.024L137.493 178.562L136.178 184.797L159.465 241.356C160.206 240.054 161.182 238.944 162.344 238.024Z" fill="#BA2322"/>
<path fill-rule="evenodd" clip-rule="evenodd" d="M160.02 257.923C159.949 258.503 159.88 259.08 159.814 259.659C159.481 262.564 159.194 265.528 159.239 268.455C159.254 269.441 159.308 270.456 159.428 271.464C159.561 272.582 160.376 273.449 161.485 273.646C162.594 273.846 163.658 273.316 164.173 272.314C166.308 268.141 167.52 263.557 168.11 258.878L168.55 259.101C169.889 259.781 170.719 260.967 170.897 262.458L171.515 267.609C168.531 272.252 166.233 277.375 170.084 282.318L170.832 283.279L171.038 282.704C171.474 284.027 172.229 285.218 173.27 286.293L174.117 287.168L175.258 282.472C175.904 283.616 176.782 284.592 177.916 285.377L178.847 286.023L178.965 284.896C179.455 280.235 180.083 275.395 181.548 270.928L181.591 270.797L180.251 256.106L180.171 255.973C179 254.036 177.985 251.979 177.05 249.917C176.016 247.637 175.067 245.313 174.156 242.981C173.737 241.911 173.325 240.84 172.916 239.765C172.62 238.989 172.33 238.21 172.019 237.442C171.697 236.648 171.343 235.869 170.983 235.093L170.775 234.645L170.283 234.711C162.993 235.689 157.426 239.778 157.298 247.579C157.235 251.354 158.756 254.478 160.02 257.923Z" fill="#AD6D58"/>
<path fill-rule="evenodd" clip-rule="evenodd" d="M157.971 247.59C157.911 251.297 159.441 254.358 160.708 257.845C160.271 261.451 159.745 267.177 159.803 270.543C159.825 271.75 160.43 272.679 161.618 272.903C162.807 273.126 163.626 272.413 164.081 271.294C165.503 267.805 167.102 262.056 167.556 257.845L168.856 258.505C170.397 259.286 171.36 260.668 171.566 262.382L172.212 267.773C169.135 272.514 167.024 277.298 170.616 281.909L171.276 280.07C171.313 282.095 172.017 284.035 173.754 285.83L175.082 280.366C175.659 282.213 176.696 283.721 178.3 284.833C178.792 280.147 179.448 275.192 180.911 270.725L179.598 256.326C176.904 251.87 174.497 245.809 172.289 240.008C171.508 237.96 171.309 237.395 170.375 235.379C162.997 236.37 158.089 240.468 157.973 247.592L157.971 247.59Z" fill="#EEBD91"/>
<path fill-rule="evenodd" clip-rule="evenodd" d="M175.082 280.363C174.834 276.362 175.07 273.013 175.565 270.01L173.343 261.096C173.038 259.873 172.145 258.981 170.92 258.678L167.554 257.844L170.742 259.024C171.817 259.421 172.557 260.259 172.821 261.373L174.868 270.038C174.43 273.966 174.211 277.909 174.709 281.897L175.245 282.054L175.082 280.363Z" fill="#AD6D58"/>
<path fill-rule="evenodd" clip-rule="evenodd" d="M170.613 281.906C170.793 277.088 171.448 272.647 173.797 269.092L174.23 266.078L174.715 267.059L174.346 269.599C172.091 272.649 171.169 277.547 171.439 281.599L171.115 281.951L170.615 281.906H170.613Z" fill="#AD6D58"/>
<path d="M173.131 334.251L174.837 313.154L173.015 313.008L171.31 334.103L172.17 334.804L173.131 334.251Z" fill="#989798"/>
<path d="M173.331 318.648C171.297 318.483 169.783 316.703 169.948 314.669C170.113 312.635 171.894 311.121 173.927 311.286C175.961 311.451 177.476 313.232 177.311 315.265C177.145 317.299 175.365 318.814 173.331 318.648Z" fill="#5A5758"/>
<path d="M170.6 302.496L170.759 300.542L178.776 301.19L178.619 303.144L170.6 302.496Z" fill="#5A5758"/>
<path d="M168.363 315.224L169.399 302.397L179.819 303.241L178.783 316.065L168.363 315.224Z" fill="#B2B1B3"/>
<path d="M168.363 315.224L169.399 302.397L172.458 302.646L171.42 315.471L168.363 315.224Z" fill="#989798"/>
<path d="M173.132 315.611L174.168 302.784L175.852 302.919L174.814 315.746L173.132 315.611Z" fill="#989798"/>
<path d="M177.101 315.929L178.137 303.104L179.819 303.24L178.783 316.064L177.101 315.929Z" fill="#C5C3C5"/>
<path d="M185.033 298.213L165.062 296.598L169.262 300.421L180.274 301.311L185.033 298.213Z" fill="#F0811F"/>
<path d="M185.032 298.212L188.302 257.76C188.43 256.164 187.242 254.766 185.646 254.637L171.452 253.489C169.856 253.36 168.459 254.549 168.329 256.145L168.108 258.878L153.303 250.612L147.457 261.084L162.264 269.349C165.177 270.976 166.874 274.153 166.604 277.478L165.059 296.597L185.03 298.21L185.032 298.212Z" fill="#F0811F"/>
<path d="M174.943 290.107L177.861 254.008L183.396 254.454L180.478 290.555L174.943 290.107Z" fill="#F6A22E"/>
<path d="M174.078 300.81L174.724 292.823L180.259 293.269L179.613 301.256L174.078 300.81Z" fill="#F6A22E"/>
<path d="M165.393 265.128L150.001 256.534L147.46 261.082L162.268 269.348C165.181 270.974 166.878 274.151 166.608 277.477L167.316 268.726C167.434 267.254 166.683 265.847 165.393 265.126V265.128Z" fill="#5A5758"/>
<path d="M151.857 268.549L153.307 250.613L142.445 249.735C140.84 249.606 139.435 250.801 139.306 252.404L138.092 267.436C137.963 269.041 139.158 270.446 140.761 270.575L148.718 271.218C150.323 271.347 151.728 270.152 151.857 268.549Z" fill="#F0811F"/>
<path d="M165.366 292.839L165.57 290.331L185.541 291.946L185.337 294.452L165.366 292.839Z" fill="#C86727"/>
<path d="M146.424 250.057L142.447 249.735C140.842 249.606 139.437 250.801 139.308 252.404L138.094 267.436C137.965 269.041 139.16 270.446 140.763 270.575L144.74 270.896L146.424 250.057Z" fill="#C86727"/>
<path d="M173.335 331.727L173.432 330.534L171.503 331.706L171.407 332.898L173.335 331.727Z" fill="#777778"/>
<path d="M173.603 328.41L173.7 327.22L171.771 328.389L171.675 329.582L173.603 328.41Z" fill="#777778"/>
<path d="M173.872 325.095L173.969 323.902L172.04 325.074L171.944 326.264L173.872 325.095Z" fill="#777778"/>
<path d="M172.308 321.758L172.212 322.951L174.14 321.78L174.237 320.587L172.308 321.758Z" fill="#777778"/>
<path fill-rule="evenodd" clip-rule="evenodd" d="M160.022 257.924C159.951 258.503 159.882 259.08 159.816 259.659C159.483 262.564 159.196 265.529 159.241 268.455C159.256 269.442 159.309 270.457 159.429 271.465C159.562 272.583 160.378 273.449 161.487 273.647C162.596 273.846 163.66 273.316 164.175 272.314C166.31 268.142 167.522 263.557 168.112 258.878L167.556 257.842C162.193 259.37 160.049 255.699 158.4 251.232L157.726 251.297C158.258 253.549 159.196 255.667 160.022 257.922V257.924Z" fill="#AD6D58"/>
<path fill-rule="evenodd" clip-rule="evenodd" d="M158.4 251.235C158.934 253.456 159.878 255.558 160.708 257.845C160.27 261.451 159.745 267.177 159.803 270.543C159.824 271.751 160.429 272.68 161.618 272.903C162.806 273.126 163.626 272.414 164.081 271.294C165.503 267.806 167.101 262.056 167.556 257.845L158.4 251.235Z" fill="#EEBD91"/>
<path fill-rule="evenodd" clip-rule="evenodd" d="M158.4 251.235C158.934 253.456 159.878 255.558 160.708 257.845C160.27 261.451 159.745 267.177 159.803 270.543C159.824 271.751 160.429 272.68 161.618 272.903C162.806 273.126 163.626 272.414 164.081 271.294C165.503 267.806 167.101 262.056 167.556 257.845L158.4 251.235Z" fill="#EEBD91"/>
<path fill-rule="evenodd" clip-rule="evenodd" d="M38.9871 112.258C19.7734 137.07 -3.21397 163.361 0.373046 181.513L46.1718 205.163L53.6827 196.534C46.7489 188.442 39.8152 180.35 32.8793 172.26C40.0533 166.929 46.5086 157.447 53.6827 152.116C55.8988 132.685 52.625 121.425 38.9871 112.26V112.258Z" fill="#80251E"/>
<path fill-rule="evenodd" clip-rule="evenodd" d="M130.184 215.081H94.8694L94.8715 258.002L116.104 330.739C115.954 335.922 116.507 341.865 117.567 348.275H146.124L130.184 215.079V215.081Z" fill="#21608D"/>
<path fill-rule="evenodd" clip-rule="evenodd" d="M59.5544 215.081H94.8689L94.871 258.002C85.9378 288.571 79.2593 318.526 71.8021 348.275H43.593L59.5565 215.079L59.5544 215.081Z" fill="#21608D"/>
<path fill-rule="evenodd" clip-rule="evenodd" d="M94.8707 258.002C85.8882 288.734 79.2677 318.566 71.8319 348.277H65.3101C73.0483 318.223 80.0164 288.079 88.9668 257.912L94.8707 258.004V258.002Z" fill="#1D4366"/>
<path fill-rule="evenodd" clip-rule="evenodd" d="M99.9036 257.512L90.419 253.195L87.6794 227.808V257.911L88.4196 261.264L94.8706 258.003L106.629 298.287L99.9036 257.512Z" fill="#1D4366"/>
<path fill-rule="evenodd" clip-rule="evenodd" d="M124.674 215.083C132.322 254.456 132.417 293.494 133.648 330.893L137.997 333.092C138.75 337.876 139.563 342.995 140.399 348.279H146.125L130.185 215.083H124.674Z" fill="#1D4366"/>
<path fill-rule="evenodd" clip-rule="evenodd" d="M58.4753 213.773H69.0884L69.5432 221.042C65.364 220.351 61.6655 219.428 58.7263 218.255L58.4753 213.773ZM72.4844 213.773H112.491L113.443 221.458C100.728 222.958 85.2642 223.129 72.9714 221.546L72.4844 213.776V213.773ZM115.908 213.773H129.993L130.793 217.905C127.176 219.182 122.327 220.233 116.807 221.02L115.908 213.773Z" fill="#2B2A29"/>
<path fill-rule="evenodd" clip-rule="evenodd" d="M76.2345 91.6117L109.037 89.3184C123.235 96.9213 137.433 104.526 151.628 112.129C139.361 121.936 132.955 136.588 137.407 171.604C139.016 184.257 129.001 199.441 129.99 213.774C115.417 219.822 72.9564 221.156 58.4732 213.774C57.2653 193.997 52.0715 189.88 49.8403 174.515C48.7977 167.341 51.5072 152.704 50.6705 144.848C48.8663 127.904 43.445 118.25 38.9849 112.258L76.2323 91.6117H76.2345Z" fill="#E31E24"/>
<path d="M88.1683 141.8C87.5011 142.538 87.0891 144.314 87.7799 145.177C87.4067 145.146 86.9797 145.101 86.5335 145.067C86.1838 144.057 86.5206 142.39 86.718 142.184C87.2736 141.931 87.7885 141.742 88.1683 141.798V141.8ZM82.9229 134.819C84.6864 134.845 86.5979 134.873 88.2669 134.347C92.1414 133.131 85.7419 128.271 90.4316 126.774C91.4828 126.439 93.094 126.903 93.4844 128.027C93.8234 129.001 93.7183 129.838 93.7376 130.837C93.7762 132.841 95.2586 133.236 96.9213 132.753L104.2 130.361C105.192 131.64 108.487 136.115 105.962 137.301C105.114 137.698 103.926 137.434 102.948 137.775C101.536 138.271 101.201 139.685 101.738 140.987C102.594 143.057 104.428 142.581 105.97 141.695C107.236 140.967 108.407 140.867 108.879 142.473C109.63 145.028 109.484 147.191 108.869 149.688C105.955 149.489 102.815 149.231 99.9655 149.825C96.7882 150.493 99.279 153.865 99.3712 155.172C99.5901 158.237 95.1471 159.001 94.1023 156.748C93.6861 155.852 94.1859 154.53 93.7848 153.363C93.2699 151.863 92.1822 151.748 90.822 152.235C89.2173 152.81 87.7134 153.601 86.2138 154.401C85.0382 152.591 83.116 149.223 83.2533 147.365C83.3884 145.507 86.703 146.221 87.855 146.305C91.9591 146.603 91.0773 141.105 88.3313 140.691C86.7588 140.455 85.4973 141.868 84.1844 142.047C82.8328 142.229 82.4166 141.566 82.2535 140.3C82.0776 138.571 82.5024 136.552 82.9165 134.817L82.9229 134.819ZM92.5705 153.387L91.5 155.096L89.4426 154.017C89.8566 153.826 90.2771 153.644 90.704 153.477L91.1374 153.706C91.2382 153.548 91.3412 153.38 91.4463 153.206C91.9526 153.039 92.3131 152.994 92.5705 153.389V153.387ZM84.2959 153.414C83.7231 154.86 84.9502 157.113 82.6676 158.237C80.6038 159.254 77.4308 157.965 77.6346 155.133C77.6861 154.414 78.0959 153.648 78.3426 152.962C78.7459 151.578 78.9797 150.662 77.4587 150.342C74.5775 149.737 71.2672 150.04 68.2552 150.244C67.5537 147.414 67.2984 145.202 68.1436 142.321C68.7272 140.33 70.2911 140.352 71.8229 141.231V141.233C75.4056 143.293 75.6716 139.981 75.4099 139.228C75.2747 138.839 74.9851 138.511 74.5282 138.318L74.3951 138.269C73.2646 137.882 70.6859 138.528 70.1602 136.359C69.9993 135.696 70.1345 134.95 70.3941 134.295H70.3962C71.0913 132.545 72.0074 131.204 73.1487 129.732L75.3155 130.513C76.5255 130.925 80.7196 132.39 81.7472 132.41C83.2919 132.438 83.2747 131.275 83.2683 130.202C83.2597 128.636 83.3219 127.1 85.0296 126.399C86.1731 125.929 87.3466 126.124 88.297 126.74C88.0395 127.01 87.8507 127.31 87.722 127.632C86.4799 126.798 84.8666 127.28 84.5491 128.199C83.9698 129.865 84.9481 132.026 83.2361 133.094C82.4359 133.594 81.3847 133.523 80.4643 133.257L73.5177 130.985C72.6703 132.116 71.9001 133.367 71.3831 134.68H71.3852C70.1796 137.728 73.522 136.703 74.9208 137.331C77.7676 138.608 76.5727 142.872 73.9554 142.973C73.0843 143.008 72.1447 142.634 71.3016 142.149L71.2994 142.152C70.7652 141.845 70.2718 141.667 69.8985 141.727C68.8194 141.905 68.6628 145.387 68.6757 146.09C68.6928 147.082 68.8366 148.075 69.0768 149.126C71.8958 148.931 74.8993 148.725 77.6754 149.304C80.3184 149.858 79.8701 152.078 79.1042 153.912C78.6708 154.957 78.3833 155.862 79.2114 156.753C80.1575 157.769 82.3372 157.851 82.9508 156.527C83.3541 155.658 82.5775 153.824 83.6909 152.314C83.8883 152.692 84.0921 153.061 84.2959 153.414ZM87.5139 133.394C87.308 132.637 87.5804 131.511 87.8851 130.786C88.4236 132.345 89.0672 133.008 87.5139 133.394Z" fill="#FEFEFE"/>
<path fill-rule="evenodd" clip-rule="evenodd" d="M67.7867 113.89C84.9151 117.693 101.82 117.586 118.52 113.89C124.816 133.129 131.111 152.366 137.407 171.605C137.56 179.118 136.051 188.789 132.773 200.936C140.091 239.667 144.618 278.396 146.017 317.128C112.577 324.733 78.8588 322.648 43.8403 313.672C44.3209 281.323 47.3995 245.447 56.3005 202.457L49.0492 177.198L67.7888 113.888L67.7867 113.89Z" fill="#203258"/>
<path fill-rule="evenodd" clip-rule="evenodd" d="M67.7856 113.889L69.0321 121.585L72.6127 114.859L76.234 91.6104L70.448 95.0235L67.7856 113.889Z" fill="#203258"/>
<path fill-rule="evenodd" clip-rule="evenodd" d="M118.521 113.89L118.146 121.696L113.527 114.885L109.037 89.3193L114.908 92.4644L118.521 113.89Z" fill="#203258"/>
<path fill-rule="evenodd" clip-rule="evenodd" d="M77.2706 79.1182C80.2505 59.583 105.48 59.583 108.46 79.1182L109.346 91.6125C98.2649 94.8755 87.2293 94.8626 76.2344 91.6125L77.2684 79.1182H77.2706Z" fill="#E31E24"/>
<path fill-rule="evenodd" clip-rule="evenodd" d="M109.547 36.7143C120.587 27.6869 123.125 48.6101 116.597 49.5776C115.387 49.7578 114.125 49.8393 112.782 49.6463L109.547 36.7143Z" fill="#E1A27A"/>
<path fill-rule="evenodd" clip-rule="evenodd" d="M119.99 40.9248C120.593 44.8357 119.478 49.1499 116.599 49.5768C115.389 49.757 114.127 49.8386 112.784 49.6455L112.016 46.5777C116.071 46.7579 119.977 45.5222 119.99 40.9248Z" fill="#AD6D58"/>
<path d="M112.276 41.8808C112.359 42.4429 112.653 43.1058 113.321 43.0093C113.979 42.9127 114.041 42.179 113.96 41.6341C113.96 41.632 113.96 41.632 113.96 41.6298C113.842 40.8618 113.702 40.1088 113.615 39.3365C113.546 38.7251 113.501 38.1587 113.612 37.5516C113.681 37.2813 113.76 37.0839 113.926 36.8608C114.121 36.6141 114.314 36.4811 114.601 36.3652C114.258 36.3738 114.011 36.4275 113.705 36.5819C113.396 36.7578 113.2 36.9445 112.988 37.2319C112.529 37.8755 112.351 38.5148 112.233 39.2936C112.126 40.1968 112.147 40.9755 112.274 41.8787C112.274 41.8808 112.274 41.8808 112.274 41.883L112.276 41.8808Z" fill="#AD6D58"/>
<path fill-rule="evenodd" clip-rule="evenodd" d="M59.8271 48.7561C45.8781 45.7805 53.198 65.5453 59.4452 63.4193C60.6037 63.0245 61.7643 62.5204 62.8692 61.7352L59.8292 48.7561H59.8271Z" fill="#E1A27A"/>
<path fill-rule="evenodd" clip-rule="evenodd" d="M52.4683 57.2783C53.7233 61.0305 56.686 64.3578 59.4449 63.4182C60.6034 63.0235 61.764 62.5193 62.8689 61.7341L62.1481 58.6556C58.6254 60.6722 54.5857 61.3608 52.4704 57.2783H52.4683Z" fill="#AD6D58"/>
<path d="M59.7645 54.6001C59.9469 55.1386 59.9898 55.8637 59.3505 56.0804C58.7219 56.2949 58.3293 55.6728 58.1512 55.1515C58.1512 55.1493 58.1512 55.1493 58.1491 55.1472C57.9024 54.4113 57.6814 53.6777 57.4068 52.9482C57.188 52.3733 56.967 51.8477 56.5915 51.3607C56.407 51.1505 56.2461 51.0132 55.9973 50.8887C55.712 50.7579 55.4803 50.73 55.1692 50.7579C55.4781 50.6077 55.7205 50.5434 56.0659 50.5391C56.4221 50.5541 56.6817 50.6313 57.0013 50.7901C57.7028 51.1526 58.1534 51.6396 58.6168 52.2789C59.1252 53.0341 59.4642 53.7356 59.7624 54.5958C59.7624 54.598 59.7624 54.598 59.7645 54.6001Z" fill="#AD6D58"/>
<path fill-rule="evenodd" clip-rule="evenodd" d="M57.8182 24.5693C56.3208 36.347 59.6053 60.3874 64.9472 83.443C68.5149 85.8629 72.2564 87.6693 76.4505 88.6197L76.2188 85.6334L77.5726 88.8514C82.6141 89.7867 89.7238 88.9436 95.5441 87.5599C96.8463 87.2381 98.1936 86.8627 99.5473 86.44L99.5001 81.9306L101.862 85.6677C105.749 84.2861 109.489 82.5184 112.115 80.4868L111.847 77.005L113.007 79.766C116.302 77.0028 118.802 73.684 120.868 69.8997C115.067 46.9556 106.987 24.0759 100.266 14.289C94.6259 10.4403 85.6197 10.2343 77.3494 12.4419C68.9847 14.2632 61.0706 18.5667 57.8182 24.5714V24.5693Z" fill="#76471D"/>
<path fill-rule="evenodd" clip-rule="evenodd" d="M96.6023 58.319C102.039 55.8905 107.067 52.3786 111.322 48.0065C107.604 34.0126 103.815 25.1697 99.314 20.0617C98.5803 19.2293 97.7587 18.6951 96.7096 18.3669C92.125 16.9381 85.2749 17.4015 78.9418 19.0169C72.5702 20.4779 66.2672 23.2003 62.8453 26.5684C62.0644 27.3386 61.5774 28.1903 61.305 29.2651C59.6402 35.8662 60.3181 45.4643 63.416 59.6062C68.9038 61.449 74.6576 62.2814 80.3084 62.0819C82.1491 61.3374 85.2492 60.43 88.804 59.6384C91.8461 58.9604 94.62 58.5013 96.6002 58.3168L96.6023 58.319Z" fill="#EEBD91"/>
<path fill-rule="evenodd" clip-rule="evenodd" d="M93.7081 17.7074C99.7944 9.84482 91.183 -0.291769 77.9141 0.00642884L78.5083 2.69021C73.4625 1.95222 68.5175 2.41347 63.714 4.53518C64.1152 6.29219 64.5958 7.62657 65.2351 8.37314C61.4486 8.27445 58.031 9.34282 54.7937 10.9733C56.5121 14.5473 58.4065 17.0338 62.4933 19.1426C61.2791 19.2477 59.8288 19.7261 58.7047 20.4684C61.4142 27.106 66.8055 30.1073 75.8524 28.1422C84.5003 26.1449 87.5917 17.1196 93.7059 17.7074H93.7081Z" fill="#76471D"/>
<path d="M100.202 60.8506C94.9461 68.0009 83.6337 68.6145 79.1929 65.9693C84.9317 66.3876 92.8609 65.2356 100.202 60.8506Z" fill="#E29278"/>
<path fill-rule="evenodd" clip-rule="evenodd" d="M78.6351 34.3379L67.5286 37.4121L65.0593 39.9758L67.6402 45.2897L79.4203 44.7062L78.6351 34.3379Z" fill="#D7956D"/>
<path fill-rule="evenodd" clip-rule="evenodd" d="M77.1848 32.4815C74.3572 32.8162 71.5318 33.1573 68.8673 34.0433C66.9815 34.6719 65.6943 36.3044 65.3017 38.5678L65.0571 39.9751C68.6549 38.3639 72.7246 37.4629 76.9852 36.8451C77.5752 36.7593 78.0365 36.4224 78.3475 35.8496C78.6586 35.2768 78.7315 34.629 78.5642 33.936L78.4655 33.5284C78.3046 32.8634 77.7533 32.4129 77.1848 32.4815Z" fill="#5D391C"/>
<path fill-rule="evenodd" clip-rule="evenodd" d="M86.2275 32.4995L97.5099 30.1504L100.88 31.3003L101.015 37.2042L90.2758 42.0762L86.2275 32.4995Z" fill="#D7956D"/>
<path fill-rule="evenodd" clip-rule="evenodd" d="M79.4178 44.707C75.4639 42.6218 71.5401 43.0787 67.6377 45.2884C69.1094 52.6211 78.6176 51.7715 79.4178 44.707ZM90.2732 42.0769C92.8348 38.4127 96.5333 37.0246 101.015 37.2049C103.059 44.3981 94.2206 47.9936 90.2732 42.0769Z" fill="#FEFEFE"/>
<mask id="mask0_1301_10942" style="mask-type:luminance" maskUnits="userSpaceOnUse" x="67" y="37" width="35" height="14">
<path d="M79.4166 44.705C75.4627 42.6198 71.5389 43.0768 67.6365 45.2864C69.1082 52.6191 78.6163 51.7696 79.4166 44.705ZM90.272 42.0749C92.8335 38.4107 96.5321 37.0227 101.014 37.2029C103.058 44.3961 94.2194 47.9917 90.272 42.0749Z" fill="white"/>
</mask>
<g mask="url(#mask0_1301_10942)">
<path d="M76.916 47.9455C78.2612 47.6196 79.0821 46.2422 78.7495 44.869C78.4168 43.4958 77.0566 42.6467 75.7114 42.9725C74.3662 43.2984 73.5453 44.6757 73.8779 46.049C74.2106 47.4222 75.5708 48.2713 76.916 47.9455Z" fill="#4658A2"/>
<path d="M76.6576 46.8776C77.4254 46.6916 77.894 45.9055 77.7041 45.1217C77.5142 44.3379 76.7379 43.8533 75.9701 44.0392C75.2023 44.2252 74.7337 45.0114 74.9236 45.7952C75.1135 46.579 75.8898 47.0636 76.6576 46.8776Z" fill="#2B2A29"/>
<path fill-rule="evenodd" clip-rule="evenodd" d="M74.8045 45.9069C75.3044 45.7846 75.6112 45.2719 75.4867 44.7613C75.3623 44.2507 74.856 43.9332 74.3561 44.0555C73.8563 44.1778 73.5495 44.6905 73.6739 45.2011C73.7984 45.7117 74.3047 46.0292 74.8045 45.9069Z" fill="#FEFEFE" fill-opacity="0.658824"/>
<path d="M98.7397 42.6584C100.085 42.3325 100.906 40.9551 100.573 39.5819C100.241 38.2086 98.8804 37.3596 97.5351 37.6854C96.1899 38.0112 95.369 39.3886 95.7017 40.7619C96.0343 42.1351 97.3945 42.9842 98.7397 42.6584Z" fill="#4658A2"/>
<path d="M98.4814 41.5905C99.2492 41.4045 99.7177 40.6184 99.5278 39.8346C99.338 39.0508 98.5616 38.5661 97.7938 38.7521C97.026 38.9381 96.5575 39.7243 96.7473 40.5081C96.9372 41.2919 97.7135 41.7765 98.4814 41.5905Z" fill="#2B2A29"/>
<path fill-rule="evenodd" clip-rule="evenodd" d="M96.5633 40.6374C97.0632 40.5151 97.37 40.0024 97.2455 39.4918C97.1211 38.9812 96.6148 38.6637 96.1149 38.786C95.6151 38.9083 95.3083 39.421 95.4327 39.9316C95.5571 40.4421 96.0634 40.7597 96.5633 40.6374Z" fill="#FEFEFE" fill-opacity="0.658824"/>
</g>
<path fill-rule="evenodd" clip-rule="evenodd" d="M90.2751 42.0758C90.6291 36.6225 97.5736 34.7239 101.017 37.2038C96.5353 37.0236 92.8388 38.4138 90.2751 42.0758Z" fill="#AD6D58"/>
<path fill-rule="evenodd" clip-rule="evenodd" d="M86.6672 30.1849C89.3338 29.1895 92.0005 28.1983 94.7766 27.7671C96.7396 27.4625 98.6317 28.3249 100.018 30.1591L100.88 31.3004C96.9455 31.515 92.9123 32.5748 88.8425 33.9756C88.2783 34.1687 87.7141 34.0808 87.1756 33.7139C86.6371 33.3471 86.2746 32.8043 86.1072 32.1114L86.0086 31.7038C85.8477 31.0387 86.1308 30.3865 86.6672 30.187V30.1849Z" fill="#5D391C"/>
<path fill-rule="evenodd" clip-rule="evenodd" d="M79.42 44.7067C76.6096 40.0192 69.5664 41.5102 67.6399 45.2902C71.5423 43.0784 75.4661 42.6236 79.42 44.7067Z" fill="#AD6D58"/>
<path fill-rule="evenodd" clip-rule="evenodd" d="M97.6282 45.5059C100.805 44.7357 103.255 43.6009 103.103 42.9701C102.951 42.3394 100.252 42.451 97.0747 43.2211C93.8974 43.9913 91.4474 45.1262 91.5998 45.7569C91.7521 46.3876 94.4509 46.2761 97.6282 45.5059Z" fill="#EEBD91"/>
<path fill-rule="evenodd" clip-rule="evenodd" d="M74.9648 50.9961C78.1421 50.226 80.5921 49.0911 80.4397 48.4604C80.2874 47.8296 77.5886 47.9412 74.4113 48.7114C71.2362 49.4815 68.7841 50.6164 68.9364 51.2471C69.0887 51.8778 71.7876 51.7663 74.9648 50.9961Z" fill="#EEBD91"/>
<path fill-rule="evenodd" clip-rule="evenodd" d="M83.3224 44.8516C83.7514 49.6764 83.4919 53.8061 82.3784 57.0777C84.395 58.4571 86.712 58.8368 89.177 58.7317C87.3771 58.47 85.7595 57.7513 84.7168 55.6103C85.3755 51.9461 84.7855 48.3699 83.3245 44.8537L83.3224 44.8516ZM91.1336 58.0002C91.8115 56.8996 92.5409 55.2499 92.8477 53.7331C94.2658 56.1016 93.5471 57.4531 91.1336 58.0002Z" fill="#AD6D58"/>
<path fill-rule="evenodd" clip-rule="evenodd" d="M98.9277 6.3916C98.9277 6.3916 99.2795 8.85871 98.1404 11.1048C97.0012 13.351 94.8709 14.5588 94.8044 14.5266C94.7378 14.4923 94.4525 12.0595 95.5917 9.81337C96.7309 7.56723 98.9277 6.3916 98.9277 6.3916Z" fill="#76471D"/>
<path fill-rule="evenodd" clip-rule="evenodd" d="M101.405 10.1612C101.405 10.1612 100.714 11.9826 99.0859 13.0895C97.4575 14.1965 95.5418 14.218 95.5096 14.1708C95.4774 14.1236 96.2004 12.3494 97.8287 11.2424C99.457 10.1354 101.405 10.1612 101.405 10.1612Z" fill="#76471D"/>
<path d="M101 43.2256C99.2109 47.5698 94.4847 47.2974 92.4595 45.3151C94.9009 45.9265 98.1682 45.6455 101 43.2256Z" fill="#D7956D"/>
<path d="M79.0487 48.5449C77.2594 52.8892 72.5333 52.6167 70.5081 50.6345C72.9495 51.2459 76.2168 50.9648 79.0487 48.5449Z" fill="#D7956D"/>
<path fill-rule="evenodd" clip-rule="evenodd" d="M135.362 327.939L128.662 332.196L137.995 333.092L135.362 327.939Z" fill="#1D4366"/>
<path fill-rule="evenodd" clip-rule="evenodd" d="M51.8414 167.76L50.6422 144.218L45.8109 149.317L21.4033 175.084L25.5395 174.887C28.9185 174.726 31.8962 176.028 34.0716 178.618L51.3459 199.174L53.68 196.531L32.8766 172.257L46.2206 159.464L49.8398 174.512L51.8393 167.758L51.8414 167.76Z" fill="#BA2322"/>
<path fill-rule="evenodd" clip-rule="evenodd" d="M113.528 114.885C100.643 114.977 87.9551 115.801 76.2351 112.776V91.6104L72.6138 114.857C86.3933 117.333 100.029 117.288 113.528 114.885Z" fill="#BA2322"/>
<path fill-rule="evenodd" clip-rule="evenodd" d="M58.6491 144.765L51.3442 158.003L50.1514 162.757L51.8419 167.76L58.6491 144.765Z" fill="#BA2322"/>
<path d="M110.729 144.219C110.416 144.566 110.221 145.401 110.547 145.809C110.371 145.794 110.172 145.772 109.959 145.757C109.794 145.283 109.953 144.498 110.047 144.401C110.309 144.281 110.551 144.193 110.729 144.221V144.219ZM108.262 140.934C109.092 140.947 109.991 140.96 110.777 140.713C112.598 140.141 109.588 137.856 111.796 137.15C112.289 136.993 113.048 137.21 113.233 137.74C113.392 138.197 113.342 138.592 113.353 139.062C113.372 140.003 114.068 140.19 114.851 139.963L118.275 138.836C118.74 139.437 120.291 141.544 119.103 142.101C118.704 142.288 118.144 142.164 117.685 142.325C117.02 142.558 116.863 143.223 117.116 143.835C117.519 144.809 118.382 144.584 119.109 144.167C119.703 143.826 120.255 143.777 120.478 144.534C120.83 145.736 120.763 146.755 120.474 147.928C119.103 147.834 117.627 147.714 116.286 147.992C114.791 148.306 115.962 149.893 116.007 150.507C116.11 151.948 114.02 152.309 113.529 151.249C113.334 150.826 113.568 150.206 113.379 149.657C113.136 148.951 112.624 148.898 111.984 149.127C111.229 149.398 110.521 149.769 109.815 150.146C109.262 149.295 108.359 147.709 108.423 146.836C108.488 145.961 110.045 146.298 110.588 146.336C112.519 146.476 112.105 143.891 110.813 143.695C110.073 143.584 109.481 144.249 108.863 144.333C108.228 144.418 108.031 144.107 107.955 143.511C107.872 142.698 108.071 141.747 108.269 140.932L108.262 140.934ZM112.802 149.67L112.298 150.475L111.33 149.966C111.525 149.876 111.723 149.79 111.922 149.713L112.126 149.82C112.173 149.745 112.223 149.666 112.272 149.584C112.51 149.505 112.679 149.483 112.8 149.67H112.802ZM108.91 149.683C108.64 150.363 109.217 151.423 108.144 151.953C107.172 152.431 105.681 151.824 105.776 150.492C105.799 150.155 105.992 149.792 106.108 149.471C106.299 148.821 106.409 148.387 105.692 148.239C104.336 147.954 102.779 148.098 101.363 148.194C101.032 146.862 100.912 145.824 101.311 144.468C101.586 143.53 102.322 143.541 103.043 143.955C104.727 144.925 104.853 143.365 104.731 143.011C104.669 142.829 104.531 142.674 104.317 142.582L104.255 142.558C103.723 142.376 102.511 142.681 102.262 141.659C102.187 141.346 102.249 140.997 102.371 140.688C102.697 139.864 103.128 139.233 103.665 138.542L104.684 138.909C105.254 139.102 107.226 139.793 107.711 139.802C108.438 139.815 108.43 139.267 108.425 138.763C108.421 138.027 108.451 137.305 109.253 136.974C109.792 136.753 110.343 136.845 110.789 137.135C110.667 137.262 110.579 137.403 110.519 137.556C109.936 137.163 109.176 137.39 109.026 137.822C108.754 138.607 109.213 139.621 108.408 140.126C108.031 140.362 107.537 140.327 107.104 140.203L103.834 139.134C103.435 139.667 103.073 140.254 102.83 140.872C102.264 142.307 103.836 141.825 104.493 142.119C105.832 142.719 105.269 144.725 104.038 144.772C103.628 144.787 103.186 144.614 102.789 144.384C102.538 144.24 102.307 144.157 102.131 144.185C101.622 144.268 101.549 145.907 101.556 146.238C101.562 146.703 101.631 147.171 101.745 147.666C103.071 147.574 104.484 147.478 105.791 147.75C107.033 148.01 106.823 149.054 106.464 149.917C106.261 150.408 106.125 150.835 106.514 151.253C106.958 151.732 107.983 151.77 108.273 151.146C108.462 150.736 108.097 149.874 108.621 149.164C108.713 149.342 108.809 149.516 108.904 149.681L108.91 149.683ZM110.425 140.265C110.328 139.909 110.455 139.379 110.599 139.038C110.852 139.772 111.154 140.083 110.425 140.265Z" fill="#FEFEFE"/>
<path fill-rule="evenodd" clip-rule="evenodd" d="M103.364 85.1091L105.958 96.8483L102.29 101.235L108.447 97.9595L113.527 114.886L109.281 90.7127L108.711 82.6699L103.364 85.1091Z" fill="#BA2322"/>
<path fill-rule="evenodd" clip-rule="evenodd" d="M136.517 208.01C125.561 211.374 120.504 211.395 110.758 212.438L106.085 213.174C108.258 228.107 109.524 242.242 109.767 255.352L137.317 252.051C139.623 251.774 142.075 250.174 141.889 247.859C140.898 235.566 138.757 221.199 136.519 208.01H136.517Z" fill="#223D6F"/>
<path fill-rule="evenodd" clip-rule="evenodd" d="M109.615 212.556C111.719 223.456 111.93 235.952 112.391 245.302C111.494 235.341 110.771 222.628 108.495 212.781L109.615 212.556Z" fill="#203258"/>
<path fill-rule="evenodd" clip-rule="evenodd" d="M115.879 252.617L136.849 250.105C138.754 249.877 140.308 248.717 141.059 247.037C140.222 247.983 139.053 248.61 137.705 248.771L118.481 251.075C116.595 251.3 114.96 251.283 113.081 251.012L112.714 250.961L112.48 248.093L111.38 253.252L115.877 252.617H115.879Z" fill="#203258"/>
<path fill-rule="evenodd" clip-rule="evenodd" d="M42.7093 213.995C43.3486 211.196 44.3226 208.48 45.5133 205.871L45.5455 205.8L53.6506 196.485L56.9008 203.47C58.6213 207.167 58.1429 210.868 58.2009 214.8L58.351 224.936C58.3896 227.642 55.6865 228.777 53.4446 229.259L42.5892 231.602C39.7123 232.224 37.6635 228.959 36.7045 226.717C35.8893 224.806 37.0542 221.232 37.9038 219.466L37.9059 219.462C38.1526 218.951 38.4251 218.453 38.7233 217.99C39.6179 216.503 40.978 214.62 42.7072 213.993L42.7093 213.995Z" fill="#AD6D58"/>
<path fill-rule="evenodd" clip-rule="evenodd" d="M53.5087 197.245L45.9979 205.874C43.919 210.426 42.664 214.978 42.4366 219.533L41.7737 216.746C41.7093 216.474 41.5162 216.272 41.2481 216.195C40.9799 216.117 40.7096 216.186 40.5101 216.381C37.8692 218.973 36.3739 224.364 37.1955 226.288C38.1159 228.442 39.9952 231.392 42.4709 230.858L53.3264 228.515C55.5489 228.035 57.8402 227.001 57.8058 224.727L57.6578 214.59C57.5999 210.64 58.0761 207.06 56.4092 203.479L53.5087 197.247V197.245Z" fill="#EEBD91"/>
<path fill-rule="evenodd" clip-rule="evenodd" d="M43.1617 214.196C41.5634 214.617 39.9716 216.41 38.384 219.483C40.3685 219.249 41.4948 220.435 41.2052 223.964C41.158 224.528 41.8101 224.923 42.1105 225.404L43.1617 214.194V214.196Z" fill="#AD6D58"/>
<path fill-rule="evenodd" clip-rule="evenodd" d="M66.9485 233.395L75.5535 235.403L90.6846 170.586L82.0817 168.576L66.9485 233.395Z" fill="#B2B3B3"/>
<path fill-rule="evenodd" clip-rule="evenodd" d="M86.6536 173.671L89.7922 174.405L90.084 173.158L86.9453 172.427L86.6536 173.671Z" fill="#727271"/>
<path fill-rule="evenodd" clip-rule="evenodd" d="M85.6018 178.174C86.6487 178.419 87.6957 178.663 88.7404 178.908C88.837 178.492 88.9335 178.078 89.0322 177.661C87.9853 177.417 86.9384 177.172 85.8936 176.928C85.797 177.344 85.7005 177.758 85.6018 178.174Z" fill="#727271"/>
<path fill-rule="evenodd" clip-rule="evenodd" d="M84.551 182.677C85.598 182.922 86.6427 183.166 87.6897 183.411C87.7862 182.995 87.8827 182.581 87.9814 182.164C86.9345 181.92 85.8897 181.675 84.8428 181.431C84.7463 181.847 84.6497 182.261 84.551 182.677Z" fill="#727271"/>
<path fill-rule="evenodd" clip-rule="evenodd" d="M83.4998 187.18C84.5467 187.425 85.5915 187.669 86.6384 187.914C86.7349 187.498 86.8315 187.083 86.9302 186.667C85.8832 186.423 84.8385 186.178 83.7915 185.934C83.695 186.35 83.5984 186.764 83.4998 187.18Z" fill="#727271"/>
<path fill-rule="evenodd" clip-rule="evenodd" d="M82.4487 191.683C83.4957 191.928 84.5404 192.172 85.5874 192.417C85.6839 192 85.7804 191.586 85.8791 191.17C84.8322 190.926 83.7874 190.681 82.7405 190.437C82.644 190.853 82.5474 191.267 82.4487 191.683Z" fill="#727271"/>
<path fill-rule="evenodd" clip-rule="evenodd" d="M81.3967 196.188C82.4437 196.432 83.4884 196.677 84.5354 196.922C84.6319 196.505 84.7284 196.091 84.8271 195.675C83.7802 195.431 82.7354 195.186 81.6885 194.941C81.592 195.358 81.4954 195.772 81.3967 196.188Z" fill="#727271"/>
<path fill-rule="evenodd" clip-rule="evenodd" d="M80.3457 200.688C81.3926 200.932 82.4374 201.177 83.4843 201.422C83.5809 201.005 83.6774 200.591 83.7761 200.175C82.7292 199.931 81.6822 199.686 80.6375 199.441C80.5409 199.858 80.4444 200.272 80.3457 200.688Z" fill="#727271"/>
<path fill-rule="evenodd" clip-rule="evenodd" d="M79.2969 205.19C80.3438 205.434 81.3886 205.679 82.4355 205.923C82.5321 205.507 82.6286 205.093 82.7273 204.677C81.6803 204.432 80.6334 204.188 79.5886 203.943C79.4921 204.36 79.3956 204.774 79.2969 205.19Z" fill="#727271"/>
<path fill-rule="evenodd" clip-rule="evenodd" d="M78.2456 209.692C79.2925 209.936 80.3395 210.181 81.3842 210.425C81.4808 210.009 81.5773 209.595 81.676 209.179C80.6291 208.934 79.5822 208.69 78.5374 208.445C78.4408 208.862 78.3443 209.276 78.2456 209.692Z" fill="#727271"/>
<path fill-rule="evenodd" clip-rule="evenodd" d="M77.1948 214.197C78.2418 214.441 79.2865 214.686 80.3335 214.93C80.43 214.514 80.5265 214.1 80.6252 213.684C79.5783 213.439 78.5335 213.195 77.4866 212.95C77.39 213.366 77.2935 213.78 77.1948 214.197Z" fill="#727271"/>
<path fill-rule="evenodd" clip-rule="evenodd" d="M76.1428 218.7C77.1897 218.944 78.2345 219.189 79.2815 219.433C79.378 219.017 79.4745 218.603 79.5732 218.187C78.5263 217.942 77.4815 217.698 76.4346 217.453C76.338 217.869 76.2415 218.283 76.1428 218.7Z" fill="#727271"/>
<path fill-rule="evenodd" clip-rule="evenodd" d="M75.092 223.2C76.139 223.444 77.1838 223.689 78.2307 223.933C78.3272 223.517 78.4238 223.103 78.5224 222.687C77.4755 222.442 76.4307 222.198 75.3838 221.953C75.2873 222.369 75.1907 222.783 75.092 223.2Z" fill="#727271"/>
<path fill-rule="evenodd" clip-rule="evenodd" d="M74.0408 227.702C75.0877 227.947 76.1325 228.192 77.1794 228.436C77.2759 228.02 77.3725 227.606 77.4712 227.19C76.4242 226.945 75.3795 226.701 74.3325 226.456C74.236 226.872 74.1395 227.286 74.0408 227.702Z" fill="#727271"/>
<path fill-rule="evenodd" clip-rule="evenodd" d="M72.9893 232.205L76.1279 232.939L76.4197 231.693L73.2789 230.959L72.9893 232.205Z" fill="#727271"/>
<path fill-rule="evenodd" clip-rule="evenodd" d="M51.113 214.71L45.4429 205.154L47.2879 216.11L55.2535 237.855L59.0765 236.454L51.113 214.71Z" fill="#FCD5A6"/>
<path fill-rule="evenodd" clip-rule="evenodd" d="M59.077 236.454L55.254 237.855L47.3076 216.161L48.3073 217.796L47.9662 215.874L49.5795 217.905L49.4358 214.655L51.0512 217.29L51.1328 214.76L59.077 236.454Z" fill="#009846"/>
<path fill-rule="evenodd" clip-rule="evenodd" d="M45.4429 205.154L48.0216 209.499L47.8778 211.002L46.3654 210.631L45.4429 205.154Z" fill="#009846"/>
<path fill-rule="evenodd" clip-rule="evenodd" d="M47.5204 221.504C56.2262 224.188 66.526 224.969 78.4413 223.817L83.1589 224.168C80.7883 238.282 80.563 252.394 82.9293 266.508L55.2029 265.466C52.8816 265.378 50.9637 263.887 50.3051 261.66C46.141 247.58 45.5253 234.262 47.5226 221.504H47.5204Z" fill="#223D6F"/>
<path fill-rule="evenodd" clip-rule="evenodd" d="M78.7718 223.84C76.8775 234.875 78.1454 247.346 78.6216 256.704C78.7482 246.705 78.2526 233.974 80.5503 223.975L78.7697 223.842L78.7718 223.84Z" fill="#203258"/>
<path fill-rule="evenodd" clip-rule="evenodd" d="M76.2083 263.774L55.1024 262.981C53.1844 262.908 51.5433 261.878 50.6572 260.267C51.5669 261.142 52.7854 261.67 54.1391 261.721L73.488 262.449C75.3845 262.519 77.0128 262.367 78.8642 261.947L79.2246 261.865V258.988L80.7414 264.04L76.2083 263.774Z" fill="#203258"/>
<path fill-rule="evenodd" clip-rule="evenodd" d="M72.0916 189.952C70.0299 190.349 70.3582 201.129 66.7154 212.098L66.7089 212.113C66.0718 213.55 54.2037 236.38 54.6435 244.037L69.3541 213.756C69.3584 213.758 69.3627 213.76 69.367 213.765C69.8197 212.69 71.0618 208.539 71.3901 207.442C74.2519 206.668 75.4855 206.636 76.6268 204.027C77.7682 201.418 79.0983 196.814 77.2404 194.15C76.275 192.764 73.2157 189.733 72.0937 189.947L72.0916 189.952ZM73.5268 192.708C74.6703 193.667 76.5839 195.293 76.6547 196.935C76.7255 198.576 75.6486 203.413 74.7883 204.274C73.928 205.134 72.0315 205.557 71.3965 205.203C70.7615 204.849 70.7593 203.572 70.7937 202.894C70.8559 201.661 71.9436 194.3 72.2053 193.682C72.467 193.064 72.3812 191.747 73.5268 192.706V192.708Z" fill="#898989"/>
<path fill-rule="evenodd" clip-rule="evenodd" d="M64.6278 214.413L64.4133 220.911L64.0894 245.88L64.9454 245.248C67.0993 235.778 68.1441 224.595 69.4098 213.754L67.5498 212.647L64.6278 214.411V214.413Z" fill="#B5B5B6"/>
<path fill-rule="evenodd" clip-rule="evenodd" d="M64.0894 245.88L64.7244 245.41C65.7563 237.93 66.5415 229.968 67.0757 221.516L64.4197 220.937L64.0894 245.88Z" fill="#E6E7E7"/>
<path fill-rule="evenodd" clip-rule="evenodd" d="M57.0742 195.202C54.798 196.854 54.3539 199.274 54.9568 201.975C55.4545 204.215 57.7028 207.064 62.1072 205.886C62.8409 208.33 63.5789 210.874 64.6494 214.394C64.6494 214.394 66.7132 213.193 67.5499 212.648C66.6789 210.194 65.5826 206.066 64.5336 202.037C63.4394 197.91 61.7082 195.209 60.2879 194.662C58.8656 194.115 57.9838 194.544 57.0764 195.202H57.0742ZM61.5086 198.566C62.0965 199.684 63.1219 201.724 62.6607 202.936C62.1973 204.148 60.9294 204.687 59.6915 204.457C57.426 204.324 55.993 201.576 56.2118 199.321C56.4328 197.067 57.7908 196.415 58.9879 196.134C60.1828 195.853 60.9208 197.444 61.5086 198.564V198.566Z" fill="#E31E24"/>
<path fill-rule="evenodd" clip-rule="evenodd" d="M65.4018 216.082C65.6163 215.335 66.3822 214.9 67.1138 215.108C67.8454 215.316 68.2659 216.092 68.0535 216.839C67.8411 217.585 67.0752 218.023 66.3436 217.813C65.6121 217.605 65.1916 216.828 65.404 216.082H65.4018Z" fill="#D9DADA"/>
<path fill-rule="evenodd" clip-rule="evenodd" d="M65.4022 216.082C65.4194 216.026 65.4387 215.97 65.4601 215.919L68.0903 216.672C68.0817 216.728 68.0689 216.786 68.0538 216.841C68.0388 216.897 68.0195 216.953 67.9959 217.004L65.3657 216.251C65.3743 216.196 65.3872 216.138 65.4022 216.082Z" fill="#979898"/>
<path fill-rule="evenodd" clip-rule="evenodd" d="M67.5509 212.65L69.3787 213.738C69.8421 212.618 71.065 208.531 71.3889 207.448C71.6571 207.375 71.9081 207.311 72.1483 207.248C74.4782 206.646 75.5895 206.399 76.6257 204.035C77.767 201.426 79.0971 196.822 77.2392 194.158C76.9024 193.675 76.3103 192.991 75.6367 192.315C74.3774 191.051 72.8241 189.816 72.0947 189.955C70.0953 190.341 70.342 200.486 67.0403 211.101C67.2183 211.67 67.39 212.191 67.553 212.652L67.5509 212.65ZM71.3996 205.206C70.7646 204.852 70.7625 203.576 70.7968 202.898C70.859 201.664 71.9467 194.304 72.2084 193.686C72.4701 193.068 72.3843 191.751 73.5299 192.71C74.0126 193.113 74.6305 193.634 75.1904 194.226C75.9606 195.04 76.6171 195.986 76.66 196.936C76.7308 198.577 75.6538 203.415 74.7936 204.275C74.2744 204.794 73.3798 205.155 72.6117 205.281C72.1054 205.365 71.6549 205.346 71.4039 205.206H71.3996Z" fill="#A82621"/>
<path fill-rule="evenodd" clip-rule="evenodd" d="M60.0759 223.953L64.3344 224.249L63.6843 228.315L61.6849 240.549L57.8361 247.856H49.804L51.2842 233.088L58.7801 224.605L60.0759 223.953Z" fill="#223D6F"/>
</svg>
