<?xml version="1.0" encoding="UTF-8"?>
<!DOCTYPE svg PUBLIC "-//W3C//DTD SVG 1.1//EN" "http://www.w3.org/Graphics/SVG/1.1/DTD/svg11.dtd">
<!-- Creator: CorelDRAW 2020 (64-Bit) -->
<svg xmlns="http://www.w3.org/2000/svg" xml:space="preserve" width="90.4146mm" height="167.221mm" version="1.1" style="shape-rendering:geometricPrecision; text-rendering:geometricPrecision; image-rendering:optimizeQuality; fill-rule:evenodd; clip-rule:evenodd"
viewBox="0 0 877.77 1623.44"
 xmlns:xlink="http://www.w3.org/1999/xlink"
 xmlns:xodm="http://www.corel.com/coreldraw/odm/2003">
 <defs>
  <style type="text/css">
   <![CDATA[
    .fil27 {fill:none}
    .fil24 {fill:#FEFEFE}
    .fil36 {fill:#E6E7E7}
    .fil37 {fill:#D9DADA}
    .fil35 {fill:#B5B5B6}
    .fil30 {fill:#B2B3B3}
    .fil38 {fill:#979898}
    .fil34 {fill:#898989}
    .fil31 {fill:#727271}
    .fil14 {fill:#2B2A29}
    .fil32 {fill:#FCD5A6}
    .fil15 {fill:#E31E24}
    .fil1 {fill:#BA2322}
    .fil3 {fill:#EEBD91}
    .fil39 {fill:#A82621}
    .fil18 {fill:#E1A27A}
    .fil22 {fill:#D7956D}
    .fil0 {fill:#80251E}
    .fil20 {fill:#76471D}
    .fil23 {fill:#5D391C}
    .fil2 {fill:#AD6D58}
    .fil25 {fill:#4658A2}
    .fil12 {fill:#21608D}
    .fil13 {fill:#1D4366}
    .fil29 {fill:#223D6F}
    .fil33 {fill:#009846}
    .fil17 {fill:#203258}
    .fil16 {fill:#FEFEFE;fill-rule:nonzero}
    .fil9 {fill:#F6A22E;fill-rule:nonzero}
    .fil8 {fill:#F0811F;fill-rule:nonzero}
    .fil21 {fill:#E29278;fill-rule:nonzero}
    .fil28 {fill:#D7956D;fill-rule:nonzero}
    .fil10 {fill:#C86727;fill-rule:nonzero}
    .fil19 {fill:#AD6D58;fill-rule:nonzero}
    .fil7 {fill:#C5C3C5;fill-rule:nonzero}
    .fil6 {fill:#B2B1B3;fill-rule:nonzero}
    .fil4 {fill:#989798;fill-rule:nonzero}
    .fil11 {fill:#777778;fill-rule:nonzero}
    .fil5 {fill:#5A5758;fill-rule:nonzero}
    .fil26 {fill:#FEFEFE;fill-opacity:0.658824}
   ]]>
  </style>
     <clipPath id="id0">
      <path d="M370.19 208.39c-18.43,-9.72 -36.72,-7.59 -54.91,2.71 6.86,34.18 51.18,30.22 54.91,-2.71zm50.6 -12.26c11.94,-17.08 29.18,-23.55 50.07,-22.71 9.53,33.53 -31.67,50.29 -50.07,22.71z"/>
     </clipPath>
 </defs>
 <g id="Слой_x0020_1">
  <metadata id="CorelCorpID_0Corel-Layer"/>
  <g id="_2498623291216">
   <path class="fil0" d="M706.78 522.68l95.98 610.52 -57.98 -4.57c-48.54,-117.9 -97.09,-235.81 -145.63,-353.71 -2.51,-150.7 20.94,-256.34 107.63,-252.25z"/>
   <path class="fil1" d="M756.73 1109.51l-115.84 -277.17 -6.13 29.06 108.55 263.64c3.45,-6.07 8,-11.24 13.42,-15.53z"/>
   <g>
    <path class="fil2" d="M745.9 1202.27c-0.33,2.7 -0.65,5.39 -0.96,8.09 -1.55,13.54 -2.89,27.36 -2.68,41 0.07,4.6 0.32,9.33 0.88,14.03 0.62,5.21 4.42,9.25 9.59,10.17 5.17,0.93 10.13,-1.54 12.53,-6.21 9.95,-19.45 15.6,-40.82 18.35,-62.63l2.05 1.04c6.24,3.17 10.11,8.7 10.94,15.65l2.88 24.01c-13.91,21.64 -24.62,45.52 -6.67,68.56l3.49 4.48 0.96 -2.68c2.03,6.17 5.55,11.72 10.4,16.73l3.95 4.08 5.32 -21.89c3.01,5.33 7.1,9.88 12.39,13.54l4.34 3.01 0.55 -5.25c2.28,-21.73 5.21,-44.29 12.04,-65.11l0.2 -0.61 -6.25 -68.48 -0.37 -0.62c-5.46,-9.03 -10.19,-18.62 -14.55,-28.23 -4.82,-10.63 -9.24,-21.46 -13.49,-32.33 -1.95,-4.99 -3.87,-9.98 -5.78,-14.99 -1.38,-3.62 -2.73,-7.25 -4.18,-10.83 -1.5,-3.7 -3.15,-7.33 -4.83,-10.95l-0.97 -2.09 -2.29 0.31c-33.98,4.56 -59.93,23.62 -60.53,59.98 -0.29,17.6 6.8,32.16 12.69,48.22z"/>
    <path class="fil3" d="M736.35 1154.1c-0.28,17.28 6.85,31.55 12.76,47.8 -2.04,16.81 -4.49,43.5 -4.22,59.19 0.1,5.63 2.92,9.96 8.46,11 5.54,1.04 9.36,-2.28 11.48,-7.5 6.63,-16.26 14.08,-43.06 16.2,-62.69l6.06 3.08c7.18,3.64 11.67,10.08 12.63,18.07l3.01 25.13c-14.34,22.1 -24.18,44.4 -7.44,65.89l3.08 -8.57c0.17,9.44 3.45,18.48 11.55,26.85l6.19 -25.47 0 -0c2.69,8.61 7.52,15.64 15,20.82 2.29,-21.84 5.35,-44.94 12.17,-65.76l-6.12 -67.12c-12.56,-20.77 -23.78,-49.02 -34.07,-76.06 -3.64,-9.55 -4.57,-12.18 -8.92,-21.58 -34.39,4.62 -57.27,23.72 -57.81,56.93z"/>
    <path class="fil2" d="M816.11 1306.87c-1.16,-18.65 -0.06,-34.26 2.25,-48.26l-10.36 -41.55c-1.42,-5.7 -5.58,-9.86 -11.29,-11.27l-15.69 -3.89 14.86 5.5c5.01,1.85 8.46,5.76 9.69,10.95l9.54 40.39c-2.04,18.31 -3.06,36.69 -0.74,55.28l2.5 0.73 -0.76 -7.88z"/>
    <path class="fil2" d="M795.28 1314.06c0.84,-22.46 3.89,-43.16 14.84,-59.73l2.02 -14.05 2.26 4.57 -1.72 11.84c-10.51,14.22 -14.81,37.05 -13.55,55.94l-1.51 1.64 -2.33 -0.21z"/>
   </g>
   <g>
    <polygon class="fil4" points="807.01,1558.06 814.96,1459.72 806.47,1459.04 798.52,1557.37 802.53,1560.64 "/>
    <path class="fil5" d="M807.94 1485.33c-9.48,-0.77 -16.54,-9.07 -15.77,-18.55 0.77,-9.48 9.07,-16.54 18.55,-15.77 9.48,0.77 16.54,9.07 15.77,18.55 -0.77,9.48 -9.07,16.54 -18.55,15.77z"/>
    <polygon class="fil5" points="795.21,1410.04 795.95,1400.93 833.32,1403.95 832.59,1413.06 "/>
    <polygon class="fil6" points="784.78,1469.37 789.61,1409.58 838.18,1413.51 833.35,1473.29 "/>
    <polygon class="fil4" points="784.78,1469.37 789.61,1409.58 803.87,1410.74 799.03,1470.52 "/>
    <polygon class="fil4" points="807.01,1471.17 811.84,1411.38 819.69,1412.01 814.85,1471.8 "/>
    <polygon class="fil7" points="825.51,1472.66 830.34,1412.88 838.18,1413.51 833.35,1473.29 "/>
    <polygon class="fil8" points="862.48,1390.07 769.39,1382.54 788.97,1400.36 840.3,1404.51 "/>
    <path class="fil8" d="M862.48 1390.07l15.24 -188.56c0.6,-7.44 -4.94,-13.96 -12.38,-14.56l-66.16 -5.35c-7.44,-0.6 -13.95,4.94 -14.56,12.38l-1.03 12.74 -69.01 -38.53 -27.25 48.81 69.02 38.53c13.58,7.58 21.49,22.39 20.23,37.89l-7.2 89.12 93.09 7.52z"/>
    <polygon class="fil9" points="815.45,1352.29 829.05,1184.02 854.85,1186.1 841.25,1354.38 "/>
    <polygon class="fil9" points="811.42,1402.18 814.43,1364.95 840.23,1367.03 837.22,1404.26 "/>
    <path class="fil5" d="M770.94 1235.85l-71.75 -40.06 -11.84 21.2 69.02 38.53c13.58,7.58 21.49,22.39 20.23,37.89l3.3 -40.79c0.55,-6.86 -2.95,-13.42 -8.96,-16.78z"/>
    <path class="fil8" d="M707.84 1251.8l6.76 -83.61 -50.63 -4.09c-7.48,-0.6 -14.03,4.97 -14.63,12.44l-5.66 70.07c-0.6,7.48 4.97,14.03 12.44,14.63l37.09 3c7.48,0.6 14.03,-4.97 14.63,-12.44z"/>
    <polygon class="fil10" points="770.81,1365.02 771.76,1353.33 864.85,1360.86 863.9,1372.54 "/>
    <path class="fil10" d="M682.52 1165.6l-18.54 -1.5c-7.48,-0.6 -14.03,4.97 -14.63,12.44l-5.66 70.07c-0.6,7.48 4.97,14.03 12.44,14.63l18.54 1.5 7.85 -97.14z"/>
    <polygon class="fil11" points="807.96,1546.29 808.41,1540.73 799.42,1546.19 798.97,1551.75 "/>
    <polygon class="fil11" points="809.21,1530.83 809.66,1525.28 800.67,1530.73 800.22,1536.29 "/>
    <polygon class="fil11" points="810.46,1515.38 810.91,1509.82 801.92,1515.28 801.47,1520.83 "/>
    <polygon class="fil11" points="803.17,1499.82 802.72,1505.38 811.71,1499.92 812.16,1494.36 "/>
   </g>
   <g>
    <path class="fil2" d="M745.9 1202.27c-0.33,2.7 -0.65,5.39 -0.96,8.09 -1.55,13.54 -2.89,27.36 -2.68,41 0.07,4.6 0.32,9.33 0.88,14.03 0.62,5.21 4.42,9.25 9.59,10.17 5.17,0.93 10.13,-1.54 12.53,-6.21 9.95,-19.45 15.6,-40.82 18.35,-62.63l-2.59 -4.83c-25,7.12 -34.99,-9.99 -42.68,-30.81l-3.14 0.3c2.48,10.5 6.85,20.37 10.7,30.88z"/>
    <path class="fil3" d="M738.34 1171.09c2.49,10.35 6.89,20.15 10.76,30.81 -2.04,16.81 -4.49,43.5 -4.22,59.19 0.1,5.63 2.92,9.96 8.46,11 5.54,1.04 9.36,-2.28 11.48,-7.5 6.63,-16.26 14.08,-43.06 16.2,-62.69l-42.68 -30.81z"/>
    <path class="fil3" d="M738.34 1171.09c2.49,10.35 6.89,20.15 10.76,30.81 -2.04,16.81 -4.49,43.5 -4.22,59.19 0.1,5.63 2.92,9.96 8.46,11 5.54,1.04 9.36,-2.28 11.48,-7.5 6.63,-16.26 14.08,-43.06 16.2,-62.69l-42.68 -30.81z"/>
   </g>
   <path class="fil0" d="M181.73 523.27c-89.56,115.66 -196.71,238.21 -179.99,322.82l213.48 110.24 35.01 -40.22c-32.32,-37.72 -64.64,-75.44 -96.97,-113.15 33.44,-24.85 63.53,-69.05 96.97,-93.9 10.33,-90.57 -4.93,-143.06 -68.5,-185.78z"/>
   <path class="fil12" d="M606.82 1002.57l-164.61 0 0.01 200.07 98.97 339.05c-0.7,24.16 1.88,51.86 6.82,81.74l133.11 0 -74.3 -620.87z"/>
   <path class="fil12" d="M277.6 1002.57l164.61 0 0.01 200.07c-41.64,142.49 -72.77,282.12 -107.53,420.79l-131.49 0 74.41 -620.87z"/>
   <path class="fil13" d="M442.22 1202.64c-41.87,143.25 -72.73,282.31 -107.39,420.8l-30.4 0c36.07,-140.09 68.55,-280.6 110.27,-421.22l27.52 0.43z"/>
   <polygon class="fil13" points="465.68,1200.35 421.47,1180.23 408.7,1061.89 408.7,1202.21 412.15,1217.84 442.22,1202.64 497.03,1390.42 "/>
   <path class="fil13" d="M581.14 1002.57c35.65,183.53 36.09,365.5 41.83,539.83l20.27 10.25c3.51,22.3 7.3,46.16 11.2,70.79l26.69 0 -74.3 -620.87 -25.69 0z"/>
   <path class="fil14" d="M272.57 996.47l49.47 0 2.12 33.88c-19.48,-3.22 -36.72,-7.52 -50.42,-12.99l-1.17 -20.89zm65.3 0l186.48 0 4.44 35.82c-59.27,6.99 -131.35,7.79 -188.65,0.41l-2.27 -36.22zm202.41 0l65.65 0 3.73 19.26c-16.86,5.95 -39.46,10.85 -65.19,14.52l-4.19 -33.78z"/>
   <path class="fil15" d="M355.35 427.03l152.9 -10.69c66.18,35.44 132.36,70.89 198.53,106.33 -57.18,45.71 -87.04,114.01 -66.29,277.23 7.5,58.98 -39.18,129.76 -34.57,196.57 -67.93,28.19 -265.85,34.41 -333.36,0 -5.63,-92.19 -29.84,-111.38 -40.24,-183 -4.86,-33.44 7.77,-101.67 3.87,-138.29 -8.41,-78.98 -33.68,-123.98 -54.47,-151.91l173.62 -96.24z"/>
   <path class="fil16" d="M410.98 660.98c-3.11,3.44 -5.03,11.72 -1.81,15.74 -1.74,-0.14 -3.73,-0.35 -5.81,-0.51 -1.63,-4.71 -0.06,-12.48 0.86,-13.44 2.59,-1.18 4.99,-2.06 6.76,-1.8zm-24.45 -32.54c8.22,0.12 17.13,0.25 24.91,-2.2 18.06,-5.67 -11.77,-28.32 10.09,-35.3 4.9,-1.56 12.41,0.6 14.23,5.84 1.58,4.54 1.09,8.44 1.18,13.1 0.18,9.34 7.09,11.18 14.84,8.93l33.93 -11.15c4.62,5.96 19.98,26.82 8.21,32.35 -3.95,1.85 -9.49,0.62 -14.05,2.21 -6.58,2.31 -8.14,8.9 -5.64,14.97 3.99,9.65 12.54,7.43 19.73,3.3 5.9,-3.39 11.36,-3.86 13.56,3.63 3.5,11.91 2.82,21.99 -0.05,33.63 -13.58,-0.93 -28.22,-2.13 -41.5,0.64 -14.81,3.11 -3.2,18.83 -2.77,24.92 1.02,14.29 -19.69,17.85 -24.56,7.35 -1.94,-4.18 0.39,-10.34 -1.48,-15.78 -2.4,-6.99 -7.47,-7.53 -13.81,-5.26 -7.48,2.68 -14.49,6.37 -21.48,10.1 -5.48,-8.44 -14.44,-24.14 -13.8,-32.8 0.63,-8.66 16.08,-5.33 21.45,-4.94 19.13,1.39 15.02,-24.24 2.22,-26.17 -7.33,-1.1 -13.21,5.49 -19.33,6.32 -6.3,0.85 -8.24,-2.24 -9,-8.14 -0.82,-8.06 1.16,-17.47 3.09,-25.56zm44.97 86.55l-4.99 7.97 -9.59 -5.03c1.93,-0.89 3.89,-1.74 5.88,-2.52l2.02 1.07c0.47,-0.74 0.95,-1.52 1.44,-2.33 2.36,-0.78 4.04,-0.99 5.24,0.85zm-38.57 0.13c-2.67,6.74 3.05,17.24 -7.59,22.48 -9.62,4.74 -24.41,-1.27 -23.46,-14.47 0.24,-3.35 2.15,-6.92 3.3,-10.12l0 0c1.88,-6.45 2.97,-10.72 -4.12,-12.21 -13.43,-2.82 -28.86,-1.41 -42.9,-0.46 -3.27,-13.19 -4.46,-23.5 -0.52,-36.93 2.72,-9.28 10.01,-9.18 17.15,-5.08l0 0.01c16.7,9.6 17.94,-5.84 16.72,-9.35 -0.63,-1.81 -1.98,-3.34 -4.11,-4.24l-0 0 -0.62 -0.23 0 -0c-5.27,-1.8 -17.29,1.21 -19.74,-8.9 -0.75,-3.09 -0.12,-6.57 1.09,-9.62l0.01 0c3.24,-8.16 7.51,-14.41 12.83,-21.27l10.1 3.64 0 -0c5.64,1.92 25.19,8.75 29.98,8.84 7.2,0.13 7.12,-5.29 7.09,-10.29 -0.04,-7.3 0.25,-14.46 8.21,-17.73 5.33,-2.19 10.8,-1.28 15.23,1.59 -1.2,1.26 -2.08,2.66 -2.68,4.16 -5.79,-3.89 -13.31,-1.64 -14.79,2.64l-0 0c-2.7,7.77 1.86,17.84 -6.12,22.82 -3.73,2.33 -8.63,2 -12.92,0.76l-32.38 -10.59c-3.95,5.27 -7.54,11.1 -9.95,17.22l0.01 0c-5.62,14.21 9.96,9.43 16.48,12.36 13.27,5.95 7.7,25.83 -4.5,26.3 -4.06,0.16 -8.44,-1.58 -12.37,-3.84l-0.01 0.01c-2.49,-1.43 -4.79,-2.26 -6.53,-1.98l0 0c-5.03,0.83 -5.76,17.06 -5.7,20.34 0.08,4.62 0.75,9.25 1.87,14.15 13.14,-0.91 27.14,-1.87 40.08,0.83 12.32,2.58 10.23,12.93 6.66,21.48l-0 -0c-2.02,4.87 -3.36,9.09 0.5,13.24 4.41,4.74 14.57,5.12 17.43,-1.05 1.88,-4.05 -1.74,-12.6 3.45,-19.64 0.92,1.76 1.87,3.48 2.82,5.13zm15 -93.32c-0.96,-3.53 0.31,-8.78 1.73,-12.16 2.51,7.27 5.51,10.36 -1.73,12.16z"/>
   <path class="fil17" d="M315.97 530.88c79.84,17.73 158.64,17.23 236.48,0 29.35,89.68 58.69,179.35 88.04,269.03 0.71,35.02 -6.32,80.1 -21.6,136.72 34.11,180.54 55.21,361.07 61.73,541.61 -155.87,35.45 -313.04,25.73 -476.27,-16.11 2.24,-150.79 16.59,-318.02 58.08,-518.41l-33.8 -117.74 87.35 -295.11z"/>
   <polygon class="fil17" points="315.97,530.88 321.78,566.75 338.47,535.4 355.35,427.03 328.38,442.94 "/>
   <polygon class="fil17" points="552.46,530.88 550.71,567.27 529.18,535.52 508.25,416.35 535.62,431.01 "/>
   <path class="fil15" d="M360.18 368.8c13.89,-91.06 131.49,-91.06 145.38,0l4.13 58.24c-51.65,15.21 -103.09,15.15 -154.34,0l4.82 -58.24z"/>
   <g>
    <g>
     <g>
      <path class="fil18" d="M510.63 171.14c51.46,-42.08 63.29,55.45 32.86,59.96 -5.64,0.84 -11.52,1.22 -17.78,0.32l-15.08 -60.28z"/>
      <path class="fil2" d="M559.31 190.77c2.81,18.23 -2.39,38.34 -15.81,40.33 -5.64,0.84 -11.52,1.22 -17.78,0.32l-3.58 -14.3c18.9,0.84 37.11,-4.92 37.17,-26.35z"/>
      <path class="fil19" d="M523.35 195.22c0.39,2.62 1.76,5.71 4.87,5.26 3.07,-0.45 3.36,-3.87 2.98,-6.41 0,-0.01 -0,-0.01 -0,-0.02 -0.55,-3.58 -1.2,-7.09 -1.61,-10.69 -0.32,-2.85 -0.53,-5.49 -0.01,-8.32 0.32,-1.26 0.69,-2.18 1.46,-3.22 0.91,-1.15 1.81,-1.77 3.15,-2.31 -1.6,0.04 -2.75,0.29 -4.18,1.01 -1.44,0.82 -2.35,1.69 -3.34,3.03 -2.14,3 -2.97,5.98 -3.52,9.61 -0.5,4.21 -0.4,7.84 0.19,12.05 0,0.01 0,0.01 0,0.02z"/>
     </g>
     <g>
      <path class="fil18" d="M278.88 227.27c-65.02,-13.87 -30.9,78.26 -1.78,68.35 5.4,-1.84 10.81,-4.19 15.96,-7.85l-14.17 -60.5z"/>
      <path class="fil2" d="M244.58 267c5.85,17.49 19.66,33 32.52,28.62 5.4,-1.84 10.81,-4.19 15.96,-7.85l-3.36 -14.35c-16.42,9.4 -35.25,12.61 -45.11,-6.42z"/>
      <path class="fil19" d="M278.59 254.51c0.85,2.51 1.05,5.89 -1.93,6.9 -2.93,1 -4.76,-1.9 -5.59,-4.33 -0,-0.01 -0,-0.01 -0.01,-0.02 -1.15,-3.43 -2.18,-6.85 -3.46,-10.25 -1.02,-2.68 -2.05,-5.13 -3.8,-7.4 -0.86,-0.98 -1.61,-1.62 -2.77,-2.2 -1.33,-0.61 -2.41,-0.74 -3.86,-0.61 1.44,-0.7 2.57,-1 4.18,-1.02 1.66,0.07 2.87,0.43 4.36,1.17 3.27,1.69 5.37,3.96 7.53,6.94 2.37,3.52 3.95,6.79 5.34,10.8 0,0.01 0,0.01 0.01,0.02z"/>
     </g>
    </g>
    <path class="fil20" d="M269.51 114.53c-6.98,54.9 8.33,166.96 33.23,274.43 16.63,11.28 34.07,19.7 53.62,24.13l-1.08 -13.92 6.31 15c23.5,4.36 56.64,0.43 83.77,-6.02 6.07,-1.5 12.35,-3.25 18.66,-5.22l-0.22 -21.02 11.01 17.42c18.12,-6.44 35.55,-14.68 47.79,-24.15l-1.25 -16.23 5.41 12.87c15.36,-12.88 27.01,-28.35 36.64,-45.99 -27.04,-106.95 -64.7,-213.6 -96.03,-259.22 -26.29,-17.94 -68.27,-18.9 -106.82,-8.61 -38.99,8.49 -75.88,28.55 -91.04,56.54z"/>
    <path class="fil3" d="M450.29 271.84c25.34,-11.32 48.78,-27.69 68.61,-48.07 -17.33,-65.23 -34.99,-106.45 -55.97,-130.26 -3.42,-3.88 -7.25,-6.37 -12.14,-7.9 -21.37,-6.66 -53.3,-4.5 -82.82,3.03 -29.7,6.81 -59.08,19.5 -75.03,35.2 -3.64,3.59 -5.91,7.56 -7.18,12.57 -7.76,30.77 -4.6,75.51 9.84,141.43 25.58,8.59 52.4,12.47 78.74,11.54 8.58,-3.47 23.03,-7.7 39.6,-11.39 14.18,-3.16 27.11,-5.3 36.34,-6.16z"/>
    <path class="fil20" d="M436.8 82.54c28.37,-36.65 -11.77,-83.9 -73.62,-82.51l2.77 12.51c-23.52,-3.44 -46.57,-1.29 -68.96,8.6 1.87,8.19 4.11,14.41 7.09,17.89 -17.65,-0.46 -33.58,4.52 -48.67,12.12 8.01,16.66 16.84,28.25 35.89,38.08 -5.66,0.49 -12.42,2.72 -17.66,6.18 12.63,30.94 37.76,44.93 79.93,35.77 40.31,-9.31 54.72,-51.38 83.22,-48.64z"/>
    <path class="fil21" d="M467.07 283.65c-24.5,33.33 -77.23,36.19 -97.93,23.86 26.75,1.95 63.71,-3.42 97.93,-23.86z"/>
    <polygon class="fil22" points="366.54,160.06 314.77,174.39 303.26,186.34 315.29,211.11 370.2,208.39 "/>
    <path class="fil23" d="M359.78 151.41c-13.18,1.56 -26.35,3.15 -38.77,7.28 -8.79,2.93 -14.79,10.54 -16.62,21.09l-1.14 6.56c16.77,-7.51 35.74,-11.71 55.6,-14.59 2.75,-0.4 4.9,-1.97 6.35,-4.64 1.45,-2.67 1.79,-5.69 1.01,-8.92l-0.46 -1.9c-0.75,-3.1 -3.32,-5.2 -5.97,-4.88z"/>
    <polygon class="fil22" points="401.93,151.49 454.52,140.54 470.23,145.9 470.86,173.42 420.8,196.13 "/>
    <path class="fil24" d="M370.19 208.39c-18.43,-9.72 -36.72,-7.59 -54.91,2.71 6.86,34.18 51.18,30.22 54.91,-2.71zm50.6 -12.26c11.94,-17.08 29.18,-23.55 50.07,-22.71 9.53,33.53 -31.67,50.29 -50.07,22.71z"/>
    <g style="clip-path:url(#id0)">
     <g>
      <g>
       <g>
        <circle class="fil25" transform="matrix(0.49108 -0.118951 0.121429 0.501311 355.734 211.894)" r="23.12"/>
        <circle class="fil14" transform="matrix(0.280291 -0.0678929 0.0693073 0.286131 355.734 211.894)" r="23.12"/>
        <path class="fil26" d="M348.7 213.99c2.33,-0.57 3.76,-2.96 3.18,-5.34 -0.58,-2.38 -2.94,-3.86 -5.27,-3.29 -2.33,0.57 -3.76,2.96 -3.18,5.34 0.58,2.38 2.94,3.86 5.27,3.29z"/>
       </g>
       <g>
        <circle class="fil25" transform="matrix(0.49108 -0.118951 0.121429 0.501311 457.459 187.254)" r="23.12"/>
        <circle class="fil14" transform="matrix(0.280291 -0.0678929 0.0693073 0.286131 457.459 187.254)" r="23.12"/>
        <path class="fil26" d="M450.12 189.43c2.33,-0.57 3.76,-2.96 3.18,-5.34 -0.58,-2.38 -2.94,-3.86 -5.27,-3.29 -2.33,0.57 -3.76,2.96 -3.18,5.34 0.58,2.38 2.94,3.86 5.27,3.29z"/>
       </g>
      </g>
     </g>
    </g>
    <path class="fil27" d="M370.19 208.39c-18.43,-9.72 -36.72,-7.59 -54.91,2.71 6.86,34.18 51.18,30.22 54.91,-2.71zm50.6 -12.26c11.94,-17.08 29.18,-23.55 50.07,-22.71 9.53,33.53 -31.67,50.29 -50.07,22.71z"/>
    <path class="fil2" d="M420.8 196.13c1.65,-25.42 34.02,-34.27 50.07,-22.71 -20.89,-0.84 -38.12,5.64 -50.07,22.71z"/>
    <path class="fil23" d="M403.98 140.7c12.43,-4.64 24.86,-9.26 37.8,-11.27 9.15,-1.42 17.97,2.6 24.43,11.15l4.02 5.32c-18.34,1 -37.14,5.94 -56.11,12.47 -2.63,0.9 -5.26,0.49 -7.77,-1.22 -2.51,-1.71 -4.2,-4.24 -4.98,-7.47l-0.46 -1.9c-0.75,-3.1 0.57,-6.14 3.07,-7.07z"/>
    <path class="fil2" d="M370.2 208.39c-13.1,-21.85 -45.93,-14.9 -54.91,2.72 18.19,-10.31 36.48,-12.43 54.91,-2.72z"/>
    <g>
     <path class="fil3" d="M455.07 212.12c14.81,-3.59 26.23,-8.88 25.52,-11.82 -0.71,-2.94 -13.29,-2.42 -28.1,1.17 -14.81,3.59 -26.23,8.88 -25.52,11.82 0.71,2.94 13.29,2.42 28.1,-1.17z"/>
     <path class="fil3" d="M349.43 237.71c14.81,-3.59 26.23,-8.88 25.52,-11.82 -0.71,-2.94 -13.29,-2.42 -28.1,1.17 -14.8,3.59 -26.23,8.88 -25.52,11.82 0.71,2.94 13.29,2.42 28.1,-1.17z"/>
    </g>
    <path class="fil2" d="M388.39 209.07c2,22.49 0.79,41.74 -4.4,56.99 9.4,6.43 20.2,8.2 31.69,7.71 -8.39,-1.22 -15.93,-4.57 -20.79,-14.55 3.07,-17.08 0.32,-33.75 -6.49,-50.14zm36.41 61.29c3.16,-5.13 6.56,-12.82 7.99,-19.89 6.61,11.04 3.26,17.34 -7.99,19.89z"/>
    <g>
     <path class="fil20" d="M461.13 29.79c0,0 1.64,11.5 -3.67,21.97 -5.31,10.47 -15.24,16.1 -15.55,15.95 -0.31,-0.16 -1.64,-11.5 3.67,-21.97 5.31,-10.47 15.55,-15.95 15.55,-15.95z"/>
     <path class="fil20" d="M472.68 47.36c0,0 -3.22,8.49 -10.81,13.65 -7.59,5.16 -16.52,5.26 -16.67,5.04 -0.15,-0.22 3.22,-8.49 10.81,-13.65 7.59,-5.16 16.67,-5.04 16.67,-5.04z"/>
    </g>
    <path class="fil28" d="M470.79 201.49c-8.34,20.25 -30.37,18.98 -39.81,9.74 11.38,2.85 26.61,1.54 39.81,-9.74z"/>
    <path class="fil28" d="M368.47 226.28c-8.34,20.25 -30.37,18.98 -39.81,9.74 11.38,2.85 26.61,1.54 39.81,-9.74z"/>
   </g>
   <polygon class="fil13" points="630.96,1528.63 599.73,1548.47 643.23,1552.65 "/>
   <path class="fil1" d="M241.65 781.99l-5.59 -109.74 -22.52 23.77 -113.77 120.11 19.28 -0.92c15.75,-0.75 29.63,5.32 39.77,17.39l80.52 95.82 10.88 -12.32 -96.97 -113.15 62.2 -59.63 16.87 70.14 9.32 -31.48z"/>
   <path class="fil1" d="M529.18 535.52c-60.06,0.43 -119.2,4.27 -173.83,-9.83l0 -98.66 -16.88 108.36c64.23,11.54 127.79,11.33 190.71,0.13z"/>
   <polygon class="fil1" points="273.38,674.8 239.33,736.51 233.77,758.67 241.65,781.99 "/>
   <path class="fil16" d="M516.14 672.25c-1.46,1.62 -2.37,5.51 -0.85,7.41 -0.82,-0.07 -1.75,-0.17 -2.74,-0.24 -0.77,-2.21 -0.03,-5.87 0.41,-6.32 1.22,-0.56 2.35,-0.97 3.18,-0.84zm-11.5 -15.31c3.87,0.06 8.06,0.12 11.72,-1.03 8.49,-2.67 -5.54,-13.32 4.75,-16.61 2.3,-0.73 5.84,0.28 6.7,2.75 0.74,2.13 0.51,3.97 0.56,6.16 0.09,4.39 3.33,5.26 6.98,4.2l15.96 -5.25c2.17,2.8 9.4,12.62 3.86,15.22 -1.86,0.87 -4.47,0.29 -6.61,1.04 -3.1,1.09 -3.83,4.19 -2.65,7.04 1.88,4.54 5.9,3.49 9.29,1.55 2.77,-1.59 5.34,-1.82 6.38,1.71 1.64,5.6 1.33,10.35 -0.02,15.82 -6.39,-0.44 -13.27,-1 -19.52,0.3 -6.97,1.46 -1.51,8.86 -1.3,11.72 0.48,6.72 -9.26,8.4 -11.55,3.46 -0.91,-1.97 0.18,-4.86 -0.7,-7.42 -1.13,-3.29 -3.52,-3.54 -6.5,-2.47 -3.52,1.26 -6.82,2.99 -10.11,4.75 -2.58,-3.97 -6.79,-11.36 -6.49,-15.43 0.3,-4.08 7.56,-2.51 10.09,-2.33 9,0.65 7.07,-11.4 1.05,-12.31 -3.45,-0.52 -6.21,2.58 -9.09,2.97 -2.96,0.4 -3.88,-1.05 -4.23,-3.83 -0.39,-3.79 0.54,-8.22 1.46,-12.02zm21.16 40.72l-2.35 3.75 -4.51 -2.37c0.91,-0.42 1.83,-0.82 2.76,-1.18l0.95 0.5c0.22,-0.35 0.45,-0.72 0.68,-1.1 1.11,-0.37 1.9,-0.47 2.46,0.4zm-18.14 0.06c-1.26,3.17 1.43,8.11 -3.57,10.58 -4.53,2.23 -11.48,-0.6 -11.04,-6.81 0.11,-1.57 1.01,-3.26 1.55,-4.76l0 0c0.89,-3.03 1.4,-5.05 -1.94,-5.74 -6.32,-1.33 -13.58,-0.66 -20.18,-0.21 -1.54,-6.21 -2.1,-11.05 -0.24,-17.37 1.28,-4.37 4.71,-4.32 8.07,-2.39l0 0c7.85,4.52 8.44,-2.75 7.87,-4.4 -0.29,-0.85 -0.93,-1.57 -1.93,-2l-0 0 -0.29 -0.11 0 -0c-2.48,-0.85 -8.13,0.57 -9.29,-4.19 -0.35,-1.46 -0.06,-3.09 0.51,-4.53l0 0c1.52,-3.84 3.53,-6.78 6.03,-10l4.75 1.71 0 -0c2.66,0.9 11.85,4.12 14.11,4.16 3.39,0.06 3.35,-2.49 3.33,-4.84 -0.02,-3.43 0.12,-6.8 3.86,-8.34 2.51,-1.03 5.08,-0.6 7.16,0.75 -0.57,0.59 -0.98,1.25 -1.26,1.96 -2.72,-1.83 -6.26,-0.77 -6.96,1.24l-0 0c-1.27,3.66 0.87,8.39 -2.88,10.74 -1.76,1.1 -4.06,0.94 -6.08,0.36l-15.24 -4.98c-1.86,2.48 -3.55,5.22 -4.68,8.1l0 0c-2.64,6.69 4.69,4.44 7.75,5.81 6.24,2.8 3.62,12.15 -2.12,12.37 -1.91,0.07 -3.97,-0.74 -5.82,-1.81l-0 0c-1.17,-0.67 -2.25,-1.06 -3.07,-0.93l0 0c-2.37,0.39 -2.71,8.03 -2.68,9.57 0.03,2.17 0.35,4.35 0.88,6.66 6.18,-0.43 12.77,-0.88 18.86,0.39 5.79,1.21 4.81,6.08 3.14,10.1l-0 -0c-0.95,2.29 -1.58,4.28 0.23,6.23 2.07,2.23 6.85,2.41 8.2,-0.5 0.88,-1.91 -0.82,-5.93 1.62,-9.24 0.43,0.83 0.88,1.64 1.32,2.41zm7.06 -43.9c-0.45,-1.66 0.14,-4.13 0.81,-5.72 1.18,3.42 2.59,4.87 -0.81,5.72z"/>
   <polygon class="fil1" points="481.81,396.72 493.9,451.44 476.8,471.89 505.5,456.62 529.18,535.52 509.39,422.84 506.73,385.35 "/>
   <g>
    <path class="fil29" d="M636.34 969.61c-51.07,15.68 -74.64,15.78 -120.07,20.64l-21.78 3.43c10.13,69.61 16.03,135.5 17.16,196.61l128.42 -15.39c10.75,-1.29 22.18,-8.75 21.31,-19.54 -4.62,-57.3 -14.6,-124.27 -25.03,-185.75z"/>
    <path class="fil17" d="M510.94 990.8c9.81,50.81 10.79,109.06 12.94,152.64 -4.18,-46.43 -7.55,-105.69 -18.16,-151.59l5.22 -1.05z"/>
    <path class="fil17" d="M540.14 1177.54l97.75 -11.71c8.88,-1.06 16.12,-6.47 19.62,-14.3 -3.9,4.41 -9.35,7.33 -15.63,8.08l-89.61 10.74c-8.79,1.05 -16.41,0.97 -25.17,-0.29l-1.71 -0.24 -1.09 -13.37 -5.13 24.05 20.96 -2.96z"/>
   </g>
   <g>
    <path class="fil2" d="M199.08 997.51c2.98,-13.05 7.52,-25.71 13.07,-37.87l0.15 -0.33 37.78 -43.42 15.15 32.56c8.02,17.23 5.79,34.48 6.06,52.81l0.7 47.25c0.18,12.61 -12.42,17.9 -22.87,20.15l-50.6 10.92c-13.41,2.9 -22.96,-12.32 -27.43,-22.77 -3.8,-8.91 1.63,-25.57 5.59,-33.8l0.01 -0.02c1.15,-2.38 2.42,-4.7 3.81,-6.86 4.17,-6.93 10.51,-15.71 18.57,-18.63z"/>
    <g>
     <path class="fil3" d="M249.42 919.43l-35.01 40.22c-9.69,21.22 -15.54,42.44 -16.6,63.67l-3.09 -12.99c-0.3,-1.27 -1.2,-2.21 -2.45,-2.57 -1.25,-0.36 -2.51,-0.04 -3.44,0.87 -12.31,12.08 -19.28,37.21 -15.45,46.18 4.29,10.04 13.05,23.79 24.59,21.3l50.6 -10.92c10.36,-2.24 21.04,-7.06 20.88,-17.66l-0.69 -47.25c-0.27,-18.41 1.95,-35.1 -5.82,-51.79l-13.52 -29.05z"/>
     <path class="fil2" d="M201.19 998.44c-7.45,1.96 -14.87,10.32 -22.27,24.64 9.25,-1.09 14.5,4.44 13.15,20.89 -0.22,2.63 2.82,4.47 4.22,6.71l4.9 -52.25z"/>
    </g>
   </g>
   <g>
    <g>
     <polygon class="fil30" points="312.06,1087.93 352.17,1097.29 422.7,795.16 382.6,785.79 "/>
     <polygon class="fil31" points="403.91,809.54 418.54,812.96 419.9,807.15 405.27,803.74 "/>
     <g>
      <path class="fil31" d="M399.01 830.53c4.88,1.14 9.76,2.28 14.63,3.42 0.45,-1.94 0.9,-3.87 1.36,-5.81 -4.88,-1.14 -9.76,-2.28 -14.63,-3.42 -0.45,1.94 -0.9,3.87 -1.36,5.81z"/>
      <path class="fil31" d="M394.11 851.52c4.88,1.14 9.75,2.28 14.63,3.42 0.45,-1.94 0.9,-3.87 1.36,-5.81 -4.88,-1.14 -9.75,-2.28 -14.63,-3.42 -0.45,1.94 -0.9,3.87 -1.36,5.81z"/>
      <path class="fil31" d="M389.21 872.51c4.88,1.14 9.75,2.28 14.63,3.42 0.45,-1.94 0.9,-3.87 1.36,-5.81 -4.88,-1.14 -9.75,-2.28 -14.63,-3.42 -0.45,1.94 -0.9,3.87 -1.36,5.81z"/>
      <path class="fil31" d="M384.31 893.5c4.88,1.14 9.75,2.28 14.63,3.42 0.45,-1.94 0.9,-3.87 1.36,-5.81 -4.88,-1.14 -9.75,-2.28 -14.63,-3.42 -0.45,1.94 -0.9,3.87 -1.36,5.81z"/>
      <path class="fil31" d="M379.41 914.49c4.88,1.14 9.75,2.28 14.63,3.42 0.45,-1.94 0.9,-3.87 1.36,-5.81 -4.88,-1.14 -9.75,-2.28 -14.63,-3.42 -0.45,1.94 -0.9,3.87 -1.36,5.81z"/>
      <path class="fil31" d="M374.51 935.47c4.88,1.14 9.75,2.28 14.63,3.42 0.45,-1.94 0.9,-3.87 1.36,-5.81 -4.88,-1.14 -9.76,-2.28 -14.63,-3.42 -0.45,1.94 -0.9,3.87 -1.36,5.81z"/>
      <path class="fil31" d="M369.62 956.46c4.88,1.14 9.75,2.28 14.63,3.42 0.45,-1.94 0.9,-3.87 1.36,-5.81 -4.88,-1.14 -9.76,-2.28 -14.63,-3.42 -0.45,1.94 -0.9,3.87 -1.36,5.81z"/>
      <path class="fil31" d="M364.72 977.45c4.88,1.14 9.76,2.28 14.63,3.42 0.45,-1.94 0.9,-3.87 1.36,-5.81 -4.88,-1.14 -9.76,-2.28 -14.63,-3.42 -0.45,1.94 -0.9,3.87 -1.36,5.81z"/>
      <path class="fil31" d="M359.82 998.44c4.88,1.14 9.75,2.28 14.63,3.42 0.45,-1.94 0.9,-3.87 1.36,-5.81 -4.88,-1.14 -9.75,-2.28 -14.63,-3.42 -0.45,1.94 -0.9,3.87 -1.36,5.81z"/>
      <path class="fil31" d="M354.92 1019.43c4.88,1.14 9.75,2.28 14.63,3.42 0.45,-1.94 0.9,-3.87 1.36,-5.81 -4.88,-1.14 -9.75,-2.28 -14.63,-3.42 -0.45,1.94 -0.9,3.87 -1.36,5.81z"/>
      <path class="fil31" d="M350.02 1040.41c4.88,1.14 9.75,2.28 14.63,3.42 0.45,-1.94 0.9,-3.87 1.36,-5.81 -4.88,-1.14 -9.75,-2.28 -14.63,-3.42 -0.45,1.94 -0.9,3.87 -1.36,5.81z"/>
      <path class="fil31" d="M345.12 1061.4c4.88,1.14 9.75,2.28 14.63,3.42 0.45,-1.94 0.9,-3.87 1.36,-5.81 -4.88,-1.14 -9.75,-2.28 -14.63,-3.42 -0.45,1.94 -0.9,3.87 -1.36,5.81z"/>
     </g>
     <polygon class="fil31" points="340.22,1082.39 354.85,1085.81 356.21,1080 341.57,1076.58 "/>
    </g>
    <g>
     <polygon class="fil32" points="238.25,1000.83 211.82,956.29 220.42,1007.36 257.55,1108.72 275.37,1102.19 "/>
     <polygon class="fil33" points="275.37,1102.19 257.55,1108.72 220.51,1007.6 225.17,1015.22 223.58,1006.26 231.1,1015.73 230.43,1000.58 237.96,1012.86 238.34,1001.07 "/>
     <polygon class="fil33" points="211.82,956.29 223.84,976.54 223.17,983.55 216.12,981.82 "/>
    </g>
    <g>
     <path class="fil29" d="M221.5 1032.5c40.58,12.51 88.59,16.15 144.13,10.78l21.99 1.64c-11.05,65.79 -12.1,131.57 -1.07,197.36l-129.24 -4.86c-10.82,-0.41 -19.76,-7.36 -22.83,-17.74 -19.41,-65.63 -22.28,-127.71 -12.97,-187.18z"/>
     <path class="fil17" d="M367.17 1043.39c-8.83,51.44 -2.92,109.57 -0.7,153.19 0.59,-46.61 -1.72,-105.95 8.99,-152.56l-8.3 -0.62z"/>
     <path class="fil17" d="M355.22 1229.53l-98.38 -3.7c-8.94,-0.34 -16.59,-5.14 -20.72,-12.65 4.24,4.08 9.92,6.54 16.23,6.78l90.19 3.39c8.84,0.33 16.43,-0.38 25.06,-2.34l1.68 -0.38 0 -13.41 7.07 23.55 -21.13 -1.24z"/>
    </g>
    <g>
     <path class="fil34" d="M336.04 885.43c-9.61,1.85 -8.08,52.1 -25.06,103.23l-0.03 0.07c-2.97,6.7 -58.29,113.12 -56.24,148.81l68.57 -141.15c0.02,0.01 0.04,0.02 0.06,0.04 2.11,-5.01 7.9,-24.36 9.43,-29.47 13.34,-3.61 19.09,-3.76 24.41,-15.92 5.32,-12.16 11.52,-33.62 2.86,-46.04 -4.5,-6.46 -18.76,-20.59 -23.99,-19.59zm6.69 12.85c5.33,4.47 14.25,12.05 14.58,19.7 0.33,7.65 -4.69,30.2 -8.7,34.21 -4.01,4.01 -12.85,5.98 -15.81,4.33 -2.96,-1.65 -2.97,-7.6 -2.81,-10.76 0.29,-5.75 5.36,-40.06 6.58,-42.94 1.22,-2.88 0.82,-9.02 6.16,-4.55z"/>
     <path class="fil35" d="M301.25 999.45l-1 30.29 -1.51 116.39 3.99 -2.95c10.04,-44.14 14.91,-96.27 20.81,-146.8l-8.67 -5.16 -13.62 8.22z"/>
     <path class="fil36" d="M298.74 1146.13l2.96 -2.19c4.81,-34.87 8.47,-71.98 10.96,-111.38l-12.38 -2.7 -1.54 116.27z"/>
     <path class="fil15" d="M266.04 909.91c-10.61,7.7 -12.68,18.98 -9.87,31.57 2.32,10.44 12.8,23.72 33.33,18.23 3.42,11.39 6.86,23.25 11.85,39.66 0,0 9.62,-5.6 13.52,-8.14 -4.06,-11.44 -9.17,-30.68 -14.06,-49.46 -5.1,-19.24 -13.17,-31.83 -19.79,-34.38 -6.63,-2.55 -10.74,-0.55 -14.97,2.52zm20.67 15.68c2.74,5.21 7.52,14.72 5.37,20.37 -2.16,5.65 -8.07,8.16 -13.84,7.09 -10.56,-0.62 -17.24,-13.43 -16.22,-23.94 1.03,-10.51 7.36,-13.55 12.94,-14.86 5.57,-1.31 9.01,6.11 11.75,11.33z"/>
     <path class="fil37" d="M304.86 1007.23c1,-3.48 4.57,-5.51 7.98,-4.54 3.41,0.97 5.37,4.59 4.38,8.07 -0.99,3.48 -4.56,5.52 -7.97,4.54 -3.41,-0.97 -5.37,-4.59 -4.38,-8.07l0 0z"/>
     <path class="fil38" d="M304.86 1007.23c0.08,-0.26 0.17,-0.52 0.27,-0.76l12.26 3.51c-0.04,0.26 -0.1,0.53 -0.17,0.79 -0.07,0.26 -0.16,0.52 -0.27,0.76l-12.26 -3.51c0.04,-0.26 0.1,-0.53 0.17,-0.79l0 0z"/>
    </g>
    <path class="fil39" d="M314.87 991.23l8.52 5.07c2.16,-5.22 7.86,-24.27 9.37,-29.32 1.25,-0.34 2.42,-0.64 3.54,-0.93 10.86,-2.81 16.04,-3.96 20.87,-14.98 5.32,-12.16 11.52,-33.62 2.86,-46.04 -1.57,-2.25 -4.33,-5.44 -7.47,-8.59 -5.87,-5.89 -13.11,-11.65 -16.51,-11 -9.32,1.8 -8.17,49.09 -23.56,98.57 0.83,2.65 1.63,5.08 2.39,7.23zm17.94 -34.7c-2.96,-1.65 -2.97,-7.6 -2.81,-10.76 0.29,-5.75 5.36,-40.06 6.58,-42.94 1.22,-2.88 0.82,-9.02 6.16,-4.55 2.25,1.88 5.13,4.31 7.74,7.07 3.59,3.79 6.65,8.2 6.85,12.63 0.33,7.65 -4.69,30.2 -8.7,34.21 -2.42,2.42 -6.59,4.1 -10.17,4.69 -2.36,0.39 -4.46,0.3 -5.63,-0.35z"/>
    <polygon class="fil29" points="280.03,1043.92 299.88,1045.3 296.85,1064.25 287.53,1121.28 269.59,1155.34 232.15,1155.34 239.05,1086.5 273.99,1046.96 "/>
   </g>
  </g>
 </g>
</svg>
