<svg width="56" height="56" viewBox="0 0 56 56" fill="none" xmlns="http://www.w3.org/2000/svg">
<path d="M26.1836 0.53125C22.668 1.03516 19.9961 2.01953 17.418 3.76562C16 4.72656 13.6328 7.09375 12.6836 8.5C11.2305 10.6445 10.1172 13.3398 9.64844 15.8711C9.34375 17.5 9.34375 20.6875 9.64844 22.3164C10.1172 24.8477 11.2422 27.5781 12.6719 29.6641C13.0586 30.2266 13.9258 31.2812 14.6055 32.0078C15.2852 32.7344 16.1055 33.6953 16.4219 34.1523C17.2422 35.2891 18.0625 37.0586 18.5547 38.7344L18.9766 40.1523V45.6016C18.9766 52 18.8828 51.5781 20.2188 51.6719C20.9336 51.7305 21.0156 51.7539 21.0977 52.0234C21.1445 52.1875 21.3203 52.7734 21.4844 53.3359C21.8359 54.4844 22.1992 55 22.9023 55.3164C23.3359 55.5156 23.7578 55.5391 28 55.5391C32.2422 55.5391 32.6641 55.5156 33.0977 55.3164C33.8008 55 34.1641 54.4844 34.5156 53.3359C34.6797 52.7734 34.8555 52.1875 34.9023 52.0234C34.9844 51.7539 35.0664 51.7305 35.7812 51.6719C37.1172 51.5781 37.0234 52.0117 37.0234 45.5898V40.1289L37.4922 38.5586C38.3125 35.8516 39.1562 34.4219 41.3125 32.1016C42.8125 30.4727 43.7969 29.0898 44.6406 27.4141C48.2148 20.2773 46.8555 11.7344 41.2422 6.07422C38.4297 3.22656 35.0547 1.44531 31.1641 0.742188C30.2031 0.566406 26.9102 0.425781 26.1836 0.53125ZM27.1797 4.77344C27.1797 6.89453 27.2148 7.49219 27.3438 7.67969C27.4844 7.86719 27.707 7.91406 28.7852 7.97266C30.1562 8.05469 30.543 8.18359 31.0703 8.74609C31.457 9.15625 31.6328 9.60156 31.6328 10.1875C31.6328 10.7734 31.457 11.2188 31.0703 11.6289C30.543 12.1914 30.1562 12.3203 28.7852 12.4023C27.707 12.4609 27.4844 12.5078 27.3438 12.6953C27.2148 12.8828 27.1797 13.4805 27.1797 15.6016V18.2734H25.082H22.9844L22.9023 17.4766C22.75 16.0117 22 14.8398 20.793 14.1953C20.2773 13.9141 20.0781 13.8789 19.0938 13.8789C18.1094 13.8789 17.9102 13.9141 17.3945 14.1953C16.1875 14.8398 15.4375 16.0117 15.2852 17.4766L15.2031 18.2734H13.0938H10.9961L11.0664 17.5352C11.4883 13.5273 13.1992 9.89453 16 7.09375C18.9414 4.15234 22.7383 2.42969 26.9805 2.11328C27.168 2.10156 27.1797 2.30078 27.1797 4.77344ZM31.293 2.46484C34.6562 3.12109 37.4688 4.64453 39.9648 7.12891C42.8594 10.0352 44.4883 13.457 44.9219 17.5938L44.9922 18.2734H42.3203C40.1992 18.2734 39.6016 18.3086 39.4141 18.4375C39.2266 18.5781 39.1797 18.8008 39.1211 19.8789C39.0391 21.25 38.9102 21.6367 38.3477 22.1641C37.9375 22.5508 37.4922 22.7266 36.9062 22.7266C36.3203 22.7266 35.875 22.5508 35.4648 22.1641C34.9023 21.6367 34.7734 21.25 34.6914 19.8789C34.6328 18.8008 34.5859 18.5781 34.3984 18.4375C34.2109 18.3086 33.6133 18.2734 31.4922 18.2734H28.8203V16.1875V14.1016L29.7461 13.9727C31.2344 13.7734 32.2539 13.0938 32.8984 11.8867C33.1797 11.3711 33.2148 11.1719 33.2148 10.1875C33.2148 9.20312 33.1797 9.00391 32.8984 8.48828C32.2539 7.28125 31.2344 6.60156 29.7461 6.40234L28.8203 6.27344V4.1875V2.10156L29.5 2.17188C29.8633 2.20703 30.6719 2.34766 31.293 2.46484ZM19.8789 15.5898C20.2891 15.7422 20.8164 16.2344 21.0508 16.6914C21.168 16.9023 21.2617 17.5234 21.3086 18.3086C21.3672 19.3867 21.4141 19.6094 21.6016 19.75C21.7891 19.8789 22.3867 19.9141 24.5078 19.9141H27.1797V22.0117V24.1094L26.3945 24.1914C24.918 24.3438 23.7461 25.0938 23.1016 26.3008C22.8203 26.8164 22.7852 27.0156 22.7852 28C22.7852 28.9844 22.8203 29.1836 23.1016 29.6992C23.7461 30.9062 24.918 31.6562 26.3945 31.8086L27.1797 31.8906V35.5703V39.25H23.8047H20.4297L19.9727 37.7852C19.4688 36.1328 18.6836 34.4805 17.8633 33.332C17.5703 32.9102 16.6914 31.8672 15.9062 31.0117C13.8789 28.7852 12.7891 27.0508 11.957 24.6836C11.582 23.5938 11.1953 21.8828 11.0664 20.6406L10.9961 19.9141H13.6797C15.8008 19.9141 16.3984 19.8789 16.5859 19.75C16.7734 19.6094 16.8203 19.3867 16.8789 18.3086C16.9258 17.5234 17.0195 16.9023 17.1367 16.6914C17.3594 16.2578 17.8867 15.7422 18.2734 15.5898C18.6719 15.4375 19.4688 15.4375 19.8789 15.5898ZM33.0977 20.6992C33.25 22.1758 34 23.3477 35.207 23.9922C35.7227 24.2734 35.9219 24.3086 36.9062 24.3086C37.8906 24.3086 38.0898 24.2734 38.6055 23.9922C39.8125 23.3477 40.5625 22.1758 40.7148 20.6992L40.7969 19.9141H42.9062H45.0039L44.9336 20.5234C44.6523 22.8672 44.1016 24.8242 43.1875 26.6406C42.332 28.3281 41.6406 29.3008 40.0703 31.0352C39.3203 31.8555 38.4531 32.8867 38.1484 33.3086C37.3047 34.4922 36.543 36.0977 36.0273 37.75L35.5703 39.25H32.1953H28.8203V34.9961C28.8203 31.5156 28.7852 30.6953 28.6562 30.5078C28.5156 30.3203 28.293 30.2734 27.2148 30.2148C25.8438 30.1328 25.457 30.0039 24.9297 29.4414C24.543 29.0312 24.3672 28.5859 24.3672 28C24.3672 27.4141 24.543 26.9688 24.9297 26.5586C25.457 25.9961 25.8438 25.8672 27.2148 25.7852C28.293 25.7266 28.5156 25.6797 28.6562 25.4922C28.7852 25.3047 28.8203 24.707 28.8203 22.5859V19.9141H30.918H33.0156L33.0977 20.6992ZM35.3828 41.8281V42.7656H28H20.6172V41.8281V40.8906H28H35.3828V41.8281ZM35.3828 45.4023V46.3984H28H20.6172V45.4023V44.4062H28H35.3828V45.4023ZM35.3828 49.0352V50.0312H28H20.6172V49.0352V48.0391H28H35.3828V49.0352ZM33.2266 51.8711C33.1914 51.9883 33.0859 52.3984 32.9688 52.7852C32.6406 53.9922 33.0391 53.8984 28 53.8984C22.9609 53.8984 23.3594 53.9922 23.0312 52.7852C22.9141 52.3984 22.8086 51.9883 22.7734 51.8711C22.7148 51.6836 23.0195 51.6719 28 51.6719C32.9805 51.6719 33.2852 51.6836 33.2266 51.8711Z" fill="black"/>
<path d="M2.33611 9.36719C2.06658 9.63672 2.03142 10.1641 2.25408 10.457C2.3947 10.6562 7.09392 12.4141 7.46892 12.4141C7.77361 12.4141 8.19548 11.9219 8.19548 11.582C8.19548 11.418 8.07829 11.1719 7.93767 11.043C7.65642 10.7969 3.20329 9.13281 2.80486 9.13281C2.67595 9.13281 2.46501 9.23828 2.33611 9.36719Z" fill="black"/>
<path d="M50.5938 9.98828C49.3281 10.457 48.1797 10.9375 48.0508 11.0547C47.9102 11.1836 47.8047 11.418 47.8047 11.5938C47.8047 11.9336 48.2383 12.4141 48.543 12.4141C48.918 12.4141 53.6055 10.6445 53.7578 10.457C54.1211 9.96484 53.7461 9.12109 53.1719 9.13281C53.0195 9.14453 51.8711 9.51953 50.5938 9.98828Z" fill="black"/>
<path d="M0.718769 18.543C0.390644 18.8945 0.390644 19.3398 0.730488 19.6562C1.00002 19.9023 1.09377 19.9141 3.67189 19.9141H6.33205L6.6133 19.6211C6.9883 19.2578 6.9883 18.9297 6.6133 18.5664L6.33205 18.2734H3.64846C1.00002 18.2734 0.964863 18.2734 0.718769 18.543Z" fill="black"/>
<path d="M49.3867 18.5664C49.2227 18.7188 49.0938 18.9531 49.0938 19.0938C49.0938 19.2227 49.2227 19.4688 49.3867 19.6211L49.668 19.9141H52.3516C55 19.9141 55.0352 19.9141 55.2812 19.6445C55.6094 19.293 55.6094 18.8477 55.2695 18.5312C55 18.2852 54.9062 18.2734 52.3281 18.2734H49.668L49.3867 18.5664Z" fill="black"/>
<path d="M4.73844 26.6875C2.5236 27.5078 2.26579 27.625 2.17204 27.9063C2.00798 28.3633 2.20719 28.8438 2.59391 28.9844C2.86344 29.0781 3.32048 28.9492 5.28923 28.2344C6.60173 27.7656 7.78532 27.2735 7.93766 27.1445C8.07829 27.0156 8.19548 26.7695 8.19548 26.5938C8.19548 26.2305 7.76188 25.7735 7.42204 25.7735C7.30485 25.7852 6.09782 26.1953 4.73844 26.6875Z" fill="black"/>
<path d="M48.0625 26.043C47.7344 26.3945 47.7344 26.8398 48.0742 27.1445C48.3321 27.3906 52.7969 29.0547 53.1719 29.0547C53.7227 29.0547 54.0977 28.1992 53.7578 27.7305C53.6055 27.5312 48.9063 25.7734 48.5313 25.7734C48.4141 25.7734 48.2031 25.8906 48.0625 26.043Z" fill="black"/>
</svg>
