<svg width="60" height="60" viewBox="0 0 60 60" fill="none" xmlns="http://www.w3.org/2000/svg">
<path d="M10 13.922C10 22.5851 14.1293 27.9759 22.4299 30.5348C23.5199 31.9194 24.7566 33.01 25.9305 33.7861V42.8058H23.3313C20.3758 42.8058 18.8456 44.5048 18.8456 47.2946V51.3849C18.8456 52.3288 19.5792 52.9791 20.4596 52.9791H40.5403C41.4207 52.9791 42.1544 52.3288 42.1544 51.3849V47.2946C42.1544 44.5048 40.6033 42.8058 37.6477 42.8058H35.0695V33.8072C36.2434 33.0311 37.501 31.9194 38.591 30.5348C46.8706 27.9548 51 22.5851 51 13.922C51 11.7615 49.6585 10.44 47.4157 10.44H43.3491C43.0137 8.3005 41.5046 7 38.9682 7H22.0317C19.5163 7 17.9862 8.27953 17.6508 10.44H13.5844C11.3415 10.44 10 11.7615 10 13.922ZM12.9974 14.2157C12.9974 13.8801 13.249 13.6074 13.6053 13.6074H17.546V17.7187C17.546 20.928 18.3844 23.9065 19.684 26.4656C15.3032 24.2631 12.9974 20.1938 12.9974 14.2157ZM20.7111 18.306V11.4888C20.7111 10.7127 21.2561 10.1674 22.0317 10.1674H38.9682C39.7438 10.1674 40.2888 10.7127 40.2888 11.4888V18.306C40.2888 25.7734 33.4135 32.4647 30.4999 32.4647C27.5864 32.4647 20.7111 25.7734 20.7111 18.306ZM22.0107 49.8118V47.2946C22.0107 46.4975 22.5347 45.9731 23.3313 45.9731H37.6477C38.4653 45.9731 38.9892 46.4975 38.9892 47.2946V49.8118H22.0107ZM29.0956 42.8058V35.4013C29.5986 35.5481 30.0597 35.6111 30.4999 35.6111C30.9401 35.6111 31.4012 35.5481 31.9044 35.4013V42.8058H29.0956ZM41.3159 26.4656C42.6156 23.9065 43.4539 20.928 43.4539 17.7187V13.6074H47.3946C47.751 13.6074 48.0025 13.8801 48.0025 14.2157C48.0025 20.1938 45.6967 24.2631 41.3159 26.4656Z" fill="black"/>
</svg>
