<svg width="60" height="60" viewBox="0 0 60 60" fill="none" xmlns="http://www.w3.org/2000/svg">
<g clip-path="url(#clip0_18_904)">
<path d="M36.6562 1.88672C35.8711 2.10937 35.3203 2.73047 34.5703 4.23047C34.1836 4.99219 33.7734 5.66016 33.668 5.73047C33.5508 5.78906 32.8477 5.92969 32.1094 6.03516C30.5625 6.25781 30.0938 6.42187 29.543 6.94922C28.9922 7.46484 28.7109 8.13281 28.7109 8.90625C28.7109 9.87891 29.0273 10.418 30.293 11.6367C31.1133 12.4336 31.4062 12.8086 31.4062 13.0078C31.4062 13.1719 31.3008 13.9219 31.1719 14.6953C30.9961 15.7852 30.9727 16.1953 31.0664 16.6172C31.3477 17.8711 32.4492 18.7383 33.7852 18.75C34.3828 18.75 34.6055 18.668 35.8125 18.0469C36.5508 17.6602 37.3008 17.3437 37.4766 17.3437C37.6523 17.3437 38.4141 17.6602 39.1758 18.0469C40.3594 18.6562 40.6406 18.75 41.1914 18.75C42.7148 18.75 43.9453 17.5312 43.9453 16.043C43.9453 15.8203 43.8633 15.1992 43.7695 14.6484C43.4414 12.7852 43.4062 12.9141 44.6719 11.625C45.293 11.0039 45.8789 10.3125 45.9844 10.1133C46.4414 9.1875 46.3242 8.10937 45.668 7.24219C45.1289 6.53906 44.4727 6.25781 42.8906 6.03516C42.1523 5.92969 41.4258 5.76562 41.2734 5.67187C41.1328 5.57812 40.7227 4.91016 40.3711 4.19531C40.0195 3.48047 39.6094 2.76562 39.4688 2.60156C38.8477 1.94531 37.5938 1.6289 36.6562 1.88672ZM37.9453 3.82031C38.0859 3.91406 38.5078 4.59375 38.8594 5.30859C39.2227 6.03516 39.6328 6.75 39.7734 6.89062C40.2188 7.38281 40.8867 7.62891 42.4102 7.86328C43.6992 8.05078 43.9219 8.12109 44.1562 8.37891C44.625 8.92969 44.4609 9.29297 43.2773 10.3711C41.707 11.7891 41.5078 12.375 41.8477 14.4492C41.9648 15.1641 42.0703 15.8906 42.0703 16.043C42.0703 16.4297 41.6367 16.875 41.2617 16.875C41.0977 16.875 40.3359 16.5586 39.5742 16.1719C38.3203 15.5273 38.1328 15.4687 37.4531 15.4687C36.7617 15.4687 36.5859 15.5273 35.3555 16.1719C33.9844 16.8867 33.6797 16.9687 33.2695 16.7461C32.8477 16.5234 32.8125 16.1602 33.0586 14.8125C33.4805 12.4336 33.4102 12.1875 31.8047 10.5352C30.8672 9.57422 30.5859 9.21094 30.5859 8.96484C30.5859 8.25 30.8789 8.08594 32.5781 7.85156C34.6875 7.57031 35.1328 7.24219 36.1406 5.19141C36.4922 4.47656 36.8789 3.83203 36.9961 3.76172C37.3008 3.58594 37.6406 3.60937 37.9453 3.82031Z" fill="black"/>
<path d="M20.8242 15.2812C20.1562 15.5273 19.8398 15.8789 19.2656 17.0156C18.9844 17.5781 18.668 18.0586 18.5508 18.0937C18.4336 18.1172 17.918 18.2109 17.4023 18.2812C16.3477 18.4453 16.0195 18.5742 15.5625 19.0664C15.1523 19.5 15 19.9219 15 20.6719C15 21.4101 15.3281 21.9726 16.207 22.7344C16.9688 23.4023 16.9922 23.4844 16.8047 24.4336C16.582 25.5703 16.6055 26.1914 16.8633 26.6953C17.1445 27.2461 17.5195 27.5976 18.0703 27.832C18.7617 28.1133 19.207 28.0547 20.3789 27.4805C20.9766 27.1875 21.5273 26.9531 21.6211 26.9531C21.7031 26.9531 22.2422 27.1992 22.8164 27.4922C23.7656 27.9961 23.8945 28.0312 24.4805 27.9726C25.5234 27.8672 26.1914 27.2812 26.4961 26.2031C26.5664 25.9687 26.5312 25.4531 26.4141 24.6914L26.2148 23.5312L27.0469 22.6992C28.1836 21.5508 28.4414 20.8828 28.1016 19.9101C27.75 18.8789 27.1523 18.4805 25.5469 18.2461C24.9727 18.1523 24.4688 18.0586 24.4453 18.0351C24.4219 18.0117 24.1875 17.5664 23.9297 17.0508C23.6719 16.5351 23.3438 15.9961 23.2148 15.8555C22.6289 15.2344 21.5977 14.9883 20.8242 15.2812ZM22.2773 17.9531C23.0742 19.5469 23.543 19.8867 25.3125 20.0976C26.0273 20.1914 26.3672 20.332 26.3672 20.5312C26.3672 20.6015 25.9922 21.0469 25.5469 21.5156C24.3398 22.7578 24.2227 23.168 24.5391 24.9375C24.668 25.6289 24.668 25.8164 24.5391 25.9922C24.3984 26.1797 24.3047 26.1562 23.2734 25.6289C21.7617 24.8906 21.3633 24.8906 19.957 25.6055C18.9375 26.1328 18.5156 26.1914 18.5156 25.8047C18.5156 25.6992 18.5977 25.1484 18.6797 24.5976C18.9375 23.0625 18.8203 22.7226 17.6484 21.5625C17.1445 21.0703 16.875 20.7187 16.875 20.543C16.875 20.25 16.9102 20.2383 18.2812 20.039C19.6055 19.8515 20.0859 19.5117 20.7422 18.2812C21.0352 17.7305 21.3164 17.2148 21.3633 17.1328C21.5742 16.8164 21.8203 17.039 22.2773 17.9531Z" fill="black"/>
<path d="M52.6993 15.2344C52.0313 15.4453 51.5625 15.9375 51.0352 17.0039C50.461 18.1406 50.543 18.082 49.1602 18.2813C48.7149 18.3516 48.1641 18.5039 47.9414 18.6094C47.3438 18.9024 46.8633 19.5703 46.793 20.2031C46.6758 21.1992 46.8164 21.5156 47.8243 22.5703C48.4805 23.25 48.75 23.6133 48.7032 23.7539C48.668 23.8711 48.586 24.3984 48.5039 24.9258C48.3868 25.6875 48.3868 25.9922 48.5039 26.3672C48.8086 27.375 49.875 28.1133 50.8594 27.9727C51.1172 27.9375 51.75 27.7031 52.254 27.4336C52.7696 27.1641 53.2735 26.9531 53.379 26.9531C53.4844 26.9531 53.9415 27.1641 54.4102 27.4219C55.8282 28.1953 56.8008 28.1602 57.6446 27.3164C58.3008 26.6602 58.418 26.0742 58.1719 24.6563L57.9844 23.543L58.8516 22.6406C59.4024 22.0781 59.7891 21.5742 59.8829 21.2813C60.1993 20.3086 59.7188 19.0899 58.8282 18.6328C58.5821 18.5039 57.8907 18.3281 57.3047 18.2461C56.7305 18.1524 56.2266 18.0586 56.2032 18.0352C56.1797 18.0117 55.9102 17.4961 55.6055 16.8984C55.1368 15.9844 54.9727 15.7617 54.5274 15.5039C53.9649 15.1758 53.2149 15.0586 52.6993 15.2344ZM54.0235 17.918C54.8438 19.5703 55.2891 19.8867 57.0704 20.0977C57.7852 20.1914 58.125 20.332 58.125 20.5313C58.125 20.6016 57.7383 21.0703 57.2579 21.5742C56.1094 22.7695 56.0274 23.0508 56.2852 24.6445C56.4493 25.6992 56.4493 25.8633 56.2969 26.0156C56.1446 26.168 56.004 26.1211 55.043 25.6289C53.5665 24.8789 53.1329 24.8789 51.6797 25.6289C50.7071 26.1328 50.6016 26.168 50.4375 25.9922C50.2618 25.8164 50.2618 25.7109 50.4375 24.6797C50.7071 23.1094 50.6133 22.8164 49.5 21.6797C48.293 20.4258 48.3282 20.2734 49.8868 20.0625C51.4805 19.8399 51.8555 19.5586 52.6172 18.0469C53.2969 16.6875 53.3907 16.6758 54.0235 17.918Z" fill="black"/>
<path d="M36.0234 21.9141C35.6719 22.0898 34.957 22.8516 33.2578 24.8789C30.8203 27.7734 30.1055 28.4531 28.2656 29.5898C25.7109 31.1602 24.082 32.8359 22.7344 35.2617C22.1719 36.293 21.8789 36.4922 20.8008 36.5391L19.9453 36.5859L19.6875 36.0234C19.3594 35.2734 18.7148 34.6055 17.9883 34.2656L17.4023 33.9844H8.98828H0.574219L0.292969 34.2773L0 34.5586V46.1133C0 57.4453 0 57.6562 0.234375 57.8906C0.363281 58.0195 0.585938 58.1484 0.726562 58.1836C0.878906 58.2188 4.71094 58.2305 9.25781 58.2188L17.5195 58.1836L18.0117 57.9141C18.7852 57.5039 19.3008 57 19.6406 56.2969L19.9453 55.6641H20.6484C21.6445 55.6641 22.6641 55.8984 25.8398 56.8828C27.3867 57.3516 28.9688 57.8203 29.3555 57.9023C29.9062 58.0312 31.3828 58.0664 35.9766 58.0664H41.8945L42.4922 57.75C43.875 57.0234 44.4844 55.5703 44.0156 54.1289C43.8984 53.8008 43.8281 53.5195 43.8516 53.5078C43.875 53.4844 44.0859 53.3555 44.3203 53.2148C45.6562 52.418 46.1953 50.3438 45.4453 48.8789L45.1641 48.3398L45.7148 47.9062C46.0781 47.625 46.3828 47.2266 46.6289 46.7461C46.9453 46.125 46.9922 45.8906 46.9922 45.1289C46.9922 44.1445 46.7812 43.5352 46.1836 42.7852L45.8438 42.3633L46.2422 41.9062C46.8047 41.25 47.0273 40.4766 46.9688 39.3867C46.8867 37.9805 46.1953 36.9375 44.9297 36.3164C44.3555 36.0352 44.3438 36.0352 39.5156 35.9766C34.4062 35.918 34.4648 35.918 34.4531 35.3906C34.4531 35.1328 35.3789 33.5859 36.1172 32.6016C36.457 32.1445 37.2188 31.2539 37.8047 30.6211C38.9531 29.3789 39.2812 28.8633 39.5508 27.8086C40.1484 25.5352 39.2109 22.5938 37.6758 21.9023C37.0664 21.6211 36.6094 21.6211 36.0234 21.9141ZM37.6172 24.8086C37.8164 25.3359 37.8633 25.6758 37.8281 26.3672C37.7812 27.5625 37.418 28.2539 36.0938 29.707C34.2188 31.7695 32.7305 34.1133 32.6133 35.2031C32.4844 36.2695 33.2812 37.4414 34.3008 37.7227C34.582 37.8047 36.4336 37.8516 39.2578 37.8516C44.2969 37.8516 44.3086 37.8516 44.8594 38.6719C45.0938 39.0117 45.1289 39.1992 45.0938 39.7266C45.0469 40.4531 44.8008 40.8633 44.2383 41.2148C43.9219 41.4023 43.5352 41.4258 40.4883 41.4609C37.2188 41.4961 37.0781 41.5078 36.832 41.7422C36.6797 41.8828 36.5625 42.1289 36.5625 42.3164C36.5625 43.3125 36.75 43.3594 40.5703 43.3594C44.1562 43.3594 44.332 43.3945 44.8594 44.1797C45.2344 44.7422 45.1875 45.7852 44.7539 46.2422C44.1797 46.8633 44.0742 46.875 40.6758 46.875C37.4766 46.875 37.0195 46.9219 36.7266 47.3203C36.4805 47.6367 36.5273 48.2109 36.832 48.4922C37.0781 48.7266 37.2305 48.7383 39.9023 48.7734C42.3281 48.8086 42.7617 48.832 43.0898 49.0195C44.168 49.6055 44.2031 51.082 43.1602 51.7617C42.8789 51.9492 42.5039 51.9727 39.9609 52.0078C37.2305 52.043 37.0781 52.0547 36.832 52.2891C36.6797 52.4297 36.5625 52.6758 36.5625 52.8633C36.5625 53.7891 36.8789 53.9062 39.4336 53.9062C40.6289 53.9062 41.5898 53.9531 41.7305 54.0234C42.0117 54.1758 42.3047 54.7383 42.3047 55.125C42.3047 55.2891 42.1523 55.5938 41.9648 55.8047L41.625 56.1914L36.4219 56.2266C32.9883 56.25 30.9141 56.2148 30.3047 56.1328C29.7891 56.0625 27.9961 55.5703 26.3203 55.0547C23.25 54.1172 21.7969 53.7891 20.6602 53.7891H20.0391V46.125V38.4727L21.0352 38.4141C21.7852 38.3672 22.1953 38.2734 22.6523 38.0391C23.4492 37.6523 23.7773 37.3008 24.4453 36.0938C25.582 34.0312 26.8242 32.7656 29.3086 31.1484C31.4531 29.7422 32.2266 29.0156 34.793 25.9688L36.8438 23.5312L37.1016 23.8242C37.2422 23.9883 37.4766 24.4336 37.6172 24.8086ZM17.332 36.0234C17.5078 36.1172 17.7656 36.3516 17.8828 36.5273C18.0938 36.8438 18.1055 37.2422 18.1406 45.9375C18.1758 56.0742 18.2109 55.5234 17.3555 56.0977L16.957 56.3672H9.42188H1.875V46.1133V35.8594H9.43359C15.8203 35.8594 17.0508 35.8828 17.332 36.0234Z" fill="black"/>
</g>
<defs>
<clipPath id="clip0_18_904">
<rect width="60" height="60" fill="white"/>
</clipPath>
</defs>
</svg>
