<svg width="60" height="60" viewBox="0 0 60 60" fill="none" xmlns="http://www.w3.org/2000/svg">
<g clip-path="url(#clip0_18_910)">
<path d="M27.973 1.11328C27.8558 1.19531 27.6097 1.62891 27.4339 2.0625C27.2582 2.49609 27.0355 2.89453 26.9417 2.94141C26.848 2.98828 26.3675 3.1875 25.8636 3.39844L24.9496 3.78516L24.223 3.46875C23.0277 2.96484 22.9925 2.97656 21.4808 4.48828C20.5082 5.46094 20.1566 5.88281 20.1566 6.09375C20.1566 6.25781 20.3089 6.72656 20.4964 7.13672L20.8363 7.875L20.4261 8.83594C19.8871 10.125 19.9105 10.1016 19.4183 10.2656C18.516 10.582 18.1761 10.793 18.0589 11.1562C17.8714 11.6953 17.8949 14.332 18.0941 14.8125C18.2347 15.1406 18.3871 15.2578 19.1019 15.5391C19.5707 15.7148 19.9691 15.9492 20.0042 16.0547C20.0394 16.1484 20.2386 16.6406 20.4496 17.1445L20.8363 18.0586L20.4964 18.7852C20.3089 19.1836 20.1566 19.6406 20.1566 19.793C20.1566 19.9922 20.5316 20.4492 21.4691 21.4102C22.9691 22.9219 23.0394 22.957 24.2582 22.418L24.973 22.1133L25.641 22.418C26.0042 22.5938 26.4964 22.8047 26.7191 22.8867C27.0707 23.0273 27.1644 23.1562 27.4222 23.8477C27.5863 24.2812 27.8207 24.7148 27.9496 24.7969C28.1136 24.9258 28.641 24.9609 30.0003 24.9609C31.3597 24.9609 31.8871 24.9258 32.0511 24.7969C32.18 24.7148 32.4144 24.2812 32.5785 23.8477C32.8363 23.1562 32.93 23.0273 33.2816 22.8867C33.5042 22.8047 33.9964 22.5938 34.3597 22.418L35.0277 22.1133L35.7425 22.418C36.9613 22.957 37.0316 22.9219 38.5316 21.4102C39.4808 20.4375 39.8441 19.9922 39.8441 19.793C39.8441 19.6406 39.6917 19.1836 39.5042 18.7734L39.1761 18.0352L39.5511 17.1328C39.7621 16.6406 39.9613 16.1484 39.9964 16.0547C40.0316 15.9492 40.43 15.7148 40.8988 15.5391C41.6136 15.2578 41.766 15.1406 41.9066 14.8125C42.1058 14.332 42.1292 11.6953 41.9417 11.1562C41.8246 10.8047 41.7425 10.7578 40.3949 10.1602C40.1253 10.043 39.973 9.79688 39.6214 8.94141L39.1761 7.86328L39.5042 7.125C39.6917 6.71484 39.8441 6.25781 39.8441 6.09375C39.8441 5.88281 39.4925 5.46094 38.5199 4.48828C37.0082 2.97656 36.973 2.96484 35.7777 3.46875L35.0511 3.77344L33.973 3.31641L32.8832 2.84766L32.5667 2.0625C32.391 1.62891 32.1449 1.19531 32.0277 1.11328C31.723 0.878906 28.2777 0.878906 27.973 1.11328ZM31.1019 3.45703C31.3949 4.30078 31.6175 4.51172 32.4261 4.74609C32.7894 4.85156 33.4457 5.12109 33.891 5.34375C34.8285 5.8125 35.1332 5.83594 35.93 5.46094L36.5394 5.17969L37.1488 5.80078L37.7699 6.43359L37.4652 7.125C37.2894 7.51172 37.1488 7.89844 37.1488 7.98047C37.1488 8.07422 37.3128 8.46094 37.5238 8.84766C37.723 9.23438 38.0042 9.91406 38.1449 10.3477C38.4613 11.3438 38.6136 11.5195 39.3285 11.7773C40.1722 12.0938 40.1957 12.1289 40.1957 13.0195V13.8164L39.5277 14.0625C38.6605 14.3906 38.4847 14.543 38.2621 15.2812C38.1566 15.6094 37.8519 16.3359 37.5824 16.8984L37.1136 17.9297L37.4417 18.75L37.7816 19.582L37.1957 20.168L36.598 20.7539L35.9183 20.4609C35.0863 20.0859 34.7816 20.0859 34.1722 20.4375C33.9027 20.5898 33.2699 20.8594 32.7542 21.0352C31.6058 21.4336 31.3832 21.6328 31.1019 22.4414L30.891 23.0859H30.0003H29.1097L28.8988 22.4414C28.6175 21.6328 28.3949 21.4336 27.2464 21.0352C26.7308 20.8594 26.098 20.5898 25.8285 20.4375C25.2191 20.0859 24.9144 20.0859 24.0824 20.4609L23.4027 20.7539L22.805 20.168L22.2191 19.582L22.5589 18.75L22.8988 17.918L22.5121 17.1328C22.2894 16.6992 21.9964 15.9844 21.8441 15.5391C21.4925 14.5312 21.3636 14.3789 20.4964 14.0625L19.805 13.8047V13.0078C19.805 12.1289 19.8285 12.0938 20.6722 11.7773C21.3871 11.5195 21.5394 11.3438 21.8558 10.3477C21.9964 9.91406 22.2777 9.23438 22.4769 8.84766C22.6878 8.46094 22.8519 8.07422 22.8519 7.98047C22.8519 7.89844 22.7113 7.51172 22.5355 7.125L22.2308 6.43359L22.8519 5.80078L23.4613 5.17969L24.0707 5.46094C24.8441 5.82422 25.1839 5.8125 25.9339 5.42578C26.2738 5.26172 26.9535 4.96875 27.4691 4.79297C28.4769 4.42969 28.5941 4.32422 28.8988 3.42188L29.1097 2.8125H30.0003H30.891L31.1019 3.45703Z" fill="black"/>
<path d="M28.5705 6.97266C25.8048 7.67578 23.9064 10.0781 23.883 12.8906C23.8595 14.6953 24.4923 16.1602 25.7931 17.3906C28.2306 19.6875 31.7697 19.6875 34.2072 17.3906C35.508 16.1602 36.1408 14.6953 36.1173 12.8906C36.1056 10.2891 34.5353 8.08594 32.0509 7.16016C31.1486 6.82031 29.508 6.72656 28.5705 6.97266ZM31.8165 9.09375C33.5392 9.90234 34.5822 11.8945 34.2189 13.6875C33.9259 15.1289 33.0587 16.2422 31.758 16.8633C31.2072 17.1211 30.9611 17.168 30.0001 17.168C29.0392 17.168 28.7931 17.1211 28.2423 16.8633C26.9298 16.2305 26.0275 15.0703 25.7697 13.6406C25.383 11.543 26.8478 9.32812 28.9923 8.77734C29.7072 8.58984 31.0783 8.74219 31.8165 9.09375Z" fill="black"/>
<path d="M11.1332 11.4258C9.2816 11.5781 9.19957 11.5898 8.94175 11.8945C8.60191 12.293 8.60191 12.6797 8.95347 13.0898C9.223 13.4063 9.25816 13.418 10.3832 13.3828L11.5316 13.3477L10.7699 14.1445C8.7191 16.3242 7.28941 19.2188 6.73863 22.2773C6.51597 23.5195 6.56285 23.7539 7.09019 24.0938C7.45347 24.3281 8.03941 24.2109 8.25035 23.8711C8.3441 23.7305 8.49644 23.1328 8.60191 22.5352C9.05894 19.9805 10.3714 17.3086 12.1175 15.4102L12.7621 14.707L12.5863 15.293C12.2464 16.3945 12.2464 16.7344 12.5394 17.0508C12.8793 17.4141 13.4886 17.4492 13.8168 17.1211C14.1332 16.8047 15.6097 12.2578 15.516 11.8828C15.3402 11.2031 14.8246 11.1445 11.1332 11.4258Z" fill="black"/>
<path d="M45.8556 15.1172C45.4806 15.2695 45.1994 15.7617 45.2814 16.1133C45.3283 16.2773 45.6916 16.8164 46.1017 17.3086C47.8126 19.3359 49.0666 22.2422 49.2892 24.6328L49.3595 25.3711L48.9025 24.7031C48.3869 23.918 47.9767 23.6953 47.4728 23.8945C47.1447 24.0352 46.8751 24.4453 46.8751 24.8086C46.8751 25.0781 49.4298 29.1445 49.7228 29.3555C50.0744 29.6016 50.4494 29.5781 50.7892 29.2617C50.9533 29.1211 51.7501 28.0781 52.5587 26.9531C53.7892 25.2422 54.0236 24.8437 54.0236 24.4805C54.0236 24.0586 53.8244 23.7773 53.4025 23.6367C52.9572 23.4727 52.6056 23.6953 51.9376 24.5977L51.2697 25.4883L51.1876 24.6797C50.9416 22.2422 49.9337 19.4883 48.5158 17.4023C47.9298 16.5469 46.9455 15.3398 46.7111 15.2227C46.4298 15.0586 46.1017 15.0234 45.8556 15.1172Z" fill="black"/>
<path d="M12.0118 25.5469C7.3595 26.168 4.8634 31.582 7.40637 35.5312C7.65246 35.918 8.12121 36.4922 8.44934 36.7969C9.01184 37.3359 9.02356 37.3711 8.76575 37.4414C8.20325 37.6172 6.58606 38.4844 5.87121 39C3.3634 40.7812 1.57043 43.6641 1.05481 46.7344C0.984495 47.2031 0.949339 47.7187 0.984495 47.8711C1.14856 48.5391 0.75012 48.5156 12.9728 48.5156C23.0861 48.5156 24.2345 48.4922 24.4689 48.3281C24.8907 48.0351 24.9611 47.707 24.7736 46.6875C24.0939 42.75 21.422 39.3398 17.7892 37.7461L16.8868 37.3476L17.6368 36.5508C19.6056 34.4531 20.0157 31.4766 18.6798 28.9453C18.2579 28.1484 17.2853 27.0703 16.5001 26.543C15.3048 25.7344 13.547 25.3476 12.0118 25.5469ZM14.59 27.668C17.7189 28.8516 18.5861 32.9531 16.2189 35.3203C15.3751 36.1758 14.379 36.5976 13.1251 36.6562C12.34 36.6914 11.9884 36.6445 11.4611 36.457C9.24621 35.6836 7.922 33.4805 8.32043 31.2656C8.84778 28.3711 11.8595 26.6484 14.59 27.668ZM15.4454 38.9062C18.7267 39.7383 21.5275 42.3398 22.5704 45.5391C22.7462 46.0781 22.8634 46.5586 22.8282 46.582C22.7931 46.6172 18.3048 46.6289 12.8556 46.6172L2.92981 46.582L3.32825 45.4453C5.03918 40.4648 10.3009 37.6172 15.4454 38.9062Z" fill="black"/>
<path d="M42.4691 36.9023C37.4066 39.8203 37.2074 39.9609 37.055 40.3828C36.9379 40.7227 36.9144 42.1523 36.9379 46.7227L36.973 52.6172L37.266 52.8984C37.6527 53.2617 47.7074 59.0625 47.9769 59.0625C48.2699 59.0625 48.6683 58.8398 53.8949 55.8281C56.5082 54.3164 58.7464 52.9688 58.8636 52.8398C59.0511 52.6055 59.0629 52.125 59.0629 46.4531V40.3242L58.805 40.0312C58.6527 39.8789 57.4574 39.1289 56.1332 38.3789C54.8089 37.6172 52.5121 36.293 51.0238 35.4375C49.5355 34.5703 48.1879 33.8672 48.0238 33.8672C47.8597 33.8672 45.4339 35.2031 42.4691 36.9023ZM48.9027 36.375C49.348 36.6211 49.6644 36.8672 49.6058 36.9141C49.5589 36.9609 47.7074 38.0391 45.5043 39.3047L41.4847 41.6133L40.6644 41.1211C40.2074 40.8516 39.8558 40.6055 39.891 40.582C40.0082 40.4531 47.9886 35.8711 48.0472 35.8945C48.0824 35.9062 48.4691 36.1172 48.9027 36.375ZM52.1371 38.2383C52.5121 38.4492 52.5941 38.543 52.4769 38.6367C52.1839 38.8711 44.5316 43.2422 44.4261 43.2422C44.1566 43.2422 43.4652 42.7383 43.5707 42.6328C43.7113 42.4922 51.4691 37.9805 51.5746 37.9688C51.6214 37.9688 51.8793 38.0977 52.1371 38.2383ZM55.9339 40.4297L56.2504 40.6289L52.1371 42.9961L48.0238 45.3633L47.2504 44.918C46.8285 44.6719 46.4769 44.4375 46.4769 44.3906C46.4652 44.332 48.2816 43.2422 50.4964 41.9648L54.5394 39.6211L55.0668 39.9375C55.3714 40.1016 55.7464 40.3242 55.9339 40.4297ZM39.7269 42.75L40.4886 43.1953L40.5472 45.4336C40.5941 47.1094 40.6527 47.707 40.7699 47.8594C41.0277 48.1641 44.2035 49.9219 44.5082 49.9219C44.6488 49.9219 44.9066 49.793 45.0589 49.6289C45.3402 49.3594 45.3519 49.2891 45.3519 47.6953C45.3519 46.793 45.3754 46.0547 45.3988 46.0547C45.4222 46.0547 45.8207 46.2656 46.2777 46.5352L47.1097 47.0156V51.75V56.4961L46.8519 56.3555C46.2777 56.0508 39.0707 51.8789 38.9418 51.7734C38.8246 51.6797 38.7894 50.5781 38.7894 46.9805C38.7894 44.4023 38.8246 42.3047 38.8832 42.3047C38.93 42.3047 39.305 42.5039 39.7269 42.75ZM57.1879 47.0273V51.75L53.3558 53.9648C51.2347 55.1836 49.3949 56.25 49.2425 56.3438L48.9847 56.5078L49.0082 51.7266L49.0433 46.9453L53.0277 44.6367C55.2191 43.3594 57.0472 42.3164 57.1058 42.3164C57.1527 42.3047 57.1879 44.4258 57.1879 47.0273ZM43.4769 46.125V47.3555L42.9847 47.0625L42.4808 46.7578L42.4457 45.5391L42.4105 44.3086L42.9496 44.6016L43.4769 44.9062V46.125Z" fill="black"/>
<path d="M22.4766 50.1445C21.2695 50.2031 21.0703 50.25 20.8477 50.4726C20.6953 50.6133 20.5898 50.8711 20.5898 51.0586C20.5898 51.4922 22.6758 56.1328 22.9805 56.3906C23.332 56.6953 23.8594 56.6601 24.1992 56.3086C24.5859 55.9336 24.5625 55.6289 24.082 54.5508C23.6133 53.5195 23.5547 53.5547 24.9141 54.1172C27.5391 55.2187 30.8906 55.5469 33.8086 54.9961C34.9453 54.7851 35.0859 54.7148 35.2734 54.2578C35.4609 53.8242 35.3086 53.4258 34.875 53.1328C34.5938 52.957 34.5 52.957 33.5508 53.1562C32.1797 53.4375 29.4961 53.4375 28.1836 53.1562C27.1641 52.9336 25.8867 52.5234 25.1367 52.1836L24.668 51.9726L25.3125 51.9375C26.2031 51.9023 26.4375 51.832 26.7188 51.5391C27.0352 51.1875 27.0234 50.6836 26.6602 50.332C26.3906 50.0508 26.3086 50.0391 25.1133 50.0625C24.4219 50.0742 23.2266 50.1094 22.4766 50.1445Z" fill="black"/>
</g>
<defs>
<clipPath id="clip0_18_910">
<rect width="60" height="60" fill="white"/>
</clipPath>
</defs>
</svg>
