<svg width="60" height="60" viewBox="0 0 60 60" fill="none" xmlns="http://www.w3.org/2000/svg">
<path d="M9 37.3439C9 43.9978 13.3505 49.601 18.6082 49.601H25.1856C27.8041 50.9811 30.9794 51.7846 34.5257 51.7846H37.2886C39.7629 51.7846 41.9072 51.6403 43.3299 51.2901C46.0927 50.6104 47.8247 48.6946 47.8247 46.2637C47.8247 45.7488 47.7422 45.2956 47.6185 44.8422C48.9794 43.8123 49.7422 42.3084 49.7422 40.6604C49.7422 39.8571 49.5773 39.0537 49.2886 38.4151C50.2165 37.4674 50.732 36.0873 50.732 34.6454C50.732 33.7183 50.5051 32.7295 50.1134 32.0085C50.6701 31.205 51 30.0721 51 28.8772C51 25.9108 48.6701 23.5625 45.7011 23.5625H38.1752C37.7216 23.5625 37.4331 23.3565 37.4331 22.965C37.4331 20.8226 40.8144 15.7962 40.8144 11.7586C40.8144 8.97761 38.8763 7 36.2166 7C34.2578 7 32.9382 8.0094 31.6392 10.4814C29.2268 15.1164 26.3402 19.2776 21.6392 25.0045H17.866C12.9588 25.0045 9 30.5458 9 37.3439ZM20.6083 37.2409C20.6083 32.9355 21.5773 30.1957 24.2577 26.5906C27.2474 22.5942 31.3918 17.815 34.3815 11.8822C35.1238 10.3784 35.6185 10.0488 36.3403 10.0488C37.1855 10.0488 37.763 10.6462 37.763 11.7586C37.763 14.9722 34.3815 19.8338 34.3815 22.965C34.3815 25.2311 36.2372 26.6112 38.6082 26.6112H45.7011C46.9793 26.6112 47.9484 27.5794 47.9484 28.8772C47.9484 29.8249 47.6391 30.4222 46.8762 31.205C46.5051 31.5346 46.464 31.9467 46.7733 32.3381C47.4123 33.2856 47.6804 33.8624 47.6804 34.6454C47.6804 35.5723 47.2474 36.3756 46.3403 37.0556C45.8453 37.4469 45.6391 37.9619 45.9279 38.5798C46.4432 39.5069 46.6908 39.9395 46.6908 40.6604C46.6908 41.7111 46.0104 42.5145 44.5669 43.2561C44.1133 43.5238 44.0102 43.8948 44.1959 44.3274C44.6908 45.5633 44.7525 45.7488 44.7525 46.2637C44.7525 47.2113 44.0516 47.9735 42.6083 48.3443C41.433 48.6327 39.5567 48.7563 37.3092 48.7563H34.7525C26.2577 48.7563 20.6083 43.9359 20.6083 37.2409ZM12.0516 37.3439C12.0516 32.2146 14.8144 28.0533 17.866 28.0533C18.4639 28.0533 19.0619 28.0533 19.6598 28.0533C18.1959 30.8137 17.5567 33.6977 17.5567 37.1792C17.5567 40.8665 18.8763 44.0802 21.2474 46.5316C20.3608 46.5316 19.4948 46.5316 18.6082 46.5316C15.1237 46.5316 12.0516 42.3292 12.0516 37.3439Z" fill="black"/>
</svg>
