<svg width="60" height="60" viewBox="0 0 60 60" fill="none" xmlns="http://www.w3.org/2000/svg">
<path d="M19.4396 52.7344H41.5605C45.1142 52.7344 47 50.787 47 46.9409V30.1695C47 26.3477 45.1142 24.4004 41.5605 24.4004H19.4396C15.8857 24.4004 14 26.3477 14 30.1695V46.9409C14 50.787 15.8857 52.7344 19.4396 52.7344ZM19.5604 49.0586C18.5209 49.0586 17.9165 48.4014 17.9165 47.2087V29.9017C17.9165 28.709 18.5209 28.0761 19.5604 28.0761H41.4396C42.5033 28.0761 43.0836 28.709 43.0836 29.9017V47.2087C43.0836 48.4014 42.5033 49.0586 41.4396 49.0586H19.5604ZM18.2308 26.2748H22.0747V18.0716C22.0747 11.9131 25.967 8.67561 30.4879 8.67561C35.0088 8.67561 38.9495 11.9131 38.9495 18.0716V26.2748H42.7692V18.5827C42.7692 9.43021 36.822 5 30.4879 5C24.178 5 18.2308 9.43021 18.2308 18.5827V26.2748Z" fill="black"/>
</svg>
