<svg width="60" height="60" viewBox="0 0 60 60" fill="none" xmlns="http://www.w3.org/2000/svg">
<g clip-path="url(#clip0_18_899)">
<path d="M19.4531 1.00782C14.1328 1.64063 9.80861 3.66798 6.29299 7.1836C-0.187482 13.6641 -1.82811 23.3555 2.16799 31.5938C4.88674 37.2188 10.0547 41.4141 16.1602 42.9609C19.9219 43.9219 24.3047 43.7578 28.0313 42.5274C30.0469 41.8594 32.4375 40.6172 34.0196 39.4102L34.6875 38.8945L37.1836 41.3086L39.6914 43.7344L39.4453 44.2149C39.1172 44.8828 39.1172 45.9492 39.4571 46.582C39.5977 46.8399 40.6406 47.9766 41.8008 49.1133C47.2266 54.457 51.3985 58.4414 51.8321 58.7109C52.4883 59.1094 53.7305 59.1211 54.4453 58.7461C54.9961 58.4531 59.3906 53.9414 59.7188 53.3203C60.0469 52.6992 60.0235 51.4102 59.6719 50.8008C59.3555 50.2383 48 39.2109 47.3438 38.8125C46.7461 38.4492 45.7969 38.3555 45.1406 38.5899L44.625 38.7656L42.1524 36.3633C40.7813 35.0274 39.5977 33.8789 39.5156 33.8086C39.3867 33.6914 39.4219 33.5625 39.7149 33.082C40.3008 32.1328 41.2031 30.1406 41.5899 28.9453C45.6328 16.4414 37.7461 3.44532 24.7852 1.21876C23.7656 1.04298 20.2852 0.902351 19.4531 1.00782ZM23.4141 2.94141C29.1211 3.56251 34.3125 6.71485 37.5586 11.543C38.3086 12.668 39.4102 14.9531 39.8321 16.2539C40.5235 18.3633 40.7227 19.7344 40.711 22.2656C40.711 25.6992 40.2305 27.8438 38.8008 30.7617C37.8164 32.7656 36.8672 34.125 35.3321 35.7188C30.6328 40.6172 23.9531 42.6797 17.25 41.2969C12.5391 40.3242 7.95705 37.2188 5.26174 33.1875C1.26564 27.2227 0.785174 20.0391 3.93752 13.6524C4.92189 11.6602 5.96486 10.207 7.61721 8.5547C9.22267 6.94923 10.6875 5.88282 12.5977 4.92188C16.0313 3.21095 19.6992 2.53126 23.4141 2.94141ZM40.8281 37.6641L43.2774 40.043L42.1875 41.1797C41.5781 41.8008 41.0274 42.293 40.9453 42.2813C40.875 42.2578 39.75 41.2149 38.461 39.9492L36.1055 37.6524L36.5742 37.1953C36.8321 36.9492 37.3242 36.4102 37.6524 36C37.9805 35.6016 38.2735 35.2734 38.3086 35.2852C38.3438 35.2852 39.4805 36.3516 40.8281 37.6641ZM46.8985 40.8633C48.4102 42.2109 58.0078 51.6211 58.0781 51.8203C58.1133 51.9492 58.1133 52.1836 58.0781 52.3359C57.9844 52.7109 53.7188 57.0586 53.3555 57.1406C53.2031 57.1875 52.9688 57.1758 52.8516 57.1172C52.4531 56.9297 41.1563 45.9024 41.086 45.6328C41.0508 45.4922 41.0625 45.2461 41.1211 45.0938C41.1797 44.9414 42.2227 43.8047 43.4414 42.5625C45.9844 39.9609 45.9141 39.9961 46.8985 40.8633Z" fill="black"/>
<path d="M19.4533 6.21094C15.7971 6.72656 12.7737 8.15625 10.2307 10.582C7.72287 12.9844 6.09397 15.9492 5.43772 19.3359C5.12131 20.9531 5.14475 23.9062 5.48459 25.4531C6.7385 31.2305 10.8283 35.8359 16.2776 37.6172C18.176 38.2266 19.1018 38.3672 21.3283 38.3789C23.7072 38.3789 24.9846 38.1562 27.0705 37.3711C35.8362 34.0898 39.9612 23.8477 35.9299 15.3984C35.0862 13.6289 34.2658 12.4688 32.9065 11.0625C30.551 8.63672 27.7151 7.07812 24.5041 6.43359C23.2033 6.17578 20.5549 6.05859 19.4533 6.21094ZM24.0822 8.26172C30.0588 9.49219 34.5471 14.1914 35.4494 20.1562C36.4924 26.9883 32.4377 33.6094 25.8752 35.8008C19.8166 37.8281 13.2307 35.6367 9.60959 30.3984C5.67209 24.7031 6.3635 17.0742 11.2502 12.1875C13.4533 9.99609 16.4182 8.51953 19.5119 8.09766C20.6252 7.94531 22.9338 8.02734 24.0822 8.26172Z" fill="black"/>
<path d="M28.1836 14.3555C27.9258 14.4492 27.6914 14.5312 27.6562 14.5312C27.6328 14.5312 25.6875 16.4414 23.3555 18.7734L19.1016 23.0156L17.1445 21.082C15.4922 19.4531 15.082 19.1016 14.6016 18.9492C12.5508 18.2578 10.5469 19.6406 10.5469 21.7266C10.5586 22.9687 10.7109 23.1914 14.1562 26.6367C15.9023 28.3945 17.4844 29.8828 17.7539 30.0234C18.0117 30.1523 18.5391 30.293 18.9258 30.3281C20.2969 30.4336 20.2148 30.4922 26.2148 24.457C30.0938 20.5547 31.6641 18.8906 31.8516 18.5039C32.2266 17.7305 32.2031 16.6523 31.8047 15.832C31.1484 14.5312 29.543 13.875 28.1836 14.3555ZM29.9766 16.4648C30.1523 16.6758 30.2344 16.9219 30.2344 17.2383C30.2344 17.707 30.1523 17.8008 25.0547 22.9922C22.1953 25.8867 19.7695 28.3125 19.6641 28.3711C19.5586 28.4297 19.2891 28.4766 19.0781 28.4766C18.7383 28.4766 18.3984 28.1719 15.5625 25.3359C12.5508 22.3359 12.4219 22.1836 12.4219 21.7617C12.4219 21.1406 12.9258 20.625 13.5469 20.625C13.957 20.625 14.1211 20.7539 16.3477 22.9687C18.4805 25.0898 18.75 25.3125 19.1133 25.3125C19.4883 25.3242 19.8047 25.0195 23.9648 20.8242C26.4141 18.3398 28.5234 16.2539 28.6523 16.1836C29.0156 15.9844 29.6719 16.125 29.9766 16.4648Z" fill="black"/>
</g>
<defs>
<clipPath id="clip0_18_899">
<rect width="60" height="60" fill="white"/>
</clipPath>
</defs>
</svg>
