<svg width="60" height="60" viewBox="0 0 60 60" fill="none" xmlns="http://www.w3.org/2000/svg">
<path d="M27.2662 44C30.1937 44 32.9509 43.4927 35.4187 42.6641C35.2145 41.4634 35.3677 40.5335 35.9804 39.4681C33.3253 40.6011 30.3809 41.3282 27.2662 41.3282C16.0671 41.3282 6.97848 31.8926 6.97848 29.5084C6.97848 27.4962 16.0671 17.6886 27.2662 17.6886C34.4997 17.6886 40.8141 21.7807 44.3882 25.2303C45.1712 24.4863 46.2433 24.0635 47.3837 24.0635C43.5202 19.8192 36.2868 15.0169 27.2662 15.0169C13.7013 15.0169 4 26.042 4 29.5084C4 32.958 13.6843 44 27.2662 44ZM27.2662 38.9778C32.5595 38.9778 36.8144 34.6658 36.8144 29.5084C36.8144 24.2157 32.5595 20.0391 27.2662 20.0391C21.939 20.0391 17.667 24.2157 17.701 29.5084C17.718 34.6658 21.939 38.9778 27.2662 38.9778ZM27.2662 36C22.5 36 21.5 31.2332 21.5 29.5084C21.5 27.7667 22 23.5 27.2662 23.5C33 23.5 33 27.7667 33 29.5084C33 31.2332 33 36 27.2662 36ZM39.963 44H54.7024C56.1149 44 57 43.0022 57 41.734C57 41.3451 56.8979 40.9731 56.6936 40.6011L49.307 27.5131C48.8644 26.7352 48.0986 26.3463 47.3326 26.3463C46.5668 26.3463 45.7668 26.7352 45.3413 27.5131L37.9717 40.618C37.7675 40.9731 37.6654 41.3451 37.6654 41.734C37.6654 43.0022 38.5505 44 39.963 44ZM47.3326 41.4297C46.5498 41.4297 45.9031 40.7871 45.9031 39.9923C45.9031 39.2144 46.5498 38.5719 47.3326 38.5719C48.1326 38.5719 48.7793 39.2315 48.7793 39.9923C48.7623 40.7871 48.1326 41.4297 47.3326 41.4297ZM47.3326 37.3883C46.737 37.3883 46.3285 36.9825 46.3115 36.4075L46.1754 31.5714C46.1582 30.895 46.6349 30.4215 47.3326 30.4215C48.0475 30.4215 48.524 30.895 48.507 31.5714L48.3709 36.4075C48.3539 36.9825 47.9284 37.3883 47.3326 37.3883Z" fill="black"/>
</svg>
