<svg width="27" height="22" viewBox="0 0 27 22" fill="none" xmlns="http://www.w3.org/2000/svg">
<path fill-rule="evenodd" clip-rule="evenodd" d="M13.518 0.0220105C7.71425 0.391357 0.21568 2.63126 0.508307 9.50586C0.764356 15.4035 3.25169 22.4211 10.4332 21.9802C16.2492 21.6228 23.7844 19.371 23.4917 12.4964C23.2357 6.53918 20.7484 -0.442651 13.518 0.0220105Z" fill="#E8E8E8"/>
<path d="M12.7656 16.1602C13.2203 16.1602 14.1395 15.6226 14.5212 15.1991C15.108 14.548 15.4014 14.2225 15.4031 14.2207C15.4048 14.2188 14.2955 15.4246 14.7392 14.9423L26.5793 2.07244C26.6472 1.99855 26.6812 1.96161 26.7176 1.91051C26.754 1.85941 26.7699 1.82974 26.8018 1.77041C26.943 1.50767 27 1.29111 27 1.06641C27 0.42187 26.5781 0 25.9336 0C25.5265 0 25.2785 0.114877 25.0362 0.436715C24.9385 0.566465 24.8896 0.63134 24.8715 0.652782C24.8534 0.674224 24.8328 0.695942 24.7917 0.73938L14.1589 11.9779C13.4828 12.6925 13.1447 13.0498 12.7168 13.0517C12.2889 13.0536 11.9477 12.6992 11.2653 11.9905L5.73444 6.24618C5.70328 6.21381 5.6877 6.19763 5.67393 6.18208C5.66016 6.16654 5.62145 6.11901 5.54405 6.02395C5.27944 5.69901 5.00434 5.56642 4.625 5.56642C3.95703 5.56642 3.5 6.02342 3.5 6.66792C3.5 6.93752 3.61719 7.24222 3.83984 7.52342L11.5469 15.4805C11.8984 15.9375 12.2617 16.1602 12.7656 16.1602Z" fill="url(#paint0_linear_182_9443)"/>
<defs>
<linearGradient id="paint0_linear_182_9443" x1="1.44375" y1="21.547" x2="31.747" y2="20.0184" gradientUnits="userSpaceOnUse">
<stop stop-color="#730000"/>
<stop offset="1" stop-color="#FF0000"/>
</linearGradient>
</defs>
</svg>
