<svg width="24" height="17" viewBox="0 0 24 17" fill="none" xmlns="http://www.w3.org/2000/svg">
<path d="M9.76562 16.1602C10.2203 16.1602 11.1395 15.6226 11.5212 15.1991C12.108 14.548 12.4014 14.2225 12.4031 14.2207C12.4048 14.2188 11.2955 15.4246 11.7392 14.9423L23.5793 2.07244C23.6472 1.99855 23.6812 1.96161 23.7176 1.91051C23.754 1.85941 23.7699 1.82974 23.8018 1.77041C23.943 1.50767 24 1.29111 24 1.06641C24 0.42187 23.5781 0 22.9336 0C22.5265 0 22.2785 0.114877 22.0362 0.436715C21.9385 0.566465 21.8896 0.63134 21.8715 0.652782C21.8534 0.674224 21.8328 0.695942 21.7917 0.73938L11.1589 11.9779C10.4828 12.6925 10.1447 13.0498 9.71679 13.0517C9.28886 13.0536 8.94769 12.6992 8.26534 11.9905L2.73444 6.24618C2.70328 6.21381 2.6877 6.19763 2.67393 6.18208C2.66016 6.16654 2.62145 6.11901 2.54405 6.02395C2.27944 5.69901 2.00434 5.56642 1.625 5.56642C0.957031 5.56642 0.5 6.02342 0.5 6.66792C0.5 6.93752 0.617188 7.24222 0.839844 7.52342L8.54688 15.4805C8.89844 15.9375 9.26172 16.1602 9.76562 16.1602Z" fill="url(#paint0_linear_182_9445)"/>
<defs>
<linearGradient id="paint0_linear_182_9445" x1="-1.55625" y1="21.547" x2="28.747" y2="20.0184" gradientUnits="userSpaceOnUse">
<stop stop-color="#730000"/>
<stop offset="1" stop-color="#FF0000"/>
</linearGradient>
</defs>
</svg>
