<svg width="24" height="24" viewBox="0 0 24 24" fill="none" xmlns="http://www.w3.org/2000/svg">
<path d="M6.15734 12.1636C6.40872 12.1356 6.65081 12.1169 6.89289 12.1169C7.14427 12.1169 7.38636 12.1356 7.65637 12.1636V4.05549C7.65637 3.12964 8.14984 2.59658 9.11816 2.59658H13.2614V8.03005C13.2614 9.20843 13.848 9.78828 15.0118 9.78828H20.319V18.1863C20.319 19.1215 19.8255 19.6359 18.8572 19.6359H12.7028C12.5817 20.169 12.3769 20.6833 12.1069 21.1415H18.9317C20.859 21.1415 21.818 20.1596 21.818 18.2144V9.72276C21.818 8.51637 21.6784 7.9927 20.9335 7.22581L15.8033 1.97936C15.0957 1.2499 14.5091 1.09091 13.4663 1.09091H9.04367C7.12566 1.09091 6.15734 2.08222 6.15734 4.02743V12.1636ZM14.6673 7.85241V2.88649L20.0303 8.37608H15.1795C14.807 8.37608 14.6673 8.22645 14.6673 7.85241ZM6.9115 22.9091C9.47197 22.9091 11.6413 20.7487 11.6413 18.1582C11.6413 15.5491 9.50921 13.4074 6.9115 13.4074C4.3138 13.4074 2.18164 15.5491 2.18164 18.1582C2.18164 20.7675 4.3138 22.9091 6.9115 22.9091ZM6.92082 15.1376C7.0791 15.1376 7.20014 15.2124 7.35842 15.3527L9.76991 17.6065C9.91888 17.7281 9.97475 17.8684 9.97475 18.046C9.97475 18.364 9.73267 18.6165 9.40679 18.5978C9.24851 18.5885 9.09954 18.523 8.98781 18.4107L8.09398 17.5129L7.48878 16.8771L7.53533 18.0741V20.5523C7.53533 20.8797 7.25601 21.1509 6.92082 21.1509C6.58563 21.1509 6.30631 20.8797 6.30631 20.5523V18.0741L6.35286 16.8771L5.73835 17.5129L4.86314 18.4107C4.7421 18.523 4.58382 18.6071 4.42554 18.5978C4.10897 18.5978 3.83896 18.364 3.85758 18.046C3.86689 17.8684 3.93206 17.7281 4.07173 17.6065L6.4739 15.3527C6.64149 15.203 6.77184 15.1376 6.92082 15.1376Z" fill="black"/>
</svg>
