<svg width="16" height="16" viewBox="0 0 16 16" fill="none" xmlns="http://www.w3.org/2000/svg">
<path d="M7.33203 12H8.66536V10.6667H7.33203V12ZM7.9987 1.33333C7.12322 1.33333 6.25631 1.50577 5.44747 1.8408C4.63864 2.17583 3.90371 2.66689 3.28465 3.28595C2.03441 4.53619 1.33203 6.23188 1.33203 8C1.33203 9.76811 2.03441 11.4638 3.28465 12.714C3.90371 13.3331 4.63864 13.8242 5.44747 14.1592C6.25631 14.4942 7.12322 14.6667 7.9987 14.6667C9.76681 14.6667 11.4625 13.9643 12.7127 12.714C13.963 11.4638 14.6654 9.76811 14.6654 8C14.6654 7.12452 14.4929 6.25761 14.1579 5.44877C13.8229 4.63993 13.3318 3.90501 12.7127 3.28595C12.0937 2.66689 11.3588 2.17583 10.5499 1.8408C9.74108 1.50577 8.87418 1.33333 7.9987 1.33333ZM7.9987 13.3333C5.0587 13.3333 2.66536 10.94 2.66536 8C2.66536 5.06 5.0587 2.66666 7.9987 2.66666C10.9387 2.66666 13.332 5.06 13.332 8C13.332 10.94 10.9387 13.3333 7.9987 13.3333ZM7.9987 3.99999C7.29145 3.99999 6.61318 4.28095 6.11308 4.78104C5.61298 5.28114 5.33203 5.95942 5.33203 6.66666H6.66536C6.66536 6.31304 6.80584 5.9739 7.05589 5.72385C7.30594 5.4738 7.64508 5.33333 7.9987 5.33333C8.35232 5.33333 8.69146 5.4738 8.94151 5.72385C9.19156 5.9739 9.33203 6.31304 9.33203 6.66666C9.33203 8 7.33203 7.83333 7.33203 10H8.66536C8.66536 8.5 10.6654 8.33333 10.6654 6.66666C10.6654 5.95942 10.3844 5.28114 9.88432 4.78104C9.38422 4.28095 8.70594 3.99999 7.9987 3.99999Z" fill="#C7C7C7"/>
</svg>
