<svg width="24" height="24" viewBox="0 0 24 24" fill="none" xmlns="http://www.w3.org/2000/svg">
<path d="M11.2978 16.5256L11.2979 16.5256L11.3003 16.5279C11.4902 16.7058 11.7323 16.8 12 16.8C12.2642 16.8 12.4964 16.708 12.7028 16.525C12.7031 16.5248 12.7033 16.5245 12.7036 16.5243L22.5234 7.6177L22.525 7.61625C22.7125 7.4499 22.8 7.25602 22.8 7.02352C22.8 6.58079 22.4168 6.2 21.8467 6.2C21.5668 6.2 21.3341 6.29423 21.1542 6.44342L12.1344 14.6287L12 14.7507L11.8656 14.6287L2.84572 6.44343C2.66646 6.29489 2.42159 6.2 2.15323 6.2C1.58311 6.2 1.2 6.58077 1.2 7.02352C1.2 7.25646 1.28801 7.45188 1.46518 7.6189L11.2978 16.5256Z" fill="black" stroke="#E8E8E8" stroke-width="0.4"/>
</svg>
