<svg width="90" height="65" viewBox="0 0 90 65" fill="none" xmlns="http://www.w3.org/2000/svg">
<path d="M21.4447 35.2421C19.7717 35.2421 18.1044 35.0369 16.4428 34.6267C14.7813 34.2164 13.3317 33.6353 12.0941 32.8832L14.5693 27.7893C15.5318 28.4275 16.6033 28.9175 17.7835 29.2593C18.9638 29.6012 20.1154 29.7722 21.2384 29.7722C22.4072 29.7722 23.3354 29.5556 24.023 29.1226C24.7105 28.6896 25.0543 28.0742 25.0543 27.2765C25.0543 26.57 24.7678 26.0059 24.1949 25.5842C23.6219 25.1626 22.6823 24.9518 21.3759 24.9518H18.5226V20.6784L24.9855 13.7384L25.6387 16.0631H13.3317V10.8325H30.7265V15.0718L24.2636 22.0117L20.929 20.1314H22.7854C25.7876 20.1314 28.0622 20.798 29.6092 22.1313C31.1562 23.4646 31.9296 25.1797 31.9296 27.2765C31.9296 28.644 31.5573 29.9317 30.8124 31.1396C30.0675 32.3476 28.9274 33.3333 27.3919 34.0968C25.8564 34.8603 23.874 35.2421 21.4447 35.2421Z" fill="white"/>
<path d="M43.5769 35.2437C41.3309 35.2437 39.3771 34.7992 37.7156 33.9104C36.054 33.0215 34.7592 31.6996 33.831 29.9447C32.9028 28.1897 32.4387 26.0246 32.4387 23.4491C32.4387 20.6686 32.983 18.304 34.0716 16.3553C35.1602 14.4067 36.6614 12.9195 38.575 11.8939C40.4886 10.8683 42.706 10.3555 45.2269 10.3555C46.5791 10.3555 47.8797 10.5093 49.1287 10.817C50.3777 11.1247 51.4377 11.5521 52.3086 12.099L49.8335 16.9536C49.1459 16.475 48.4297 16.1502 47.6849 15.9793C46.9401 15.8083 46.178 15.7228 45.3988 15.7228C43.5425 15.7228 42.0586 16.2813 40.947 17.398C39.8355 18.5148 39.2797 20.1444 39.2797 22.2867C39.2797 22.6742 39.2855 23.0788 39.297 23.5004C39.3084 23.9221 39.3485 24.3494 39.4172 24.7824L37.6984 23.3807C38.1567 22.5375 38.7125 21.8309 39.3657 21.2611C40.0188 20.6914 40.7981 20.2584 41.7033 19.9621C42.6085 19.6658 43.6227 19.5176 44.7457 19.5176C46.2582 19.5176 47.6391 19.831 48.8881 20.4577C50.1372 21.0845 51.1398 21.962 51.8961 23.0902C52.6524 24.2183 53.0305 25.5459 53.0305 27.0729C53.0305 28.7367 52.6065 30.1783 51.7586 31.3976C50.9106 32.6169 49.7762 33.5628 48.3552 34.2351C46.9343 34.9075 45.3415 35.2437 43.5769 35.2437ZM43.1643 30.4233C43.8061 30.4233 44.3733 30.2979 44.866 30.0472C45.3587 29.7965 45.7426 29.4432 46.0176 28.9874C46.2926 28.5316 46.4301 27.996 46.4301 27.3806C46.4301 26.469 46.1265 25.7397 45.5191 25.1927C44.9118 24.6457 44.1154 24.3722 43.1299 24.3722C42.4653 24.3722 41.8867 24.4975 41.3939 24.7482C40.9012 24.9989 40.5116 25.3522 40.2251 25.808C39.9386 26.2638 39.7954 26.7994 39.7954 27.4148C39.7954 28.0074 39.9329 28.5259 40.2079 28.9704C40.4829 29.4148 40.8725 29.768 41.3767 30.0301C41.8809 30.2923 42.4768 30.4233 43.1643 30.4233Z" fill="white"/>
<path d="M64.1622 35.2437C62.0995 35.2437 60.2718 34.7536 58.679 33.7736C57.0863 32.7936 55.8315 31.3805 54.9147 29.5344C53.998 27.6883 53.5397 25.4434 53.5397 22.7996C53.5397 20.1558 53.998 17.9108 54.9147 16.0647C55.8315 14.2186 57.0863 12.8056 58.679 11.8255C60.2718 10.8455 62.0995 10.3555 64.1622 10.3555C66.2018 10.3555 68.0181 10.8455 69.6109 11.8255C71.2037 12.8056 72.4585 14.2186 73.3752 16.0647C74.2919 17.9108 74.7503 20.1558 74.7503 22.7996C74.7503 25.4434 74.2919 27.6883 73.3752 29.5344C72.4585 31.3805 71.2037 32.7936 69.6109 33.7736C68.0181 34.7536 66.2018 35.2437 64.1622 35.2437ZM64.1622 29.7054C64.8955 29.7054 65.543 29.4775 66.1045 29.0216C66.6659 28.5658 67.1071 27.8308 67.4279 26.8166C67.7488 25.8023 67.9093 24.4634 67.9093 22.7996C67.9093 21.113 67.7488 19.7683 67.4279 18.7655C67.1071 17.7627 66.6659 17.0334 66.1045 16.5775C65.543 16.1217 64.8955 15.8938 64.1622 15.8938C63.4287 15.8938 62.7813 16.1217 62.2199 16.5775C61.6584 17.0334 61.2115 17.7627 60.8791 18.7655C60.5469 19.7683 60.3807 21.113 60.3807 22.7996C60.3807 24.4634 60.5469 25.8023 60.8791 26.8166C61.2115 27.8308 61.6584 28.5658 62.2199 29.0216C62.7813 29.4775 63.4287 29.7054 64.1622 29.7054Z" fill="white"/>
<path fill-rule="evenodd" clip-rule="evenodd" d="M76.7214 13.4715C75.5849 13.4715 74.5081 13.2075 73.5142 12.6597C72.5378 12.1215 71.7498 11.3774 71.1668 10.4308C70.5664 9.45593 70.2893 8.37788 70.2893 7.23577C70.2893 6.10304 70.5718 5.03906 71.1668 4.07288C71.7473 3.13041 72.5266 2.38163 73.4908 1.832C74.4863 1.26446 75.5746 1 76.7214 1C77.8774 1 78.9799 1.25938 79.9843 1.832C80.9486 2.38163 81.7278 3.13041 82.3083 4.07288C82.9033 5.03906 83.1858 6.10304 83.1858 7.23577C83.1858 8.37788 82.9087 9.45593 82.3083 10.4308C81.7282 11.3726 80.9483 12.1179 79.9797 12.6582C78.974 13.2193 77.8724 13.4715 76.7214 13.4715ZM76.7214 9.42644C77.1196 9.42644 77.502 9.34599 77.8449 9.13963C78.1686 8.94477 78.4244 8.68838 78.614 8.36272C78.8103 8.02545 78.8919 7.65626 78.8919 7.26794C78.8919 6.86342 78.8117 6.47357 78.6108 6.11932C78.4269 5.795 78.1785 5.54018 77.8546 5.35369C77.5071 5.15371 77.12 5.07725 76.7214 5.07725C76.3309 5.07725 75.9597 5.15846 75.6206 5.35369C75.2966 5.54018 75.0483 5.79508 74.8644 6.11932C74.6683 6.46498 74.5832 6.83958 74.5832 7.23577C74.5832 7.63208 74.66 8.0172 74.8612 8.36272C75.0507 8.68838 75.3065 8.94477 75.6302 9.13963C75.9649 9.34104 76.3313 9.42644 76.7214 9.42644Z" fill="white"/>
<path d="M51.1437 48.9123C51.9742 48.8411 52.79 48.7571 53.5904 48.6612C62.0539 47.6461 71.6685 45.0811 76.163 42.0302C79.8678 39.5152 83.0878 35.7528 81.4163 31.5957C80.8333 30.1459 79.6953 28.6823 77.9511 27.2546C76.215 25.8337 77.1198 23.0923 79.224 22.7797C79.9548 22.6711 80.6257 22.8561 81.1958 23.3235C90.0712 30.5994 88.3048 39.9481 79.047 46.2326C73.9729 49.6772 63.6399 52.5426 54.4057 53.6825C53.4817 53.7966 52.5399 53.8954 51.5813 53.9781C50.1539 54.1012 48.9248 53.036 48.8517 51.6132C48.7776 50.1736 49.7721 49.0298 51.1437 48.9123Z" fill="white"/>
<path d="M12.8371 42.349C9.13229 39.834 5.91226 36.0717 7.58386 31.9145C8.16681 30.4647 9.30474 29.0011 11.049 27.5735C12.7851 26.1525 11.8804 23.4112 9.77608 23.0985C9.04532 22.99 8.37446 23.175 7.80432 23.6424C-1.07106 30.9183 0.695281 40.2668 9.9531 46.5515C17.744 51.8404 27.2193 53.383 36.4088 54.3275C35.4836 55.5118 32.8806 57.5251 32.5333 58.8035C31.864 61.268 34.5604 63.0983 36.8894 61.2387C38.2446 60.1567 44.8647 54.8017 45.0788 52.4127C45.2928 50.0236 39.2816 44.9486 37.4766 43.224C35.5916 41.4231 32.7257 41.4373 32.4586 44.1501C32.2534 46.2351 34.7816 47.6726 35.9355 49.1497C27.9542 48.3133 19.5897 46.933 12.8371 42.349Z" fill="white"/>
</svg>
