<svg width="40" height="40" viewBox="0 0 40 40" fill="none" xmlns="http://www.w3.org/2000/svg">
<path d="M12.4273 6.40892C12.6682 6.17746 12.986 6.03472 13.3251 6.00556C13.6642 5.9764 14.0031 6.06267 14.2829 6.24934L14.4865 6.40892L27.5752 19.0073C27.8156 19.2393 27.9639 19.5451 27.9942 19.8715C28.0245 20.1979 27.9349 20.5241 27.741 20.7935L27.5752 20.9894L14.4865 33.5878C14.23 33.8358 13.8863 33.9823 13.5231 33.9985C13.16 34.0147 12.8037 33.8993 12.5244 33.6752C12.2452 33.4511 12.0634 33.1344 12.0147 32.7876C11.966 32.4408 12.0541 32.089 12.2615 31.8016L12.4273 31.6056L24.4892 19.9984L12.4273 8.39106C12.2918 8.26103 12.1844 8.10656 12.1111 7.9365C12.0377 7.76643 12 7.58412 12 7.39999C12 7.21587 12.0377 7.03355 12.1111 6.86349C12.1844 6.69342 12.2918 6.53895 12.4273 6.40892Z" fill="white"/>
</svg>
