<svg width="16" height="16" viewBox="0 0 16 16" fill="none" xmlns="http://www.w3.org/2000/svg">
<path d="M7.33325 12H8.66659V10.6666H7.33325V12ZM7.99992 1.33331C7.12444 1.33331 6.25753 1.50575 5.4487 1.84078C4.63986 2.17581 3.90493 2.66688 3.28587 3.28593C2.03563 4.53618 1.33325 6.23187 1.33325 7.99998C1.33325 9.76809 2.03563 11.4638 3.28587 12.714C3.90493 13.3331 4.63986 13.8241 5.4487 14.1592C6.25753 14.4942 7.12444 14.6666 7.99992 14.6666C9.76803 14.6666 11.4637 13.9643 12.714 12.714C13.9642 11.4638 14.6666 9.76809 14.6666 7.99998C14.6666 7.1245 14.4941 6.25759 14.1591 5.44876C13.8241 4.63992 13.333 3.90499 12.714 3.28593C12.0949 2.66688 11.36 2.17581 10.5511 1.84078C9.7423 1.50575 8.8754 1.33331 7.99992 1.33331ZM7.99992 13.3333C5.05992 13.3333 2.66659 10.94 2.66659 7.99998C2.66659 5.05998 5.05992 2.66665 7.99992 2.66665C10.9399 2.66665 13.3333 5.05998 13.3333 7.99998C13.3333 10.94 10.9399 13.3333 7.99992 13.3333ZM7.99992 3.99998C7.29268 3.99998 6.6144 4.28093 6.1143 4.78103C5.6142 5.28113 5.33325 5.9594 5.33325 6.66665H6.66659C6.66659 6.31302 6.80706 5.97389 7.05711 5.72384C7.30716 5.47379 7.6463 5.33331 7.99992 5.33331C8.35354 5.33331 8.69268 5.47379 8.94273 5.72384C9.19278 5.97389 9.33325 6.31302 9.33325 6.66665C9.33325 7.99998 7.33325 7.83331 7.33325 9.99998H8.66659C8.66659 8.49998 10.6666 8.33331 10.6666 6.66665C10.6666 5.9594 10.3856 5.28113 9.88554 4.78103C9.38544 4.28093 8.70716 3.99998 7.99992 3.99998Z" fill="#C7C7C7"/>
</svg>
