<svg width="45" height="42" viewBox="0 0 45 42" fill="none" xmlns="http://www.w3.org/2000/svg">
<path fill-rule="evenodd" clip-rule="evenodd" d="M25.4658 0.0364115C14.1421 0.755759 -0.524777 4.96908 0.0144461 18.1229C0.553669 29.3241 5.40668 42.7862 19.4265 41.9641C30.7502 41.2448 45.5249 37.0314 44.9857 23.8776C44.4464 12.4708 39.5934 -0.7857 25.4658 0.0364115Z" fill="url(#paint0_linear_28_4450)"/>
<path d="M17.775 9.75H27.225C30.825 9.75 33.75 12.675 33.75 16.275V25.725C33.75 27.4555 33.0625 29.1152 31.8389 30.3389C30.6152 31.5625 28.9555 32.25 27.225 32.25H17.775C14.175 32.25 11.25 29.325 11.25 25.725V16.275C11.25 14.5445 11.9375 12.8848 13.1611 11.6611C14.3848 10.4375 16.0445 9.75 17.775 9.75ZM17.55 12C16.4759 12 15.4457 12.4267 14.6862 13.1862C13.9267 13.9457 13.5 14.9759 13.5 16.05V25.95C13.5 28.1887 15.3112 30 17.55 30H27.45C28.5241 30 29.5543 29.5733 30.3138 28.8138C31.0733 28.0543 31.5 27.0241 31.5 25.95V16.05C31.5 13.8112 29.6887 12 27.45 12H17.55ZM28.4062 13.6875C28.7792 13.6875 29.1369 13.8357 29.4006 14.0994C29.6643 14.3631 29.8125 14.7208 29.8125 15.0938C29.8125 15.4667 29.6643 15.8244 29.4006 16.0881C29.1369 16.3518 28.7792 16.5 28.4062 16.5C28.0333 16.5 27.6756 16.3518 27.4119 16.0881C27.1482 15.8244 27 15.4667 27 15.0938C27 14.7208 27.1482 14.3631 27.4119 14.0994C27.6756 13.8357 28.0333 13.6875 28.4062 13.6875ZM22.5 15.375C23.9918 15.375 25.4226 15.9676 26.4775 17.0225C27.5324 18.0774 28.125 19.5082 28.125 21C28.125 22.4918 27.5324 23.9226 26.4775 24.9775C25.4226 26.0324 23.9918 26.625 22.5 26.625C21.0082 26.625 19.5774 26.0324 18.5225 24.9775C17.4676 23.9226 16.875 22.4918 16.875 21C16.875 19.5082 17.4676 18.0774 18.5225 17.0225C19.5774 15.9676 21.0082 15.375 22.5 15.375ZM22.5 17.625C21.6049 17.625 20.7464 17.9806 20.1135 18.6135C19.4806 19.2464 19.125 20.1049 19.125 21C19.125 21.8951 19.4806 22.7536 20.1135 23.3865C20.7464 24.0194 21.6049 24.375 22.5 24.375C23.3951 24.375 24.2536 24.0194 24.8865 23.3865C25.5194 22.7536 25.875 21.8951 25.875 21C25.875 20.1049 25.5194 19.2464 24.8865 18.6135C24.2536 17.9806 23.3951 17.625 22.5 17.625Z" fill="white"/>
<defs>
<linearGradient id="paint0_linear_28_4450" x1="45.4607" y1="-0.440816" x2="-10.0093" y2="56.5101" gradientUnits="userSpaceOnUse">
<stop stop-color="#FBDB88"/>
<stop offset="0.211765" stop-color="#F9B44B"/>
<stop offset="0.380392" stop-color="#EA5875"/>
<stop offset="0.521569" stop-color="#E3418E"/>
<stop offset="0.741176" stop-color="#7C4A96"/>
<stop offset="1" stop-color="#50559F"/>
</linearGradient>
</defs>
</svg>
