<svg width="45" height="42" viewBox="0 0 45 42" fill="none" xmlns="http://www.w3.org/2000/svg">
<path fill-rule="evenodd" clip-rule="evenodd" d="M25.4658 0.0364115C14.1421 0.755759 -0.524777 4.96908 0.0144461 18.1229C0.553669 29.3241 5.40668 42.7862 19.4265 41.9641C30.7502 41.2448 45.5249 37.0314 44.9857 23.8777C44.4464 12.4709 39.5934 -0.7857 25.4658 0.0364115Z" fill="url(#paint0_linear_28_4445)"/>
<path d="M32.2477 11.6818L12.3014 19.3734C10.9402 19.9202 10.9481 20.6795 12.0517 21.0182L17.1727 22.6157L29.0212 15.14C29.5814 14.7992 30.0933 14.9825 29.6726 15.356L20.0729 24.0197H20.0707L20.0729 24.0208L19.7197 29.2993C20.2372 29.2993 20.4656 29.0619 20.7558 28.7818L23.2432 26.363L28.4171 30.1847C29.3711 30.71 30.0562 30.44 30.2936 29.3015L33.6899 13.295C34.0376 11.9012 33.1578 11.27 32.2477 11.6818Z" fill="white"/>
<defs>
<linearGradient id="paint0_linear_28_4445" x1="4.76554" y1="33.9221" x2="38.9354" y2="6.47103" gradientUnits="userSpaceOnUse">
<stop stop-color="#00497D"/>
<stop offset="1" stop-color="#10BBEE"/>
</linearGradient>
</defs>
</svg>
