<svg width="45" height="42" viewBox="0 0 45 42" fill="none" xmlns="http://www.w3.org/2000/svg">
<path fill-rule="evenodd" clip-rule="evenodd" d="M25.4658 0.0364115C14.1421 0.755759 -0.524777 4.96908 0.0144461 18.1229C0.553669 29.3241 5.40668 42.7862 19.4265 41.9641C30.7502 41.2448 45.5249 37.0314 44.9857 23.8777C44.4464 12.4708 39.5934 -0.7857 25.4658 0.0364115Z" fill="url(#paint0_linear_28_4438)"/>
<path d="M30.7015 18.8706C30.7285 15.6171 27.9577 12.6347 24.5253 12.2218C24.4511 12.2126 24.3772 12.2013 24.3037 12.1881C24.1311 12.1551 23.9562 12.1362 23.7805 12.1318C23.0763 12.1318 22.8884 12.6268 22.8389 12.9205C22.7905 13.2073 22.8367 13.4492 22.975 13.6371C23.2079 13.9532 23.6185 14.0095 23.9482 14.0545C24.0438 14.068 24.1349 14.0803 24.2114 14.0972C27.2962 14.7868 28.3345 15.8702 28.8419 18.9291C28.8543 19.0033 28.8599 19.0956 28.8667 19.1935C28.8892 19.5591 28.9342 20.3196 29.752 20.3196C29.8195 20.3196 29.8938 20.314 29.9703 20.3027C30.7308 20.1868 30.7072 19.4916 30.6959 19.1575C30.6925 19.063 30.6892 18.9741 30.6982 18.9145C30.7 18.8995 30.7007 18.8845 30.7004 18.8695L30.7015 18.8706Z" fill="white"/>
<path d="M23.5803 11.028C23.6725 11.0347 23.758 11.0415 23.83 11.0516C28.8959 11.8312 31.2258 14.2309 31.8704 19.3361C31.8816 19.4227 31.8839 19.5285 31.885 19.6399C31.8918 20.0393 31.9053 20.8695 32.7963 20.8864H32.8233C33.1034 20.8864 33.325 20.802 33.4848 20.6355C33.7615 20.3464 33.7435 19.9155 33.7266 19.569C33.7233 19.4835 33.7199 19.4036 33.7199 19.3327C33.7851 14.1127 29.2649 9.37763 24.0494 9.20212C24.0269 9.20212 24.0066 9.20213 23.9864 9.2055C23.9659 9.20809 23.9452 9.20922 23.9245 9.20887C23.8716 9.20887 23.8086 9.20438 23.74 9.19987C23.659 9.19425 23.5656 9.1875 23.47 9.1875C22.6398 9.1875 22.4823 9.77812 22.462 10.1302C22.4159 10.9436 23.2023 11.001 23.5803 11.028ZM31.6263 25.9342C31.5176 25.8516 31.4099 25.7676 31.3034 25.6822C30.7499 25.2367 30.1615 24.8272 29.5934 24.4301L29.239 24.1826C28.51 23.6708 27.8553 23.4221 27.2365 23.4221C26.4018 23.4221 25.675 23.8834 25.0743 24.7913C24.8088 25.194 24.4859 25.3898 24.0888 25.3898C23.8129 25.3801 23.5423 25.3123 23.2945 25.1906C20.9433 24.1241 19.2625 22.4884 18.3018 20.3295C17.8371 19.2855 17.9879 18.6038 18.8046 18.048C19.2693 17.733 20.1321 17.1469 20.0725 16.023C20.0028 14.7484 17.1891 10.911 16.0034 10.4756C15.4965 10.2907 14.9408 10.2891 14.4329 10.4711C13.0705 10.929 12.094 11.7345 11.6046 12.7976C11.1321 13.8259 11.1546 15.033 11.6654 16.2885C13.1448 19.9189 15.2238 23.0846 17.8461 25.6969C20.4123 28.254 23.5668 30.3476 27.2208 31.9215C27.5504 32.0632 27.8958 32.1409 28.1489 32.1971C28.2344 32.2162 28.3086 32.2331 28.3626 32.2477C28.3924 32.2558 28.423 32.2599 28.4538 32.2601H28.483C30.202 32.2601 32.2664 30.6896 32.8998 28.8997C33.4555 27.3315 32.4408 26.5564 31.6263 25.9342ZM24.3408 15.1759C24.0471 15.1826 23.434 15.1984 23.2191 15.8216C23.1179 16.1141 23.1303 16.3661 23.2551 16.5743C23.4374 16.878 23.7873 16.9725 24.1045 17.0243C25.2576 17.2087 25.8505 17.8455 25.9686 19.0301C26.0238 19.5814 26.3961 19.9672 26.872 19.9672C26.9081 19.9672 26.9442 19.9649 26.98 19.9605C27.5538 19.893 27.8316 19.4711 27.8069 18.7072C27.8159 17.9107 27.3996 17.0062 26.6898 16.2863C25.9788 15.564 25.1215 15.1567 24.3408 15.1759Z" fill="white"/>
<defs>
<linearGradient id="paint0_linear_28_4438" x1="4.76554" y1="33.9221" x2="38.9622" y2="6.4701" gradientUnits="userSpaceOnUse">
<stop stop-color="#420170"/>
<stop offset="1" stop-color="#9F65CB"/>
</linearGradient>
</defs>
</svg>
