<svg width="40" height="40" viewBox="0 0 40 40" fill="none" xmlns="http://www.w3.org/2000/svg">
<path d="M14.5527 35.7324C14.8504 35.7324 15.0654 35.5183 15.115 35.2056C15.6442 30.8094 15.8592 30.6941 20.3576 29.9696C20.705 29.9038 20.9199 29.7391 20.9199 29.4099C20.9199 29.097 20.705 28.8994 20.4238 28.85C15.8923 27.9939 15.6442 28.0104 15.115 23.6142C15.0654 23.3013 14.8504 23.0873 14.5527 23.0873C14.2384 23.0873 14.0234 23.3013 13.9904 23.5978C13.4115 28.0597 13.2627 28.2079 8.68153 28.85C8.40038 28.883 8.18537 29.097 8.18537 29.4099C8.18537 29.7226 8.40038 29.9038 8.68153 29.9696C13.2627 30.8423 13.395 30.8423 13.9904 35.2384C14.0234 35.5183 14.2384 35.7324 14.5527 35.7324ZM6.69691 21.3913C6.92845 21.3913 7.06076 21.2268 7.11037 21.0127C7.67268 17.8844 7.68922 17.6867 11.0134 17.127C11.2284 17.0775 11.3938 16.9459 11.3938 16.7153C11.3938 16.4848 11.2284 16.3367 11.0134 16.3037C7.68922 15.7274 7.67268 15.5299 7.11037 12.4015C7.06076 12.1875 6.92845 12.0393 6.69691 12.0393C6.46537 12.0393 6.33306 12.1875 6.28346 12.4015C5.72115 15.5299 5.70461 15.7274 2.38038 16.3037C2.16538 16.3367 2 16.4848 2 16.7153C2 16.9459 2.16538 17.0775 2.38038 17.127C5.70461 17.6867 5.72115 17.8844 6.28346 21.0127C6.33306 21.2268 6.46537 21.3913 6.69691 21.3913ZM15.76 10.8538C15.9584 10.8538 16.0577 10.7385 16.0907 10.5574C16.653 7.92304 16.62 7.82424 19.3984 7.26444C19.5803 7.23151 19.7127 7.11625 19.7127 6.93513C19.7127 6.73756 19.5803 6.62229 19.3984 6.58937C16.62 6.02956 16.653 5.93077 16.0907 3.31283C16.0577 3.13172 15.9584 3 15.76 3C15.5615 3 15.4623 3.13172 15.4292 3.31283C14.8669 5.93077 14.9 6.02956 12.1215 6.58937C11.9396 6.62229 11.8073 6.73756 11.8073 6.93513C11.8073 7.11625 11.9396 7.23151 12.1215 7.26444C14.9 7.82424 14.8669 7.92304 15.4292 10.5574C15.4623 10.7385 15.5615 10.8538 15.76 10.8538ZM29.4207 16.6659C29.6523 16.6659 29.7846 16.5178 29.8342 16.3037C30.3965 13.1754 30.413 12.9778 33.7373 12.4015C33.9687 12.3686 34.1176 12.2204 34.1176 11.9899C34.1176 11.7594 33.9687 11.6277 33.7373 11.5783C30.413 11.0185 30.3965 10.8209 29.8342 7.69252C29.7846 7.47848 29.6523 7.31383 29.4207 7.31383C29.1891 7.31383 29.0569 7.47848 29.0072 7.69252C28.445 10.8209 28.4285 11.0185 25.1042 11.5783C24.8893 11.6277 24.7239 11.7594 24.7239 11.9899C24.7239 12.2204 24.8893 12.3686 25.1042 12.4015C28.4285 12.9778 28.445 13.1754 29.0072 16.3037C29.0569 16.5178 29.1891 16.6659 29.4207 16.6659ZM34.9446 35.469C35.6391 36.177 36.8299 36.177 37.4914 35.469C38.1695 34.7446 38.1695 33.6249 37.4914 32.9334L21.7634 17.2258C21.0688 16.5342 19.8781 16.5342 19.2165 17.2258C18.5218 17.9502 18.5385 19.0863 19.2165 19.7778L34.9446 35.469ZM35.5234 34.3329L25.3191 24.1575L26.1461 23.3672L36.3503 33.5426C36.648 33.8225 36.7142 34.1518 36.4496 34.4481C36.1518 34.6951 35.8377 34.6457 35.5234 34.3329Z" fill="black"/>
</svg>
