<svg width="40" height="40" viewBox="0 0 40 40" fill="none" xmlns="http://www.w3.org/2000/svg">
<path d="M25.1817 29.5234C29.1694 27.8545 25.4154 21.4567 22.2019 18.2067C18.8423 14.8687 12.8388 11.0183 10.9107 15.2347L2.24878 34.4718C1.28472 36.6239 3.28588 38.6882 5.4477 37.7804L25.1817 29.5234ZM4.08926 35.2624L11.3781 19.0557C12.1085 20.915 13.5838 23.0232 15.4827 24.9411C17.3524 26.8004 19.3974 28.2497 21.2232 28.9964L4.67354 35.8919C4.1769 36.0969 3.85555 35.7895 4.08926 35.2624ZM12.9703 15.6739C13.9344 14.693 17.2648 16.1277 20.7558 19.656C24.2907 23.155 25.693 26.5076 24.7289 27.4592C23.7503 28.4547 20.4199 27.0199 16.9142 23.4917C13.4085 19.9927 11.9916 16.6402 12.9703 15.6739ZM15.1175 5.20619C15.9939 5.20619 16.7243 4.48883 16.7243 3.59577C16.7243 2.71737 15.9939 2 15.1175 2C14.2119 2 13.5108 2.71737 13.5108 3.59577C13.5108 4.48883 14.2119 5.20619 15.1175 5.20619ZM17.0457 7.94389C16.9433 7.40221 16.5928 6.94837 16.0232 6.94837C15.4827 6.96301 14.9277 7.41685 15.0445 8.00246C15.7019 11.4429 15.7019 14.9858 15.0445 18.4848C14.913 19.0557 15.4827 19.4949 16.0085 19.5096C16.5637 19.5096 16.9288 19.0704 17.0311 18.5287C17.7175 14.9565 17.7175 11.4722 17.0457 7.94389ZM24.1447 7.73893C25.6784 7.73893 26.8907 6.50917 26.8907 4.98658C26.8907 3.43474 25.6784 2.23424 24.1447 2.23424C22.6109 2.23424 21.3986 3.43474 21.3986 4.98658C21.3986 6.50917 22.6109 7.73893 24.1447 7.73893ZM21.3693 12.3506C22.085 12.3506 22.6548 11.765 22.6548 11.0476C22.6548 10.3449 22.085 9.75927 21.3693 9.75927C20.6681 9.75927 20.0693 10.3449 20.0693 11.0476C20.0693 11.765 20.6681 12.3506 21.3693 12.3506ZM36.064 6.04068C36.7651 6.04068 37.3347 5.46971 37.3347 4.75234C37.3347 4.03498 36.7651 3.44938 36.064 3.44938C35.3482 3.44938 34.7785 4.03498 34.7785 4.75234C34.7785 5.46971 35.3482 6.04068 36.064 6.04068ZM31.8426 6.99228L29.1111 9.72999C28.7313 10.1253 28.7313 10.7694 29.1111 11.1647C29.52 11.56 30.1627 11.56 30.5571 11.1647L33.2886 8.44166C33.6684 8.04637 33.6684 7.38757 33.2886 6.99228C32.8942 6.61165 32.2369 6.61165 31.8426 6.99228ZM26.4233 12.4384L18.9738 19.8902C18.594 20.2855 18.594 20.9444 18.9738 21.3397C19.3682 21.7203 20.0255 21.7203 20.4199 21.3397L27.8549 13.8732C28.22 13.4925 28.22 12.8483 27.8549 12.4384C27.4458 12.0724 26.8031 12.0724 26.4233 12.4384ZM37.3932 19.1729C38.2842 19.1729 39 18.4555 39 17.5478C39 16.6694 38.2842 15.9521 37.3932 15.9521C36.4875 15.9521 35.7864 16.6694 35.7864 17.5478C35.7864 18.4555 36.4875 19.1729 37.3932 19.1729ZM31.1121 19.7732C32.4122 19.7732 33.4493 18.763 33.4493 17.46C33.4493 16.1717 32.4122 15.1322 31.1121 15.1322C29.8268 15.1322 28.8189 16.1717 28.8189 17.46C28.8189 18.763 29.8268 19.7732 31.1121 19.7732ZM36.8381 26.6686C37.7291 26.6686 38.4448 25.9659 38.4448 25.0582C38.4448 24.1652 37.7291 23.4478 36.8381 23.4478C35.947 23.4478 35.2313 24.1652 35.2313 25.0582C35.2313 25.9659 35.947 26.6686 36.8381 26.6686ZM32.383 23.2721C28.8481 22.5987 25.3863 22.5987 21.8075 23.2721C21.2817 23.3892 20.8288 23.7553 20.8435 24.297C20.8435 24.8385 21.2817 25.4096 21.866 25.2924C25.357 24.6337 28.8774 24.619 32.3246 25.2778C32.8796 25.395 33.347 24.8533 33.3616 24.297C33.3762 23.7259 32.9088 23.3746 32.383 23.2721Z" fill="black"/>
</svg>
