<svg width="40" height="40" viewBox="0 0 40 40" fill="none" xmlns="http://www.w3.org/2000/svg">
<path d="M16.0965 30.5847H27.0671V28.6138H16.0965V30.5847ZM27.1152 16.6049H31.2533C31.8667 16.6049 32.2998 16.715 32.793 17.266L36.5701 21.5872C36.895 21.9545 37.0633 22.4686 37.0633 22.9092V27.2304C37.0633 28.1486 36.5942 28.6138 35.692 28.6138H33.7554V30.5847H35.7281C37.8693 30.5847 39 29.4462 39 27.2672V22.946C39 21.7463 38.8075 21.1832 38.146 20.4242L34.056 15.7235C33.3463 14.9156 32.5524 14.634 31.3735 14.634H27.1152V16.6049ZM12.8968 34C15.1583 34 16.9987 32.1271 16.9987 29.8134C16.9987 27.5121 15.1583 25.6391 12.8968 25.6391C10.6233 25.6391 8.77082 27.5121 8.77082 29.8134C8.77082 32.1271 10.6233 34 12.8968 34ZM12.8968 32.3352C11.5255 32.3352 10.4068 31.2089 10.4068 29.8134C10.4068 28.4302 11.5255 27.2917 12.8968 27.2917C14.2561 27.2917 15.3628 28.4302 15.3628 29.8134C15.3628 31.2089 14.2561 32.3352 12.8968 32.3352ZM30.2308 34C32.5043 34 34.3328 32.1271 34.3328 29.8134C34.3328 27.5121 32.5043 25.6391 30.2308 25.6391C27.9573 25.6391 26.1169 27.5121 26.1169 29.8134C26.1169 32.1271 27.9573 34 30.2308 34ZM30.2308 32.3352C28.8715 32.3352 27.7528 31.2089 27.7528 29.8134C27.7528 28.4302 28.8715 27.2917 30.2308 27.2917C31.5781 27.2917 32.6968 28.4302 32.6968 29.8134C32.6968 31.2089 31.6021 32.3352 30.2308 32.3352ZM3.97119 27.2672C3.97119 29.4462 5.08991 30.5847 7.24312 30.5847H9.8775V28.6138H7.26718C6.36499 28.6138 5.90789 28.1486 5.90789 27.2304V18.9797C5.22222 18.8941 4.58468 18.7104 3.97119 18.4411V27.2672ZM24.9019 7.87675H14.1117C14.4005 8.50106 14.5929 9.14986 14.7012 9.84761H24.8658C25.756 9.84761 26.2371 10.325 26.2371 11.2431V29.1891L28.1739 28.4792V11.2064C28.1739 9.02744 27.0431 7.87675 24.9019 7.87675ZM30.4233 23.0562H35.6679C35.6679 22.7624 35.5597 22.6033 35.3793 22.3951L31.7946 18.2943C31.53 18.0126 31.2172 17.829 30.8804 17.829H29.3887V22.0157C29.3887 22.6645 29.7857 23.0562 30.4233 23.0562ZM7.11079 17.4373C10.4188 17.4373 13.2215 14.6218 13.2215 11.2187C13.2215 7.80329 10.4669 5 7.11079 5C3.7667 5 1 7.81553 1 11.2187C1 14.6463 3.7667 17.4373 7.11079 17.4373ZM4.25989 12.1735C3.83887 12.1735 3.51409 11.8307 3.51409 11.4145C3.51409 11.0106 3.8509 10.6678 4.25989 10.6678H6.42514V7.60743C6.42514 7.19123 6.76195 6.87294 7.17095 6.87294C7.57994 6.87294 7.91675 7.19123 7.91675 7.60743V11.4145C7.91675 11.843 7.59197 12.1735 7.17095 12.1735H4.25989Z" fill="black"/>
</svg>
