<svg width="1440" height="1574" viewBox="0 0 1440 1574" fill="none" xmlns="http://www.w3.org/2000/svg">
<g filter="url(#filter0_d_8_1091)">
<path fill-rule="evenodd" clip-rule="evenodd" d="M-189.1 804.311C-143.437 1430.45 158.547 1552.31 741.07 1482.49C1224.76 1424.51 1672.9 1338.45 1629.02 742.468C1583.14 119.238 1287.9 -5.44338 705.546 62.6226C221.208 119.231 -232.649 207.173 -189.1 804.311Z" fill="white"/>
<path d="M741.01 1481.99C449.761 1516.9 228.794 1503.86 74.9347 1403.96C-78.8902 1304.08 -165.774 1117.28 -188.601 804.275C-199.484 655.053 -179.289 537.684 -135.342 444.679C-91.3963 351.678 -23.6842 283.003 60.5275 231.194C228.982 127.557 463.419 91.4255 705.604 63.1192C996.769 29.0877 1216.01 43.2663 1368.19 143.726C1520.34 244.165 1605.59 430.948 1628.53 742.505C1639.49 891.437 1619.71 1008.47 1576.36 1101.16C1533 1193.84 1466.06 1262.22 1382.62 1313.8C1215.72 1417 982.875 1453 741.01 1481.99Z" stroke="#E4E4E5" stroke-opacity="0.5"/>
</g>
<defs>
<filter id="filter0_d_8_1091" x="-252" y="0" width="1944" height="1574" filterUnits="userSpaceOnUse" color-interpolation-filters="sRGB">
<feFlood flood-opacity="0" result="BackgroundImageFix"/>
<feColorMatrix in="SourceAlpha" type="matrix" values="0 0 0 0 0 0 0 0 0 0 0 0 0 0 0 0 0 0 127 0" result="hardAlpha"/>
<feOffset dy="14"/>
<feGaussianBlur stdDeviation="30"/>
<feComposite in2="hardAlpha" operator="out"/>
<feColorMatrix type="matrix" values="0 0 0 0 0 0 0 0 0 0 0 0 0 0 0 0 0 0 0.1 0"/>
<feBlend mode="normal" in2="BackgroundImageFix" result="effect1_dropShadow_8_1091"/>
<feBlend mode="normal" in="SourceGraphic" in2="effect1_dropShadow_8_1091" result="shape"/>
</filter>
</defs>
</svg>
