<svg width="40" height="40" viewBox="0 0 40 40" fill="none" xmlns="http://www.w3.org/2000/svg">
<path d="M18.3335 30.0002H21.6668V26.6668H18.3335V30.0002ZM20.0002 3.3335C17.8115 3.3335 15.6442 3.76459 13.6221 4.60217C11.6 5.43975 9.76269 6.66741 8.21505 8.21505C5.08944 11.3407 3.3335 15.5799 3.3335 20.0002C3.3335 24.4204 5.08944 28.6597 8.21505 31.7853C9.76269 33.3329 11.6 34.5606 13.6221 35.3982C15.6442 36.2357 17.8115 36.6668 20.0002 36.6668C24.4204 36.6668 28.6597 34.9109 31.7853 31.7853C34.9109 28.6597 36.6668 24.4204 36.6668 20.0002C36.6668 17.8115 36.2357 15.6442 35.3982 13.6221C34.5606 11.6 33.3329 9.76269 31.7853 8.21505C30.2376 6.66741 28.4003 5.43975 26.3782 4.60217C24.3561 3.76459 22.1889 3.3335 20.0002 3.3335ZM20.0002 33.3335C12.6502 33.3335 6.66683 27.3502 6.66683 20.0002C6.66683 12.6502 12.6502 6.66683 20.0002 6.66683C27.3502 6.66683 33.3335 12.6502 33.3335 20.0002C33.3335 27.3502 27.3502 33.3335 20.0002 33.3335ZM20.0002 10.0002C18.2321 10.0002 16.5364 10.7025 15.2861 11.9528C14.0359 13.203 13.3335 14.8987 13.3335 16.6668H16.6668C16.6668 15.7828 17.018 14.9349 17.6431 14.3098C18.2683 13.6847 19.1161 13.3335 20.0002 13.3335C20.8842 13.3335 21.7321 13.6847 22.3572 14.3098C22.9823 14.9349 23.3335 15.7828 23.3335 16.6668C23.3335 20.0002 18.3335 19.5835 18.3335 25.0002H21.6668C21.6668 21.2502 26.6668 20.8335 26.6668 16.6668C26.6668 14.8987 25.9645 13.203 24.7142 11.9528C23.464 10.7025 21.7683 10.0002 20.0002 10.0002Z" fill="black"/>
</svg>
