<svg width="15" height="15" viewBox="0 0 15 15" fill="none" xmlns="http://www.w3.org/2000/svg">
<path d="M7.5 15C11.603 15 15 11.5956 15 7.5C15 3.39706 11.5956 0 7.49266 0C3.39706 0 0 3.39706 0 7.5C0 11.5956 3.40442 15 7.5 15ZM7.5 13.7501C4.02942 13.7501 1.25736 10.9706 1.25736 7.5C1.25736 4.02942 4.02207 1.25 7.49266 1.25C10.9633 1.25 13.7501 4.02942 13.7501 7.5C13.7501 10.9706 10.9706 13.7501 7.5 13.7501ZM2.55883 6.75001C2.55883 7.96325 3.41913 8.82355 4.62501 8.82355H4.87501C4.83089 8.62502 4.80883 8.26474 4.83825 8.02944H4.67648C3.91912 8.02944 3.39706 7.51474 3.39706 6.75001C3.39706 5.99266 3.91912 5.46325 4.67648 5.46325H7.63239C8.38973 5.46325 8.91177 5.99266 8.91177 6.75001C8.91177 7.51474 8.39707 8.02944 7.63239 8.02944H6.52939C6.44852 8.24999 6.47794 8.61034 6.69855 8.82355H7.6765C8.88234 8.82355 9.74264 7.96325 9.74264 6.75001C9.74264 5.53678 8.88234 4.66913 7.6765 4.66913H4.62501C3.41913 4.66913 2.55883 5.53678 2.55883 6.75001ZM5.24266 8.30885C5.24266 9.52209 6.10295 10.3897 7.31622 10.3897H10.3603C11.5662 10.3897 12.4338 9.52209 12.4338 8.30885C12.4338 7.09561 11.5735 6.23531 10.3603 6.23531H10.1103C10.1471 6.44852 10.1912 6.68381 10.1471 7.02941H10.3162C11.0735 7.02941 11.5956 7.55151 11.5956 8.30885C11.5956 9.06618 11.0735 9.59563 10.3162 9.59563H7.35299C6.59559 9.59563 6.07354 9.06618 6.07354 8.30885C6.07354 7.55151 6.59559 7.02941 7.35299 7.02941H8.44852C8.54414 6.8162 8.51472 6.43383 8.28676 6.23531H7.31622C6.10295 6.23531 5.24266 7.09561 5.24266 8.30885Z" fill="black"/>
</svg>
