<svg width="15" height="14" viewBox="0 0 15 14" fill="none" xmlns="http://www.w3.org/2000/svg">
<path d="M6.66699 10.4998H7.83366V9.33317H6.66699V10.4998ZM7.25033 1.1665C6.48428 1.1665 5.72574 1.31739 5.01801 1.61054C4.31027 1.90369 3.66721 2.33337 3.12554 2.87505C2.03157 3.96901 1.41699 5.45274 1.41699 6.99984C1.41699 8.54693 2.03157 10.0307 3.12554 11.1246C3.66721 11.6663 4.31027 12.096 5.01801 12.3891C5.72574 12.6823 6.48428 12.8332 7.25033 12.8332C8.79742 12.8332 10.2812 12.2186 11.3751 11.1246C12.4691 10.0307 13.0837 8.54693 13.0837 6.99984C13.0837 6.23379 12.9328 5.47525 12.6396 4.76752C12.3465 4.05978 11.9168 3.41672 11.3751 2.87505C10.8334 2.33337 10.1904 1.90369 9.48265 1.61054C8.77491 1.31739 8.01637 1.1665 7.25033 1.1665ZM7.25033 11.6665C4.67783 11.6665 2.58366 9.57234 2.58366 6.99984C2.58366 4.42734 4.67783 2.33317 7.25033 2.33317C9.82283 2.33317 11.917 4.42734 11.917 6.99984C11.917 9.57234 9.82283 11.6665 7.25033 11.6665ZM7.25033 3.49984C6.63149 3.49984 6.03799 3.74567 5.60041 4.18325C5.16282 4.62084 4.91699 5.21433 4.91699 5.83317H6.08366C6.08366 5.52375 6.20658 5.22701 6.42537 5.00821C6.64416 4.78942 6.94091 4.6665 7.25033 4.6665C7.55975 4.6665 7.85649 4.78942 8.07528 5.00821C8.29408 5.22701 8.41699 5.52375 8.41699 5.83317C8.41699 6.99984 6.66699 6.854 6.66699 8.74984H7.83366C7.83366 7.43734 9.58366 7.2915 9.58366 5.83317C9.58366 5.21433 9.33783 4.62084 8.90024 4.18325C8.46266 3.74567 7.86916 3.49984 7.25033 3.49984Z" fill="url(#paint0_linear_58_9307)"/>
<defs>
<linearGradient id="paint0_linear_58_9307" x1="1.90719" y1="9.61001" x2="11.2115" y2="2.64788" gradientUnits="userSpaceOnUse">
<stop stop-color="#7D0000"/>
<stop offset="0.439216" stop-color="#BE0000"/>
<stop offset="1" stop-color="#FF0000"/>
</linearGradient>
</defs>
</svg>
