<svg width="24" height="17" viewBox="0 0 24 17" fill="none" xmlns="http://www.w3.org/2000/svg">
<path d="M9.26562 16.1602C9.72034 16.1602 10.6395 15.6226 11.0212 15.1991C11.608 14.548 11.9014 14.2225 11.9031 14.2207C11.9048 14.2188 10.7955 15.4246 11.2392 14.9423L23.0793 2.07244C23.1472 1.99855 23.1812 1.96161 23.2176 1.91051C23.254 1.85941 23.2699 1.82974 23.3018 1.77041C23.443 1.50767 23.5 1.29111 23.5 1.06641C23.5 0.42187 23.0781 0 22.4336 0C22.0265 0 21.7785 0.114877 21.5362 0.436715C21.4385 0.566465 21.3896 0.63134 21.3715 0.652782C21.3534 0.674224 21.3328 0.695942 21.2917 0.73938L10.6589 11.9779C9.98277 12.6925 9.64472 13.0498 9.21679 13.0517C8.78886 13.0536 8.44769 12.6992 7.76534 11.9905L2.23444 6.24618C2.20328 6.21381 2.1877 6.19763 2.17393 6.18208C2.16016 6.16654 2.12145 6.11901 2.04405 6.02395C1.77944 5.69901 1.50434 5.56642 1.125 5.56642C0.457031 5.56642 0 6.02342 0 6.66792C0 6.93752 0.117188 7.24222 0.339844 7.52342L8.04688 15.4805C8.39844 15.9375 8.76172 16.1602 9.26562 16.1602Z" fill="url(#paint0_linear_58_9268)"/>
<defs>
<linearGradient id="paint0_linear_58_9268" x1="-2.05625" y1="21.547" x2="28.247" y2="20.0184" gradientUnits="userSpaceOnUse">
<stop stop-color="#730000"/>
<stop offset="1" stop-color="#FF0000"/>
</linearGradient>
</defs>
</svg>
