<svg width="30" height="30" viewBox="0 0 30 30" fill="none" xmlns="http://www.w3.org/2000/svg">
<path d="M20.6796 4.80669C20.4988 4.6331 20.2605 4.52604 20.0062 4.50417C19.7519 4.4823 19.4977 4.547 19.2878 4.68701L19.1351 4.80669L9.31863 14.2555C9.13827 14.4294 9.02705 14.6588 9.00433 14.9036C8.98161 15.1484 9.04883 15.3931 9.19428 15.5951L9.31863 15.7421L19.1351 25.1908C19.3275 25.3768 19.5853 25.4867 19.8576 25.4989C20.13 25.511 20.3973 25.4245 20.6067 25.2564C20.8161 25.0883 20.9525 24.8508 20.989 24.5907C21.0255 24.3306 20.9595 24.0668 20.8039 23.8512L20.6796 23.7042L11.6331 14.9988L20.6796 6.2933C20.7811 6.19577 20.8617 6.07992 20.9167 5.95237C20.9717 5.82482 21 5.68809 21 5.54999C21 5.4119 20.9717 5.27516 20.9167 5.14762C20.8617 5.02007 20.7811 4.90421 20.6796 4.80669Z" fill="#A8A8A8"/>
</svg>
