<svg width="30" height="30" viewBox="0 0 30 30" fill="none" xmlns="http://www.w3.org/2000/svg">
<path d="M9.32044 4.80669C9.50118 4.6331 9.73947 4.52604 9.99379 4.50417C10.2481 4.4823 10.5023 4.547 10.7122 4.68701L10.8649 4.80669L20.6814 14.2555C20.8617 14.4294 20.9729 14.6588 20.9957 14.9036C21.0184 15.1484 20.9512 15.3931 20.8057 15.5951L20.6814 15.7421L10.8649 25.1908C10.6725 25.3768 10.4147 25.4867 10.1424 25.4989C9.86997 25.511 9.60274 25.4245 9.39334 25.2564C9.18393 25.0883 9.04753 24.8508 9.01102 24.5907C8.97451 24.3306 9.04054 24.0668 9.1961 23.8512L9.32044 23.7042L18.3669 14.9988L9.32044 6.2933C9.21886 6.19577 9.13828 6.07992 9.08329 5.95237C9.0283 5.82482 9 5.68809 9 5.54999C9 5.4119 9.0283 5.27516 9.08329 5.14762C9.13828 5.02007 9.21886 4.90421 9.32044 4.80669Z" fill="black"/>
</svg>
