<svg width="12" height="22" viewBox="0 0 12 22" fill="none" xmlns="http://www.w3.org/2000/svg">
<path d="M0.320439 0.806691C0.501184 0.633095 0.739473 0.526037 0.993794 0.504167C1.24811 0.482296 1.50234 0.547001 1.7122 0.687007L1.8649 0.806691L11.6814 10.2555C11.8617 10.4294 11.9729 10.6588 11.9957 10.9036C12.0184 11.1484 11.9512 11.3931 11.8057 11.5951L11.6814 11.7421L1.8649 21.1908C1.67252 21.3768 1.41474 21.4867 1.14235 21.4989C0.869972 21.511 0.602744 21.4245 0.393337 21.2564C0.18393 21.0883 0.0475316 20.8508 0.0110229 20.5907C-0.0254858 20.3306 0.0405437 20.0668 0.196098 19.8512L0.320439 19.7042L9.36687 10.9988L0.320439 2.2933C0.218864 2.19577 0.138275 2.07992 0.0832892 1.95237C0.0283028 1.82482 0 1.68809 0 1.54999C0 1.4119 0.0283028 1.27516 0.0832892 1.14762C0.138275 1.02007 0.218864 0.904214 0.320439 0.806691Z" fill="black"/>
</svg>
