<svg width="12" height="22" viewBox="0 0 12 22" fill="none" xmlns="http://www.w3.org/2000/svg">
<path d="M11.6796 0.806691C11.4988 0.633095 11.2605 0.526037 11.0062 0.504167C10.7519 0.482296 10.4977 0.547001 10.2878 0.687007L10.1351 0.806691L0.318625 10.2555C0.138274 10.4294 0.0270507 10.6588 0.00432935 10.9036C-0.0183921 11.1484 0.0488285 11.3931 0.194283 11.5951L0.318625 11.7421L10.1351 21.1908C10.3275 21.3768 10.5853 21.4867 10.8576 21.4989C11.13 21.511 11.3973 21.4245 11.6067 21.2564C11.8161 21.0883 11.9525 20.8508 11.989 20.5907C12.0255 20.3306 11.9595 20.0668 11.8039 19.8512L11.6796 19.7042L2.63313 10.9988L11.6796 2.2933C11.7811 2.19577 11.8617 2.07992 11.9167 1.95237C11.9717 1.82482 12 1.68809 12 1.54999C12 1.4119 11.9717 1.27516 11.9167 1.14762C11.8617 1.02007 11.7811 0.904214 11.6796 0.806691Z" fill="#A8A8A8"/>
</svg>
